<svg xmlns="http://www.w3.org/2000/svg" width="917.186" height="356.094" viewBox="0 0 917.186 356.094">
  <g id="Layer_1" data-name="Layer 1" transform="translate(0 0)">
    <path id="Path_272" data-name="Path 272" d="M932.708,424.093l.733-38.828v-25.02a18.372,18.372,0,1,0-24.023-13.173H871.543l1.169-6.417c.07-.4,7.494-39.674,32.4-49.372h38.974V231.05H823.631v26.135H785.19v10.9H687.136V257.358H654.384V248.2l-6.465-2.274c-20.963-7.354-66.645-8.243-68.579-8.275l-9.865-.172v30.171l2.328,2.721a15.263,15.263,0,0,1,1.051,1.433H528.191a13.812,13.812,0,0,1,1.078-1.465l2.3-2.694V237.472l-9.87.178c-1.913.032-47.179.921-67.97,8.286l-6.465,2.284v9.159H414.8V268.09H316.749v-10.9H278.33V231.05H157.863v60.233h38.974c17.617,6.858,26.475,28.506,30.171,40.73H188.3A18.377,18.377,0,1,0,177.9,360.805v11.249l-8.485,52.039H94.86V577.737h96.233v-25.79h17.138l17.305,3.459H367.074v-.178h17.714v8.378h31.248v10.84h7.187c.145,1.174.264,2.43.334,3.577l.56,9.121H531.552V556.294l-1.385-2.3a102.5,102.5,0,0,1-5.522-10.673h51.721a53.787,53.787,0,0,1-4.946,9.159L569.643,555v32.148H633.8V552.749h51.813l50.029,2.478h141.4l10.9-1.379h124.1V424.093Z" transform="translate(-94.86 -231.05)" fill="#fff"/>
    <path id="Path_273" data-name="Path 273" d="M424.757,483.35v43.494H350.15l-25.92-24.33,11.793-19.164Z" transform="translate(-201.193 -347.421)" fill="none" stroke="#494949" stroke-miterlimit="10" stroke-width="0.25"/>
    <path id="Path_274" data-name="Path 274" d="M448.76,567.94v43.5H418.644l-42.374-43.5Z" transform="translate(-225.196 -386.437)" fill="none" stroke="#494949" stroke-miterlimit="10" stroke-width="0.25"/>
    <rect id="Rectangle_246" data-name="Rectangle 246" width="48.462" height="43.494" transform="translate(225.638 135.929)" fill="none" stroke="#494949" stroke-miterlimit="10" stroke-width="0.25"/>
    <rect id="Rectangle_247" data-name="Rectangle 247" width="48.462" height="43.505" transform="translate(225.638 181.503)" fill="none" stroke="#494949" stroke-miterlimit="10" stroke-width="0.25"/>
    <path id="Path_275" data-name="Path 275" d="M686.877,483.35a155.369,155.369,0,0,0-7.936,43.494H607.48V483.35Z" transform="translate(-331.301 -347.421)" fill="none" stroke="#494949" stroke-miterlimit="10" stroke-width="0.25"/>
    <path id="Path_276" data-name="Path 276" d="M686.877,611.445h-79.4v-43.5h71.461A155.5,155.5,0,0,0,686.877,611.445Z" transform="translate(-331.301 -386.437)" fill="none" stroke="#494949" stroke-miterlimit="10" stroke-width="0.25"/>
    <path id="Path_277" data-name="Path 277" d="M1473.043,502.514l-25.925,24.33H1372.57V483.35h88.675Z" transform="translate(-684.729 -347.421)" fill="none" stroke="#494949" stroke-miterlimit="10" stroke-width="0.25"/>
    <path id="Path_278" data-name="Path 278" d="M1445,567.94l-42.384,43.5H1372.57v-43.5Z" transform="translate(-684.729 -386.437)" fill="none" stroke="#494949" stroke-miterlimit="10" stroke-width="0.25"/>
    <rect id="Rectangle_248" data-name="Rectangle 248" width="48.532" height="43.494" transform="translate(637.23 135.929)" fill="none" stroke="#494949" stroke-miterlimit="10" stroke-width="0.25"/>
    <rect id="Rectangle_249" data-name="Rectangle 249" width="48.532" height="43.505" transform="translate(637.23 181.503)" fill="none" stroke="#494949" stroke-miterlimit="10" stroke-width="0.25"/>
    <path id="Path_279" data-name="Path 279" d="M1205.816,483.35v43.494h-71.45a155.367,155.367,0,0,0-7.936-43.494Z" transform="translate(-570.661 -347.421)" fill="none" stroke="#494949" stroke-miterlimit="10" stroke-width="0.25"/>
    <path id="Path_280" data-name="Path 280" d="M1205.816,567.94v43.5H1126.43a155.5,155.5,0,0,0,7.936-43.5Z" transform="translate(-570.661 -386.437)" fill="none" stroke="#494949" stroke-miterlimit="10" stroke-width="0.25"/>
    <rect id="Rectangle_250" data-name="Rectangle 250" width="41.425" height="18.808" transform="translate(513.482 171.929)" fill="none" stroke="#494949" stroke-miterlimit="10" stroke-width="0.25"/>
    <rect id="Rectangle_251" data-name="Rectangle 251" width="41.425" height="18.808" transform="translate(353.206 171.929)" fill="none" stroke="#494949" stroke-miterlimit="10" stroke-width="0.25"/>
    <rect id="Rectangle_252" data-name="Rectangle 252" width="41.425" height="18.808" transform="translate(721.357 228.354)" fill="none" stroke="#494949" stroke-miterlimit="10" stroke-width="0.25"/>
    <rect id="Rectangle_253" data-name="Rectangle 253" width="41.916" height="17.941" transform="translate(151.763 228.354)" fill="none" stroke="#494949" stroke-miterlimit="10" stroke-width="0.25"/>
    <rect id="Rectangle_254" data-name="Rectangle 254" width="44.89" height="18.808" transform="translate(784.01 125.714)" fill="none" stroke="#494949" stroke-miterlimit="10" stroke-width="0.25"/>
    <rect id="Rectangle_255" data-name="Rectangle 255" width="44.313" height="20.656" transform="translate(92.715 110.656)" fill="none" stroke="#494949" stroke-miterlimit="10" stroke-width="0.25"/>
    <rect id="Rectangle_256" data-name="Rectangle 256" width="41.425" height="18.808" transform="translate(435.017 283.771)" fill="none" stroke="#494949" stroke-miterlimit="10" stroke-width="0.25"/>
    <rect id="Rectangle_257" data-name="Rectangle 257" width="41.425" height="18.808" transform="translate(435.017 50.423)" fill="none" stroke="#494949" stroke-miterlimit="10" stroke-width="0.25"/>
    <path id="Path_281" data-name="Path 281" d="M895.2,521.257c-16.491,0-31.528-5.113-42.934-13.507a53.2,53.2,0,1,0,85.873,0C926.732,516.144,911.69,521.257,895.2,521.257Z" transform="translate(-439.472 -358.675)" fill="none" stroke="#494949" stroke-miterlimit="10" stroke-width="0.25"/>
    <path id="Path_282" data-name="Path 282" d="M664.868,378.945H632.052V341.372H612.77V317.79h52.1Z" transform="translate(-334.279 -271.058)" fill="none" stroke="#494949" stroke-miterlimit="10" stroke-width="0.25"/>
    <path id="Path_283" data-name="Path 283" d="M1174.18,378.945h33.576V341.372h19.735V317.79h-53.31Z" transform="translate(-593.224 -271.058)" fill="none" stroke="#494949" stroke-miterlimit="10" stroke-width="0.25"/>
    <path id="Path_284" data-name="Path 284" d="M709.787,352.866h71.655s10.511-60.578,22.628-74.888V261.25s-45.364.808-64.9,7.731v12H706.7v9.089h3.087Z" transform="translate(-377.065 -244.979)" fill="none" stroke="#494949" stroke-miterlimit="10" stroke-width="0.25"/>
    <path id="Path_285" data-name="Path 285" d="M1088.254,352.866H1016.6s-10.614-60.578-22.849-74.888V261.25s45.795.808,65.54,7.731v12h32.773v9.159h-3.809Z" transform="translate(-509.464 -244.979)" fill="rgba(0,0,0,0)" stroke="#494949" stroke-miterlimit="10" stroke-width="0.25"/>
    <rect id="Rectangle_258" data-name="Rectangle 258" width="36.086" height="61.155" transform="translate(261.789 107.887) rotate(180)" fill="none" stroke="#494949" stroke-miterlimit="10" stroke-width="0.25"/>
    <path id="Path_286" data-name="Path 286" d="M458.695,297.55v10.9h11.411v61.155H422.42V297.55Z" transform="translate(-246.482 -261.722)" fill="none" stroke="#494949" stroke-miterlimit="10" stroke-width="0.25"/>
    <path id="Path_287" data-name="Path 287" d="M330.881,347.216H301.029S292.7,300.6,260.789,289.87H229.81V249H330.881Z" transform="translate(-157.104 -239.329)" fill="none" stroke="#494949" stroke-miterlimit="10" stroke-width="0.25"/>
    <rect id="Rectangle_259" data-name="Rectangle 259" width="33.452" height="60.061" transform="translate(140.369 254.602)" fill="none" stroke="#494949" stroke-miterlimit="10" stroke-width="0.25"/>
    <rect id="Rectangle_260" data-name="Rectangle 260" width="47.944" height="60.061" transform="translate(175.851 254.602)" fill="none" stroke="#494949" stroke-miterlimit="10" stroke-width="0.25"/>
    <rect id="Rectangle_261" data-name="Rectangle 261" width="36.62" height="60.061" transform="translate(225.902 254.602)" fill="none" stroke="#494949" stroke-miterlimit="10" stroke-width="0.25"/>
    <rect id="Rectangle_262" data-name="Rectangle 262" width="36.086" height="61.155" transform="translate(650.446 46.732)" fill="none" stroke="#494949" stroke-miterlimit="10" stroke-width="0.25"/>
    <path id="Path_288" data-name="Path 288" d="M1385.411,297.55v10.9H1374v61.155h47.686V297.55Z" transform="translate(-685.389 -261.722)" fill="none" stroke="#494949" stroke-miterlimit="10" stroke-width="0.25"/>
    <path id="Path_289" data-name="Path 289" d="M1465.53,347.216h29.885s8.324-46.619,40.245-57.346h30.973V249h-101.1Z" transform="translate(-727.067 -239.329)" fill="none" stroke="#494949" stroke-miterlimit="10" stroke-width="0.25"/>
    <path id="Path_290" data-name="Path 290" d="M113.85,607.35V741.609H190.7v-25.79h17.138v-56.6h13.151v-4.159L174.6,607.35Z" transform="translate(-104.158 -404.614)" fill="none" stroke="#494949" stroke-miterlimit="10" stroke-width="0.25"/>
    <path id="Path_291" data-name="Path 291" d="M1683.181,607.35V717.72H1578.468V658.872h-8.658V655.24l47.772-47.891Z" transform="translate(-775.704 -404.614)" fill="none" stroke="#494949" stroke-miterlimit="10" stroke-width="0.25"/>
    <rect id="Rectangle_263" data-name="Rectangle 263" width="34.254" height="59.705" transform="translate(650.456 254.78)" fill="none" stroke="#494949" stroke-miterlimit="10" stroke-width="0.25"/>
    <rect id="Rectangle_264" data-name="Rectangle 264" width="33.398" height="59.705" transform="translate(739.072 254.78)" fill="none" stroke="#494949" stroke-miterlimit="10" stroke-width="0.25"/>
    <rect id="Rectangle_265" data-name="Rectangle 265" width="50.18" height="59.705" transform="translate(686.801 254.78)" fill="none" stroke="#494949" stroke-miterlimit="10" stroke-width="0.25"/>
    <rect id="Rectangle_266" data-name="Rectangle 266" width="29.19" height="33.689" transform="translate(583.117 254.78)" fill="none" stroke="#494949" stroke-miterlimit="10" stroke-width="0.25"/>
    <path id="Path_292" data-name="Path 292" d="M1090.654,703.963v57.2h-51.813v34.389H994.07v-19.4c13.852-19.622,22.391-72.237,22.391-72.237Z" transform="translate(-509.611 -449.156)" fill="none" stroke="#494949" stroke-miterlimit="10" stroke-width="0.25"/>
    <path id="Path_293" data-name="Path 293" d="M805.12,776.955v18.469H716.5s-.7-11.772-3.006-12.7H709V703.64l73.735.167S787.815,748.115,805.12,776.955Z" transform="translate(-378.126 -449.027)" fill="none" stroke="#494949" stroke-miterlimit="10" stroke-width="0.25"/>
    <path id="Path_294" data-name="Path 294" d="M662.387,703.64v68.25H633.2v-8.378H611.28V740.265h20.08V703.807Z" transform="translate(-333.592 -449.027)" fill="none" stroke="#494949" stroke-miterlimit="10" stroke-width="0.25"/>
    <circle id="Ellipse_64" data-name="Ellipse 64" cx="8.658" cy="8.658" r="8.658" transform="translate(70.098 103.27)" fill="none" stroke="#494949" stroke-miterlimit="10" stroke-width="0.25"/>
    <circle id="Ellipse_65" data-name="Ellipse 65" cx="8.658" cy="8.658" r="8.658" transform="translate(823.787 103.27)" fill="none" stroke="#494949" stroke-miterlimit="10" stroke-width="0.25"/>
  </g>
</svg>
