<?xml version="1.0" encoding="utf-8"?>
<!-- Generator: Adobe Illustrator 22.0.1, SVG Export Plug-In . SVG Version: 6.00 Build 0)  -->
<svg version="1.1" id="Layer_1" xmlns="http://www.w3.org/2000/svg" xmlns:xlink="http://www.w3.org/1999/xlink" x="0px" y="0px"
	 viewBox="0 0 274 225" style="enable-background:new 0 0 274 225;" xml:space="preserve">
<style type="text/css">
	.st0{fill-rule:evenodd;clip-rule:evenodd;fill:#EC008C;}
	.st1{fill:#00A651;}
	.st2{fill:#FFFFFF;}
</style>
<g>
	<polygon class="st1" points="30.1,146.8 243.9,146.8 243.9,78.3 30.1,78.3 30.1,146.8 	"/>
	<path class="st2" d="M48.8,84.7h-2V93c0,3.2-1.8,4.2-4.1,4.2c-2.7,0-4.1-1.4-4.1-4.2v-8.3h-2v8.7c0,3.9,2.7,5.7,6.1,5.7
		c3.9,0,6.1-2.2,6.1-5.7V84.7L48.8,84.7z"/>
	<polygon class="st2" points="63.6,84.7 61.7,84.7 61.7,95.7 53.2,84.7 51.5,84.7 51.5,98.9 53.4,98.9 53.4,87.9 61.8,98.9 
		63.6,98.9 63.6,84.7 	"/>
	<polygon class="st2" points="66.9,98.9 68.9,98.9 68.9,84.7 66.9,84.7 66.9,98.9 	"/>
	<polygon class="st2" points="81,84.7 70.8,84.7 70.8,86.4 75,86.4 75,98.9 77,98.9 77,86.4 81,86.4 81,84.7 	"/>
	<polygon class="st2" points="91,84.7 82.9,84.7 82.9,98.9 91.2,98.9 91.2,97.1 85,97.1 85,92.4 90.8,92.4 90.8,90.7 85,90.7 
		85,86.4 91,86.4 91,84.7 	"/>
	<path class="st2" d="M98.5,84.7h-4.7v14.2h4.7c5,0,7.5-3.5,7.5-7.1C106,88.4,103.7,84.7,98.5,84.7L98.5,84.7z M95.8,97.1V86.4h2.4
		c3.9,0,5.7,2.5,5.7,5.3c0,3-2,5.3-5.7,5.3H95.8L95.8,97.1z"/>
	<polygon class="st2" points="145,84.7 143,84.7 143,98.9 150.9,98.9 150.9,97.1 145,97.1 145,84.7 	"/>
	<path class="st2" d="M172.4,84.7h-4.3v14.2h2v-6.2h2.5l3.9,6.2h2.4c-1-1.4-4.2-6.7-4.2-6.7c0.3-0.1,2.4-0.8,2.4-3.5
		C177.1,86.2,175.3,84.7,172.4,84.7L172.4,84.7z M170.1,91v-4.6h2.1c1.9,0,2.8,1,2.8,2.3c0,1.2-0.7,2.3-2.8,2.3H170.1L170.1,91z"/>
	<path class="st2" d="M120.1,84.5c-4.5,0-7.8,3.2-7.8,7.5c0,3,2.3,7.1,7.6,7.1c2.5,0,3.9-0.5,4.1-0.6v-2c-0.1,0-1.6,0.7-3.9,0.7
		c-3.4,0-5.7-2.2-5.7-5.4c0-3.1,2.4-5.4,5.7-5.4c1.9,0,3.8,0.8,4,0.8v-2C123.9,85.1,122.2,84.5,120.1,84.5L120.1,84.5z"/>
	<path class="st2" d="M132.8,84.5c-4.2,0-7.5,3.3-7.5,7.3c0,4,3.3,7.3,7.5,7.3c4.2,0,7.5-3.3,7.5-7.3
		C140.3,87.7,137,84.5,132.8,84.5L132.8,84.5z M132.8,97.2c-3,0-5.4-2.4-5.4-5.4c0-3,2.4-5.4,5.4-5.4s5.4,2.4,5.4,5.4
		C138.2,94.8,135.8,97.2,132.8,97.2L132.8,97.2z"/>
	<path class="st2" d="M158.3,84.5c-4.2,0-7.5,3.3-7.5,7.3c0,4,3.3,7.3,7.5,7.3c4.2,0,7.5-3.3,7.5-7.3
		C165.7,87.7,162.4,84.5,158.3,84.5L158.3,84.5z M158.3,97.2c-3,0-5.4-2.4-5.4-5.4c0-3,2.4-5.4,5.4-5.4c3,0,5.4,2.4,5.4,5.4
		C163.7,94.8,161.3,97.2,158.3,97.2L158.3,97.2z"/>
	<path class="st2" d="M184.6,84.5c-2.9,0-4.6,1.7-4.6,3.8c0,1.9,1.1,3,2.6,3.7c0.3,0.2,1.5,0.7,2,1c0.8,0.4,2.2,1.1,2.2,2.3
		c0,0.9-1,2-2.9,2c-1.9,0-2.9-0.8-3.1-1l-0.9,1.8c0.2,0.1,1.3,1.1,4.1,1.1c2.5,0,4.9-1.2,4.9-3.9c0-2.4-2.2-3.4-3.5-4.1
		c-0.5-0.2-1.1-0.5-1.6-0.7c-1-0.5-1.8-1.1-1.8-2.1c0-1,0.8-1.9,2.5-1.9c1.6,0,2.6,0.6,2.8,0.7l0.6-1.7
		C188,85.3,186.7,84.5,184.6,84.5L184.6,84.5z"/>
	<polygon class="st2" points="60.8,105.4 53.2,105.4 53.2,119.6 55.3,119.6 55.3,113 60.8,113 60.8,111.3 55.3,111.3 55.3,107.2 
		60.8,107.2 60.8,105.4 	"/>
	<path class="st2" d="M43.4,105.2c-4.2,0-7.5,3.3-7.5,7.3c0,4,3.3,7.3,7.5,7.3c4.2,0,7.5-3.3,7.5-7.3
		C50.9,108.5,47.6,105.2,43.4,105.2L43.4,105.2z M43.4,117.9c-3,0-5.4-2.4-5.4-5.4c0-3,2.4-5.4,5.4-5.4c3,0,5.4,2.4,5.4,5.4
		C48.8,115.5,46.5,117.9,43.4,117.9L43.4,117.9z"/>
	<polygon class="st2" points="102,105.4 100.1,105.4 100.1,116.4 91.5,105.4 89.8,105.4 89.8,119.6 91.7,119.6 91.7,108.7 
		100.2,119.6 102,119.6 102,105.4 	"/>
	<polygon class="st2" points="164.2,105.4 162.2,105.4 162.2,116.4 153.7,105.4 152,105.4 152,119.6 153.9,119.6 153.9,108.7 
		162.4,119.6 164.2,119.6 164.2,105.4 	"/>
	<polygon class="st2" points="124,105.4 113.8,105.4 113.8,107.2 118,107.2 118,119.6 120.1,119.6 120.1,107.2 124,107.2 124,105.4 
			"/>
	<polygon class="st2" points="135.5,105.4 125.3,105.4 125.3,107.2 129.4,107.2 129.4,119.6 131.5,119.6 131.5,107.2 135.5,107.2 
		135.5,105.4 	"/>
	<polygon class="st2" points="87.3,105.4 79.2,105.4 79.2,119.6 87.4,119.6 87.4,117.8 81.2,117.8 81.2,113.2 87,113.2 87,111.4 
		81.2,111.4 81.2,107.2 87.3,107.2 87.3,105.4 	"/>
	<polygon class="st2" points="112.6,105.4 104.6,105.4 104.6,119.6 112.8,119.6 112.8,117.8 106.6,117.8 106.6,113.2 112.4,113.2 
		112.4,111.4 106.6,111.4 106.6,107.2 112.6,107.2 112.6,105.4 	"/>
	<path class="st2" d="M142.7,105.2c-4.2,0-7.5,3.3-7.5,7.3c0,4,3.3,7.3,7.5,7.3c4.2,0,7.5-3.3,7.5-7.3
		C150.2,108.5,146.9,105.2,142.7,105.2L142.7,105.2z M142.7,117.9c-3,0-5.4-2.4-5.4-5.4c0-3,2.4-5.4,5.4-5.4c3,0,5.4,2.4,5.4,5.4
		C148.1,115.5,145.7,117.9,142.7,117.9L142.7,117.9z"/>
	<path class="st2" d="M71.9,105.4h-4.6v14.2h4.9c3.6,0,4.9-2,4.9-3.8c0-3-2.4-3.6-2.6-3.6v0c0.2-0.1,1.9-0.7,1.9-3.1
		C76.3,107.1,74.9,105.4,71.9,105.4L71.9,105.4z M69.3,111.5v-4.3h2.3c1.6,0,2.6,0.8,2.6,2.2c0,1.5-1.1,2.2-2.6,2.2H69.3L69.3,111.5
		z M69.3,117.8v-4.6H72c2.1,0,2.9,1,2.9,2.3c0,1.1-0.6,2.3-2.9,2.3H69.3L69.3,117.8z"/>
	<path class="st2" d="M167.3,116.8c-0.8,0-1.4,0.6-1.4,1.4c0,0.8,0.6,1.4,1.4,1.4c0.8,0,1.4-0.6,1.4-1.4
		C168.7,117.4,168.1,116.8,167.3,116.8L167.3,116.8z"/>
</g>
</svg>
