<svg xmlns="http://www.w3.org/2000/svg" width="182" height="31" viewBox="0 0 182 31"><g><g><path fill="#242424" d="M18.45 15l2.793 4.424 5.616-8.943v19.8h4.832V1.476h-4.957L18.45 15M4.895 1.476H0v28.805h4.832v-19.8l10.982 17.572 2.824-4.487L4.895 1.476m55.82 19.893l4.456 8.943h5.836L56.385 1.476h-5.24l7.311 15.28H48.73l2.542-4.988-2.636-5.397-12.3 23.91h5.397l4.613-8.912h14.37m42.548-19.893h-4.832V15.47l4.832 4.864V1.476m-23.376 0h-4.926v28.805h4.832V8.756L99.655 30.28h3.608v-3.483L79.887 1.476m57.201 8.001l3.797-3.357C137.59 2.857 132.727.848 127.299.848c-9.1 0-17.164 5.805-17.854 13.681h5.334c.816-5.052 6.087-8.974 12.457-8.974 3.985 0 7.53 1.538 9.852 3.922m-10.291 16.787c-5.303 0-9.853-2.887-11.516-6.903h-5.46c1.789 6.935 8.88 11.578 17.258 11.578 1.945 0 4.205-.188 6.056-.658 4.204-1.036 8.785-3.766 8.785-8.096V14.53h-15.218v4.832h10.355v2.197c0 2.416-3.608 3.828-5.805 4.298-1.192.251-2.73.408-3.953.408h-.502M181.99 15.91c0-8.598-7.782-15.25-17.384-15.25-9.256 0-17.414 6.37-17.414 14.779 0 7.938 6.4 14.308 15.03 15.344v-4.801c-5.648-.942-9.884-5.146-9.884-10.198 0-5.742 5.49-10.417 12.237-10.417 6.746 0 12.237 4.675 12.237 10.417 0 5.02-4.204 9.225-9.758 10.198v4.8c8.252-1.004 14.936-7.154 14.936-14.872"/></g></g></svg>