<?xml version="1.0" encoding="utf-8"?>
<!-- Generator: Adobe Illustrator 22.0.1, SVG Export Plug-In . SVG Version: 6.00 Build 0)  -->
<svg version="1.1" id="Layer_1" xmlns="http://www.w3.org/2000/svg" xmlns:xlink="http://www.w3.org/1999/xlink" x="0px" y="0px"
	 viewBox="0 0 274 225" style="enable-background:new 0 0 274 225;" xml:space="preserve">
<style type="text/css">
	.st0{fill-rule:evenodd;clip-rule:evenodd;fill:#EC008C;}
	.st1{fill:#58595B;}
</style>
<g>
	<path class="st1" d="M60.1,112.5c0,3.7,3,6.8,6.7,6.8c3.7,0,6.7-3.1,6.7-6.8c0-3.7-3-6.8-6.7-6.8C63.1,105.7,60.1,108.7,60.1,112.5
		L60.1,112.5z M75.4,112.5c0,4.7-3.9,8.5-8.6,8.5c-4.7,0-8.6-3.8-8.6-8.5c0-4.7,3.9-8.5,8.6-8.5C71.6,104,75.4,107.8,75.4,112.5
		L75.4,112.5z"/>
	<polygon class="st1" points="136.1,120.7 134.3,120.7 134.3,104.2 136.1,104.2 136.1,120.7 	"/>
	<polygon class="st1" points="148.8,104.2 161.6,116.4 161.6,104.2 163.4,104.2 163.4,120.9 150.6,108.6 150.6,120.7 148.8,120.7 
		148.8,104.2 	"/>
	<polygon class="st1" points="175.8,104.2 184.3,104.2 184.3,105.9 177.6,105.9 177.6,110.8 184.1,110.8 184.1,112.5 177.6,112.5 
		177.6,119 184.3,119 184.3,120.7 175.8,120.7 175.8,104.2 	"/>
	<polygon class="st1" points="197.5,119 203.2,119 203.2,120.7 195.7,120.7 195.7,104.2 197.5,104.2 197.5,119 	"/>
	<polygon class="st1" points="216,119 221.7,119 221.7,120.7 214.1,120.7 214.1,104.2 216,104.2 216,119 	"/>
	<polygon class="st1" points="230.7,104.2 239.2,104.2 239.2,105.9 232.5,105.9 232.5,110.8 239,110.8 239,112.5 232.5,112.5 
		232.5,119 239.2,119 239.2,120.7 230.7,120.7 230.7,104.2 	"/>
	<path class="st1" d="M43.4,119.3c-3.7,0-6.7-3.1-6.7-6.8c0-3.7,3-6.8,6.7-6.8c1.4,0,2.7,0.4,3.7,1.1v-2c-1.1-0.5-2.4-0.9-3.7-0.9
		c-4.7,0-8.6,3.8-8.6,8.5c0,4.7,3.9,8.5,8.6,8.5c1.3,0,2.6-0.3,3.7-0.9v-2C46,118.8,44.7,119.3,43.4,119.3L43.4,119.3z"/>
	<path class="st1" d="M94.1,119.3c-3.7,0-6.7-3.1-6.7-6.8c0-3.7,3-6.8,6.7-6.8c1.4,0,2.7,0.4,3.7,1.1v-2c-1.1-0.5-2.4-0.9-3.7-0.9
		c-4.7,0-8.6,3.8-8.6,8.5c0,4.7,3.9,8.5,8.6,8.5c1.3,0,2.6-0.3,3.7-0.9v-2C96.7,118.8,95.5,119.3,94.1,119.3L94.1,119.3z"/>
	<path class="st1" d="M117.8,119.3c-3.7,0-6.7-3.1-6.7-6.8c0-3.7,3-6.8,6.7-6.8c1.4,0,2.7,0.4,3.7,1.1v-2c-1.1-0.5-2.4-0.9-3.7-0.9
		c-4.7,0-8.6,3.8-8.6,8.5c0,4.7,3.9,8.5,8.6,8.5c1.3,0,2.6-0.3,3.7-0.9v-2C120.4,118.8,119.2,119.3,117.8,119.3L117.8,119.3z"/>
</g>
</svg>
