<?xml version="1.0" encoding="utf-8"?>
<!-- Generator: Adobe Illustrator 18.0.0, SVG Export Plug-In . SVG Version: 6.00 Build 0)  -->
<!DOCTYPE svg PUBLIC "-//W3C//DTD SVG 1.1//EN" "http://www.w3.org/Graphics/SVG/1.1/DTD/svg11.dtd">
<svg version="1.1" id="Layer_1" xmlns="http://www.w3.org/2000/svg" xmlns:xlink="http://www.w3.org/1999/xlink" x="0px" y="0px"
	 viewBox="0 0 216 98.8" style="enable-background:new 0 0 216 98.8;" xml:space="preserve">
<style type="text/css">
	.st0{fill-rule:evenodd;clip-rule:evenodd;fill:#EC008C;}
	.st1{fill:#AF1F2C;}
	.st2{clip-path:url(#SVGID_2_);fill:#AF1F2C;}
	.st3{clip-path:url(#SVGID_2_);fill:#F3D0B6;}
	.st4{clip-path:url(#SVGID_2_);fill:#FFFFFF;}
	.st5{clip-path:url(#SVGID_2_);fill:#272726;}
	.st6{fill-rule:evenodd;clip-rule:evenodd;fill:#610000;}
	.st7{clip-path:url(#SVGID_4_);fill:url(#SVGID_5_);}
	.st8{fill:#610000;}
	.st9{fill-rule:evenodd;clip-rule:evenodd;fill:#6A0000;}
	.st10{fill-rule:evenodd;clip-rule:evenodd;fill:#FFFFFF;}
	.st11{fill:#FFFFFF;}
	.st12{fill:none;stroke:#8C100E;stroke-width:0.216;stroke-miterlimit:22.9256;}
	.st13{fill:#414042;}
	.st14{fill:#E9C232;}
	.st15{fill-rule:evenodd;clip-rule:evenodd;fill:#8DC63F;}
	.st16{clip-path:url(#SVGID_7_);fill:url(#SVGID_8_);}
	.st17{clip-path:url(#SVGID_10_);fill:url(#SVGID_11_);}
	.st18{clip-path:url(#SVGID_13_);fill:url(#SVGID_14_);}
	.st19{clip-path:url(#SVGID_16_);}
	.st20{clip-path:url(#SVGID_18_);}
	.st21{clip-path:url(#SVGID_22_);fill:url(#SVGID_23_);}
	.st22{clip-path:url(#SVGID_25_);fill:url(#SVGID_26_);}
	.st23{clip-path:url(#SVGID_28_);fill:url(#SVGID_29_);}
	.st24{clip-path:url(#SVGID_31_);fill:url(#SVGID_32_);}
	.st25{fill:#818385;}
	.st26{clip-path:url(#SVGID_34_);fill:#FFFFFF;}
	.st27{fill:#008B63;}
	.st28{fill:#BA131A;}
	.st29{fill:none;stroke:#FFFFFF;stroke-width:0.5669;stroke-miterlimit:22.9256;}
	.st30{fill-rule:evenodd;clip-rule:evenodd;fill:#ED1C24;}
	.st31{fill-rule:evenodd;clip-rule:evenodd;fill:#00A651;}
	.st32{fill-rule:evenodd;clip-rule:evenodd;fill:none;}
	.st33{fill-rule:evenodd;clip-rule:evenodd;fill:#ED2690;}
	.st34{fill-rule:evenodd;clip-rule:evenodd;fill:#ED2891;}
	.st35{fill-rule:evenodd;clip-rule:evenodd;fill:#E52726;}
	.st36{fill-rule:evenodd;clip-rule:evenodd;fill:#19457B;}
	.st37{fill-rule:evenodd;clip-rule:evenodd;fill:#6D6D6D;}
	.st38{fill-rule:evenodd;clip-rule:evenodd;}
	.st39{fill:#ED2224;}
	.st40{fill:#434345;}
	.st41{fill-rule:evenodd;clip-rule:evenodd;fill:#008256;}
	.st42{fill-rule:evenodd;clip-rule:evenodd;fill:none;stroke:#FFFFFF;stroke-width:2.3661;stroke-miterlimit:22.9256;}
	.st43{fill-rule:evenodd;clip-rule:evenodd;fill:#837B17;}
	.st44{fill-rule:evenodd;clip-rule:evenodd;fill:none;stroke:#FFFFFF;stroke-width:0.705;stroke-miterlimit:22.9256;}
	.st45{fill-rule:evenodd;clip-rule:evenodd;fill:#EF3E33;}
	.st46{fill:#020303;}
</style>
<g>
	<path class="st46" d="M122,59.3c-0.2,0-0.6-0.1-0.9-0.2c-0.9-0.2-1.9-0.5-2.7-0.9c-0.7-0.3-2.3-1.5-2.3-1.6c0,0,0.5-0.5,1.2-1.1
		l1.2-1L119,55c1,0.8,1.9,1.2,3.5,1.4c1.1,0.1,2.6,0.1,3.5-0.2c1.3-0.3,1.8-0.9,1.8-1.7c0-0.5-0.1-0.6-0.2-0.8
		c-0.5-0.5-1-0.6-3.6-0.8c-1.4-0.1-2.8-0.3-3.2-0.4c-2.6-0.6-4-2.4-3.6-4.7c0.2-1.4,1.2-2.5,2.6-3.2c1.2-0.6,2.2-0.7,4-0.7
		c1.8,0,3.1,0.2,4.4,0.7c0.9,0.3,2.5,1.2,2.5,1.4c0,0.1-1.3,1.2-2.1,1.8c-0.2,0.1-0.3,0.1-1.1-0.3c-1.2-0.6-2.2-0.8-3.7-0.8
		c-1.6,0-2.4,0.2-3,0.8c-0.4,0.4-0.4,0.5-0.4,0.9c0,1.1,0.6,1.4,3.6,1.6c1.2,0.1,2.4,0.2,2.9,0.3c2.8,0.5,4.1,1.8,4.1,4.1
		c0,1.2-0.3,2-1.1,2.9c-1.3,1.3-3,1.9-5.9,2C123.1,59.3,122.2,59.3,122,59.3z"/>
	<path class="st46" d="M142.7,59.2c-1.1-0.2-2.3-0.5-3.2-1c-0.7-0.3-2.2-1.5-2.2-1.6c0,0,0.4-0.4,0.8-0.8c0.5-0.4,1-0.8,1.2-1
		l0.3-0.3l0.5,0.4c1.3,1.1,2.6,1.4,4.8,1.4c2.8,0,4.1-0.6,4.1-2c0-0.4-0.1-0.5-0.3-0.8c-0.5-0.5-0.9-0.6-4.7-0.9
		c-3-0.3-4.5-1-5.3-2.6c-0.9-1.9-0.3-4,1.5-5.2c2.6-1.8,7.9-1.6,11,0.4c0.4,0.3,0.7,0.5,0.7,0.5c0,0.1-2.3,2-2.4,2
		c-0.1,0-0.4-0.1-0.7-0.3c-1.9-1-4.6-1.2-6.3-0.5c-0.7,0.3-1,0.7-1,1.4c0,1.1,0.6,1.3,3.7,1.6c2.5,0.2,3.4,0.3,4.2,0.6
		c1.2,0.4,1.9,1,2.4,2c0.3,0.5,0.3,0.7,0.3,1.8c0,1.1,0,1.2-0.4,1.9c-0.6,1.3-2,2.2-3.9,2.7C147,59.3,144.1,59.4,142.7,59.2z"/>
	<path class="st46" d="M6.3,59.1c0,0-0.1-3.5-0.1-7.7v-7.6h1.7h1.7v7.7v7.7H8C7.1,59.2,6.3,59.2,6.3,59.1z"/>
	<path class="st46" d="M19.1,51.6v-7.7h1.7h1.7v0.4v0.4l0.5-0.2c1.5-0.8,4.4-0.9,6.2-0.3c1.6,0.5,3,1.7,3.5,2.9
		c0.5,1.2,0.6,1.4,0.6,7v5.2l-1.7,0l-1.7,0l0-4.9c0-5.4,0-5.8-0.6-6.5c-0.2-0.2-0.6-0.5-1-0.7c-0.6-0.3-0.8-0.3-1.8-0.4
		c-1.9-0.1-3.1,0.4-3.7,1.5l-0.3,0.5l-0.1,5.2l-0.1,5.2l-1.7,0l-1.7,0V51.6z"/>
	<path class="st46" d="M46.8,59.1c-0.8-0.1-1.9-0.6-2.5-1.1c-0.6-0.5-1.1-1.6-1.2-2.5c-0.1-0.4-0.1-2.6-0.1-4.8l0-4.1h-1.1h-1.1
		v-1.3v-1.3h1.1h1.1v-2.2v-2.2h1.7h1.7v2.2v2.2h1.9H50v1.3v1.3h-1.9h-1.9v4.4c0,4.9,0,4.9,0.7,5.2c0.3,0.1,0.8,0.2,1.7,0.2H50l0,1.4
		l0,1.4l-1.3,0C48,59.2,47.1,59.1,46.8,59.1z"/>
	<polygon class="st46" points="58.1,51.6 58.1,43.9 59.8,43.9 61.5,43.9 61.5,51.5 61.4,59.2 59.8,59.2 58.1,59.2 	"/>
	<path class="st46" d="M71,51.6v-7.7h1.6h1.6v0.4v0.4l0.6-0.3c1.9-0.8,4.4-0.9,6.3-0.2c0.8,0.3,1.7,0.8,2.1,1.2
		c0.3,0.3,0.3,0.3,0.9-0.1c0.6-0.5,1.6-1,2.6-1.3c1.1-0.3,3.3-0.3,4.5-0.1c2.2,0.5,3.7,1.9,4.4,3.8c0.2,0.8,0.2,0.9,0.2,6.1v5.3
		l-1.6,0l-1.6,0l0-5.1c0-5.7,0-5.7-0.8-6.5c-0.7-0.7-1.2-0.9-2.9-0.9c-1.3,0-1.5,0-2,0.3c-0.7,0.3-1.2,0.8-1.5,1.4
		c-0.2,0.4-0.2,0.5-0.3,5.7l0,5.2h-1.6h-1.6l0-5.1c0-5.8,0-5.8-0.9-6.6c-0.7-0.7-1.6-0.9-3.1-0.9c-1.4,0.1-2,0.3-2.7,0.9
		c-0.8,0.8-0.8,0.7-0.8,6.4l0,5.2h-1.6H71V51.6z"/>
	<polygon class="st46" points="105.2,51.6 105.2,43.9 106.8,43.9 108.5,43.9 108.5,51.6 108.5,59.2 106.8,59.2 105.2,59.2 	"/>
	<polygon class="st46" points="160.6,51.6 160.6,43.9 162.3,43.9 163.9,43.9 163.9,51.6 163.9,59.2 162.3,59.2 160.6,59.2 	"/>
	<path class="st46" d="M173.4,51.6v-7.7h1.7h1.7v0.4v0.4l0.4-0.2c1.5-0.7,4.1-0.9,5.9-0.5c1,0.3,1.8,0.7,2.5,1.3l0.5,0.4l0.7-0.5
		c0.8-0.6,1.9-1,2.8-1.3c1.1-0.2,3.2-0.2,4.2,0.1c2.3,0.6,3.8,2,4.3,4c0.1,0.5,0.2,1.5,0.2,5.9v5.3h-1.6H195v-5c0-5.6,0-5.8-0.7-6.6
		c-0.6-0.7-1.3-0.9-2.7-1c-1.8-0.1-3,0.4-3.7,1.5l-0.3,0.5l-0.1,5.2l-0.1,5.2l-1.7,0l-1.7,0v-5c0-5.6,0-5.8-0.7-6.6
		c-0.6-0.7-1.3-0.9-2.7-1c-2-0.1-3.2,0.5-3.8,1.8c-0.1,0.2-0.1,1.9-0.2,5.5l-0.1,5.2l-1.7,0l-1.7,0V51.6z"/>
	<polygon class="st46" points="207.7,51.6 207.7,43.9 209.4,43.9 211,43.9 211,51.6 211,59.2 209.4,59.2 207.7,59.2 	"/>
</g>
</svg>
