<?xml version="1.0" encoding="utf-8"?>
<!-- Generator: Adobe Illustrator 22.0.1, SVG Export Plug-In . SVG Version: 6.00 Build 0)  -->
<svg version="1.1" id="Layer_1" xmlns="http://www.w3.org/2000/svg" xmlns:xlink="http://www.w3.org/1999/xlink" x="0px" y="0px"
	 viewBox="0 0 274 225" style="enable-background:new 0 0 274 225;" xml:space="preserve">
<style type="text/css">
	.st0{fill-rule:evenodd;clip-rule:evenodd;fill:#EC008C;}
	.st1{fill-rule:evenodd;clip-rule:evenodd;}
</style>
<g>
	<path class="st1" d="M63.1,78.8h13.8l0,9.4H63.1V78.8L63.1,78.8z M63.1,92.6h13.8l0,14.8c0.4-4.6,1.8-8.2,4.2-10.8
		c2.9-3.2,6.5-4.8,10.9-4.8c2.2,0,4.1,0.4,5.9,1.1c1.8,0.7,3.3,1.8,4.7,3.3l0-17.3h14l0,26.9c0.8-3.4,2.4-6.3,4.9-8.7
		c3.6-3.5,8.6-5.3,15-5.3c5.2,0,9.3,0.8,12.3,2.4c3,1.6,5.3,3.8,6.8,6.8c0.3,0.6,0.6,1.3,0.9,2c0.5-2.3,1.2-4.1,2.2-5.5
		c0.9-1.3,2.3-2.5,4.1-3.5c1.3-0.7,3-1.3,5.2-1.6c2.2-0.4,4.6-0.6,7.2-0.6c4.2,0,7.5,0.2,10,0.7c2.5,0.5,4.6,1.4,6.3,2.9
		c1.2,1,2.1,2.5,2.8,4.3c0.7,1.9,1,3.7,1,5.4l0,16c0,1.7,0.1,3,0.3,4c0.2,0.9,0.6,2,1.2,3.3l0-49.5h13.9c0,16.9,0,33.9,0,50.8
		c-8.7,0-17.4,0-26.2,0c-1.1-1.8-1.7-3.2-2.1-5.3c-1.5,1.5-3.1,2.6-4.6,3.4c-2.5,1.3-5.7,1.9-8.5,1.9c-3.3,0-5.2-0.3-7.3-1
		c-1.3-0.5-2.5-1.2-3.4-2c-1.6-1.4-2.6-3-3-4.9c-1.8,2.5-3.8,4.3-6.1,5.5c-1,0.6-2.3,1-3.6,1.4c-2.9,0.7-5.7,1-8.4,1
		c-7.8,0-14.5-1.3-18.8-8.5c-1-1.6-1.7-3.4-2.2-5.4l0,11.3v1.6l0,1h-13l0-1v-0.7l0-4.5c-1.8,2.3-3.5,3.8-5,4.6
		c-0.4,0.2-0.8,0.4-1.3,0.6c-3.8,1.4-7.1,1.3-11,0c-2.3-0.9-4.2-2.5-5.7-4.6c-2.1-3.1-3.4-6.7-3.8-10.9c0,5.5,0,11,0,16.5H63.1V92.6
		L63.1,92.6z M156.5,102.9c1,2.6,1.4,5.7,1.5,9.4c1.6-1.7,4.6-3,8.8-3.8c5.2-1,8.6-1.8,10.1-2.2c1.5-0.4,3.2-1,4.9-1.7
		c0-1.7-0.3-2.9-1-3.6c-0.7-0.7-1.9-1-3.7-1c-2.3,0-4,0.4-5.1,1.1c-0.9,0.6-1.6,1.6-2.2,3.2L156.5,102.9L156.5,102.9z M156.6,114.1
		h-26.4c0.2,2.2,0.8,3.9,1.8,5c1.3,1.6,3.1,2.3,5.2,2.3c1.4,0,2.7-0.3,3.9-1c0.8-0.4,1.6-1.2,2.4-2.3l11.9,1.1v0
		C155.4,117.2,155.8,115.5,156.6,114.1L156.6,114.1z M102.7,110.5c0-2.8-0.6-5-1.8-6.4c-1.2-1.4-2.7-2.1-4.6-2.1c-1.6,0-3,0.7-4.1,2
		c-1.1,1.3-1.6,3.6-1.6,6.7c0,3,0.6,5.1,1.7,6.5c1.1,1.4,2.5,2.1,4.2,2.1c1.8,0,3.3-0.7,4.4-2.1
		C102.1,115.9,102.7,113.7,102.7,110.5L102.7,110.5z M143.9,107.4c-0.3-2.7-1-4.6-2.2-5.8c-1.2-1.2-2.7-1.7-4.6-1.7
		c-2.2,0-4,0.9-5.3,2.6c-0.8,1.1-1.4,2.7-1.6,4.9H143.9L143.9,107.4z M181.8,111.6c-1.9,0.7-3.9,1.3-6,1.8c-2.8,0.7-4.6,1.5-5.4,2.2
		c-0.8,0.8-1.2,1.6-1.2,2.6c0,1.1,0.4,2,1.1,2.7c0.8,0.7,1.9,1,3.4,1c1.5,0,3-0.4,4.3-1.1c1.3-0.8,2.3-1.7,2.8-2.7
		c0.6-1.1,0.8-2.5,0.8-4.2L181.8,111.6L181.8,111.6z"/>
	<path class="st1" d="M66.3,141.4c0.3,0,0.5-0.2,0.7-0.5c0.1-0.4,0.2-1.2,0.2-2.5c0-0.8-0.1-1.3-0.2-1.6c-0.1-0.3-0.3-0.4-0.6-0.4
		c-0.3,0-0.5,0.2-0.7,0.5c-0.1,0.3-0.2,1.2-0.2,2.7c0,0.7,0.1,1.2,0.2,1.5C65.8,141.2,66,141.4,66.3,141.4L66.3,141.4z M63.1,146.1
		l0-11.7h2.2l0,1c0.2-0.4,0.5-0.7,0.8-0.9c0.3-0.2,0.7-0.3,1.1-0.3c0.3,0,0.7,0.1,0.9,0.2c0.3,0.1,0.5,0.3,0.7,0.5
		c0.2,0.3,0.4,0.6,0.5,1.1c0.1,0.5,0.1,1.3,0.1,2.6c0,2-0.2,3.3-0.5,3.9c-0.3,0.6-0.9,0.9-1.8,0.9c-0.4,0-0.7-0.1-1-0.3
		c-0.3-0.2-0.5-0.4-0.8-0.8l0,3.7H63.1L63.1,146.1z M74.9,140.1h2.3l0,0.2c0,1-0.3,1.8-0.8,2.3c-0.5,0.5-1.3,0.8-2.4,0.8
		c-0.5,0-1-0.1-1.4-0.2c-0.4-0.1-0.8-0.4-1-0.6c-0.3-0.3-0.5-0.7-0.6-1.2c-0.1-0.5-0.2-1.3-0.2-2.4c0-1.2,0.1-2.1,0.2-2.6
		c0.1-0.5,0.3-0.9,0.6-1.2c0.3-0.3,0.6-0.5,1.1-0.7c0.4-0.2,0.9-0.2,1.5-0.2c0.6,0,1.1,0.1,1.5,0.2c0.4,0.2,0.8,0.4,1,0.7
		c0.2,0.3,0.4,0.6,0.5,1c0.1,0.4,0.1,1,0.1,1.9l0,1h-4c0,0,0,0.1,0,0.1c0,0.4,0,0.6,0,0.8c0,0.6,0.1,1,0.2,1.3
		c0.1,0.2,0.4,0.4,0.7,0.4c0.3,0,0.5-0.1,0.6-0.3c0.1-0.2,0.2-0.5,0.2-0.8C74.9,140.5,74.9,140.4,74.9,140.1
		C74.9,140.2,74.9,140.2,74.9,140.1L74.9,140.1z M73.3,137.7h1.6c0,0,0,0,0,0c0-0.2,0-0.4,0-0.5c0-0.4-0.1-0.7-0.2-0.9
		c-0.1-0.2-0.4-0.3-0.6-0.3c-0.3,0-0.5,0.1-0.6,0.3c-0.1,0.2-0.2,0.5-0.2,1c0,0.1,0,0.2,0,0.3C73.3,137.5,73.3,137.6,73.3,137.7
		L73.3,137.7z M78.6,143.2l0-8.7h2.2l0,1.2c0.3-0.4,0.6-0.8,0.9-1c0.3-0.2,0.7-0.4,1.1-0.4l0,2.8c-0.1,0-0.3-0.1-0.4-0.1
		c-0.1,0-0.2,0-0.3,0c-0.4,0-0.7,0.1-0.8,0.4c-0.2,0.3-0.2,0.8-0.2,1.6l0,4.2H78.6L78.6,143.2z M84.7,143.2l0-6.9h-1l0-1.9h1
		c0-0.1,0-0.1,0-0.2c0-0.1,0-0.2,0-0.2c0-0.9,0.2-1.6,0.6-1.9c0.4-0.4,1.1-0.6,2-0.6c0.1,0,0.3,0,0.4,0c0.2,0,0.3,0,0.5,0l0,1.8
		c0,0-0.1,0-0.1,0c0,0-0.1,0-0.2,0c-0.3,0-0.5,0.1-0.6,0.2c-0.1,0.1-0.2,0.4-0.2,0.7c0,0.1,0,0.1,0,0.2c0,0,0,0.1,0,0.1h1l0,1.9h-1
		l0,6.9H84.7L84.7,143.2z M95.7,134.5l0,8.7h-2.3l0-1c-0.3,0.4-0.6,0.7-0.9,0.9c-0.3,0.2-0.7,0.3-1.2,0.3c-0.7,0-1.2-0.2-1.5-0.7
		c-0.3-0.5-0.5-1.2-0.5-2.1l0-6.1h2.4l0,5.4c0,0.7,0,1.1,0.1,1.3c0.1,0.2,0.3,0.3,0.5,0.3c0.3,0,0.5-0.1,0.6-0.4
		c0.2-0.3,0.2-0.6,0.2-1.1l0-5.5H95.7L95.7,134.5z M97.4,143.2l0-8.7h2.2l0,1c0.3-0.4,0.6-0.7,0.9-0.9c0.3-0.2,0.7-0.3,1.1-0.3
		c0.4,0,0.7,0.1,1,0.3c0.3,0.2,0.5,0.5,0.7,0.9c0.3-0.4,0.6-0.7,0.9-0.9c0.3-0.2,0.7-0.3,1.1-0.3c0.6,0,1.1,0.2,1.4,0.7
		c0.3,0.4,0.4,1.2,0.4,2.1l0,6.1h-2.3l0-5.5c0-0.6,0-1-0.1-1.2c-0.1-0.2-0.2-0.2-0.5-0.2c-0.3,0-0.5,0.1-0.6,0.4
		c-0.1,0.3-0.2,0.6-0.2,1.1l0,5.5h-2.3l0-5.5c0-0.6,0-1-0.1-1.2c-0.1-0.2-0.2-0.2-0.5-0.2c-0.3,0-0.5,0.1-0.6,0.4
		c-0.1,0.3-0.2,0.6-0.2,1.1l0,5.5H97.4L97.4,143.2z M112.6,140.1h2.3l0,0.2c0,1-0.3,1.8-0.8,2.3c-0.5,0.5-1.3,0.8-2.4,0.8
		c-0.5,0-1-0.1-1.4-0.2c-0.4-0.1-0.8-0.4-1-0.6c-0.3-0.3-0.5-0.7-0.6-1.2c-0.1-0.5-0.2-1.3-0.2-2.4c0-1.2,0.1-2.1,0.2-2.6
		c0.1-0.5,0.3-0.9,0.6-1.2c0.3-0.3,0.6-0.5,1.1-0.7c0.4-0.2,0.9-0.2,1.5-0.2c0.6,0,1.1,0.1,1.5,0.2c0.4,0.2,0.8,0.4,1,0.7
		c0.2,0.3,0.4,0.6,0.5,1c0.1,0.4,0.1,1,0.1,1.9l0,1h-4c0,0,0,0.1,0,0.1c0,0.4,0,0.6,0,0.8c0,0.6,0.1,1,0.2,1.3
		c0.1,0.2,0.4,0.4,0.7,0.4c0.3,0,0.5-0.1,0.6-0.3c0.1-0.2,0.2-0.5,0.2-0.8C112.6,140.5,112.6,140.4,112.6,140.1
		C112.6,140.2,112.6,140.2,112.6,140.1L112.6,140.1z M111,137.7h1.6c0,0,0,0,0,0c0-0.2,0-0.4,0-0.5c0-0.4-0.1-0.7-0.2-0.9
		c-0.1-0.2-0.4-0.3-0.6-0.3c-0.3,0-0.5,0.1-0.6,0.3c-0.1,0.2-0.2,0.5-0.2,1c0,0.1,0,0.2,0,0.3C111,137.5,111,137.6,111,137.7
		L111,137.7z M116.3,143.2l0-8.7h2.2l0,1.2c0.3-0.4,0.6-0.8,0.9-1c0.3-0.2,0.7-0.4,1.1-0.4l0,2.8c-0.1,0-0.3-0.1-0.4-0.1
		c-0.1,0-0.2,0-0.3,0c-0.4,0-0.7,0.1-0.8,0.4c-0.2,0.3-0.2,0.8-0.2,1.6l0,4.2H116.3L116.3,143.2z M121.3,134.5h2.4l0.9,5.6l0.9-5.6
		h2.4l-1.7,8c-0.3,1.5-0.7,2.5-1.1,3c-0.4,0.4-1.1,0.7-2,0.7c-0.1,0-0.3,0-0.4,0c-0.2,0-0.4,0-0.6-0.1l0-1.8c0,0,0,0,0,0
		c0.2,0,0.3,0,0.4,0c0.3,0,0.5-0.1,0.6-0.2c0.1-0.1,0.2-0.3,0.2-0.5c0-0.1-0.1-0.4-0.2-0.9c0-0.2-0.1-0.3-0.1-0.4L121.3,134.5
		L121.3,134.5z M136.7,135.1c0.3-0.2,0.5-0.4,0.7-0.6c0.1-0.2,0.2-0.4,0.2-0.7c0-0.2-0.1-0.4-0.2-0.5c-0.1-0.1-0.3-0.2-0.5-0.2
		c-0.2,0-0.4,0.1-0.5,0.2c-0.1,0.1-0.2,0.3-0.2,0.5c0,0.2,0,0.4,0.1,0.6C136.4,134.6,136.5,134.8,136.7,135.1L136.7,135.1z
		 M137.7,140.8l-1.7-2.7c-0.3,0.3-0.5,0.5-0.6,0.8c-0.1,0.3-0.2,0.5-0.2,0.8c0,0.5,0.1,0.8,0.4,1.1c0.3,0.3,0.6,0.4,1,0.4
		c0.2,0,0.3,0,0.5-0.1C137.3,141.1,137.5,141,137.7,140.8L137.7,140.8z M139.3,143.2l-0.4-0.6c-0.4,0.3-0.8,0.5-1.2,0.7
		c-0.4,0.1-0.9,0.2-1.4,0.2c-1,0-1.8-0.3-2.5-1c-0.6-0.6-0.9-1.5-0.9-2.5c0-0.7,0.2-1.4,0.5-2c0.3-0.6,0.9-1.2,1.6-1.7
		c-0.3-0.4-0.5-0.8-0.6-1.2c-0.1-0.4-0.2-0.8-0.2-1.2c0-0.8,0.3-1.4,0.8-1.9c0.6-0.5,1.3-0.7,2.1-0.7c0.9,0,1.5,0.2,2.1,0.7
		c0.5,0.5,0.8,1.1,0.8,1.8c0,0.6-0.2,1.1-0.5,1.6c-0.3,0.5-0.8,0.9-1.4,1.3l1.1,1.9c0.1-0.3,0.2-0.5,0.3-0.8
		c0.1-0.3,0.1-0.5,0.1-0.8h2c0,0.6-0.1,1.2-0.3,1.8c-0.2,0.6-0.4,1.2-0.8,1.8l1.6,2.6H139.3L139.3,143.2z M151,139.8h2.4
		c0,0,0,0.1,0,0.2c0,0.1,0,0.1,0,0.2c0,1.1-0.3,1.9-0.8,2.5c-0.5,0.6-1.3,0.8-2.4,0.8c-1.2,0-2-0.3-2.5-1c-0.5-0.7-0.7-1.9-0.7-3.6
		c0-1.7,0.2-2.9,0.7-3.6c0.5-0.7,1.3-1,2.5-1c1.1,0,1.9,0.3,2.4,0.8c0.5,0.5,0.8,1.4,0.8,2.6l0,0.2h-2.4l0-0.2
		c0-0.5-0.1-0.9-0.2-1.1c-0.1-0.2-0.3-0.3-0.6-0.3c-0.3,0-0.5,0.1-0.6,0.4c-0.1,0.3-0.2,1.1-0.2,2.3c0,1.2,0.1,2,0.2,2.3
		c0.1,0.3,0.3,0.5,0.6,0.5c0.3,0,0.4-0.1,0.6-0.4c0.1-0.2,0.2-0.6,0.2-1.1c0,0,0-0.1,0-0.2C151,139.9,151,139.8,151,139.8L151,139.8
		z M157.2,138.8c0,1.2,0.1,2,0.2,2.3c0.1,0.3,0.3,0.5,0.6,0.5c0.3,0,0.5-0.1,0.6-0.4c0.1-0.3,0.2-1.1,0.2-2.3c0-1.3-0.1-2-0.2-2.3
		c-0.1-0.3-0.3-0.4-0.6-0.4c-0.3,0-0.5,0.2-0.6,0.5C157.2,136.8,157.2,137.6,157.2,138.8L157.2,138.8z M154.7,138.8
		c0-1.7,0.2-2.9,0.7-3.6c0.5-0.7,1.3-1,2.5-1c1.2,0,2,0.3,2.5,1c0.5,0.7,0.7,1.9,0.7,3.6c0,1.7-0.2,2.9-0.7,3.6
		c-0.5,0.7-1.3,1-2.5,1c-1.2,0-2-0.3-2.5-1C154.9,141.7,154.7,140.6,154.7,138.8L154.7,138.8z M162.1,140.4l2.2,0
		c0,0.5,0.1,0.8,0.3,1c0.2,0.2,0.4,0.3,0.7,0.3c0.2,0,0.4-0.1,0.6-0.2c0.2-0.1,0.2-0.3,0.2-0.6c0-0.2-0.1-0.4-0.2-0.5
		c-0.1-0.1-0.3-0.3-0.7-0.5c-0.1,0-0.2-0.1-0.4-0.2c-0.9-0.4-1.5-0.8-1.8-1.1c-0.2-0.2-0.4-0.5-0.6-0.8c-0.1-0.3-0.2-0.7-0.2-1
		c0-0.8,0.3-1.4,0.8-1.9c0.5-0.5,1.3-0.7,2.2-0.7c1,0,1.7,0.2,2.2,0.7c0.5,0.5,0.8,1.1,0.8,2l0,0.2l-2.1,0c0-0.4-0.1-0.7-0.2-0.9
		c-0.1-0.2-0.3-0.3-0.6-0.3c-0.2,0-0.4,0.1-0.6,0.2c-0.1,0.1-0.2,0.3-0.2,0.5c0,0.4,0.4,0.7,1.1,1.1c0.1,0,0.2,0.1,0.2,0.1
		c1,0.4,1.7,0.9,2,1.3c0.3,0.4,0.5,1,0.5,1.7c0,0.9-0.3,1.6-0.8,2c-0.5,0.5-1.3,0.7-2.3,0.7c-1,0-1.7-0.2-2.2-0.7
		c-0.5-0.5-0.8-1.2-0.8-2.1L162.1,140.4L162.1,140.4z M169.4,143.2l0-8.7h2.2l0,1c0.3-0.4,0.6-0.7,0.9-0.9c0.3-0.2,0.7-0.3,1.1-0.3
		c0.4,0,0.7,0.1,1,0.3c0.3,0.2,0.5,0.5,0.7,0.9c0.3-0.4,0.6-0.7,0.9-0.9c0.3-0.2,0.7-0.3,1.1-0.3c0.6,0,1.1,0.2,1.4,0.7
		c0.3,0.4,0.4,1.2,0.4,2.1l0,6.1h-2.3l0-5.5c0-0.6,0-1-0.1-1.2c-0.1-0.2-0.2-0.2-0.5-0.2c-0.3,0-0.5,0.1-0.6,0.4
		c-0.1,0.3-0.2,0.6-0.2,1.1l0,5.5h-2.3l0-5.5c0-0.6,0-1-0.1-1.2c-0.1-0.2-0.2-0.2-0.5-0.2c-0.3,0-0.5,0.1-0.6,0.4
		c-0.1,0.3-0.2,0.6-0.2,1.1l0,5.5H169.4L169.4,143.2z M184.6,140.1h2.3l0,0.2c0,1-0.3,1.8-0.8,2.3c-0.5,0.5-1.3,0.8-2.4,0.8
		c-0.5,0-1-0.1-1.4-0.2c-0.4-0.1-0.8-0.4-1-0.6c-0.3-0.3-0.5-0.7-0.6-1.2c-0.1-0.5-0.2-1.3-0.2-2.4c0-1.2,0.1-2.1,0.2-2.6
		c0.1-0.5,0.3-0.9,0.6-1.2c0.3-0.3,0.6-0.5,1.1-0.7c0.4-0.2,0.9-0.2,1.5-0.2c0.6,0,1.1,0.1,1.5,0.2c0.4,0.2,0.8,0.4,1,0.7
		c0.2,0.3,0.4,0.6,0.5,1c0.1,0.4,0.1,1,0.1,1.9l0,1h-4c0,0,0,0.1,0,0.1c0,0.4,0,0.6,0,0.8c0,0.6,0.1,1,0.2,1.3
		c0.1,0.2,0.4,0.4,0.7,0.4c0.3,0,0.5-0.1,0.6-0.3c0.1-0.2,0.2-0.5,0.2-0.8C184.6,140.5,184.6,140.4,184.6,140.1
		C184.6,140.2,184.6,140.2,184.6,140.1L184.6,140.1z M183,137.7h1.6c0,0,0,0,0,0c0-0.2,0-0.4,0-0.5c0-0.4-0.1-0.7-0.2-0.9
		c-0.1-0.2-0.4-0.3-0.6-0.3c-0.3,0-0.5,0.1-0.6,0.3c-0.1,0.2-0.2,0.5-0.2,1c0,0.1,0,0.2,0,0.3C183,137.5,183,137.6,183,137.7
		L183,137.7z M192.3,143.2c-0.3,0.1-0.6,0.1-0.8,0.1c-0.2,0-0.4,0-0.6,0c-0.5,0-0.9-0.1-1.2-0.2c-0.3-0.2-0.6-0.4-0.8-0.7
		c-0.1-0.2-0.2-0.5-0.2-0.8c0-0.3-0.1-0.8-0.1-1.4l0-1.1l0-2.9h-0.9l0-1.8h0.9l0-2.4h2.5l0,2.4h1.2l0,1.8h-1.2l0,3.6
		c0,0.8,0.1,1.2,0.2,1.4c0.1,0.2,0.3,0.3,0.6,0.3c0.1,0,0.1,0,0.3,0c0,0,0.1,0,0.1,0L192.3,143.2L192.3,143.2z M193.5,133.6l0-2.1
		h2.4l0,2.1H193.5L193.5,133.6z M193.5,143.2l0-8.7h2.4l0,8.7H193.5L193.5,143.2z M201.3,139.8h2.4c0,0,0,0.1,0,0.2
		c0,0.1,0,0.1,0,0.2c0,1.1-0.3,1.9-0.8,2.5c-0.5,0.6-1.3,0.8-2.4,0.8c-1.2,0-2-0.3-2.5-1c-0.5-0.7-0.7-1.9-0.7-3.6
		c0-1.7,0.2-2.9,0.7-3.6c0.5-0.7,1.3-1,2.5-1c1.1,0,1.9,0.3,2.4,0.8c0.5,0.5,0.8,1.4,0.8,2.6l0,0.2h-2.4l0-0.2
		c0-0.5-0.1-0.9-0.2-1.1c-0.1-0.2-0.3-0.3-0.6-0.3c-0.3,0-0.5,0.1-0.6,0.4c-0.1,0.3-0.2,1.1-0.2,2.3c0,1.2,0.1,2,0.2,2.3
		c0.1,0.3,0.3,0.5,0.6,0.5c0.3,0,0.4-0.1,0.6-0.4c0.1-0.2,0.2-0.6,0.2-1.1c0,0,0-0.1,0-0.2C201.3,139.9,201.3,139.8,201.3,139.8
		L201.3,139.8z M204.7,140.4l2.2,0c0,0.5,0.1,0.8,0.3,1c0.2,0.2,0.4,0.3,0.7,0.3c0.2,0,0.4-0.1,0.6-0.2c0.2-0.1,0.2-0.3,0.2-0.6
		c0-0.2-0.1-0.4-0.2-0.5c-0.1-0.1-0.3-0.3-0.7-0.5c-0.1,0-0.2-0.1-0.4-0.2c-0.9-0.4-1.5-0.8-1.8-1.1c-0.2-0.2-0.4-0.5-0.6-0.8
		c-0.1-0.3-0.2-0.7-0.2-1c0-0.8,0.3-1.4,0.8-1.9c0.5-0.5,1.3-0.7,2.2-0.7c1,0,1.7,0.2,2.2,0.7c0.5,0.5,0.8,1.1,0.8,2l0,0.2l-2.1,0
		c0-0.4-0.1-0.7-0.2-0.9c-0.1-0.2-0.3-0.3-0.6-0.3c-0.2,0-0.4,0.1-0.6,0.2c-0.1,0.1-0.2,0.3-0.2,0.5c0,0.4,0.4,0.7,1.1,1.1
		c0.1,0,0.2,0.1,0.2,0.1c1,0.4,1.7,0.9,2,1.3c0.3,0.4,0.5,1,0.5,1.7c0,0.9-0.3,1.6-0.8,2c-0.5,0.5-1.3,0.7-2.3,0.7
		c-1,0-1.7-0.2-2.2-0.7c-0.5-0.5-0.8-1.2-0.8-2.1L204.7,140.4L204.7,140.4z"/>
</g>
</svg>
