<?xml version="1.0" encoding="utf-8"?>
<!-- Generator: Adobe Illustrator 22.0.1, SVG Export Plug-In . SVG Version: 6.00 Build 0)  -->
<svg version="1.1" id="Layer_1" xmlns="http://www.w3.org/2000/svg" xmlns:xlink="http://www.w3.org/1999/xlink" x="0px" y="0px"
	 viewBox="0 0 216 98.8" style="enable-background:new 0 0 216 98.8;" xml:space="preserve">
<style type="text/css">
	.st0{fill-rule:evenodd;clip-rule:evenodd;fill:#EC008C;}
	.st1{fill:#005D34;}
	.st2{fill:#ED1846;}
	.st3{fill-rule:evenodd;clip-rule:evenodd;fill:#FFFFFF;}
</style>
<g>
	<path d="M34.2,43.9l3.9,8.5h-7.5L34.2,43.9L34.2,43.9z M11.4,40.5H8v19.1h13.6v-3.1H11.4V40.5L11.4,40.5z M113.1,43.6v16.1h3.4
		V43.6h6.7v-3.1h-16.6v3.1H113.1L113.1,43.6z M76.9,56.7c-3.8,0-6.7-2.9-6.7-6.6c0-3.7,2.9-6.6,6.7-6.6c3.8,0,6.7,2.9,6.7,6.6
		C83.5,53.8,80.7,56.7,76.9,56.7L76.9,56.7z M56.5,43.5c2.9,0,4.5,1.6,5.4,2.4l2.4-2.3c-0.8-0.9-3.1-3.5-7.8-3.5
		c-5.5,0-10.4,3.7-10.4,10c0,6.3,4.8,10,10.3,10c4.2,0,7.1-2.3,8-3.1l-1.9-2.7c-1.5,1.3-3.9,2.4-6.1,2.4c-3.8,0-6.7-2.9-6.7-6.6
		C49.8,46.4,52.7,43.5,56.5,43.5L56.5,43.5z M89.9,57.8c0.8,0.6,3.1,2.3,7.2,2.3c4.1,0,7.5-2.2,7.5-5.7c0-7.3-10.5-5-10.5-8.9
		c0-1.1,0.9-2,3.4-2c2.9,0,4.8,1.3,5.5,1.9l1.4-2.8c-0.9-0.8-3.5-2.3-6.9-2.3c-5.1,0-7.2,2.9-7.2,5.7c0,6.6,10.5,4.7,10.5,8.6
		c0,1.7-1.7,2.4-3.5,2.4c-2.9,0-5.2-1.3-6.1-2L89.9,57.8L89.9,57.8z M140.8,40.5h-14.5v19.1h14.8v-3.1h-11.4v-5h9.7v-3.1h-9.7v-5
		h11.1V40.5L140.8,40.5z M41.5,59.7h4l-9.2-19.1h-3.8l-8.5,19.1h3.5l1.8-4.3h10.2L41.5,59.7L41.5,59.7z M76.9,60.1
		c5.5,0,10.4-3.7,10.4-10c0-6.3-4.9-10-10.4-10c-5.5,0-10.3,3.7-10.3,10C66.5,56.4,71.4,60.1,76.9,60.1L76.9,60.1z"/>
	<path class="st1" d="M185.3,49.1c-0.1,0.3-0.2,0.7-0.2,1c0,0.1-0.1,0.1-0.2,0.1c-0.4-0.2-0.8-0.4-1.2-0.6c-0.1,0-0.1-0.1,0-0.2
		c0.5-0.2,0.9-0.4,1.4-0.5C185.3,49,185.3,49,185.3,49.1L185.3,49.1z M183.1,48.3c-0.1,0.3-0.2,0.7-0.2,1c0,0.1-0.1,0.1-0.2,0.1
		c-0.4-0.2-0.8-0.4-1.2-0.6c-0.1,0-0.1-0.1,0-0.2c0.5-0.2,0.9-0.4,1.4-0.5C183,48.2,183.1,48.2,183.1,48.3L183.1,48.3z M182.4,51.5
		c0,0.1-0.1,0.1-0.2,0.1c-0.4-0.2-0.8-0.4-1.2-0.6c-0.1,0-0.1-0.1,0-0.2c0.5-0.2,0.9-0.4,1.4-0.5c0.1,0,0.2,0,0.1,0.1
		C182.5,50.8,182.4,51.1,182.4,51.5L182.4,51.5z M180.7,47.9c-0.1,0.3-0.2,0.7-0.2,1c0,0.1-0.1,0.1-0.2,0.1
		c-0.4-0.2-0.8-0.4-1.2-0.6c-0.1,0-0.1-0.1,0-0.2c0.5-0.2,0.9-0.4,1.5-0.5C180.7,47.8,180.7,47.9,180.7,47.9L180.7,47.9z M180.2,50
		c-0.1,0.3-0.2,0.7-0.2,1c0,0.1-0.1,0.1-0.2,0.1c-0.4-0.2-0.8-0.4-1.2-0.6c-0.1,0-0.1-0.1,0-0.2c0.5-0.2,0.9-0.4,1.5-0.5
		C180.2,49.9,180.3,49.9,180.2,50L180.2,50z M179.8,52.1c-0.1,0.3-0.2,0.7-0.2,1c0,0.1-0.1,0.1-0.2,0.1c-0.4-0.2-0.8-0.4-1.2-0.6
		c-0.1,0-0.1-0.1,0-0.2c0.5-0.2,0.9-0.4,1.4-0.5C179.7,52,179.8,52.1,179.8,52.1L179.8,52.1z M178,48.9c0,0.1-0.1,0.1-0.2,0.1
		c-0.4-0.2-0.8-0.4-1.2-0.6c-0.1,0-0.1-0.1,0-0.2c0.5-0.2,0.9-0.4,1.5-0.5c0.1,0,0.2,0,0.1,0.1C178.2,48.2,178.1,48.6,178,48.9
		L178,48.9z M177.8,49.9c-0.1,0.3-0.2,0.7-0.2,1c0,0.1-0.1,0.1-0.2,0.1c-0.4-0.2-0.8-0.4-1.2-0.6c-0.1,0-0.1-0.1,0-0.2
		c0.5-0.2,1-0.4,1.5-0.5C177.8,49.8,177.8,49.9,177.8,49.9L177.8,49.9z M177.3,52c-0.1,0.3-0.2,0.7-0.2,1c0,0.1-0.1,0.1-0.2,0.1
		c-0.4-0.2-0.8-0.4-1.2-0.6c-0.1,0-0.1-0.1,0-0.2c0.5-0.2,0.9-0.4,1.5-0.5C177.3,51.9,177.4,52,177.3,52L177.3,52z M175.4,49.2
		c-0.4-0.2-0.8-0.4-1.2-0.6c-0.1,0-0.1-0.1,0-0.2c0.5-0.2,0.9-0.4,1.4-0.5c0.1,0,0.2,0,0.1,0.1c-0.1,0.3-0.2,0.7-0.2,1
		C175.6,49.2,175.5,49.2,175.4,49.2L175.4,49.2z M175.3,50.2c-0.1,0.3-0.2,0.7-0.2,1c0,0.1-0.1,0.1-0.2,0.1
		c-0.4-0.2-0.8-0.4-1.2-0.6c-0.1,0-0.1-0.1,0-0.2c0.5-0.2,0.9-0.4,1.4-0.5C175.3,50.1,175.4,50.1,175.3,50.2L175.3,50.2z
		 M174.9,52.3c-0.1,0.3-0.2,0.7-0.2,1c0,0.1-0.1,0.1-0.2,0.1c-0.4-0.2-0.8-0.4-1.2-0.6c-0.1,0-0.1-0.1,0-0.2
		c0.5-0.2,0.9-0.4,1.4-0.5C174.8,52.2,174.9,52.2,174.9,52.3L174.9,52.3z M172.9,49.6c-0.4-0.2-0.8-0.4-1.2-0.6
		c-0.1,0-0.1-0.1,0-0.2c0.5-0.2,0.9-0.4,1.5-0.5c0.1,0,0.2,0,0.1,0.1c-0.1,0.3-0.2,0.7-0.2,1C173.1,49.6,173,49.6,172.9,49.6
		L172.9,49.6z M172.6,51.7c0,0.1-0.1,0.1-0.2,0.1c-0.4-0.2-0.8-0.4-1.2-0.6c-0.1,0-0.1-0.1,0-0.2c0.5-0.2,0.9-0.4,1.4-0.5
		c0.1,0,0.2,0,0.1,0.1C172.8,51,172.7,51.4,172.6,51.7L172.6,51.7z M172.1,53.8c0,0.1-0.1,0.1-0.2,0.1c-0.4-0.2-0.8-0.4-1.2-0.6
		c-0.1,0-0.1-0.1,0-0.2c0.5-0.2,0.9-0.4,1.4-0.5c0.1,0,0.2,0,0.1,0.1C172.3,53.2,172.2,53.5,172.1,53.8L172.1,53.8z M170.6,50.1
		c0,0.1-0.1,0.1-0.2,0.1c-0.4-0.2-0.8-0.4-1.2-0.6c-0.1,0-0.1-0.1,0-0.2c0.5-0.2,0.9-0.4,1.4-0.5c0.1,0,0.2,0,0.1,0.1
		C170.8,49.4,170.7,49.7,170.6,50.1L170.6,50.1z M170.4,51.4c-0.1,0.3-0.2,0.7-0.2,1c0,0.1-0.1,0.1-0.2,0.1
		c-0.4-0.2-0.8-0.4-1.2-0.6c-0.1,0-0.1-0.1,0-0.2c0.5-0.2,0.9-0.4,1.4-0.5C170.3,51.2,170.4,51.3,170.4,51.4L170.4,51.4z
		 M169.9,53.6c-0.1,0.3-0.2,0.7-0.2,1c0,0.1-0.1,0.1-0.2,0.1c-0.4-0.2-0.8-0.4-1.2-0.6c-0.1,0-0.1-0.1,0-0.2
		c0.5-0.2,0.9-0.4,1.4-0.5C169.8,53.4,169.9,53.5,169.9,53.6L169.9,53.6z M168,50.8c-0.4-0.2-0.8-0.4-1.2-0.6c-0.1,0-0.1-0.1,0-0.2
		c0.5-0.2,0.9-0.4,1.4-0.5c0.1,0,0.2,0,0.1,0.1c-0.1,0.3-0.2,0.7-0.2,1C168.2,50.9,168.1,50.9,168,50.8L168,50.8z M167.9,52
		c-0.1,0.3-0.2,0.7-0.2,1c0,0.1-0.1,0.1-0.2,0.1c-0.4-0.2-0.8-0.4-1.2-0.6c-0.1,0-0.1-0.1,0-0.2c0.5-0.2,0.9-0.4,1.4-0.5
		C167.9,51.8,167.9,51.9,167.9,52L167.9,52z M165.8,50.9c0,0.1-0.1,0.1-0.2,0.1c-0.4-0.2-0.8-0.4-1.2-0.6c-0.1,0-0.1-0.1,0-0.2
		c0.5-0.2,0.9-0.4,1.4-0.5c0.1,0,0.2,0,0.1,0.1C165.9,50.3,165.8,50.6,165.8,50.9L165.8,50.9z M165.3,53c0,0.1-0.1,0.1-0.2,0.1
		c-0.4-0.2-0.8-0.4-1.2-0.6c-0.1,0-0.1-0.1,0-0.2c0.5-0.2,0.9-0.4,1.4-0.5c0.1,0,0.2,0,0.1,0.1C165.4,52.4,165.4,52.7,165.3,53
		L165.3,53z M163,49c-0.1,0-0.1-0.1,0-0.2c0.5-0.2,0.9-0.4,1.4-0.5c0.1,0,0.2,0,0.1,0.1c-0.1,0.3-0.2,0.7-0.2,1
		c0,0.1-0.1,0.1-0.2,0.1C163.8,49.4,163.4,49.2,163,49L163,49z M163.2,51.9c0,0.1-0.1,0.1-0.2,0.1c-0.4-0.2-0.8-0.4-1.2-0.6
		c-0.1,0-0.1-0.1,0-0.2c0.5-0.2,0.9-0.4,1.4-0.5c0.1,0,0.2,0,0.1,0.1C163.3,51.3,163.2,51.6,163.2,51.9L163.2,51.9z M160.6,49.5
		c-0.1,0-0.1-0.1,0-0.2c0.5-0.2,0.9-0.4,1.4-0.5c0.1,0,0.2,0,0.1,0.1c-0.1,0.3-0.2,0.7-0.2,1c0,0.1-0.1,0.1-0.2,0.1
		C161.4,49.9,161,49.7,160.6,49.5L160.6,49.5z M160.3,47.4c0.5-0.2,0.9-0.4,1.5-0.5c0.1,0,0.2,0,0.1,0.1c-0.1,0.3-0.2,0.7-0.2,1
		c0,0.1-0.1,0.1-0.2,0.1c-0.4-0.2-0.8-0.4-1.2-0.6C160.2,47.5,160.2,47.4,160.3,47.4L160.3,47.4z M160.9,45.4
		c0.5-0.2,0.9-0.4,1.4-0.5c0.1,0,0.2,0,0.1,0.1c-0.1,0.3-0.2,0.7-0.2,1c0,0.1-0.1,0.1-0.2,0.1c-0.4-0.2-0.8-0.4-1.2-0.6
		C160.8,45.5,160.8,45.4,160.9,45.4L160.9,45.4z M162.4,43.6c0.5-0.2,0.9-0.4,1.5-0.5c0.1,0,0.2,0,0.1,0.1c-0.1,0.3-0.2,0.7-0.2,1
		c0,0.1-0.1,0.1-0.2,0.1c-0.4-0.2-0.8-0.4-1.2-0.6C162.3,43.8,162.3,43.7,162.4,43.6L162.4,43.6z M164.4,46.5
		c-0.1,0.3-0.2,0.7-0.2,1c0,0.1-0.1,0.1-0.2,0.1c-0.4-0.2-0.8-0.4-1.2-0.6c-0.1,0-0.1-0.1,0-0.2c0.5-0.2,0.9-0.4,1.4-0.5
		C164.3,46.4,164.4,46.4,164.4,46.5L164.4,46.5z M165.3,44.6c0.1,0,0.2,0,0.1,0.1c-0.1,0.3-0.2,0.7-0.2,1c0,0.1-0.1,0.1-0.2,0.1
		c-0.4-0.2-0.8-0.4-1.2-0.6c-0.1,0-0.1-0.1,0-0.2C164.3,44.8,164.8,44.7,165.3,44.6L165.3,44.6z M164.4,42.3
		c0.5-0.2,0.9-0.4,1.4-0.5c0.1,0,0.2,0,0.1,0.1c-0.1,0.3-0.2,0.7-0.2,1c0,0.1-0.1,0.1-0.2,0.1c-0.4-0.2-0.8-0.4-1.2-0.6
		C164.3,42.4,164.3,42.4,164.4,42.3L164.4,42.3z M166.6,41.3c0.5-0.2,0.9-0.4,1.4-0.5c0.1,0,0.2,0,0.1,0.1c-0.1,0.3-0.2,0.7-0.2,1
		c0,0.1-0.1,0.1-0.2,0.1c-0.4-0.2-0.8-0.4-1.2-0.6C166.5,41.4,166.5,41.3,166.6,41.3L166.6,41.3z M194.3,47.4c0.7,0,1.1,0.5,1.2,0.7
		c0,0-1,0.2-1.4,0.3c-0.3,0.1-0.5-0.1-0.5-0.3C193.4,47.9,193.7,47.4,194.3,47.4L194.3,47.4z M196.8,47.5c0.1-0.3,0.3-0.4,0.5-0.4
		c0.4,0,0.6,0.4,0.6,0.6l-1,0.2C196.6,47.9,196.7,47.7,196.8,47.5L196.8,47.5z M207.6,55.6c-0.4-0.3-0.8-0.3-1.2-0.4
		c-0.5-0.2-0.7-0.8-0.9-0.9c-0.4-0.2-0.7,0.4-1,0.4c-0.2-0.1-0.3-0.8-0.5-0.9c-0.4-0.1-0.8,0.5-1,0.4c-0.2-0.1-0.4-0.8-0.5-0.9
		c-0.4-0.1-0.8,0.5-1,0.4c-0.2-0.1-0.3-0.9-0.5-0.9c-0.4-0.2-0.8,0.5-1.1,0.4c-0.2,0-0.7-0.1-1.4-0.6c-0.2-0.1-0.6-0.4-0.6-0.5
		c-0.1,0-0.2-0.1-0.2,0.3c0.1,0.8,1.5,1.4,3.1,1.8c1.6,0.5,3.2,0.9,4.1,1.3c0.6,0.3,0.8,0.6,0.6,0.9c-0.2,0.2-0.6,0.3-1,0.1
		c-0.5-0.2-0.5-0.6-0.8-0.7c-0.4-0.1-0.8,0.6-1.1,0.5c-0.4-0.1-0.4-0.9-0.7-1c-0.4-0.1-0.9,0.6-1.2,0.5c-0.3-0.1-0.4-0.9-0.7-1
		c-0.5-0.1-0.9,0.6-1.2,0.5c-0.3-0.1-0.4-0.9-0.7-1c-0.5-0.2-1.1,0.5-1.7,0.2c-2-1.4-1.6-2.1-3.2-2.6c-0.8-0.2-1.8,0.1-2.4,0.1
		c-1.4,0.1-1.3-1.1-1.3-1.1c0.4,0.1,1,0.3,2,0c1.1-0.4,1.7-0.5,3.2,0c1.2,0.4,2,0,2.4-0.1c0.2-0.1,0.4-0.2,0.8,0.1
		c0.4,0.3,0.8,0.5,1,0.4c0.3-0.1,0.2-1,0.7-1.1c0.2-0.1,0.9,0.6,1.2,0.5c0.3-0.1,0.2-1,0.7-1.1c0.2-0.1,0.9,0.6,1.2,0.5
		c0.3-0.1,0.2-1,0.7-1.1c0.2-0.1,0.9,0.6,1.2,0.5c0.3-0.1,0.2-1,0.7-1.1c0.2-0.1,0.9,0.6,1.2,0.5v0c0.3-0.1,0.2-0.3,0.5-0.9
		c0-0.1,0.1-0.2,0.2-0.3c0.3-0.3,0.8-0.8,0.5-1.4c-0.3-0.6-0.8-0.5-1.9-0.3c-1,0.2-7,1.5-7,1.5c-0.9-1.8-1.6-0.6-3-0.8
		c-0.9-0.1-2.3-1-4.6,1.1c-1.2-0.3-2.3,0-3.1,0.4c-1.4-0.6-4-1.9-8.9-1.9c-1.4,0-4.7,0.3-10.1,1.7c-1.4,0.4-2.6,0.3-2.9-0.5
		c-0.3-0.8,0.8-1.7,2.8-2.7c5.1-2.4,8.5-1.9,15.4-5.5c3.7-1.9,3.9-4.2,3.9-4.8c0-0.2-0.1-0.4-0.3-0.4h0c-0.1,0-0.2,0.1-0.3,0.2
		c-1.2,1.7-1.6,1.6-1.9,1.2c-0.5-0.5-0.9,0.3-1.4,0.7c-0.4,0.3-0.5-0.1-0.8-0.3c-0.6-0.4-1.1,0.7-1.6,1c-0.6,0.3-0.7,0-0.9-0.2
		c-0.1-0.1-0.4-0.1-0.6,0c-1.2,1.1-1.3,1-1.7,0.6c-0.3-0.3-0.4-0.5-1.2,0.3c-0.4,0.4-1.2,1-1.4,0.4c-0.2-0.6-0.4-0.9-1.5,0.1
		c-0.6,0.6-1.1,0.6-1.3,0.4c-0.2-0.3-0.2-1-1.2-0.2c-0.9,0.7-1.4,1.1-1.7,0.4c-0.3-0.7-0.9-0.1-1.5,0.4c-0.3,0.3-0.7,0.9-1.1,0.2
		c-0.4-0.6-0.9,0-1.6,0.8c-0.4,0.4-0.7,0.2-1.1,0c-0.5-0.3-1,0.9-1.6,1.6c-0.1,0.1-0.3,0.2-0.7-0.1c-0.5-0.4-1.4,1.5-1.6,1.9
		c-0.4,0.7-0.8-0.2-1.3,0.5c-1,1.5-2.2,3.2-2.5,6.3c-0.4,3.6,1,6.5,2.3,7.6c0,0-0.2,0.4-0.4,0.9c-0.4,1-0.5,2.3-0.1,3.3
		c0.5,0.9,1.6,2.4,2,1c0.2-0.7,0.4-0.6,1-0.2c1,0.7,0.8-0.6,1-1c0.1-0.3,0.3-0.4,1.1,0.2c0.5,0.3,0.6-0.1,0.8-0.7
		c0.4-1.8-0.4-2.2-1.3-2.4c-0.6-0.1-1.3,0-1.3,0c1.3-2,1.5-3.2,0-4.2c0.2-0.1,0.4-0.1,0.6,0c0.4,0.2,0.7,0.4,0.9,0.8
		c0.2,0.4,0.5,1.2-0.1,2.6c0.3,0,1.4,0.1,1.9,1.2c0.7,0.2,4.9,0.5,6.8,0.2c0.7-0.1,1-0.7,1.6-1.3c0.7-0.7,1.6-1.4,2.4-0.9
		c-1.3,0.5-2.2,1.5-2.2,2.8c0,1,0.4,1.3,1.1,1.9c0.6,0.5,0.8,1.3,1,2c0.3,0.8,0.9,0.8,1,0.1c0.2-1.1,0.5-0.9,0.9-0.4
		c0.5,0.6,0.9,0.5,0.9-0.3c0-0.7,0.2-1.1,1.1-0.3c0.3,0.4,0.8,0.3,0.7-0.4c0-0.9,0.4-0.8,0.9-0.4c0.2,0.1,0.3,0.2,0.4,0.2
		c0.4,0,0.7-0.8,0.4-1.5c-0.2-0.3-0.4-0.8-2.5-1.2c-0.7-0.1-0.6-0.6-0.6-0.6c5.2,0.3,9.7-0.4,12.6-2.2c3.6,0.9,8.8,0.9,10.5,0.9
		c1.7,0,3-0.1,4.1-0.6C208.3,56.8,208.1,56,207.6,55.6L207.6,55.6z"/>
	<path class="st2" d="M194.6,51.1c-1.5-0.5-2.1-0.4-3.2,0c-1,0.4-1.6,0.1-2,0c0,0-0.1,1.2,1.3,1.1c0.6-0.1,1.6-0.4,2.4-0.1
		c1.6,0.5,1.2,1.2,3.2,2.6c0.6,0.3,1.2-0.4,1.7-0.2c0.2,0.1,0.4,0.9,0.7,1c0.3,0.1,0.8-0.6,1.2-0.5c0.3,0.1,0.4,0.9,0.7,1
		c0.3,0.1,0.8-0.6,1.2-0.5c0.3,0.1,0.4,0.9,0.7,1c0.3,0.1,0.8-0.6,1.1-0.5c0.3,0.1,0.3,0.4,0.8,0.7c0.4,0.2,0.8,0.2,1-0.1
		c0.2-0.3,0-0.6-0.6-0.9c-1-0.4-2.6-0.9-4.1-1.3c-1.6-0.5-3-1-3.1-1.8c0-0.3,0.1-0.3,0.2-0.3c-0.6-0.5-0.7-0.9-0.7-1.1h0
		c-0.1,0-0.1,0-0.2,0.1C196.6,51.2,195.8,51.6,194.6,51.1L194.6,51.1z"/>
	<path class="st3" d="M196.7,47.5c0.1-0.3,0.3-0.4,0.5-0.4c0.4,0,0.6,0.4,0.6,0.6l-1,0.2C196.6,47.9,196.6,47.7,196.7,47.5
		L196.7,47.5z M185.3,49.1c-0.1,0.3-0.2,0.7-0.2,1c0,0.1-0.1,0.1-0.2,0.1c-0.4-0.2-0.8-0.4-1.2-0.6c-0.1,0-0.1-0.1,0-0.2
		c0.5-0.2,0.9-0.4,1.4-0.5C185.2,49,185.3,49,185.3,49.1L185.3,49.1z M183.1,48.3c-0.1,0.3-0.2,0.7-0.2,1c0,0.1-0.1,0.1-0.2,0.1
		c-0.4-0.2-0.8-0.4-1.2-0.6c-0.1,0-0.1-0.1,0-0.2c0.5-0.2,0.9-0.4,1.4-0.5C183,48.2,183.1,48.2,183.1,48.3L183.1,48.3z M182.3,51.5
		c0,0.1-0.1,0.1-0.2,0.1c-0.4-0.2-0.8-0.4-1.2-0.6c-0.1,0-0.1-0.1,0-0.2c0.5-0.2,0.9-0.4,1.4-0.5c0.1,0,0.2,0,0.1,0.1
		C182.5,50.8,182.4,51.1,182.3,51.5L182.3,51.5z M180.7,47.9c-0.1,0.3-0.2,0.7-0.2,1c0,0.1-0.1,0.1-0.2,0.1
		c-0.4-0.2-0.8-0.4-1.2-0.6c-0.1,0-0.1-0.1,0-0.2c0.5-0.2,0.9-0.4,1.5-0.5C180.7,47.8,180.7,47.9,180.7,47.9L180.7,47.9z M180.2,50
		c-0.1,0.3-0.2,0.7-0.2,1c0,0.1-0.1,0.1-0.2,0.1c-0.4-0.2-0.8-0.4-1.2-0.6c-0.1,0-0.1-0.1,0-0.2c0.5-0.2,0.9-0.4,1.5-0.5
		C180.2,49.9,180.2,49.9,180.2,50L180.2,50z M179.8,52.1c-0.1,0.3-0.2,0.7-0.2,1c0,0.1-0.1,0.1-0.2,0.1c-0.4-0.2-0.8-0.4-1.2-0.6
		c-0.1,0-0.1-0.1,0-0.2c0.5-0.2,0.9-0.4,1.4-0.5C179.7,52,179.8,52.1,179.8,52.1L179.8,52.1z M178,48.9c0,0.1-0.1,0.1-0.2,0.1
		c-0.4-0.2-0.8-0.4-1.2-0.6c-0.1,0-0.1-0.1,0-0.2c0.5-0.2,0.9-0.4,1.5-0.5c0.1,0,0.2,0,0.1,0.1C178.2,48.2,178.1,48.6,178,48.9
		L178,48.9z M177.8,49.9c-0.1,0.3-0.2,0.7-0.2,1c0,0.1-0.1,0.1-0.2,0.1c-0.4-0.2-0.8-0.4-1.2-0.6c-0.1,0-0.1-0.1,0-0.2
		c0.5-0.2,1-0.4,1.5-0.5C177.7,49.8,177.8,49.9,177.8,49.9L177.8,49.9z M177.3,52c-0.1,0.3-0.2,0.7-0.2,1c0,0.1-0.1,0.1-0.2,0.1
		c-0.4-0.2-0.8-0.4-1.2-0.6c-0.1,0-0.1-0.1,0-0.2c0.5-0.2,0.9-0.4,1.5-0.5C177.3,51.9,177.3,52,177.3,52L177.3,52z M175.4,49.2
		c-0.4-0.2-0.8-0.4-1.2-0.6c-0.1,0-0.1-0.1,0-0.2c0.5-0.2,0.9-0.4,1.4-0.5c0.1,0,0.2,0,0.1,0.1c-0.1,0.3-0.2,0.7-0.2,1
		C175.6,49.2,175.5,49.2,175.4,49.2L175.4,49.2z M175.3,50.2c-0.1,0.3-0.2,0.7-0.2,1c0,0.1-0.1,0.1-0.2,0.1
		c-0.4-0.2-0.8-0.4-1.2-0.6c-0.1,0-0.1-0.1,0-0.2c0.5-0.2,0.9-0.4,1.4-0.5C175.3,50.1,175.4,50.1,175.3,50.2L175.3,50.2z
		 M174.9,52.3c-0.1,0.3-0.2,0.7-0.2,1c0,0.1-0.1,0.1-0.2,0.1c-0.4-0.2-0.8-0.4-1.2-0.6c-0.1,0-0.1-0.1,0-0.2
		c0.5-0.2,0.9-0.4,1.4-0.5C174.8,52.2,174.9,52.2,174.9,52.3L174.9,52.3z M172.9,49.6c-0.4-0.2-0.8-0.4-1.2-0.6
		c-0.1,0-0.1-0.1,0-0.2c0.5-0.2,0.9-0.4,1.5-0.5c0.1,0,0.2,0,0.1,0.1c-0.1,0.3-0.2,0.7-0.2,1C173.1,49.6,173,49.6,172.9,49.6
		L172.9,49.6z M172.6,51.7c0,0.1-0.1,0.1-0.2,0.1c-0.4-0.2-0.8-0.4-1.2-0.6c-0.1,0-0.1-0.1,0-0.2c0.5-0.2,0.9-0.4,1.4-0.5
		c0.1,0,0.2,0,0.1,0.1C172.7,51,172.7,51.4,172.6,51.7L172.6,51.7z M172.1,53.8c0,0.1-0.1,0.1-0.2,0.1c-0.4-0.2-0.8-0.4-1.2-0.6
		c-0.1,0-0.1-0.1,0-0.2c0.5-0.2,0.9-0.4,1.4-0.5c0.1,0,0.2,0,0.1,0.1C172.3,53.1,172.2,53.5,172.1,53.8L172.1,53.8z M170.6,50.1
		c0,0.1-0.1,0.1-0.2,0.1c-0.4-0.2-0.8-0.4-1.2-0.6c-0.1,0-0.1-0.1,0-0.2c0.5-0.2,0.9-0.4,1.4-0.5c0.1,0,0.2,0,0.1,0.1
		C170.8,49.4,170.7,49.7,170.6,50.1L170.6,50.1z M170.3,51.4c-0.1,0.3-0.2,0.7-0.2,1c0,0.1-0.1,0.1-0.2,0.1
		c-0.4-0.2-0.8-0.4-1.2-0.6c-0.1,0-0.1-0.1,0-0.2c0.5-0.2,0.9-0.4,1.4-0.5C170.3,51.2,170.4,51.3,170.3,51.4L170.3,51.4z
		 M169.9,53.6c-0.1,0.3-0.2,0.7-0.2,1c0,0.1-0.1,0.1-0.2,0.1c-0.4-0.2-0.8-0.4-1.2-0.6c-0.1,0-0.1-0.1,0-0.2
		c0.5-0.2,0.9-0.4,1.4-0.5C169.8,53.4,169.9,53.5,169.9,53.6L169.9,53.6z M168,50.8c-0.4-0.2-0.8-0.4-1.2-0.6c-0.1,0-0.1-0.1,0-0.2
		c0.5-0.2,0.9-0.4,1.4-0.5c0.1,0,0.2,0,0.1,0.1c-0.1,0.3-0.2,0.7-0.2,1C168.2,50.9,168.1,50.9,168,50.8L168,50.8z M167.9,52
		c-0.1,0.3-0.2,0.7-0.2,1c0,0.1-0.1,0.1-0.2,0.1c-0.4-0.2-0.8-0.4-1.2-0.6c-0.1,0-0.1-0.1,0-0.2c0.5-0.2,0.9-0.4,1.4-0.5
		C167.9,51.8,167.9,51.9,167.9,52L167.9,52z M165.8,50.9c0,0.1-0.1,0.1-0.2,0.1c-0.4-0.2-0.8-0.4-1.2-0.6c-0.1,0-0.1-0.1,0-0.2
		c0.5-0.2,0.9-0.4,1.4-0.5c0.1,0,0.2,0,0.1,0.1C165.9,50.3,165.8,50.6,165.8,50.9L165.8,50.9z M165.3,53c0,0.1-0.1,0.1-0.2,0.1
		c-0.4-0.2-0.8-0.4-1.2-0.6c-0.1,0-0.1-0.1,0-0.2c0.5-0.2,0.9-0.4,1.4-0.5c0.1,0,0.2,0,0.1,0.1C165.4,52.4,165.4,52.7,165.3,53
		L165.3,53z M163,49c-0.1,0-0.1-0.1,0-0.2c0.5-0.2,0.9-0.4,1.4-0.5c0.1,0,0.2,0,0.1,0.1c-0.1,0.3-0.2,0.7-0.2,1
		c0,0.1-0.1,0.1-0.2,0.1C163.8,49.4,163.4,49.2,163,49L163,49z M163.1,51.9c0,0.1-0.1,0.1-0.2,0.1c-0.4-0.2-0.8-0.4-1.2-0.6
		c-0.1,0-0.1-0.1,0-0.2c0.5-0.2,0.9-0.4,1.4-0.5c0.1,0,0.2,0,0.1,0.1C163.3,51.3,163.2,51.6,163.1,51.9L163.1,51.9z M160.6,49.5
		c-0.1,0-0.1-0.1,0-0.2c0.5-0.2,0.9-0.4,1.4-0.5c0.1,0,0.2,0,0.1,0.1c-0.1,0.3-0.2,0.7-0.2,1c0,0.1-0.1,0.1-0.2,0.1
		C161.4,49.9,161,49.7,160.6,49.5L160.6,49.5z M160.3,47.4c0.5-0.2,0.9-0.4,1.5-0.5c0.1,0,0.2,0,0.1,0.1c-0.1,0.3-0.2,0.7-0.2,1
		c0,0.1-0.1,0.1-0.2,0.1c-0.4-0.2-0.8-0.4-1.2-0.6C160.2,47.5,160.2,47.4,160.3,47.4L160.3,47.4z M160.9,45.4
		c0.5-0.2,0.9-0.4,1.4-0.5c0.1,0,0.2,0,0.1,0.1c-0.1,0.3-0.2,0.7-0.2,1c0,0.1-0.1,0.1-0.2,0.1c-0.4-0.2-0.8-0.4-1.2-0.6
		C160.8,45.5,160.8,45.4,160.9,45.4L160.9,45.4z M162.4,43.6c0.5-0.2,0.9-0.4,1.5-0.5c0.1,0,0.2,0,0.1,0.1c-0.1,0.3-0.2,0.7-0.2,1
		c0,0.1-0.1,0.1-0.2,0.1c-0.4-0.2-0.8-0.4-1.2-0.6C162.3,43.8,162.3,43.7,162.4,43.6L162.4,43.6z M164.4,46.5
		c-0.1,0.3-0.2,0.7-0.2,1c0,0.1-0.1,0.1-0.2,0.1c-0.4-0.2-0.8-0.4-1.2-0.6c-0.1,0-0.1-0.1,0-0.2c0.5-0.2,0.9-0.4,1.4-0.5
		C164.3,46.4,164.4,46.4,164.4,46.5L164.4,46.5z M165.3,44.6c0.1,0,0.2,0,0.1,0.1c-0.1,0.3-0.2,0.7-0.2,1c0,0.1-0.1,0.1-0.2,0.1
		c-0.4-0.2-0.8-0.4-1.2-0.6c-0.1,0-0.1-0.1,0-0.2C164.3,44.8,164.8,44.7,165.3,44.6L165.3,44.6z M164.3,42.3
		c0.5-0.2,0.9-0.4,1.4-0.5c0.1,0,0.2,0,0.1,0.1c-0.1,0.3-0.2,0.7-0.2,1c0,0.1-0.1,0.1-0.2,0.1c-0.4-0.2-0.8-0.4-1.2-0.6
		C164.3,42.4,164.3,42.4,164.3,42.3L164.3,42.3z M166.5,41.3c0.5-0.2,0.9-0.4,1.4-0.5c0.1,0,0.2,0,0.1,0.1c-0.1,0.3-0.2,0.7-0.2,1
		c0,0.1-0.1,0.1-0.2,0.1c-0.4-0.2-0.8-0.4-1.2-0.6C166.5,41.4,166.5,41.3,166.5,41.3L166.5,41.3z M194.3,47.4c0.7,0,1.1,0.5,1.2,0.7
		c0,0-1,0.2-1.4,0.3c-0.3,0.1-0.5-0.1-0.5-0.3C193.4,47.9,193.7,47.4,194.3,47.4L194.3,47.4z"/>
</g>
</svg>
