<?xml version="1.0" encoding="utf-8"?>
<!-- Generator: Adobe Illustrator 22.0.1, SVG Export Plug-In . SVG Version: 6.00 Build 0)  -->
<svg version="1.1" id="Layer_1" xmlns="http://www.w3.org/2000/svg" xmlns:xlink="http://www.w3.org/1999/xlink" x="0px" y="0px"
	 viewBox="0 0 274 225" style="enable-background:new 0 0 274 225;" xml:space="preserve">
<style type="text/css">
	.st0{fill-rule:evenodd;clip-rule:evenodd;fill:#EC008C;}
	.st1{clip-path:url(#SVGID_2_);fill:#004793;}
	.st2{clip-path:url(#SVGID_2_);}
	.st3{clip-path:url(#SVGID_4_);fill:#004793;}
</style>
<g>
	<g>
		<defs>
			<rect id="SVGID_1_" x="63.7" y="89.7" width="146.6" height="45.6"/>
		</defs>
		<clipPath id="SVGID_2_">
			<use xlink:href="#SVGID_1_"  style="overflow:visible;"/>
		</clipPath>
		<path class="st1" d="M122.2,94.6l-10.3,35.7H123l2-8.6h8.9l2,8.6h11.2l-10.3-35.7H122.2z M126.6,114.4l2.8-12.5l2.8,12.5H126.6z"
			/>
		<g class="st2">
			<defs>
				<rect id="SVGID_3_" x="63.7" y="89.7" width="146.6" height="45.6"/>
			</defs>
			<clipPath id="SVGID_4_">
				<use xlink:href="#SVGID_3_"  style="overflow:visible;"/>
			</clipPath>
			<path class="st3" d="M168.3,109.7c-0.5-0.3-1.3-0.6-2.2-1l-2.8-1.2c-2.2-0.9-3.4-2-3.4-3.3c0-2,1.3-3.1,4-3.1
				c1.8,0,3.6,0.5,5.4,1.5c0.5,0.3,1.3,0.8,2.2,1.6l0.7,0.4v-8.8c-3-1.3-6.2-2-9.6-2c-4,0-7.1,0.9-9.4,2.6c-2.6,1.9-3.9,4.8-3.9,8.6
				c0,3.1,0.9,5.5,2.8,7.3c1.2,1.2,3,2.3,5.4,3.3l2.5,1c2.4,0.9,3.6,2.1,3.6,3.5c0,2.2-1.7,3.3-5,3.3c-3,0-5.4-0.7-7.4-2.1
				c-0.5-0.4-1.6-1.2-1.6-1.2c-0.1,3.9,0,9.1,0,9.1c2.9,1.1,6.1,1.7,9.4,1.7c6.4,0,10.8-1.8,13.2-5.3c1.3-2,2-4.2,2-6.6
				C174.3,115,172.3,111.8,168.3,109.7"/>
			<path class="st3" d="M200.2,110.9c3.6-1.8,5.4-4.5,5.4-7.8c0-2.6-0.9-4.6-2.8-6.2c-1.8-1.5-5.4-2.3-10.8-2.3H177
				c0.3,4.5,0.2,28.4,0,35.7h10.8c4.4,0,7.9-0.1,9.9-0.6c2.7-0.6,4.3-1.3,6-3c1.7-1.8,2.9-4.3,2.9-7
				C206.6,113.1,201.6,111.2,200.2,110.9 M187.8,101.1c1.8,0,3.1,0,3.9,0.1c2.2,0.3,3.3,1.5,3.3,3.6c0,2.4-1.4,3.7-4.3,3.9
				c-0.5,0-1.5,0.1-2.9,0.1V101.1z M193.4,123.1c-1,0.5-2.9,0.7-5.6,0.6v-8c2.9,0,4.7,0,5.2,0.2c1.9,0.4,2.8,1.6,2.8,3.6
				C195.8,121.1,195,122.3,193.4,123.1"/>
			<path class="st3" d="M95.9,110c-0.3-0.8-0.7-1.5-1.2-2.1l8.4-7.1l-3.6-6.2h-7.2l-1.9,10.8c-0.8-0.1-1.7-0.2-2.5,0l-1.9-10.8H79
				l-3.6,6.2l8.4,7c-0.5,0.6-0.9,1.4-1.2,2.1l-10.3-3.7l-3.6,6.2l3.6,6.2l10.3-3.7c0.3,0.8,0.7,1.5,1.2,2.1l-8.4,7l3.6,6.2h7.2
				l1.9-10.8c0.8,0.1,1.7,0.2,2.5,0l1.9,10.8h7.1l3.6-6.2l-8.4-7c0.5-0.6,0.9-1.4,1.2-2.1l10.3,3.8l3.6-6.2l-3.6-6.2L95.9,110z
				 M92.9,116.6l-1.8,1.1l-0.6-1c-0.4,0.1-0.8,0.2-1.3,0.2c-2.4,0-4.4-2-4.4-4.4c0-2.4,1.9-4.4,4.4-4.4c2.4,0,4.4,2,4.4,4.4
				c0,1.2-0.5,2.3-1.3,3.1L92.9,116.6z"/>
		</g>
	</g>
</g>
</svg>
