<?xml version="1.0" encoding="utf-8"?>
<!-- Generator: Adobe Illustrator 22.0.1, SVG Export Plug-In . SVG Version: 6.00 Build 0)  -->
<svg version="1.1" id="Layer_1" xmlns="http://www.w3.org/2000/svg" xmlns:xlink="http://www.w3.org/1999/xlink" x="0px" y="0px"
	 viewBox="0 0 216 98.8" style="enable-background:new 0 0 216 98.8;" xml:space="preserve">
<style type="text/css">
	.st0{fill-rule:evenodd;clip-rule:evenodd;fill:#EC008C;}
	.st1{fill:#AF1F2C;}
	.st2{clip-path:url(#SVGID_2_);fill:#AF1F2C;}
	.st3{clip-path:url(#SVGID_2_);fill:#F3D0B6;}
	.st4{clip-path:url(#SVGID_2_);fill:#FFFFFF;}
	.st5{clip-path:url(#SVGID_2_);fill:#272726;}
	.st6{fill-rule:evenodd;clip-rule:evenodd;fill:#610000;}
	.st7{clip-path:url(#SVGID_4_);fill:url(#SVGID_5_);}
	.st8{fill:#610000;}
	.st9{fill-rule:evenodd;clip-rule:evenodd;fill:#6A0000;}
	.st10{fill-rule:evenodd;clip-rule:evenodd;fill:#FFFFFF;}
	.st11{fill:#FFFFFF;}
	.st12{fill:none;stroke:#8C100E;stroke-width:0.216;stroke-miterlimit:22.9256;}
	.st13{clip-path:url(#SVGID_7_);fill:none;stroke:#FFFFFF;stroke-width:0.4801;stroke-miterlimit:3.864;}
	.st14{fill-rule:evenodd;clip-rule:evenodd;fill:#D3D011;}
	.st15{fill-rule:evenodd;clip-rule:evenodd;fill:#582887;}
	.st16{fill-rule:evenodd;clip-rule:evenodd;fill:#FCB131;}
	.st17{fill-rule:evenodd;clip-rule:evenodd;fill:#96C1E8;}
	.st18{fill-rule:evenodd;clip-rule:evenodd;fill:#E1DE7E;}
	.st19{fill-rule:evenodd;clip-rule:evenodd;fill:#004785;}
</style>
<g>
	<polygon class="st10" points="7.9,31.8 208.1,31.8 208.1,57.8 7.9,57.8 7.9,31.8 7.9,31.8 	"/>
	<g>
		<defs>
			<rect id="SVGID_6_" x="7.7" y="31.6" width="200.7" height="35.7"/>
		</defs>
		<clipPath id="SVGID_2_">
			<use xlink:href="#SVGID_6_"  style="overflow:visible;"/>
		</clipPath>
		<polygon style="clip-path:url(#SVGID_2_);fill:none;stroke:#FFFFFF;stroke-width:0.4801;stroke-miterlimit:3.864;" points="
			7.9,31.8 208.1,31.8 208.1,57.8 7.9,57.8 7.9,31.8 7.9,31.8 		"/>
	</g>
	<polygon class="st14" points="58.2,57.2 83.1,57.2 83.1,32.4 58.2,32.4 58.2,57.2 58.2,57.2 	"/>
	<path class="st10" d="M61.1,44.8c0-5.3,4.3-9.5,9.5-9.5c5.3,0,9.5,4.3,9.5,9.5c0,5.3-4.3,9.5-9.5,9.5
		C65.4,54.3,61.1,50.1,61.1,44.8L61.1,44.8L61.1,44.8z"/>
	<polygon class="st15" points="83.1,57.2 108,57.2 108,32.4 83.1,32.4 83.1,57.2 83.1,57.2 	"/>
	<path class="st16" d="M86,44.8c0-5.3,4.3-9.5,9.5-9.5c5.3,0,9.5,4.3,9.5,9.5c0,5.3-4.3,9.5-9.5,9.5C90.3,54.3,86,50.1,86,44.8
		L86,44.8L86,44.8z"/>
	<polygon class="st17" points="108,57.2 132.9,57.2 132.9,32.4 108,32.4 108,57.2 108,57.2 	"/>
	<path class="st10" d="M110.9,44.8c0-5.3,4.3-9.5,9.5-9.5c5.3,0,9.5,4.3,9.5,9.5c0,5.3-4.3,9.5-9.5,9.5
		C115.2,54.3,110.9,50.1,110.9,44.8L110.9,44.8L110.9,44.8z"/>
	<path class="st15" d="M120.4,48.2c-1.6,0-2.5-1.5-2.5-3.4c0-1.8,0.9-3.4,2.5-3.4c1.7,0,2.5,1.6,2.5,3.3
		C123,46.7,122,48.2,120.4,48.2L120.4,48.2L120.4,48.2L120.4,48.2z M120.4,49.5c2.5,0,4.4-1.7,4.4-4.8c0-2.6-1.6-4.6-4.2-4.6
		c-2.6,0-4.3,2-4.3,4.8C116.1,47.5,117.8,49.5,120.4,49.5L120.4,49.5L120.4,49.5L120.4,49.5z"/>
	<polygon class="st15" points="132.9,57.2 157.8,57.2 157.8,32.4 132.9,32.4 132.9,57.2 132.9,57.2 	"/>
	<path class="st18" d="M135.8,44.8c0-5.3,4.3-9.5,9.5-9.5c5.3,0,9.5,4.3,9.5,9.5c0,5.3-4.3,9.5-9.5,9.5
		C140.1,54.3,135.8,50.1,135.8,44.8L135.8,44.8L135.8,44.8z"/>
	<polygon class="st15" points="8.4,57.2 33.3,57.2 33.3,32.3 8.4,32.3 8.4,57.2 8.4,57.2 	"/>
	<path class="st10" d="M11.4,44.8c0-5.3,4.3-9.5,9.5-9.5c5.3,0,9.5,4.3,9.5,9.5c0,5.3-4.3,9.5-9.5,9.5
		C15.6,54.3,11.4,50.1,11.4,44.8L11.4,44.8L11.4,44.8z"/>
	<path class="st15" d="M19.9,41.6c0.2,0,0.5-0.1,1-0.1c1.2,0,1.9,0.5,1.9,1.5c0,1.1-0.8,1.7-2,1.7c-0.3,0-0.6,0-0.8-0.1V41.6
		L19.9,41.6L19.9,41.6z M18.2,49.4h1.7V46c0.2,0,0.5,0.1,0.8,0.1c1.2,0,2.2-0.3,2.9-1c0.5-0.5,0.8-1.2,0.8-2.1c0-0.9-0.3-1.6-0.9-2
		c-0.6-0.5-1.5-0.7-2.7-0.7c-1.1,0-1.9,0.1-2.6,0.2V49.4L18.2,49.4L18.2,49.4z"/>
	<polygon class="st16" points="33.3,57.2 58.2,57.2 58.2,32.3 33.3,32.3 33.3,57.2 33.3,57.2 	"/>
	<path class="st18" d="M36.2,44.8c0-5.3,4.3-9.5,9.5-9.5c5.3,0,9.5,4.3,9.5,9.5c0,5.3-4.3,9.5-9.5,9.5
		C40.5,54.3,36.2,50.1,36.2,44.8L36.2,44.8L36.2,44.8z"/>
	<path class="st15" d="M44.5,45.5l0.7-2.3c0.2-0.5,0.3-1.2,0.4-1.7h0c0.1,0.5,0.3,1.2,0.5,1.7l0.7,2.2H44.5L44.5,45.5L44.5,45.5z
		 M47.2,46.8l0.8,2.6h1.8l-3-9.1h-2.1l-2.9,9.1h1.7l0.8-2.6H47.2L47.2,46.8L47.2,46.8z"/>
	<polygon class="st14" points="157.8,57.2 182.7,57.2 182.7,32.4 157.8,32.4 157.8,57.2 157.8,57.2 	"/>
	<path class="st10" d="M160.7,44.8c0-5.3,4.3-9.5,9.5-9.5c5.3,0,9.5,4.3,9.5,9.5c0,5.3-4.3,9.5-9.5,9.5
		C165,54.3,160.7,50.1,160.7,44.8L160.7,44.8L160.7,44.8z"/>
	<polygon class="st16" points="182.7,57.2 207.5,57.2 207.5,32.4 182.7,32.4 182.7,57.2 182.7,57.2 	"/>
	<path class="st17" d="M185.6,44.8c0-5.3,4.3-9.5,9.5-9.5c5.3,0,9.5,4.3,9.5,9.5c0,5.3-4.3,9.5-9.5,9.5
		C189.8,54.3,185.6,50.1,185.6,44.8L185.6,44.8L185.6,44.8z"/>
	<path class="st15" d="M166.7,49.4h1.7v-3.2l0.8-1l2.6,4.2h2l-3.4-5.2l3.1-3.9h-2.1l-2.4,3.2c-0.2,0.3-0.5,0.6-0.7,1h0v-4.2h-1.7
		V49.4L166.7,49.4L166.7,49.4z"/>
	<path class="st15" d="M195.9,49.4v-3.8l3-5.3H197l-1.1,2.3c-0.3,0.7-0.6,1.2-0.8,1.8l0,0c-0.2-0.6-0.5-1.1-0.8-1.8l-1.1-2.3h-1.9
		l2.9,5.3v3.8H195.9L195.9,49.4L195.9,49.4z"/>
	<path class="st15" d="M142.4,48.9c0.5,0.3,1.5,0.6,2.5,0.6c2.4,0,3.5-1.3,3.5-2.7c0-1.3-0.8-2.1-2.3-2.7c-1.2-0.5-1.7-0.8-1.7-1.5
		c0-0.5,0.4-1.1,1.5-1.1c0.9,0,1.5,0.3,1.8,0.4l0.4-1.3c-0.5-0.2-1.2-0.5-2.2-0.5c-2,0-3.2,1.1-3.2,2.6c0,1.3,1,2.1,2.5,2.7
		c1.2,0.4,1.6,0.8,1.6,1.5c0,0.7-0.6,1.2-1.7,1.2c-0.8,0-1.7-0.3-2.2-0.6L142.4,48.9L142.4,48.9L142.4,48.9z"/>
	<polygon class="st15" points="92.8,49.4 98.3,49.4 98.3,48 94.5,48 94.5,40.2 92.8,40.2 92.8,49.4 92.8,49.4 	"/>
	<path class="st15" d="M69.2,45.2H70c1.1,0,2.1,0.4,2.1,1.5c0,1.1-1,1.5-2,1.5c-0.4,0-0.7,0-0.9,0V45.2L69.2,45.2L69.2,45.2z
		 M69.2,41.5c0.2,0,0.5-0.1,1-0.1c1,0,1.7,0.4,1.7,1.3c0,0.8-0.6,1.3-1.8,1.3h-0.9V41.5L69.2,41.5L69.2,41.5z M67.5,49.3
		c0.4,0.1,1.1,0.1,2.1,0.1c1.7,0,2.7-0.3,3.4-0.8c0.5-0.4,0.9-1.1,0.9-1.9c0-1.3-0.9-2-1.8-2.3v0c1-0.4,1.5-1.1,1.5-2
		c0-0.8-0.4-1.4-0.9-1.7c-0.6-0.4-1.4-0.6-2.6-0.6c-0.9,0-1.9,0.1-2.4,0.2L67.5,49.3L67.5,49.3L67.5,49.3z"/>
	<path class="st19" d="M207.5,59.7h-0.8v0.8h0.8V59.7L207.5,59.7L207.5,59.7z M206.7,65.5h0.8v-4.1h-0.8V65.5L206.7,65.5L206.7,65.5
		z M205.7,61.4h-1.1v-1.2l-0.8,0.2v0.9H203V62h0.9v2.4c0,0.3,0.1,0.5,0.2,0.7c0.1,0.2,0.2,0.3,0.4,0.4c0.2,0.1,0.4,0.1,0.7,0.1
		c0.1,0,0.2,0,0.3,0c0.1,0,0.2,0,0.3-0.1v-0.6c-0.1,0-0.1,0.1-0.2,0.1c-0.1,0-0.2,0-0.3,0c-0.1,0-0.2,0-0.3-0.1
		c-0.1-0.1-0.2-0.1-0.2-0.2c-0.1-0.1-0.1-0.2-0.1-0.4V62h1.1V61.4L205.7,61.4L205.7,61.4z M200.4,65.5h0.8v-1.9c0-0.3,0-0.6,0.1-0.9
		c0.1-0.2,0.2-0.4,0.4-0.6c0.2-0.1,0.4-0.2,0.6-0.2c0.1,0,0.1,0,0.2,0c0.1,0,0.1,0,0.2,0.1v-0.7c-0.1,0-0.1,0-0.1,0c0,0-0.1,0-0.2,0
		c-0.1,0-0.1,0-0.2,0c-0.1,0-0.3,0-0.4,0.1c-0.1,0.1-0.3,0.1-0.4,0.3c-0.1,0.1-0.2,0.2-0.3,0.4h0v-0.6h-0.7V65.5L200.4,65.5
		L200.4,65.5z M196.5,63.1c0-0.1,0-0.3,0.1-0.4c0-0.1,0.1-0.3,0.2-0.4c0.1-0.1,0.2-0.2,0.3-0.3c0.1-0.1,0.3-0.1,0.5-0.1
		c0.2,0,0.3,0,0.4,0.1c0.1,0.1,0.2,0.1,0.3,0.2c0.1,0.1,0.2,0.2,0.2,0.4c0,0.1,0.1,0.3,0.1,0.4H196.5L196.5,63.1L196.5,63.1z
		 M199.1,64.6c0,0-0.1,0.1-0.2,0.1c-0.1,0-0.2,0.1-0.3,0.1c-0.1,0-0.2,0.1-0.4,0.1c-0.1,0-0.3,0-0.4,0c-0.2,0-0.3,0-0.5-0.1
		c-0.2-0.1-0.3-0.2-0.4-0.3c-0.1-0.1-0.2-0.3-0.3-0.4c-0.1-0.2-0.1-0.4-0.1-0.6h2.9c0-0.3,0-0.6-0.1-0.9c-0.1-0.3-0.2-0.5-0.3-0.7
		c-0.1-0.2-0.3-0.4-0.6-0.5c-0.2-0.1-0.5-0.2-0.9-0.2c-0.3,0-0.6,0.1-0.8,0.2c-0.2,0.1-0.4,0.2-0.6,0.4c-0.2,0.2-0.3,0.4-0.4,0.7
		c-0.1,0.3-0.1,0.5-0.1,0.8c0,0.3,0,0.6,0.1,0.9c0.1,0.3,0.2,0.5,0.4,0.7c0.2,0.2,0.4,0.3,0.7,0.4c0.3,0.1,0.6,0.2,0.9,0.2
		c0.2,0,0.4,0,0.6,0c0.2,0,0.3-0.1,0.4-0.1c0.1,0,0.2-0.1,0.3-0.1V64.6L199.1,64.6L199.1,64.6z M194.2,63.4c0,0.1,0,0.3,0,0.4
		c0,0.1-0.1,0.3-0.1,0.4c-0.1,0.1-0.1,0.3-0.2,0.4c-0.1,0.1-0.2,0.2-0.3,0.3c-0.1,0.1-0.3,0.1-0.4,0.1c-0.2,0-0.3,0-0.5-0.1
		c-0.1-0.1-0.2-0.1-0.3-0.2c-0.1-0.1-0.2-0.2-0.2-0.4c-0.1-0.1-0.1-0.3-0.1-0.4c0-0.1,0-0.3,0-0.4c0-0.2,0-0.4,0.1-0.6
		c0.1-0.2,0.1-0.3,0.2-0.5c0.1-0.1,0.2-0.3,0.4-0.3c0.2-0.1,0.3-0.1,0.5-0.1c0.2,0,0.4,0,0.5,0.1c0.1,0.1,0.3,0.2,0.4,0.3
		c0.1,0.1,0.2,0.3,0.2,0.5C194.2,63.1,194.2,63.3,194.2,63.4L194.2,63.4L194.2,63.4z M191.1,67.2h0.8v-2.2h0
		c0.1,0.1,0.2,0.2,0.3,0.3c0.1,0.1,0.3,0.2,0.4,0.2c0.2,0.1,0.4,0.1,0.6,0.1c0.2,0,0.5,0,0.7-0.1c0.2-0.1,0.4-0.2,0.5-0.3
		c0.1-0.1,0.3-0.3,0.3-0.5c0.1-0.2,0.2-0.4,0.2-0.6c0-0.2,0.1-0.4,0.1-0.7c0-0.3,0-0.5-0.1-0.8c-0.1-0.2-0.2-0.5-0.3-0.7
		c-0.1-0.2-0.3-0.3-0.5-0.5c-0.2-0.1-0.5-0.2-0.8-0.2c-0.2,0-0.3,0-0.5,0.1c-0.1,0-0.3,0.1-0.4,0.2c-0.1,0.1-0.2,0.1-0.3,0.2
		c-0.1,0.1-0.2,0.2-0.2,0.2h0v-0.6h-0.7V67.2L191.1,67.2L191.1,67.2z M187.6,65.4c0.2,0.1,0.4,0.2,0.5,0.2c0.2,0,0.4,0,0.6,0
		c0.2,0,0.4,0,0.5-0.1c0.2-0.1,0.3-0.1,0.5-0.2c0.1-0.1,0.2-0.2,0.3-0.4c0.1-0.2,0.1-0.3,0.1-0.6c0-0.2,0-0.3-0.1-0.5
		c-0.1-0.1-0.1-0.2-0.3-0.3c-0.1-0.1-0.2-0.2-0.3-0.2c-0.1-0.1-0.3-0.1-0.4-0.2c-0.1-0.1-0.2-0.1-0.3-0.2c-0.1-0.1-0.2-0.1-0.3-0.2
		c-0.1-0.1-0.1-0.2-0.1-0.3c0-0.1,0-0.2,0.1-0.3c0.1-0.1,0.2-0.1,0.3-0.2c0.1,0,0.2-0.1,0.4-0.1c0,0,0.1,0,0.2,0c0.1,0,0.1,0,0.2,0
		c0.1,0,0.2,0,0.2,0.1c0.1,0,0.1,0,0.2,0.1l0.1-0.7c-0.1,0-0.3-0.1-0.4-0.1c-0.2,0-0.3,0-0.5,0c-0.2,0-0.4,0-0.6,0.1
		c-0.2,0.1-0.3,0.1-0.5,0.2c-0.1,0.1-0.2,0.2-0.3,0.4c-0.1,0.2-0.1,0.3-0.1,0.6c0,0.2,0,0.3,0.1,0.4c0.1,0.1,0.1,0.2,0.3,0.3
		c0.1,0.1,0.2,0.2,0.3,0.2c0.1,0.1,0.3,0.1,0.4,0.2c0.1,0.1,0.2,0.1,0.3,0.2c0.1,0.1,0.2,0.1,0.3,0.2c0.1,0.1,0.1,0.2,0.1,0.3
		c0,0.1,0,0.2-0.1,0.3c0,0.1-0.1,0.1-0.2,0.2c-0.1,0-0.2,0.1-0.2,0.1c-0.1,0-0.2,0-0.3,0c-0.1,0-0.2,0-0.3,0c-0.1,0-0.2-0.1-0.3-0.1
		c-0.1,0-0.2-0.1-0.3-0.2L187.6,65.4L187.6,65.4L187.6,65.4z M183.5,65.5h0.8v-2.1l1.8,2.1h1.1l-2.1-2.3l1.9-1.8h-1l-1.6,1.7v-3.6
		h-0.8V65.5L183.5,65.5L183.5,65.5z M179.6,63.1c0-0.1,0-0.3,0.1-0.4c0-0.1,0.1-0.3,0.2-0.4c0.1-0.1,0.2-0.2,0.3-0.3
		c0.1-0.1,0.3-0.1,0.5-0.1c0.2,0,0.3,0,0.4,0.1c0.1,0.1,0.2,0.1,0.3,0.2c0.1,0.1,0.2,0.2,0.2,0.4c0,0.1,0.1,0.3,0.1,0.4H179.6
		L179.6,63.1L179.6,63.1z M182.2,64.6c0,0-0.1,0.1-0.2,0.1c-0.1,0-0.2,0.1-0.3,0.1c-0.1,0-0.2,0.1-0.4,0.1c-0.1,0-0.3,0-0.4,0
		c-0.2,0-0.3,0-0.5-0.1c-0.2-0.1-0.3-0.2-0.4-0.3c-0.1-0.1-0.2-0.3-0.3-0.4c-0.1-0.2-0.1-0.4-0.1-0.6h2.9c0-0.3,0-0.6-0.1-0.9
		c-0.1-0.3-0.2-0.5-0.3-0.7c-0.1-0.2-0.3-0.4-0.6-0.5c-0.2-0.1-0.5-0.2-0.9-0.2c-0.3,0-0.6,0.1-0.8,0.2c-0.2,0.1-0.4,0.2-0.6,0.4
		c-0.2,0.2-0.3,0.4-0.4,0.7c-0.1,0.3-0.1,0.5-0.1,0.8c0,0.3,0,0.6,0.1,0.9c0.1,0.3,0.2,0.5,0.4,0.7c0.2,0.2,0.4,0.3,0.7,0.4
		c0.3,0.1,0.6,0.2,0.9,0.2c0.2,0,0.4,0,0.6,0c0.2,0,0.3-0.1,0.4-0.1c0.1,0,0.2-0.1,0.3-0.1V64.6L182.2,64.6L182.2,64.6z M172,65.5
		h0.8v-1.9c0-0.2,0-0.5,0.1-0.7c0-0.2,0.1-0.4,0.2-0.5c0.1-0.1,0.2-0.3,0.4-0.3c0.2-0.1,0.3-0.1,0.6-0.1c0.2,0,0.4,0.1,0.5,0.2
		c0.1,0.1,0.2,0.3,0.3,0.5c0.1,0.2,0.1,0.5,0.1,0.8v2.1h0.8v-2.4c0-0.4-0.1-0.7-0.2-0.9c-0.1-0.3-0.3-0.5-0.5-0.6
		c-0.2-0.1-0.5-0.2-0.9-0.2c-0.2,0-0.4,0-0.5,0.1c-0.2,0.1-0.3,0.1-0.5,0.3c-0.1,0.1-0.2,0.2-0.3,0.4h0v-0.6H172V65.5L172,65.5
		L172,65.5z M169.9,65.5h0.8v-4.1h-0.8V65.5L169.9,65.5L169.9,65.5z M166.7,65.5h0.8v-1.9c0-0.3,0-0.6,0.1-0.9
		c0.1-0.2,0.2-0.4,0.4-0.6c0.2-0.1,0.4-0.2,0.6-0.2c0.1,0,0.1,0,0.2,0c0.1,0,0.1,0,0.2,0.1v-0.7c-0.1,0-0.1,0-0.1,0c0,0-0.1,0-0.2,0
		c-0.1,0-0.1,0-0.2,0c-0.1,0-0.3,0-0.4,0.1c-0.1,0.1-0.3,0.1-0.4,0.3c-0.1,0.1-0.2,0.2-0.3,0.4h0v-0.6h-0.7V65.5L166.7,65.5
		L166.7,65.5z M164.6,63.9c0,0.2,0,0.4-0.1,0.5c-0.1,0.2-0.2,0.3-0.4,0.4c-0.2,0.1-0.4,0.1-0.6,0.1c-0.1,0-0.2,0-0.3,0
		c-0.1,0-0.2-0.1-0.2-0.1c-0.1-0.1-0.1-0.1-0.2-0.2c0-0.1-0.1-0.2-0.1-0.3c0-0.1,0-0.3,0.1-0.4c0.1-0.1,0.2-0.2,0.3-0.2
		c0.1-0.1,0.2-0.1,0.4-0.1c0.1,0,0.3,0,0.4-0.1c0.1,0,0.2,0,0.3,0c0.1,0,0.2,0,0.2,0c0.1,0,0.2,0,0.2,0V63.9L164.6,63.9L164.6,63.9z
		 M162.4,62.4c0.1-0.1,0.2-0.2,0.3-0.2c0.1-0.1,0.3-0.1,0.4-0.1c0.1,0,0.3-0.1,0.4-0.1c0.2,0,0.4,0,0.6,0.1c0.1,0.1,0.3,0.2,0.3,0.4
		c0.1,0.2,0.1,0.4,0.1,0.6c-0.1,0-0.2,0-0.3,0c-0.1,0-0.2,0-0.3,0c-0.1,0-0.2,0-0.3,0c-0.2,0-0.3,0-0.5,0c-0.2,0-0.3,0.1-0.5,0.1
		c-0.2,0.1-0.3,0.1-0.4,0.2c-0.1,0.1-0.2,0.2-0.3,0.4c-0.1,0.2-0.1,0.3-0.1,0.5c0,0.3,0.1,0.5,0.2,0.7c0.1,0.2,0.3,0.3,0.5,0.4
		c0.2,0.1,0.5,0.1,0.8,0.1c0.2,0,0.3,0,0.5-0.1c0.1,0,0.3-0.1,0.4-0.2c0.1-0.1,0.2-0.1,0.3-0.2c0.1-0.1,0.1-0.1,0.2-0.2h0v0.5h0.7
		c0,0,0-0.1,0-0.2c0-0.1,0-0.2,0-0.3c0-0.1,0-0.2,0-0.4V63c0-0.4-0.1-0.7-0.2-0.9c-0.1-0.3-0.3-0.4-0.5-0.6
		c-0.2-0.1-0.6-0.2-0.9-0.2c-0.3,0-0.5,0-0.7,0.1c-0.2,0.1-0.4,0.2-0.6,0.3L162.4,62.4L162.4,62.4L162.4,62.4z M160.1,65.5h0.8v-6
		h-0.8V65.5L160.1,65.5L160.1,65.5z M155.6,63.4c0-0.2,0-0.4,0.1-0.6c0-0.2,0.1-0.3,0.2-0.5c0.1-0.1,0.2-0.3,0.4-0.3
		c0.1-0.1,0.3-0.1,0.5-0.1c0.2,0,0.4,0,0.5,0.1c0.2,0.1,0.3,0.2,0.4,0.3c0.1,0.1,0.2,0.3,0.2,0.5c0,0.2,0.1,0.4,0.1,0.6
		c0,0.1,0,0.3,0,0.4c0,0.1-0.1,0.3-0.1,0.4c-0.1,0.1-0.1,0.2-0.2,0.4c-0.1,0.1-0.2,0.2-0.3,0.2c-0.1,0.1-0.3,0.1-0.5,0.1
		c-0.2,0-0.3,0-0.4-0.1c-0.1-0.1-0.2-0.2-0.3-0.3c-0.1-0.1-0.2-0.2-0.2-0.4c-0.1-0.1-0.1-0.3-0.1-0.4
		C155.6,63.7,155.6,63.6,155.6,63.4L155.6,63.4L155.6,63.4z M158.7,61.4H158V62h0c0-0.1-0.1-0.2-0.2-0.2c-0.1-0.1-0.2-0.2-0.3-0.2
		c-0.1-0.1-0.2-0.1-0.4-0.2c-0.1,0-0.3-0.1-0.5-0.1c-0.3,0-0.6,0.1-0.8,0.2c-0.2,0.1-0.4,0.3-0.5,0.5c-0.1,0.2-0.3,0.4-0.3,0.7
		c-0.1,0.2-0.1,0.5-0.1,0.8c0,0.2,0,0.4,0.1,0.7c0,0.2,0.1,0.4,0.2,0.6c0.1,0.2,0.2,0.4,0.3,0.5c0.1,0.1,0.3,0.3,0.5,0.3
		c0.2,0.1,0.4,0.1,0.7,0.1c0.2,0,0.4,0,0.6-0.1c0.2-0.1,0.3-0.1,0.5-0.2c0.1-0.1,0.2-0.2,0.3-0.3h0v2.2h0.8V61.4L158.7,61.4
		L158.7,61.4z M153.1,63.9c0,0.2,0,0.4-0.1,0.5c-0.1,0.2-0.2,0.3-0.4,0.4c-0.2,0.1-0.4,0.1-0.6,0.1c-0.1,0-0.2,0-0.3,0
		c-0.1,0-0.2-0.1-0.2-0.1c-0.1-0.1-0.1-0.1-0.2-0.2c0-0.1-0.1-0.2-0.1-0.3c0-0.1,0-0.3,0.1-0.4c0.1-0.1,0.2-0.2,0.3-0.2
		c0.1-0.1,0.2-0.1,0.4-0.1c0.1,0,0.3,0,0.4-0.1c0.1,0,0.2,0,0.3,0c0.1,0,0.2,0,0.2,0c0.1,0,0.2,0,0.2,0V63.9L153.1,63.9L153.1,63.9z
		 M150.9,62.4c0.1-0.1,0.2-0.2,0.3-0.2c0.1-0.1,0.3-0.1,0.4-0.1c0.1,0,0.3-0.1,0.4-0.1c0.2,0,0.4,0,0.6,0.1c0.1,0.1,0.3,0.2,0.3,0.4
		c0.1,0.2,0.1,0.4,0.1,0.6c-0.1,0-0.2,0-0.3,0c-0.1,0-0.2,0-0.3,0c-0.1,0-0.2,0-0.3,0c-0.2,0-0.3,0-0.5,0c-0.2,0-0.3,0.1-0.5,0.1
		c-0.2,0.1-0.3,0.1-0.4,0.2c-0.1,0.1-0.2,0.2-0.3,0.4c-0.1,0.2-0.1,0.3-0.1,0.5c0,0.3,0.1,0.5,0.2,0.7c0.1,0.2,0.3,0.3,0.5,0.4
		c0.2,0.1,0.5,0.1,0.8,0.1c0.2,0,0.3,0,0.5-0.1c0.1,0,0.3-0.1,0.4-0.2c0.1-0.1,0.2-0.1,0.3-0.2c0.1-0.1,0.1-0.1,0.2-0.2h0v0.5h0.7
		c0,0,0-0.1,0-0.2c0-0.1,0-0.2,0-0.3c0-0.1,0-0.2,0-0.4V63c0-0.4-0.1-0.7-0.2-0.9c-0.1-0.3-0.3-0.4-0.5-0.6
		c-0.2-0.1-0.6-0.2-0.9-0.2c-0.3,0-0.5,0-0.7,0.1c-0.2,0.1-0.4,0.2-0.6,0.3L150.9,62.4L150.9,62.4L150.9,62.4z M146.3,67.2
		c0.1,0,0.1,0,0.2,0c0.1,0,0.2,0,0.3,0c0.2,0,0.4,0,0.5-0.1c0.1-0.1,0.3-0.2,0.4-0.3c0.1-0.1,0.2-0.2,0.3-0.4
		c0.1-0.1,0.1-0.3,0.2-0.5c0.1-0.2,0.1-0.3,0.2-0.5l1.5-4.2h-0.8l-1.1,3.4h0l-1.1-3.4h-0.8l1.4,3.8c0,0,0,0.1,0.1,0.2
		c0,0.1,0,0.1,0.1,0.2c0,0.1,0,0.1,0,0.1c0,0,0,0,0,0.1c0,0.1,0,0.1-0.1,0.2c0,0.1-0.1,0.2-0.1,0.2c0,0.1-0.1,0.2-0.2,0.2
		c-0.1,0.1-0.1,0.1-0.2,0.2c-0.1,0-0.2,0.1-0.3,0.1c-0.1,0-0.1,0-0.2,0c-0.1,0-0.1,0-0.2,0L146.3,67.2L146.3,67.2L146.3,67.2z
		 M144.6,63.9c0,0.2,0,0.4-0.1,0.5c-0.1,0.2-0.2,0.3-0.4,0.4c-0.2,0.1-0.4,0.1-0.6,0.1c-0.1,0-0.2,0-0.3,0c-0.1,0-0.2-0.1-0.2-0.1
		c-0.1-0.1-0.1-0.1-0.2-0.2c0-0.1-0.1-0.2-0.1-0.3c0-0.1,0-0.3,0.1-0.4c0.1-0.1,0.2-0.2,0.3-0.2c0.1-0.1,0.2-0.1,0.4-0.1
		c0.1,0,0.3,0,0.4-0.1c0.1,0,0.2,0,0.3,0c0.1,0,0.2,0,0.2,0c0.1,0,0.2,0,0.2,0V63.9L144.6,63.9L144.6,63.9z M142.4,62.4
		c0.1-0.1,0.2-0.2,0.3-0.2c0.1-0.1,0.3-0.1,0.4-0.1c0.1,0,0.3-0.1,0.4-0.1c0.2,0,0.4,0,0.6,0.1c0.1,0.1,0.3,0.2,0.3,0.4
		c0.1,0.2,0.1,0.4,0.1,0.6c-0.1,0-0.2,0-0.3,0c-0.1,0-0.2,0-0.3,0c-0.1,0-0.2,0-0.3,0c-0.2,0-0.3,0-0.5,0c-0.2,0-0.3,0.1-0.5,0.1
		c-0.2,0.1-0.3,0.1-0.4,0.2c-0.1,0.1-0.2,0.2-0.3,0.4c-0.1,0.2-0.1,0.3-0.1,0.5c0,0.3,0.1,0.5,0.2,0.7c0.1,0.2,0.3,0.3,0.5,0.4
		c0.2,0.1,0.5,0.1,0.8,0.1c0.2,0,0.3,0,0.5-0.1c0.1,0,0.3-0.1,0.4-0.2c0.1-0.1,0.2-0.1,0.3-0.2c0.1-0.1,0.1-0.1,0.2-0.2h0v0.5h0.7
		c0,0,0-0.1,0-0.2c0-0.1,0-0.2,0-0.3c0-0.1,0-0.2,0-0.4V63c0-0.4-0.1-0.7-0.2-0.9c-0.1-0.3-0.3-0.4-0.5-0.6
		c-0.2-0.1-0.6-0.2-0.9-0.2c-0.3,0-0.5,0-0.7,0.1c-0.2,0.1-0.4,0.2-0.6,0.3L142.4,62.4L142.4,62.4L142.4,62.4z M135.1,65.5h0.8v-1.9
		c0-0.2,0-0.5,0.1-0.7c0-0.2,0.1-0.4,0.2-0.5c0.1-0.1,0.2-0.3,0.4-0.3c0.2-0.1,0.3-0.1,0.6-0.1c0.2,0,0.4,0.1,0.5,0.2
		c0.1,0.1,0.2,0.3,0.3,0.5c0.1,0.2,0.1,0.5,0.1,0.8v2.1h0.8v-2.4c0-0.4-0.1-0.7-0.2-0.9c-0.1-0.3-0.3-0.5-0.5-0.6
		c-0.2-0.1-0.5-0.2-0.9-0.2c-0.2,0-0.4,0-0.5,0.1c-0.2,0.1-0.3,0.1-0.5,0.3c-0.1,0.1-0.2,0.2-0.3,0.4h0v-0.6h-0.7V65.5L135.1,65.5
		L135.1,65.5z M133.3,63.9c0,0.1,0,0.3-0.1,0.4c0,0.1-0.1,0.3-0.2,0.4c-0.1,0.1-0.2,0.2-0.3,0.3c-0.1,0.1-0.3,0.1-0.5,0.1
		c-0.2,0-0.3,0-0.4-0.1c-0.1-0.1-0.2-0.1-0.3-0.2c-0.1-0.1-0.2-0.2-0.2-0.4c0-0.1-0.1-0.3-0.1-0.4H133.3L133.3,63.9L133.3,63.9z
		 M130.7,62.3c0,0,0.1-0.1,0.2-0.1c0.1,0,0.2-0.1,0.3-0.1c0.1,0,0.2-0.1,0.4-0.1c0.1,0,0.3,0,0.4,0c0.2,0,0.3,0,0.5,0.1
		c0.2,0.1,0.3,0.2,0.4,0.3c0.1,0.1,0.2,0.3,0.3,0.4c0.1,0.2,0.1,0.4,0.1,0.6h-2.9c0,0.3,0,0.6,0.1,0.9c0.1,0.3,0.2,0.5,0.3,0.7
		c0.1,0.2,0.3,0.4,0.6,0.5c0.2,0.1,0.5,0.2,0.9,0.2c0.3,0,0.6-0.1,0.8-0.2c0.2-0.1,0.4-0.2,0.6-0.4c0.2-0.2,0.3-0.4,0.4-0.7
		c0.1-0.3,0.1-0.5,0.1-0.8c0-0.3,0-0.6-0.1-0.9c-0.1-0.3-0.2-0.5-0.4-0.7c-0.2-0.2-0.4-0.3-0.7-0.4c-0.3-0.1-0.6-0.2-0.9-0.2
		c-0.2,0-0.4,0-0.6,0c-0.2,0-0.3,0.1-0.4,0.1c-0.1,0-0.2,0.1-0.3,0.1V62.3L130.7,62.3L130.7,62.3z M126.3,67.2c0.1,0,0.1,0,0.2,0
		c0.1,0,0.2,0,0.3,0c0.2,0,0.4,0,0.5-0.1c0.1-0.1,0.3-0.2,0.4-0.3c0.1-0.1,0.2-0.2,0.3-0.4c0.1-0.1,0.1-0.3,0.2-0.5
		c0.1-0.2,0.1-0.3,0.2-0.5l1.5-4.2h-0.8l-1.1,3.4h0l-1.1-3.4h-0.8l1.4,3.8c0,0,0,0.1,0.1,0.2c0,0.1,0,0.1,0.1,0.2c0,0.1,0,0.1,0,0.1
		c0,0,0,0,0,0.1c0,0.1,0,0.1-0.1,0.2c0,0.1-0.1,0.2-0.1,0.2c0,0.1-0.1,0.2-0.2,0.2c-0.1,0.1-0.1,0.1-0.2,0.2c-0.1,0-0.2,0.1-0.3,0.1
		c-0.1,0-0.1,0-0.2,0c-0.1,0-0.1,0-0.2,0L126.3,67.2L126.3,67.2L126.3,67.2z M123.9,60.8h0.8V60h-0.8V60.8L123.9,60.8L123.9,60.8z
		 M122.5,60.8h0.8V60h-0.8V60.8L122.5,60.8L122.5,60.8z M125.4,61.4h-0.8v1.9c0,0.2,0,0.5-0.1,0.7c0,0.2-0.1,0.4-0.2,0.5
		c-0.1,0.1-0.2,0.3-0.4,0.3c-0.2,0.1-0.3,0.1-0.6,0.1c-0.2,0-0.4-0.1-0.5-0.2c-0.1-0.1-0.2-0.3-0.3-0.5c-0.1-0.2-0.1-0.5-0.1-0.8
		v-2.1h-0.8v2.4c0,0.4,0.1,0.7,0.2,0.9c0.1,0.3,0.3,0.5,0.5,0.6c0.2,0.1,0.5,0.2,0.9,0.2c0.2,0,0.4,0,0.5-0.1
		c0.2-0.1,0.3-0.1,0.5-0.3c0.1-0.1,0.2-0.2,0.3-0.4h0v0.6h0.7V61.4L125.4,61.4L125.4,61.4z M117.4,67.2c0.1,0,0.1,0,0.2,0
		c0.1,0,0.2,0,0.3,0c0.2,0,0.4,0,0.5-0.1c0.1-0.1,0.3-0.2,0.4-0.3c0.1-0.1,0.2-0.2,0.3-0.4c0.1-0.1,0.1-0.3,0.2-0.5
		c0.1-0.2,0.1-0.3,0.2-0.5l1.5-4.2h-0.8l-1.1,3.4h0l-1.1-3.4h-0.8l1.4,3.8c0,0,0,0.1,0.1,0.2c0,0.1,0,0.1,0.1,0.2c0,0.1,0,0.1,0,0.1
		c0,0,0,0,0,0.1c0,0.1,0,0.1-0.1,0.2c0,0.1-0.1,0.2-0.1,0.2c0,0.1-0.1,0.2-0.2,0.2c-0.1,0.1-0.1,0.1-0.2,0.2c-0.1,0-0.2,0.1-0.3,0.1
		c-0.1,0-0.1,0-0.2,0c-0.1,0-0.1,0-0.2,0L117.4,67.2L117.4,67.2L117.4,67.2z M115,60.8h0.8V60H115V60.8L115,60.8L115,60.8z
		 M113.7,60.8h0.8V60h-0.8V60.8L113.7,60.8L113.7,60.8z M113.4,63.5c0-0.2,0-0.4,0.1-0.6c0.1-0.2,0.1-0.3,0.3-0.5
		c0.1-0.1,0.2-0.3,0.4-0.3c0.2-0.1,0.3-0.1,0.5-0.1c0.2,0,0.4,0,0.5,0.1c0.2,0.1,0.3,0.2,0.4,0.3c0.1,0.1,0.2,0.3,0.2,0.5
		c0.1,0.2,0.1,0.4,0.1,0.6c0,0.1,0,0.3,0,0.4c0,0.1-0.1,0.3-0.1,0.4c-0.1,0.1-0.1,0.2-0.2,0.3c-0.1,0.1-0.2,0.2-0.4,0.2
		c-0.1,0.1-0.3,0.1-0.5,0.1c-0.2,0-0.3,0-0.5-0.1c-0.1-0.1-0.3-0.1-0.4-0.2c-0.1-0.1-0.2-0.2-0.3-0.3c-0.1-0.1-0.1-0.3-0.1-0.4
		C113.4,63.8,113.4,63.6,113.4,63.5L113.4,63.5L113.4,63.5z M112.6,63.5c0,0.3,0.1,0.6,0.2,0.8c0.1,0.3,0.2,0.5,0.4,0.7
		c0.2,0.2,0.4,0.4,0.7,0.5c0.3,0.1,0.5,0.2,0.8,0.2c0.3,0,0.6-0.1,0.8-0.2c0.3-0.1,0.5-0.3,0.7-0.5c0.2-0.2,0.3-0.4,0.4-0.7
		c0.1-0.3,0.1-0.5,0.2-0.8c0-0.3-0.1-0.6-0.1-0.9c-0.1-0.3-0.2-0.5-0.4-0.7c-0.2-0.2-0.4-0.3-0.7-0.4c-0.3-0.1-0.5-0.2-0.8-0.2
		c-0.3,0-0.6,0.1-0.9,0.2c-0.3,0.1-0.5,0.3-0.7,0.4c-0.2,0.2-0.3,0.4-0.4,0.7C112.7,62.9,112.6,63.2,112.6,63.5L112.6,63.5
		L112.6,63.5z M111.1,63.4c0,0.1,0,0.3,0,0.4c0,0.1-0.1,0.3-0.1,0.4c-0.1,0.1-0.1,0.3-0.2,0.4c-0.1,0.1-0.2,0.2-0.3,0.3
		c-0.1,0.1-0.3,0.1-0.4,0.1c-0.2,0-0.3,0-0.5-0.1c-0.1-0.1-0.2-0.1-0.3-0.2c-0.1-0.1-0.2-0.2-0.2-0.4c-0.1-0.1-0.1-0.3-0.1-0.4
		c0-0.1,0-0.3,0-0.4c0-0.2,0-0.4,0.1-0.6c0.1-0.2,0.1-0.3,0.2-0.5c0.1-0.1,0.2-0.3,0.4-0.3c0.2-0.1,0.3-0.1,0.5-0.1
		c0.2,0,0.4,0,0.5,0.1c0.1,0.1,0.3,0.2,0.4,0.3c0.1,0.1,0.2,0.3,0.2,0.5C111.1,63.1,111.1,63.3,111.1,63.4L111.1,63.4L111.1,63.4z
		 M108,65.5h0.7v-0.6h0c0,0.1,0.1,0.2,0.2,0.2c0.1,0.1,0.2,0.2,0.3,0.2c0.1,0.1,0.2,0.1,0.4,0.2c0.1,0,0.3,0.1,0.5,0.1
		c0.2,0,0.5,0,0.7-0.1c0.2-0.1,0.4-0.2,0.5-0.3c0.1-0.1,0.3-0.3,0.3-0.5c0.1-0.2,0.2-0.4,0.2-0.6c0-0.2,0.1-0.4,0.1-0.7
		c0-0.3,0-0.5-0.1-0.8c-0.1-0.2-0.2-0.5-0.3-0.7c-0.1-0.2-0.3-0.3-0.5-0.5c-0.2-0.1-0.5-0.2-0.8-0.2c-0.2,0-0.4,0-0.6,0.1
		c-0.2,0.1-0.3,0.1-0.4,0.2c-0.1,0.1-0.2,0.2-0.3,0.3h0v-2.5H108V65.5L108,65.5L108,65.5z"/>
</g>
</svg>
