<?xml version="1.0" encoding="utf-8"?>
<!-- Generator: Adobe Illustrator 22.0.1, SVG Export Plug-In . SVG Version: 6.00 Build 0)  -->
<svg version="1.1" id="Layer_1" xmlns="http://www.w3.org/2000/svg" xmlns:xlink="http://www.w3.org/1999/xlink" x="0px" y="0px"
	 viewBox="0 0 216 98.8" style="enable-background:new 0 0 216 98.8;" xml:space="preserve">
<style type="text/css">
	.st0{fill-rule:evenodd;clip-rule:evenodd;fill:#EC008C;}
	.st1{fill:#AF1F2C;}
	.st2{clip-path:url(#SVGID_2_);fill:#AF1F2C;}
	.st3{clip-path:url(#SVGID_2_);fill:#F3D0B6;}
	.st4{clip-path:url(#SVGID_2_);fill:#FFFFFF;}
	.st5{clip-path:url(#SVGID_2_);fill:#272726;}
	.st6{fill-rule:evenodd;clip-rule:evenodd;fill:#610000;}
	.st7{clip-path:url(#SVGID_4_);fill:url(#SVGID_5_);}
	.st8{fill:#610000;}
	.st9{fill-rule:evenodd;clip-rule:evenodd;fill:#6A0000;}
	.st10{fill-rule:evenodd;clip-rule:evenodd;fill:#FFFFFF;}
	.st11{fill:#FFFFFF;}
	.st12{fill:none;stroke:#8C100E;stroke-width:0.216;stroke-miterlimit:22.9256;}
</style>
<g>
	<path d="M83.4,82.7c0-1.1-0.4-2.1-1.1-2.8c-0.7-0.7-1.8-1.3-3.1-1.6l-2-0.5c-1.5-0.4-2-0.9-2-1.7c0-1.1,1-1.7,2.5-1.7
		c1.3,0,2.6,0.4,4,1.2l1.5-2.2c-1.4-1-3.6-1.6-5.6-1.6c-3.5,0-5.9,2-5.9,4.7c0,0.8,0.2,1.6,0.6,2.3c0.6,1,1.6,1.7,3.1,2.1l2,0.5
		c1.7,0.4,2.4,1.1,2.4,2.1c0,0.7-0.4,1.2-1,1.5c-0.5,0.3-1.2,0.4-2,0.4c-1.7,0-3-0.4-4.6-1.2l-1.1,2.5c1.8,0.9,3.7,1.4,5.6,1.4
		c1.6,0,3-0.3,4.1-0.9C82.5,86,83.4,84.5,83.4,82.7L83.4,82.7L83.4,82.7z"/>
	<polygon points="109.3,87.6 109.3,72 106,72 106,87.6 109.3,87.6 109.3,87.6 	"/>
	<polygon points="145,87.5 139.8,79.1 144.1,72.1 140.4,72.1 137.9,76.3 135.4,72.1 131.7,72.1 136.2,79.2 130.9,87.5 134.9,87.5 
		138,81.9 141.2,87.5 145,87.5 145,87.5 	"/>
	<path d="M69.7,19.3c0-4.6,3.6-8.4,8.1-8.4c4.5,0,8.1,3.7,8.1,8.4c0,4.6-3.6,8.4-8.1,8.4C73.4,27.7,69.7,24,69.7,19.3L69.7,19.3
		L69.7,19.3z"/>
	<path d="M99.9,19.3c0-4.6,3.6-8.4,8.1-8.4c4.5,0,8.1,3.7,8.1,8.4c0,4.6-3.6,8.4-8.1,8.4C103.6,27.7,99.9,24,99.9,19.3L99.9,19.3
		L99.9,19.3z"/>
	<path d="M130.1,19.3c0-4.6,3.6-8.4,8.1-8.4c4.5,0,8.1,3.7,8.1,8.4c0,4.6-3.6,8.4-8.1,8.4C133.8,27.7,130.1,24,130.1,19.3
		L130.1,19.3L130.1,19.3z"/>
	<path d="M69.6,49.9c0-4.6,3.6-8.4,8.1-8.4c4.5,0,8.1,3.7,8.1,8.4c0,4.6-3.6,8.4-8.1,8.4C73.2,58.3,69.6,54.6,69.6,49.9L69.6,49.9
		L69.6,49.9z"/>
	<path d="M99.8,49.9c0-4.6,3.6-8.4,8.1-8.4c4.5,0,8.1,3.7,8.1,8.4c0,4.6-3.6,8.4-8.1,8.4C103.4,58.3,99.8,54.6,99.8,49.9L99.8,49.9
		L99.8,49.9z"/>
	<path d="M130,49.9c0-4.6,3.6-8.4,8.1-8.4c4.5,0,8.1,3.7,8.1,8.4c0,4.6-3.6,8.4-8.1,8.4C133.6,58.3,130,54.6,130,49.9L130,49.9
		L130,49.9z"/>
</g>
</svg>
