<?xml version="1.0" encoding="utf-8"?>
<!-- Generator: Adobe Illustrator 22.0.1, SVG Export Plug-In . SVG Version: 6.00 Build 0)  -->
<svg version="1.1" id="Layer_1" xmlns="http://www.w3.org/2000/svg" xmlns:xlink="http://www.w3.org/1999/xlink" x="0px" y="0px"
	 viewBox="0 0 216 98.8" style="enable-background:new 0 0 216 98.8;" xml:space="preserve">
<style type="text/css">
	.st0{fill-rule:evenodd;clip-rule:evenodd;fill:#EC008C;}
	.st1{fill:#AF1F2C;}
	.st2{clip-path:url(#SVGID_2_);fill:#AF1F2C;}
	.st3{clip-path:url(#SVGID_2_);fill:#F3D0B6;}
	.st4{clip-path:url(#SVGID_2_);fill:#FFFFFF;}
	.st5{clip-path:url(#SVGID_2_);fill:#272726;}
	.st6{fill-rule:evenodd;clip-rule:evenodd;fill:#610000;}
	.st7{clip-path:url(#SVGID_4_);fill:url(#SVGID_5_);}
	.st8{fill:#610000;}
	.st9{fill-rule:evenodd;clip-rule:evenodd;fill:#6A0000;}
	.st10{fill-rule:evenodd;clip-rule:evenodd;fill:#FFFFFF;}
	.st11{fill:#FFFFFF;}
	.st12{fill:none;stroke:#8C100E;stroke-width:0.216;stroke-miterlimit:22.9256;}
	.st13{fill:#414042;}
	.st14{fill:#E9C232;}
</style>
<g>
	<path d="M88.3,61c0.8,0,1.3-0.4,1.3-1v0c0-0.7-0.5-1-1.2-1h-1.2v2H88.3L88.3,61z M86.7,58.5h1.7c1,0,1.7,0.6,1.7,1.5v0
		c0,1-0.8,1.5-1.8,1.5h-1.1v1.6h-0.5V58.5L86.7,58.5z"/>
	<path d="M98.6,59.1l1.1,2.4h-2.1L98.6,59.1L98.6,59.1z M98.3,58.4l-2.1,4.7h0.5l0.6-1.2h2.5l0.5,1.2h0.6l-2.1-4.7H98.3L98.3,58.4z"
		/>
	<path d="M109.8,60.8c0.7,0,1.2-0.4,1.2-1v0c0-0.6-0.4-0.9-1.2-0.9h-1.4v1.9H109.8L109.8,60.8z M107.8,58.5h2c0.6,0,1,0.2,1.3,0.5
		c0.2,0.2,0.4,0.6,0.4,0.9v0c0,0.8-0.5,1.2-1.3,1.4l1.4,1.9H111l-1.3-1.8h-1.3v1.8h-0.5V58.5L107.8,58.5z"/>
	<polygon points="118.7,63.1 119.2,63.1 119.2,58.5 118.7,58.5 118.7,63.1 	"/>
	<path d="M126.2,62.4l0.3-0.4c0.5,0.4,1,0.7,1.6,0.7c0.6,0,1-0.3,1-0.8v0c0-0.4-0.2-0.7-1.2-0.9c-1.1-0.2-1.6-0.6-1.6-1.3v0
		c0-0.7,0.6-1.3,1.5-1.3c0.7,0,1.2,0.2,1.6,0.6l-0.3,0.4c-0.4-0.4-0.9-0.5-1.3-0.5c-0.6,0-1,0.3-1,0.8v0c0,0.4,0.2,0.7,1.3,0.9
		c1,0.2,1.5,0.6,1.5,1.3v0c0,0.8-0.7,1.3-1.6,1.3C127.4,63.2,126.8,62.9,126.2,62.4L126.2,62.4z"/>
	<polygon points="7.8,35.3 7.8,37.5 10.5,37.5 10.5,44.6 13.1,44.6 13.1,37.5 15.9,37.5 15.9,35.3 7.8,35.3 	"/>
	<path d="M30.9,38.2l1,2.6h-2.1L30.9,38.2L30.9,38.2z M29.7,35.2l-3.9,9.4h2.7l0.7-1.7h3.6l0.7,1.7h2.8l-4-9.4H29.7L29.7,35.2z"/>
	<path d="M51.9,39.7c0.9,0,1.4-0.4,1.4-1.1v0c0-0.7-0.5-1.1-1.4-1.1h-1.7v2.2H51.9L51.9,39.7z M47.7,35.3h4.4c1.4,0,2.4,0.4,3,1
		c0.5,0.5,0.8,1.2,0.8,2.2v0c0,1.4-0.8,2.4-1.9,2.9l2.2,3.2h-3l-1.9-2.8h-1.1v2.8h-2.6V35.3L47.7,35.3z"/>
	<path d="M72.1,38.2l1,2.6h-2.1L72.1,38.2L72.1,38.2z M70.9,35.2l-3.9,9.4h2.7l0.7-1.7h3.6l0.7,1.7h2.8l-4-9.4H70.9L70.9,35.2z"/>
	<path d="M96.1,43.1l1.7-1.6c0.5,0.5,0.9,0.9,1.5,0.9c0.6,0,1-0.4,1-1.3v-5.9h2.6v5.9c0,1.2-0.3,2-0.9,2.6c-0.6,0.6-1.5,0.9-2.6,0.9
		C97.7,44.7,96.7,44,96.1,43.1L96.1,43.1z"/>
	<path d="M119.1,38.2l1,2.6H118L119.1,38.2L119.1,38.2z M117.9,35.2l-3.9,9.4h2.7l0.7-1.7h3.6l0.7,1.7h2.8l-4-9.4H117.9L117.9,35.2z
		"/>
	<path d="M140.1,39.7c0.9,0,1.4-0.4,1.4-1.1v0c0-0.7-0.5-1.1-1.4-1.1h-1.7v2.2H140.1L140.1,39.7z M135.8,35.3h4.4c1.4,0,2.4,0.4,3,1
		c0.5,0.5,0.8,1.2,0.8,2.2v0c0,1.4-0.8,2.4-1.9,2.9l2.2,3.2h-3l-1.9-2.8h-1.1v2.8h-2.6V35.3L135.8,35.3z"/>
	<polygon points="163.2,35.3 161,38.9 158.7,35.3 156,35.3 156,44.6 158.5,44.6 158.5,39.2 160.9,42.9 161,42.9 163.3,39.2 
		163.3,44.6 165.9,44.6 165.9,35.3 163.2,35.3 	"/>
	<path d="M185.2,39.9L185.2,39.9c0-1.4-1-2.5-2.4-2.5c-1.4,0-2.4,1.1-2.4,2.5v0c0,1.3,1,2.5,2.4,2.5
		C184.3,42.4,185.2,41.3,185.2,39.9L185.2,39.9z M177.9,39.9L177.9,39.9c0-2.7,2.2-4.9,5-4.9c2.9,0,5,2.1,5,4.8v0
		c0,2.7-2.2,4.8-5,4.8C180,44.7,177.9,42.6,177.9,39.9L177.9,39.9z"/>
	<polygon points="206.1,35.3 206.1,40.2 202.2,35.3 199.8,35.3 199.8,44.6 202.4,44.6 202.4,39.5 206.4,44.6 208.6,44.6 208.6,35.3 
		206.1,35.3 	"/>
</g>
</svg>
