<?xml version="1.0" encoding="utf-8"?>
<!-- Generator: Adobe Illustrator 22.0.1, SVG Export Plug-In . SVG Version: 6.00 Build 0)  -->
<svg version="1.1" id="Layer_1" xmlns="http://www.w3.org/2000/svg" xmlns:xlink="http://www.w3.org/1999/xlink" x="0px" y="0px"
	 viewBox="0 0 274 225" style="enable-background:new 0 0 274 225;" xml:space="preserve">
<style type="text/css">
	.st0{fill-rule:evenodd;clip-rule:evenodd;fill:#EC008C;}
	.st1{fill-rule:evenodd;clip-rule:evenodd;}
</style>
<g>
	<path class="st1" d="M149.6,106.2c-0.1-0.1-0.7-0.7-1-0.9c-2.7-2.1-5.9-3.3-9.4-4c-2.5-0.5-4.5-0.5-7-0.1c-2.1,0.3-4.2,0.9-5.9,1.8
		c-0.9,0.4-1.7,0.9-2.4,1.4c-0.8,0.5-1.5,1.1-2.2,1.6c-1,0.9-1,0.9-1.9,1.9c-0.1,0.1-0.3,0.4-0.4,0.5c-2.9,3.6-4.9,7.9-4.9,13.3
		c0,3.2,0.5,6,1.6,8.7c1,2.3,2.4,4.5,4.2,6.1c0.6,0.6,0.7,0.6,1.4,1.2c1.4,1.1,3.2,2.1,5,2.8c3.2,1.2,5.3,1.8,9.1,1.8
		c2.7,0,6-0.6,8.2-1.6c3.9-1.6,5.3-3.7,5.8-4l0,4.2c0.4,0.1,7.6,0,8.6,0l0-58.2l-8.6,0V106.2L149.6,106.2z M134.9,108.7
		c-2.8,0.2-5.1,1-7.2,2.5c-0.3,0.2-1.1,0.8-1.3,1.1c-0.1,0.1-0.3,0.3-0.4,0.4l-0.8,0.9c-1.9,2.3-3,5.5-2.8,8.6
		c0.6,9.2,10.7,14.6,19.1,10.6c1.3-0.6,2.8-1.7,3.8-2.7c1.9-2.1,3.8-5.2,3.5-9.4C148.4,113.9,142.3,108.3,134.9,108.7L134.9,108.7z"
		/>
	<path class="st1" d="M77.3,114l7.7,1.2c0.3-2.5,1.7-4.3,3.1-5.3c1.7-1.3,4-1.9,6.6-1.8c3.7,0,6.9,0.9,8.2,4.4
		c0.5,1.3,0.4,2.4,0.3,3.8c-1.5,1-6.6,1.6-8.7,1.9c-2.1,0.2-2.5,0.2-4.7,0.6c-3.2,0.6-7.1,1.6-9.7,3.6c-0.4,0.3-1.1,0.9-1.4,1.3
		c-0.8,0.9-1.5,1.9-2,3.3c-0.2,0.7-0.4,1.4-0.5,2.2c-0.1,2.3,0.1,4.7,1.3,6.6c2.1,3.4,5.9,5.5,9.9,6c3.2,0.4,6.6,0.1,9.4-0.9
		c2.1-0.7,4.4-1.9,6-3.3c0.2-0.1,0.3-0.2,0.4-0.3c0.1-0.1,0.2-0.2,0.4-0.3l1.2,3.8l9,0c-0.1-0.4-1.4-1.6-2-3.5
		c-0.4-1.4-0.4-3.6-0.5-5.1c-0.2-4.2-0.3-6.8-0.2-10.9c0-1.9,0-3.7,0-5.6c0-3.8,0.1-6-2.3-9c-1.2-1.5-3.1-2.7-4.7-3.7
		c-1.5-0.9-4.7-1.8-6.4-2.1c-4.7-0.7-9.7,0.6-13.4,3.2c-0.3,0.2-0.5,0.4-0.8,0.6c-0.3,0.2-0.5,0.4-0.8,0.6c-1.9,1.5-4,4.1-4.8,6.5
		C77.7,112.3,77.4,113.4,77.3,114L77.3,114z M102.6,122.6c-0.5,0.1-1,0.3-1.5,0.5c-3,0.8-8.6,1.7-11.6,2.3c-2.7,0.4-4.1,0.7-5,3
		c-0.4,1-0.4,2.4,0,3.4c0.7,2.1,2.2,3.1,4.2,3.7c2.1,0.6,4.8,0.6,6.9,0c2.7-0.8,5.2-2.8,6.3-5.6c0.4-1.1,0.6-2.1,0.7-3.3
		C102.7,125.3,102.7,123.6,102.6,122.6L102.6,122.6z"/>
	<polygon class="st1" points="162.4,140.8 197.7,140.8 197.7,131.6 171.8,131.6 171.8,82.6 162.4,82.6 162.4,140.8 	"/>
</g>
</svg>
