<?xml version="1.0" encoding="utf-8"?>
<!-- Generator: Adobe Illustrator 22.0.1, SVG Export Plug-In . SVG Version: 6.00 Build 0)  -->
<svg version="1.1" id="Layer_1" xmlns="http://www.w3.org/2000/svg" xmlns:xlink="http://www.w3.org/1999/xlink" x="0px" y="0px"
	 viewBox="0 0 274 225" style="enable-background:new 0 0 274 225;" xml:space="preserve">
<style type="text/css">
	.st0{fill-rule:evenodd;clip-rule:evenodd;fill:#EC008C;}
	.st1{clip-path:url(#SVGID_2_);}
	.st2{clip-path:url(#SVGID_4_);fill:#010101;}
	.st3{clip-path:url(#SVGID_4_);fill:#EC2227;}
</style>
<g>
	<g>
		<defs>
			<rect id="SVGID_1_" x="4.2" y="-26.8" width="264.9" height="278.7"/>
		</defs>
		<clipPath id="SVGID_2_">
			<use xlink:href="#SVGID_1_"  style="overflow:visible;"/>
		</clipPath>
		<g class="st1">
			<defs>
				<rect id="SVGID_3_" x="4.2" y="-26.8" width="264.9" height="278.7"/>
			</defs>
			<clipPath id="SVGID_4_">
				<use xlink:href="#SVGID_3_"  style="overflow:visible;"/>
			</clipPath>
			<path class="st2" d="M211.7,118.8c0-0.3-0.1-0.6-0.3-0.7c-0.2-0.2-0.5-0.2-0.8-0.2c-0.2,0-0.4,0-0.6,0v1.9c0.1,0,0.3,0,0.5,0
				c0.4,0,0.7-0.1,0.9-0.3C211.6,119.4,211.7,119.1,211.7,118.8 M212.6,118.7c0,0.5-0.1,0.9-0.4,1.2c-0.4,0.4-0.9,0.6-1.6,0.6
				c-0.2,0-0.4,0-0.5,0v2h-0.8v-5.2c0.3-0.1,0.8-0.1,1.3-0.1c0.7,0,1.2,0.1,1.5,0.4C212.4,117.9,212.6,118.3,212.6,118.7
				 M215.1,119.4c-0.1,0-0.1,0-0.2,0c-0.3,0-0.5,0.1-0.7,0.3c-0.1,0.2-0.2,0.4-0.2,0.8v2h-0.9v-2.6c0-0.4,0-0.8,0-1.2h0.7l0,0.7h0
				c0.1-0.2,0.2-0.5,0.4-0.6c0.2-0.1,0.4-0.2,0.6-0.2c0,0,0.1,0,0.2,0V119.4z M216.3,120.2c0-0.3,0.1-0.5,0.3-0.7
				c0.2-0.2,0.4-0.4,0.7-0.4c0.3,0,0.5,0.1,0.7,0.4c0.1,0.2,0.2,0.4,0.2,0.7H216.3z M218.6,119.2c-0.3-0.4-0.7-0.6-1.3-0.6
				c-0.6,0-1,0.2-1.3,0.6c-0.3,0.4-0.5,0.9-0.5,1.4c0,0.6,0.2,1.1,0.5,1.4c0.3,0.4,0.8,0.5,1.4,0.5c0.5,0,0.9-0.1,1.3-0.2l-0.1-0.6
				c-0.3,0.1-0.7,0.2-1,0.2c-0.3,0-0.6-0.1-0.8-0.3c-0.2-0.2-0.4-0.5-0.4-0.9h2.6c0-0.1,0-0.2,0-0.4
				C218.9,119.9,218.8,119.5,218.6,119.2 M224.9,122.5h-0.8v-2.1c0-0.7-0.2-1.1-0.7-1.1c-0.2,0-0.4,0.1-0.5,0.3
				c-0.1,0.2-0.2,0.4-0.2,0.6v2.3h-0.8v-2.3c0-0.3-0.1-0.5-0.2-0.7c-0.1-0.2-0.3-0.3-0.5-0.3c-0.2,0-0.4,0.1-0.6,0.3
				c-0.2,0.2-0.2,0.4-0.2,0.6v2.3h-0.8v-2.7c0-0.3,0-0.7,0-1.1h0.7l0.1,0.6h0c0.3-0.4,0.6-0.6,1.2-0.6c0.5,0,0.9,0.2,1.1,0.7h0
				c0.1-0.2,0.3-0.4,0.5-0.5c0.2-0.1,0.4-0.2,0.7-0.2c0.3,0,0.6,0.1,0.8,0.4c0.3,0.3,0.4,0.7,0.4,1.3V122.5z M226.8,122.5H226v-3.8
				h0.8V122.5z M226.9,117.5c0,0.2-0.1,0.3-0.1,0.4c-0.1,0.1-0.2,0.2-0.4,0.2c-0.1,0-0.3-0.1-0.4-0.2c-0.1-0.1-0.1-0.2-0.1-0.4
				c0-0.1,0-0.3,0.1-0.4c0.1-0.1,0.2-0.1,0.4-0.1c0.1,0,0.3,0.1,0.4,0.1C226.8,117.3,226.9,117.4,226.9,117.5 M231.1,122.5h-0.8
				l0-0.6h0c-0.3,0.5-0.7,0.7-1.2,0.7c-0.4,0-0.7-0.1-0.9-0.4c-0.3-0.3-0.4-0.7-0.4-1.3v-2.3h0.9v2.1c0,0.7,0.3,1.1,0.8,1.1
				c0.4,0,0.6-0.2,0.8-0.5c0-0.1,0.1-0.2,0.1-0.3v-2.3h0.9v2.7C231,121.8,231.1,122.1,231.1,122.5 M237.4,122.5h-0.8v-2.1
				c0-0.7-0.2-1.1-0.7-1.1c-0.2,0-0.4,0.1-0.5,0.3c-0.1,0.2-0.2,0.4-0.2,0.6v2.3h-0.8v-2.3c0-0.3-0.1-0.5-0.2-0.7
				c-0.1-0.2-0.3-0.3-0.5-0.3c-0.2,0-0.4,0.1-0.6,0.3c-0.1,0.2-0.2,0.4-0.2,0.6v2.3h-0.8v-2.7c0-0.3,0-0.7,0-1.1h0.7l0,0.6h0
				c0.2-0.4,0.6-0.6,1.1-0.6c0.5,0,0.9,0.2,1.1,0.7h0c0.1-0.2,0.3-0.4,0.4-0.5c0.2-0.1,0.5-0.2,0.8-0.2c0.3,0,0.6,0.1,0.8,0.4
				c0.3,0.3,0.4,0.7,0.4,1.3V122.5z M213.7,126.9c0-0.6-0.4-0.9-1.1-0.9c-0.3,0-0.5,0-0.6,0.1v1.8h0.6c0.3,0,0.6-0.1,0.8-0.3
				C213.6,127.5,213.7,127.2,213.7,126.9 M214.7,130.7h-0.9c-0.1-0.2-0.2-0.6-0.3-1.3c-0.1-0.4-0.2-0.6-0.3-0.7
				c-0.1-0.2-0.4-0.2-0.6-0.2H212v2.2h-0.9v-5.2c0.4-0.1,0.8-0.1,1.4-0.1c0.7,0,1.3,0.1,1.6,0.4c0.3,0.3,0.5,0.6,0.5,1
				c0,0.3-0.1,0.6-0.3,0.9c-0.2,0.2-0.4,0.4-0.7,0.5v0c0.4,0.1,0.6,0.5,0.8,1.1c0.1,0.4,0.2,0.7,0.2,0.9
				C214.6,130.5,214.7,130.7,214.7,130.7 M217.6,128.4c0-0.3-0.1-0.5-0.2-0.7c-0.1-0.2-0.4-0.3-0.7-0.3c-0.3,0-0.5,0.1-0.7,0.3
				c-0.1,0.2-0.2,0.4-0.3,0.7H217.6z M218.4,128.7c0,0.1,0,0.3,0,0.4h-2.6c0,0.4,0.1,0.7,0.4,0.9c0.2,0.2,0.5,0.3,0.8,0.3
				c0.4,0,0.7-0.1,1-0.2l0.1,0.6c-0.4,0.2-0.8,0.2-1.3,0.2c-0.6,0-1.1-0.2-1.4-0.5c-0.3-0.4-0.5-0.8-0.5-1.4c0-0.6,0.2-1.1,0.5-1.4
				c0.3-0.4,0.8-0.6,1.3-0.6c0.5,0,1,0.2,1.3,0.6C218.3,127.8,218.4,128.2,218.4,128.7 M221.5,129.6c0,0.3-0.1,0.6-0.4,0.8
				c-0.3,0.2-0.6,0.3-1.1,0.3c-0.4,0-0.8-0.1-1.1-0.3l0.2-0.6c0.3,0.2,0.6,0.3,0.9,0.3c0.4,0,0.7-0.2,0.7-0.5c0-0.1-0.1-0.3-0.1-0.4
				c-0.1-0.1-0.3-0.2-0.5-0.3c-0.7-0.3-1-0.6-1-1.1c0-0.3,0.1-0.6,0.4-0.8c0.3-0.2,0.6-0.3,1-0.3c0.4,0,0.7,0.1,1,0.2l-0.2,0.6
				c-0.2-0.1-0.5-0.2-0.8-0.2c-0.2,0-0.3,0-0.4,0.1c-0.1,0.1-0.1,0.2-0.1,0.3c0,0.1,0.1,0.2,0.2,0.3c0.1,0.1,0.3,0.2,0.5,0.3
				C221.2,128.7,221.5,129.1,221.5,129.6 M224.6,128.4c0-0.3-0.1-0.5-0.2-0.7c-0.2-0.2-0.4-0.3-0.7-0.3c-0.3,0-0.4,0.1-0.6,0.3
				c-0.1,0.2-0.2,0.4-0.3,0.7H224.6z M225.4,128.7c0,0.1,0,0.3,0,0.4h-2.5c0,0.4,0.1,0.7,0.4,0.9c0.2,0.2,0.4,0.3,0.7,0.3
				c0.4,0,0.7-0.1,1-0.2l0.1,0.6c-0.4,0.2-0.8,0.2-1.3,0.2c-0.5,0-1-0.2-1.3-0.5c-0.3-0.4-0.5-0.8-0.5-1.4c0-0.6,0.2-1.1,0.5-1.4
				c0.3-0.4,0.8-0.6,1.2-0.6c0.5,0,1,0.2,1.3,0.6C225.3,127.8,225.4,128.2,225.4,128.7 M227,130.7h-0.9v-5.6h0.9V130.7z
				 M228.8,130.7h-0.9v-5.6h0.9V130.7z M232.2,128.4c0-0.3-0.1-0.5-0.2-0.7c-0.1-0.2-0.4-0.3-0.7-0.3c-0.3,0-0.5,0.1-0.7,0.3
				c-0.1,0.2-0.2,0.4-0.3,0.7H232.2z M233,128.7c0,0.1,0,0.3,0,0.4h-2.5c0,0.4,0.1,0.7,0.4,0.9c0.2,0.2,0.5,0.3,0.8,0.3
				c0.4,0,0.7-0.1,1-0.2l0.1,0.6c-0.3,0.2-0.8,0.2-1.2,0.2c-0.6,0-1.1-0.2-1.4-0.5c-0.3-0.4-0.5-0.8-0.5-1.4c0-0.6,0.2-1.1,0.5-1.4
				c0.3-0.4,0.8-0.6,1.3-0.6c0.6,0,1,0.2,1.3,0.6C232.9,127.8,233,128.2,233,128.7 M235.8,127.7c-0.1,0-0.2,0-0.3,0
				c-0.3,0-0.5,0.1-0.7,0.3c-0.1,0.2-0.2,0.4-0.2,0.8v2h-0.9v-2.6c0-0.4,0-0.8,0-1.2h0.7l0,0.7h0c0.1-0.2,0.2-0.5,0.4-0.6
				c0.2-0.1,0.4-0.2,0.6-0.2c0.1,0,0.2,0,0.2,0V127.7z"/>
			<path class="st2" d="M225.9,97.1c0.6-0.8,1.1-1.9,1-2.9c-0.9,0-2.1,0.6-2.7,1.4c-0.6,0.7-1,1.8-0.9,2.8
				C224.2,98.5,225.2,97.9,225.9,97.1"/>
			<path class="st2" d="M230.6,107.4c0,0.1-0.4,1.3-1.2,2.6c-0.8,1.1-1.6,2.2-2.8,2.3c-1.2,0-1.6-0.7-3-0.7c-1.3,0-1.7,0.7-2.9,0.7
				c-1.2,0.1-2.1-1.2-2.9-2.3c-1.6-2.3-2.7-6.4-1.2-9.1c0.8-1.4,2.2-2.3,3.8-2.3c1.2,0,2.3,0.8,3,0.8c0.7,0,2-1,3.4-0.8
				c0.6,0,2.3,0.2,3.3,1.8c-0.1,0-2,1.2-2,3.4C228.2,106.6,230.6,107.4,230.6,107.4"/>
			<rect x="201.6" y="94.2" class="st2" width="0.4" height="36.6"/>
			<path class="st2" d="M144.6,103.2l-3.5,1.1v2.9h-2.5v2.9h2.5v8.5c0,2.1,0.4,3.5,1.2,4.5c0.8,0.9,2,1.3,3.4,1.3
				c1.3,0,2.3-0.3,2.7-0.4l0.2-0.1l-0.2-2.9l-0.4,0.1c-0.4,0.1-0.8,0.2-1.6,0.2c-1.3,0-1.9-0.8-1.9-2.8v-8.4h4.2v-2.9h-4.2V103.2z"
				/>
			<path class="st2" d="M131.3,110.7c-3.2-1.3-4.3-2.2-4.3-4.1c0-1.5,1.2-3.1,3.9-3.1c2.3,0,3.7,0.8,4.1,1l0.4,0.2l1-3l-0.2-0.1
				c-0.6-0.3-2.3-1.2-5.1-1.2c-4.5,0-7.6,2.7-7.6,6.5c0,3,2,5.2,6.2,6.7c2.9,1.1,4,2.2,4,4.1c0,2.2-1.7,3.5-4.4,3.5
				c-1.8,0-3.6-0.5-5-1.4l-0.4-0.2l-1,3.1l0.2,0.1c1.3,0.9,3.8,1.5,5.9,1.5c6.1,0,8.2-3.7,8.2-6.9
				C137.2,114.4,135.4,112.3,131.3,110.7"/>
			<path class="st2" d="M158.4,106.9c-4.9,0-8.4,3.7-8.4,8.9c0,5.1,3.3,8.7,8.1,8.7c4,0,8.4-2.8,8.4-8.9
				C166.6,110.5,163.2,106.9,158.4,106.9 M162.9,115.6c0,3.5-1.9,6-4.6,6c-2.6,0-4.6-2.5-4.6-5.9c0-3,1.4-5.9,4.6-5.9
				C161.5,109.8,162.9,112.8,162.9,115.6"/>
			<path class="st2" d="M187,106.9c-4.7,0-7.9,3.7-7.9,9c0,5.2,3.3,8.5,8.3,8.5c2.6,0,4.5-0.6,5.6-1.1l0.2-0.1l-0.7-2.7l-0.4,0.2
				c-0.9,0.4-2.1,0.8-4.4,0.8c-1.5,0-5-0.5-5.2-5h11.3l0.1-0.3c0.1-0.4,0.1-0.8,0.1-1.4C194,111.2,192.2,106.9,187,106.9
				 M182.6,113.8c0.3-2,1.6-4.1,4.1-4.1c1.1,0,1.9,0.3,2.6,1c1,1,1.1,2.4,1.2,3.1H182.6z"/>
			<path class="st2" d="M177.9,107c-0.3,0-0.5-0.1-0.8-0.1c-1.8,0-3.4,1-4.3,2.7l-0.1-2.3h-3.2l0,0.3c0.1,1.4,0.1,2.9,0.1,5v11.5
				h3.6v-9c0-0.5,0-1,0.1-1.3c0.4-2.1,1.8-3.5,3.6-3.5c0.4,0,0.7,0,0.9,0.1l0.4,0.1v-3.2l-0.1-0.3L177.9,107z"/>
			<path class="st3" d="M92.7,107.3H77.7c-1.3,0-2.2,0.4-2.8,1.1c-0.4,0.6-0.5,1.5-0.5,2.1v14h4.3v-12.9c0-0.5,0.1-0.7,0.1-0.7
				c0,0,0.2-0.2,0.6-0.2h5v13.8h4.3v-13.8h3.1c0.7,0,1.5,0.1,2,0.7c0.4,0.5,0.6,1.2,0.6,2.1v10.9h4.3V113c0-1.7-0.6-3.3-1.6-4.3
				C95.8,107.5,93.8,107.3,92.7,107.3"/>
			<path class="st3" d="M114.8,108.7c-0.8-0.9-2.2-1.4-3.7-1.4h-9.7v3.4h8.5c0.5,0,1.1,0.1,1.5,0.6c0.4,0.4,0.4,0.9,0.4,1.4v0.9
				h-6.9c-1.1,0-2.2,0.1-3.2,1c-1.3,1.2-1.5,2.7-1.5,4.3c0,1.5,0.2,3.5,1.5,4.7c1,0.9,2.3,0.9,3.2,0.9h7.9c0.9,0,1.8-0.1,2.5-0.7
				c0.7-0.7,0.7-1.9,0.7-2.3v-8.6C116.1,111,115.6,109.5,114.8,108.7 M111.8,117v3.5c0,0.2,0,0.3-0.1,0.4c-0.2,0.1-0.4,0.1-0.6,0.1
				h-5.1c-0.4,0-0.8-0.2-1-0.4c-0.3-0.3-0.4-0.9-0.4-1.6c0-1,0.2-1.4,0.3-1.6c0.3-0.4,0.8-0.4,1.1-0.4H111.8z"/>
			<path class="st3" d="M68.3,123.4l-8-19c-0.8-1.9-1.9-2.7-3.9-2.7c-2.1,0-3,0.7-3.9,2.7l-8.4,20.1h5l2.2-5.5h10.1l2.3,5.5h8.8V102
				h-4.3V123.4z M56.1,106.8c0.1-0.1,0.2-0.6,0.3-0.7c0.1,0.1,0.3,0.5,0.4,0.7l3.4,8.5h-7.5L56.1,106.8L56.1,106.8z M55.8,106.8
				L55.8,106.8L55.8,106.8z"/>
		</g>
	</g>
</g>
</svg>
