<svg xmlns="http://www.w3.org/2000/svg" width="100" height="91" viewBox="0 0 100 91"><defs><clipPath id="dxzga"><path fill="#fff" d="M34.685 83.002a7.93 7.93 0 1 1 15.86 0 7.93 7.93 0 0 1-15.86 0z"/></clipPath><clipPath id="dxzgb"><path fill="#fff" d="M65.525 83.002a7.93 7.93 0 1 1 15.86 0 7.93 7.93 0 0 1-15.86 0z"/></clipPath></defs><g><g><g><path fill="none" stroke="#242424" stroke-linecap="round" stroke-miterlimit="50" stroke-width="3" d="M1.904 1.838v0l13.5 5.786v0s-.014-.15.194.964c.208 1.113 11.226 55.766 11.226 55.766v0l.214 1.273v0s.266 2.891 6.114 2.846c5.847-.044 55.693-.235 55.693-.235v0"/></g><g><path fill="none" stroke="#242424" stroke-linecap="round" stroke-miterlimit="50" stroke-width="3" d="M17.626 18.016v0h76.373v0s4.998-.342 3.945 3.98c-1.053 4.323-6.174 29.467-6.174 29.467.071 0-.702 4.997-3.317 4.973-2.615-.024-62.745 0-62.745 0v0"/></g><g><path fill="none" stroke="#242424" stroke-linecap="round" stroke-miterlimit="50" stroke-width="3" d="M40.001 31.05h35.814"/></g><g><path fill="none" stroke="#242424" stroke-linecap="round" stroke-miterlimit="50" stroke-width="3" d="M41.271 43.813h33.505"/></g><g><path fill="none" stroke="#242424" stroke-linecap="round" stroke-miterlimit="50" stroke-width="6" d="M34.685 83.002a7.93 7.93 0 1 1 15.86 0 7.93 7.93 0 0 1-15.86 0z" clip-path="url(&quot;#dxzga&quot;)"/></g><g><path fill="none" stroke="#242424" stroke-linecap="round" stroke-miterlimit="50" stroke-width="6" d="M65.525 83.002a7.93 7.93 0 1 1 15.86 0 7.93 7.93 0 0 1-15.86 0z" clip-path="url(&quot;#dxzgb&quot;)"/></g></g></g></svg>