<?xml version="1.0" encoding="utf-8"?>
<!-- Generator: Adobe Illustrator 22.0.1, SVG Export Plug-In . SVG Version: 6.00 Build 0)  -->
<svg version="1.1" id="Layer_1" xmlns="http://www.w3.org/2000/svg" xmlns:xlink="http://www.w3.org/1999/xlink" x="0px" y="0px"
	 viewBox="0 0 216 98.8" style="enable-background:new 0 0 216 98.8;" xml:space="preserve">
<style type="text/css">
	.st0{fill-rule:evenodd;clip-rule:evenodd;fill:#EC008C;}
	.st1{fill:#AF1F2C;}
	.st2{clip-path:url(#SVGID_2_);fill:#AF1F2C;}
	.st3{clip-path:url(#SVGID_2_);fill:#F3D0B6;}
	.st4{clip-path:url(#SVGID_2_);fill:#FFFFFF;}
	.st5{clip-path:url(#SVGID_2_);fill:#272726;}
	.st6{fill-rule:evenodd;clip-rule:evenodd;fill:#610000;}
	.st7{clip-path:url(#SVGID_4_);fill:url(#SVGID_5_);}
	.st8{fill:#610000;}
	.st9{fill-rule:evenodd;clip-rule:evenodd;fill:#6A0000;}
	.st10{fill-rule:evenodd;clip-rule:evenodd;fill:#FFFFFF;}
	.st11{fill:#FFFFFF;}
	.st12{fill:none;stroke:#8C100E;stroke-width:0.216;stroke-miterlimit:22.9256;}
	.st13{fill:#414042;}
	.st14{fill:#E9C232;}
	.st15{fill-rule:evenodd;clip-rule:evenodd;fill:#8DC63F;}
	.st16{clip-path:url(#SVGID_7_);fill:url(#SVGID_8_);}
	.st17{clip-path:url(#SVGID_10_);fill:url(#SVGID_11_);}
	.st18{clip-path:url(#SVGID_13_);fill:url(#SVGID_14_);}
	.st19{clip-path:url(#SVGID_16_);}
	.st20{clip-path:url(#SVGID_18_);}
	.st21{clip-path:url(#SVGID_22_);fill:url(#SVGID_23_);}
	.st22{clip-path:url(#SVGID_25_);fill:url(#SVGID_26_);}
	.st23{clip-path:url(#SVGID_28_);fill:url(#SVGID_29_);}
	.st24{clip-path:url(#SVGID_31_);fill:url(#SVGID_32_);}
	.st25{fill:#818385;}
	.st26{clip-path:url(#SVGID_34_);fill:#FFFFFF;}
	.st27{fill:#008B63;}
	.st28{fill:#BA131A;}
	.st29{fill:none;stroke:#FFFFFF;stroke-width:0.5669;stroke-miterlimit:22.9256;}
	.st30{clip-path:url(#SVGID_36_);fill-rule:evenodd;clip-rule:evenodd;}
	.st31{clip-path:url(#SVGID_36_);fill:none;stroke:#1B1818;stroke-width:0.1313;}
	.st32{clip-path:url(#SVGID_36_);fill-rule:evenodd;clip-rule:evenodd;fill:#ED2024;}
	.st33{clip-path:url(#SVGID_36_);fill-rule:evenodd;clip-rule:evenodd;fill:#FFFFFF;}
	.st34{fill-rule:evenodd;clip-rule:evenodd;fill:#ED1C24;}
	.st35{fill-rule:evenodd;clip-rule:evenodd;fill:#00A651;}
	.st36{fill-rule:evenodd;clip-rule:evenodd;fill:none;}
	.st37{fill-rule:evenodd;clip-rule:evenodd;fill:#ED2690;}
	.st38{fill-rule:evenodd;clip-rule:evenodd;fill:#ED2891;}
</style>
<g>
	<path class="st36" d="M116.1,35c0-0.1,0-0.1,0.1-0.2c0,0,0,0,0,0c-0.2-0.1-0.4-0.2-0.4-0.6c0-0.3-0.3-0.5-0.5-0.4
		c-0.4,0.2-0.8,0.1-1.3,0.2L116.1,35C116.1,35,116.1,35,116.1,35"/>
	<path class="st36" d="M112.9,50.2c-0.3-0.2-0.8-0.5-0.9-0.9c-0.1-0.3-0.2-0.5-0.4-0.6c-0.9-0.4-1.2-1.5-2-1.9
		c-0.1-0.1-0.2-0.2-0.2-0.4c-0.1-0.3-0.3-0.6-0.5-0.7c-0.3-0.2-0.1-0.6-0.4-0.8c-0.4-0.2-0.5-0.6-0.5-1c0-0.6-0.4-1.1-0.8-1.5
		c-0.5-0.6-0.3-1.1-0.2-1.7c0-0.4,0.2-0.8,0.2-1.2c0-0.5-0.2-1-0.3-1.5c-0.1-0.5-0.4-0.9-0.3-1.5c0.1-0.2,0-0.4,0-0.6
		c0-0.3-0.2-0.5-0.5-0.5c-0.3,0.1-0.5,0.4-0.4,0.7c0,0.1,0.1,0.2,0.1,0.3c0,0.3,0,0.6,0.1,0.8c0.3,0.4,0.2,0.7,0,1.1
		c-0.1,0.1-0.1,0.3-0.2,0.4c-0.3,0.8-1,1.2-1.9,1c-0.8-0.2-1.5-0.5-2.3-0.5c-0.6,0-1.2,0.2-1.7,0.5c-0.3,0.2-0.4,0.8-0.2,1
		c0.1,0.2,0.8,0.6,0.9,0.5c0.6-0.2,1.1-0.1,1.7,0.1c0.2,0.1,0.4,0.1,0.6,0c0.5,0,1-0.1,1.4,0.1c0.4,0.2,0.5,0.1,0.7-0.2
		c0.1-0.3,0.3-0.4,0.6-0.6c0.1-0.1,0.2,0,0.3,0c0.1,0.1,0,0.2-0.1,0.3c-0.2,0.2-0.2,0.4,0.1,0.7c0.2,0.2,0.3,0.5,0.3,0.8
		c-0.1,0.7-1.2,1.5-1.9,1.4c-0.4-0.1-0.6,0-1,0.1c-0.1,0-0.3,0.1-0.4,0.1c-0.6,0-1.3-0.1-1.9-0.2c-0.9-0.2-1.9-0.2-2.8-0.3
		c-1.1-0.2-1.9-0.8-2.7-1.4c-0.3-0.2-0.4-0.7-0.8-0.9c-0.1-0.1-0.1-0.3-0.1-0.4c-0.1-1.6-0.2-3.2-0.3-4.8c0-0.4-0.2-0.5-0.5-0.6
		c-0.1-0.1-0.2-0.1-0.3,0c-0.1,0.2-0.3,0.4-0.1,0.7c0.2,0.4,0.1,0.8,0.1,1.2c-0.1,0.6-0.4,1.1-0.6,1.6c-0.1,0.6-0.5,1-0.9,1.3
		c-0.6,0.4-1.2,0.2-1.5-0.4c-0.1-0.1-0.1-0.3-0.1-0.4c-0.2-1,0.2-1.7,0.7-2.5c0.2-0.3,0.4-0.6,0.5-0.8c0.1-0.2,0-0.3-0.2-0.4
		c-0.3-0.1-0.7-0.1-1,0.1c-0.5,0.4-1.1,0.3-1.4-0.1c-0.3-0.3-0.1-0.9,0.4-1.4c0.2-0.2,0.4-0.3,0.7-0.4c0.5-0.2,0.7-0.4,0.5-1.1
		c-0.6,0.4-1.4,0.4-2.1,0.5c-0.5,0-0.8-0.1-1.1-0.5c-0.6-0.7-0.7-1.6-0.8-2.5c0-0.4,0-0.8,0.4-1c0.4-0.2,0.8-0.1,1.1,0.1
		c0,0,0.1,0.1,0.1,0.1c1,0.6,2.1,0.9,3.2,1.4c0.4,0.2,1-0.2,1.1-0.5c0.1-0.3-0.1-0.4-0.2-0.7c-0.1-0.3-0.3-0.2-0.5-0.3
		c-0.6-0.3-1.3-0.3-1.9-0.6c-0.9-0.4-1.8-0.7-2.8-1c-1.1-0.3-1.8-1.2-2.3-2.2c-0.6-1.2-0.9-2.5-0.8-3.7c0-0.6,0.1-1.3,0.3-1.9
		c0.2-0.5,0.6-0.7,1.1-0.5c0.5,0.1,0.7,0.5,1.1,0.7c0.4,0.2,0.8,0.4,1.1,0.9c0.1,0.2,0.4,0.3,0.7,0.4c0.9,0.3,1.8,0.7,2.6,1.1
		c0.9,0.4,1.7,1.9,1.6,2.8c0,0.1-0.1,0.3-0.2,0.4c-0.1,0.3-0.3,0.6-0.3,0.9c0.2,0.7,0.6,1.4,1,2c0.1,0.1,0.3,0.2,0.5,0.1
		c0.5-0.1,0.8-0.6,0.6-1.1c-0.1-0.2-0.1-0.4-0.2-0.5c-0.2-0.7-0.3-1.4,0-2.1c0.2-0.4,0.5-0.7,1-0.7c0.1,0,0.3,0,0.4,0
		c0.4-0.1,0.7,0,0.9,0.3c0.2,0.3,0.6,0.5,0.7,0.9c0.3,1.1,0,1.9-0.6,2.8c-0.2,0.3-0.2,0.7-0.1,1c0.2,0.6,0.7,0.9,1.2,1.1
		c0.2,0.1,0.4,0.1,0.3,0.4c0,0.4,0.3,0.6,0.6,0.4c0.3-0.2,0.5-0.1,0.7,0c0.4,0.1,0.8,0.3,1.2,0.6c0.1,0.1,0.3,0.2,0.4,0.1
		c0.8-0.4,1.7-0.4,2.6-0.5c0.3,0,0.6,0,0.8,0.1c0.2,0.2,0.4,0.2,0.7,0.1c0.2-0.1,0.5,0.1,0.6-0.1c0.1-0.3-0.2-0.3-0.3-0.5
		c0-0.1-0.1-0.1-0.1-0.2c0.1-0.3-0.1-0.4-0.4-0.5c-0.2-0.1-0.5-0.3-0.7-0.3c-0.6,0.1-1.2,0-1.7,0.1c-0.5,0.1-1.2-0.1-1.6,0.4
		c-0.1,0.1-0.2,0.1-0.3,0.1c-0.6-0.1-1.1-0.4-1.6-0.9c-0.1-0.1-0.1-0.2-0.1-0.3c0.4-0.7,0.7-1.4,1.2-2c0.1-0.1,0.2-0.1,0.4-0.2
		c0.8-0.3,1.6-0.6,2.5-0.6c1.1-0.1,2.1,0,3,0.5c0.3,0.2,0.7,0.4,1,0.5c0.3,0.2,0.8,0.3,0.8,0.8c0,0.1,0.2,0.2,0.3,0.3
		c0.1,0.1,0.2,0.1,0.2,0.3c-0.1,0.4,0.2,0.6,0.5,0.7c0.1,0.1,0.3,0.1,0.2,0.4c-0.3,0.8,0.3,1.5,0.3,2.2c0,0.7,0.3,1.4,0.1,2.1
		c0,0.1,0,0.2,0.1,0.3c0.2,0.2,0.1,0.3,0.1,0.5c0,0.3-0.2,0.5-0.1,0.8c0.2,0.5,0.6,1,0.3,1.6c0,0,0,0.1,0.1,0.2
		c0.2,0.3,0.2,0.6,0,0.9c-0.1,0.3,0.1,0.6-0.1,0.8c0.4,0.2,0.3,0.5,0.3,0.9c0,0.5,0.3,0.9,0.4,1.4c0.1,0.5,0.3,0.8,0.7,1.1
		c0.1,0.1,0.2,0.1,0.2,0.3c-0.1,0.4,0.2,0.5,0.4,0.6l0,0c0.3,0.2,0.6,0.4,0.9,0.6c0.2,0.1,0.6,0.2,0.4,0.6c-0.1,0.1,0.2,0.2,0.3,0.3
		c0.6,0.4,1.1,0.8,1.7,1.1c0.5,0.2,1,0,1.5-0.2c0.5-0.2,1-0.5,1.4-0.9c0.2-0.2,0.4-0.4,0.6-0.4c0.8,0,1.1-0.5,1.5-1
		c0.2-0.2,0.6-0.4,0.6-0.8c-0.1-0.3,0.1-0.5,0.2-0.7c0.1-0.3,0.2-0.5,0.2-0.8c0.1-1.1,0.2-2.1,0.4-3.2c0-0.2,0-0.3-0.2-0.4
		c-0.2-0.1-0.3,0.1-0.3,0.2c0,0.7-0.3,1.2-0.4,1.8c-0.1,0.6-0.5,1-0.9,1.4c-0.4,0.4-1.3,0.3-1.6-0.3c-0.2-0.3-0.3-0.5-0.6-0.7
		c-0.1-0.1-0.2-0.2-0.2-0.4c-0.2-0.7-0.1-1.6-0.9-2c-0.1-0.1-0.1-0.2-0.1-0.3c-0.1-0.6-0.7-1.1-1.2-0.7c-0.3,0.2-0.6,0.1-0.9,0.2
		c0,0.1,0.1,0.2,0.1,0.2c0,0.6,0.2,1,0.3,1.6c0.1,0.4,0.3,0.9,0,1.4c-0.1,0.2,0,0.3,0.2,0.4c0.3,0.2,0.5,0.3,0.5,0.7
		c0,0.1,0.1,0.1,0.1,0.2c0.5,0.3,0.9,0.7,1.4,0.9c0.2,0.1,0.5,0.1,0.6,0.5c0,0.1,0.1,0.1,0.2,0.1c0.2-0.1,0.4-0.1,0.6-0.2
		c0.3-0.3,0.8-0.2,1.1-0.5c0.2-0.1,0.4-0.1,0.6,0.1c0.2,0.2,0,0.3-0.1,0.5c-0.2,0.4-0.6,0.7-0.8,1.2c-0.3,0.3-0.7,0.4-1.1,0.1
		c-0.2-0.2-0.4-0.1-0.6,0.1c-0.6,0.8-1.3,1-2.2,0.5c-0.2-0.1-0.4-0.1-0.6-0.1c-0.3,0.1-0.5,0.1-0.5-0.3c0-0.2-0.1-0.2-0.3-0.3
		c-0.2-0.1-0.4-0.3-0.7-0.4c-0.2-0.1-0.2-0.2-0.2-0.3c0,0-0.1,0.1-0.1,0.1c0-0.1,0-0.2,0.1-0.3c0,0,0-0.1,0-0.1
		c-0.5-0.2-0.4-0.8-0.7-1.2c-0.1-0.1-0.1-0.4,0-0.5c0.1-0.5-0.1-0.9-0.3-1.2c-0.3-0.4-0.4-0.8-0.3-1.2c0-0.1,0.1-0.2-0.1-0.3
		c-0.4-0.2-0.3-0.6-0.3-0.9c0-0.2,0-0.5-0.1-0.7c-0.1-0.4-0.2-0.7-0.1-1.1c0.1-0.2,0.1-0.5-0.1-0.7c-0.3-0.3,0-0.6-0.2-0.9
		c0.3-0.4,0.1-0.8,0.1-1.2c0,0,0-0.1,0-0.1c-0.4-0.5-0.1-1-0.3-1.5c-0.1-0.3,0-0.5,0.2-0.8c0.3-0.5,0.3-0.9-0.3-1.1
		c-0.1-0.1-0.3-0.1-0.4-0.2c-0.3-0.2-0.8-0.1-0.6-0.7c0,0,0-0.1-0.1-0.1c-0.5-0.1-0.4-0.7-0.7-1c-0.4-0.3-0.3-1.4,0-1.7
		c0.1-0.1,0.3-0.1,0.5-0.1c0.3,0,0.7,0.1,0.9,0.3c0.7,0.5,1.5,0.7,2.2,1.1c0.8,0.4,0.8,0.4,0.9,1.1c0.1,0.4,0.2,0.5,0.5,0.6
		c0.4,0.1,0.8,0.3,1.2,0.5c0.6,0.2,1.1,0.4,1.5,1c0.1,0.2,0.3,0.3,0.5,0.3c0.4,0.2,0.9,0.3,1.3,0.5c0.2,0.1,0.6,0.2,0.5,0.4
		c-0.1,0.4,0.4,0.6,0.2,1c-0.2,0.4-0.3,0.7-0.7,0.8c-0.2,0.1-0.4,0.2-0.6,0.4c-0.3,0.3-0.7,0.3-1.1,0.3l0,0l0,0
		c-0.1,0.1-0.1,0.1-0.2,0.2c0.9,0.4,1.8,0.8,2.7,1.1c0.3,0.1,0.6,0.3,0.9,0.4c0.2,0.1,0.3,0.2,0.3,0.5c0,0.4,0.6,0.3,0.7,0.6
		c0,0.1,0.2-0.1,0.3-0.2c0.2-0.2,0.2-0.7,0-0.9c-0.4-0.3-0.4-0.7-0.5-1.1c0-0.3-0.1-0.5-0.3-0.6c-0.4-0.1-0.4-0.4-0.3-0.7
		c0-0.3,0.1-0.6-0.2-0.8c0.1-0.5-0.6-0.7-0.5-1.2c0-0.2-0.1-0.3-0.4-0.4c-0.4,0-0.9,0-0.6-0.7c0,0,0-0.1,0-0.1
		c-0.5-0.2-0.4-0.7-0.8-1c-0.2-0.1-0.5-0.2-0.4-0.6c0-0.1,0-0.1,0-0.2c0,0,0,0,0,0c-0.1-0.1-0.2-0.1-0.3-0.1
		c-0.6-0.2-1.1-0.5-1.7-0.8c-0.3-0.1-0.4-0.6-0.8-0.3c0,0-0.1,0-0.1-0.1c-0.2-0.5-0.7-0.6-1.1-0.7c-0.9-0.4-1.8-0.8-2.7-1.2
		c0,0,0,0,0,0c-0.3,0-0.5-0.2-0.7-0.3c-0.9-0.4-1.9-0.8-2.9-1c-0.4-0.1-0.8,0-1.1-0.2c-1.4-0.9-3.2-0.6-4.5-1.5c0,0,0,0-0.1,0
		c-1.2,0-2.2-0.7-3.4-0.6c-0.1,0-0.1,0-0.2,0c-1-0.3-2-0.3-2.9-0.7c-0.1,0-0.2-0.1-0.3-0.1c-0.5,0-1-0.2-1.5-0.4
		c-0.4-0.2-0.7-0.3-1.1-0.5c-1.5-0.6-2.9-1.3-3.5-3c0-0.1-0.1-0.1-0.1-0.2c-0.4-0.2-0.4-0.6-0.3-1c0-0.4,0-0.8,0-1.1
		c0-0.6,0-1.2,0.5-1.6c0.5-0.4,0.8-1,1.1-1.6c0.3-0.7,1-1,1.7-1.1c0.7-0.1,1.4,0,2-0.3c0.1,0,0.2,0,0.3,0c0.4,0.1,0.7,0.1,1.1,0
		c0.3,0,0.7,0,1,0.2c0.3,0.2,0.6,0.4,1,0.1c0.2-0.1,0.3,0.1,0.4,0.1c1,0.5,2,1.1,2.9,1.8c0.3,0.2,0.6,0.4,0.6,0.8
		c0,0.1,0.1,0.3,0.2,0.3c0.6,0.2,1.1,0.7,1.8,0.3c0.3-0.1,0.7-0.3,1-0.4c0.4-0.2,0.8-0.3,1.2-0.1c0.4,0.1,0.8,0.2,1.2,0.4
		c0.5,0.2,0.7,0.1,0.9-0.3c0.2-0.4,0.2-0.6-0.3-0.8c-0.6-0.2-1-0.6-1.4-1.1c-0.2-0.2-0.4-0.4-0.7-0.6c-0.7-0.4-1.4-0.8-1.9-1.4
		c-0.2-0.2-0.4-0.4-0.7-0.4c-1.3-0.1-2.6-0.4-3.9-0.6c-0.3-0.1-0.6,0-1,0c-0.9-0.1-1.8-0.4-2.7-0.3C93,9.2,92.2,9,91.5,9.4
		c-0.1,0-0.2,0-0.3,0c-0.3-0.2-0.5,0-0.7,0.2c-0.8,0.7-1.6,1.3-2.6,1.7c-0.3,0.1-0.5,0.2-0.6,0.5c-0.2,0.3-0.4,0.5-0.7,0.7
		c-0.7,0.7-1.4,1.4-2.1,2.2c-0.2,0.2-0.4,0.5-0.5,0.9c-0.3,1.1-0.8,2.2-1.2,3.2c-0.3,0.8-0.3,1.7-0.5,2.5c-0.1,0.3-0.1,0.7,0,1
		c0.2,0.7,0.4,1.4,0.4,2.2c0,0.5,0.5,1,0.4,1.6c0,0,0.1,0.1,0.1,0.2c0.1,0.1,0.2,0.3,0.1,0.4c-0.1,0.3,0,0.7,0.2,1
		c0.1,0.3,0.2,0.6,0.2,0.9c0,0.5,0.2,0.9,0.3,1.3c0.1,0.3,0.2,0.6,0.3,0.9c0.2,0.6,0.3,1.3,0.5,1.9c0.3,0.6,0.6,1.1,0.6,1.7
		c0,0.1,0.1,0.2,0.1,0.2c0.3,0.2,0.3,0.5,0.4,0.8c0,0.1,0,0.3,0.1,0.4c0.4,0.4,0.6,0.9,0.8,1.4c0.1,0.3,0.3,0.7,0.7,0.8
		c0.2,0,0.2,0.2,0.2,0.4c0.1,0.8,0.7,1.2,1.1,1.8c0.2,0.2,0.4,0.4,0.6,0.7c0.4,1,1.1,1.7,1.7,2.6c0.2,0.2,0.3,0.5,0.5,0.7
		c0.6,0.4,0.9,1.2,1.6,1.4c0.1,0,0.1,0.1,0.1,0.2c0.1,0.5,0.5,0.6,0.9,0.8c0.4,0.2,0.9,0.5,1.3,0.7c0.2,0.1,0.4,0.3,0.6,0.5
		c0.2,0.3,0.4,0.6,0.7,0.8c0.2,0.1,0.3,0.2,0.4,0.4c0.1,0.4,0.4,0.5,0.6,0.7c0.3,0.1,0.6,0.3,0.7,0.6c0.1,0.5,0.5,0.7,0.9,0.9
		c0.9,0.5,1.8,1.1,2.6,1.8c0.7,0.5,1.6,0.4,2.2,0.9c0,0,0.1,0,0.1,0c0.8-0.1,1.6-0.2,2.5,0c1,0.2,2-0.2,3-0.6c0.6-0.3,1.1-0.8,1.8-1
		c0.8-0.2,1.2-0.8,1.4-1.4C113.4,50.5,113.4,50.5,112.9,50.2 M109.3,51.9L109.3,51.9c-0.1,0.3-0.1,0.7-0.5,0.9
		c-0.5,0.3-1,0.5-1.6,0.5c-0.4-0.2-1,0-1.5-0.3c-0.2-0.2-0.5-0.3-0.7-0.5c-0.3-0.4-0.6-0.7-0.8-1.1c-0.3-0.4-0.4-1-0.9-1.3
		c-0.1-0.1,0-0.2,0-0.3c0.1-0.5-0.3-1-0.4-1.5c0-0.1-0.1-0.2-0.2-0.3c-0.3-0.3-0.7-0.6-1-0.8c-0.1-0.1-0.3-0.1-0.4-0.1
		c-0.2,0.1-0.6,0.1-0.6,0.3c0,0.3,0,0.7,0.4,0.9c0.7,0.5,1,1.2,1.2,1.9c0.1,0.2,0.3,0.3,0.2,0.5c-0.1,0.2-0.2,0.4-0.3,0.5
		c-0.2,0.2-0.7,0.3-1.1,0.1c-0.9-0.5-1.5-1.1-2-2c-0.5-1-1.1-1.9-2.2-2.4c-0.1-0.1-0.3-0.1-0.3-0.2c-0.4-0.8-1.3-1-1.7-1.8
		c-0.1-0.2-0.3-0.3-0.5-0.4c-0.4-0.2-0.6-0.9-0.5-1.1c0.1-0.1,0.9-0.3,1.1-0.2c0.5,0.1,0.9,0.3,1.3,0.6c0.7,0.4,1.4,0.8,2.1,1.3
		c0.2,0.1,0.4,0.2,0.8,0.1c1.1-0.3,2.2-0.5,3.3-0.6c0.3,0,0.6,0.2,0.9,0.1c0.5,0,0.9,0.3,1.4,0.1c0.1,0,0.2,0.1,0.3,0.1
		c0.6,0.4,1.3,0.8,1.9,1.3c0.2,0.2,0.6,0.3,0.4,0.7c0,0,0,0.2,0.1,0.2c0.6,0.3,0.8,0.9,1.2,1.4c0.4,0.6,0.8,1.3,0.9,2
		C109.7,51,109.5,51.5,109.3,51.9"/>
	<path class="st36" d="M106.4,49.4c-0.1-0.1-0.1-0.2-0.1-0.4c0-0.5-0.1-1-0.6-1.3c-0.2-0.1-0.5-0.3-0.7-0.5
		c-0.1-0.1-0.2-0.1-0.3-0.2c-0.2,0-0.3,0.1-0.3,0.2c-0.1,0.2-0.1,0.3,0,0.5c0.5,0.4,0.5,1,0.7,1.6c0.1,0.3,0.7,0.8,1.1,0.8
		c0.2,0,0.4-0.1,0.5-0.2C106.7,49.7,106.6,49.6,106.4,49.4"/>
	<path class="st36" d="M101.1,37.5c0.2,0.1,0.5,0.2,0.7,0.1c0.7-0.3,1.2-0.8,1.4-1.6c0.1-0.3,0-0.6-0.4-0.8c-0.5-0.3-1-0.3-1.5-0.5
		c-0.6-0.3-1.1-0.1-1.6,0.3c0.5,0.2,0.5,0.7,0.5,1.1C100.1,36.8,100.6,37.2,101.1,37.5"/>
	<path class="st36" d="M119.6,49.3c-0.3-0.2-0.4-0.4-0.4-0.7c0-0.2-0.2-0.2-0.3-0.3c-0.5-0.3-1-0.2-1.6-0.2
		c-0.3-0.1-0.6,0.2-0.8,0.1c-0.3,0-0.5,0.1-0.7,0.3c-0.2,0.2-0.3,0.5-0.4,0.8c-0.1,0.2,0.3,0.3,0.1,0.5c-0.3,0.4,0,0.6,0.3,0.7
		c0.8,0.4,1.6,0.7,2.4,0.2c0.1-0.1,0.2-0.1,0.3-0.1c0.5-0.2,0.8-0.5,1.1-1C119.6,49.5,119.7,49.3,119.6,49.3"/>
	<path class="st36" d="M98.5,35.7c0-0.4,0.2-0.5,0.5-0.6c0-0.1,0-0.2,0-0.3c0,0-0.1,0-0.1,0c-0.2,0.2-0.4,0.2-0.6,0l0,0
		c-0.1-0.1-0.3-0.2-0.4-0.3c-0.2-0.2-0.7-0.3-0.9-0.1c-0.4,0.3-0.7,0.8-0.5,1.3c0.2,0.8,0,1.6,0,2.3c0,0.4,0.1,0.6,0.4,0.8
		c0.3,0.2,0.5,0.1,0.8-0.1c0.1-0.1,0.2-0.1,0.2-0.3c-0.1-0.4,0.2-0.9,0-1.3c0-0.1,0-0.2,0.1-0.3C98.4,36.5,98.5,36.1,98.5,35.7"/>
	<path class="st36" d="M88.8,24c-0.5-0.3-1.1-0.4-1.5-0.9c-0.2-0.2-0.5-0.3-0.8,0c-0.2,0.2-0.4,0.6-0.2,0.8c0.4,0.5,0.5,1.3,1.2,1.6
		c0.1,0.1,0.2,0.2,0.3,0.3c0.4,0.5,1.1,0.7,1.6,0.9c0.5,0.1,1-0.4,0.8-0.7c-0.2-0.3-0.2-0.6-0.3-0.9C89.6,24.7,89.3,24.3,88.8,24"/>
	<path class="st37" d="M80.6,28.1L80.6,28.1C80.6,28.1,80.6,28.1,80.6,28.1L80.6,28.1z"/>
	<polygon class="st37" points="82.3,38.2 82.3,38.2 82.3,38.2 	"/>
	<path class="st37" d="M81.5,33.7C81.5,33.7,81.5,33.7,81.5,33.7C81.5,33.7,81.5,33.7,81.5,33.7L81.5,33.7z"/>
	<path class="st37" d="M79.2,20.2C79.2,20.2,79.2,20.2,79.2,20.2C79.2,20.2,79.2,20.2,79.2,20.2L79.2,20.2z"/>
	<path class="st37" d="M81.2,14.2C81.2,14.2,81.2,14.2,81.2,14.2C81.2,14.2,81.2,14.2,81.2,14.2L81.2,14.2z"/>
	<path class="st37" d="M83.9,9.8C83.9,9.8,83.9,9.8,83.9,9.8C83.9,9.8,83.9,9.8,83.9,9.8L83.9,9.8z"/>
	<path class="st37" d="M83.9,9.2C83.9,9.2,83.9,9.2,83.9,9.2C83.9,9.2,83.9,9.2,83.9,9.2L83.9,9.2z"/>
	<polygon class="st37" points="79.4,17.6 79.3,17.6 79.3,17.6 	"/>
	<path class="st37" d="M117.3,60.9C117.3,60.9,117.3,60.9,117.3,60.9C117.3,60.9,117.3,60.9,117.3,60.9L117.3,60.9z"/>
	<polygon class="st37" points="115.8,54.4 115.8,54.4 115.8,54.4 	"/>
	<polygon class="st37" points="122.4,56.6 122.4,56.6 122.4,56.6 	"/>
	<polygon class="st37" points="90,4.7 90,4.7 90,4.7 	"/>
	<polygon class="st37" points="127.7,53.1 127.7,53.1 127.7,53.1 	"/>
	<polygon class="st37" points="96.8,53.9 96.8,53.9 96.8,53.9 	"/>
	<polygon class="st37" points="112,58 112,58 112,58 	"/>
	<polygon class="st37" points="107,59.6 107,59.6 107,59.6 	"/>
	<path class="st37" d="M79.1,27.8C79.1,27.8,79.1,27.8,79.1,27.8C79.1,27.8,79.1,27.8,79.1,27.8L79.1,27.8z"/>
	<path class="st37" d="M106.3,8.2C106.3,8.2,106.3,8.2,106.3,8.2C106.3,8.2,106.3,8.2,106.3,8.2L106.3,8.2z"/>
	<path class="st37" d="M107.6,9.4C107.6,9.4,107.6,9.4,107.6,9.4C107.6,9.4,107.6,9.4,107.6,9.4L107.6,9.4z"/>
	<polygon class="st37" points="97.9,6.1 97.9,6.1 97.9,6.1 	"/>
	<path class="st37" d="M130.7,47.3c-0.2-0.3-0.5-0.1-0.8-0.2c0-0.1,0-0.1-0.1-0.2c-0.3-0.6-0.7-0.8-1.5-0.5c0,0,0,0,0,0
		c-0.1,0-0.2,0-0.3,0.1c-0.2,0-0.3,0-0.4,0.1c-0.3,0-0.6-0.1-0.9,0.1c-0.2,0-0.4,0.1-0.4,0.3c-0.2,0-0.5,0-0.7,0
		c-0.2,0-0.3,0.1-0.3,0.3c-0.1,0-0.1,0.1-0.1,0.1c-0.1,0-0.2,0-0.3,0.1c-0.2,0-0.4,0.1-0.4,0.3c-0.1,0-0.2,0-0.3,0.1
		c-0.1,0-0.2,0-0.3,0.2l0,0l0,0l0,0c0,0,0,0,0,0c-0.2,0.2-0.5,0.2-0.7,0.4c-0.1,0.1-0.2,0-0.3,0.1c-0.2,0.1-0.3,0.1-0.5,0
		c0.2-0.3,0.2-0.7,0.1-1c0.2-0.1,0.1-0.4,0.2-0.6c0.4-0.3,0.4-0.8,0.4-1.3c0.4-0.4,0.4-0.9,0.6-1.4c0.1-0.1,0.2-0.2,0.1-0.3
		c0.1,0,0.1-0.1,0.2-0.1c0.2,0,0.4-0.1,0.4-0.3c0.1,0,0.2,0,0.3-0.1c0.1,0,0.1-0.1,0.2-0.1c0.2,0,0.3-0.1,0.3-0.3
		c0.2,0,0.4-0.1,0.4-0.3c0.1,0,0.1-0.1,0.1-0.1c0.1,0,0.1-0.1,0.1-0.1c0.1,0,0.2-0.1,0.2-0.3l0,0c0.4-0.1,0.6-0.3,0.7-0.7
		c0.3-0.1,0.3-0.4,0.3-0.6c0.1-0.4,0-0.5-0.3-0.7c-0.2-0.1-0.3,0-0.5,0c-0.3,0-0.5-0.1-0.5-0.4c0.1,0,0.2,0,0.3-0.2
		c0.2-0.1,0.3-0.2,0.3-0.4c0.4,0,0.7-0.2,0.8-0.6c0.1,0,0.1-0.1,0.2-0.1l0,0l0,0l0,0c0,0,0,0,0,0c0,0,0.1-0.1,0.1-0.1c0,0,0,0,0,0
		c0.1,0,0.1-0.1,0.1-0.2c0.1,0,0.1-0.1,0.1-0.1c0.1,0,0.1-0.1,0.1-0.1c0.1,0,0.1-0.1,0.1-0.1c0.2-0.1,0.3-0.2,0.3-0.4
		c0.1-0.4,0.1-0.5-0.4-0.6c-0.1,0-0.1,0-0.2,0c-0.1-0.2-0.3-0.2-0.4,0c-0.3,0-0.7-0.3-1,0c-0.1,0-0.1,0-0.2,0c0,0,0,0,0,0
		c0,0,0,0,0,0c0,0-0.1,0-0.1,0c-0.2-0.2-0.4-0.4-0.1-0.6c0.1-0.1,0.1-0.2,0.2-0.3c0.1,0,0.1-0.1,0.2-0.1c0.5,0,0.9-0.3,1.1-0.7
		c0.1,0,0.2-0.1,0.2-0.3c0.1-0.1,0.1-0.2,0.1-0.3c0.1,0,0.3-0.1,0.2-0.2c-0.2-0.2,0-0.6-0.4-0.6c-0.1-0.2-0.4-0.1-0.6-0.2
		c-0.1-0.2-0.2-0.2-0.3,0c-0.3,0-0.6-0.1-0.7,0.3c-0.2,0-0.4,0-0.6,0c-0.1-0.2-0.5-0.1-0.4-0.4c0.2-0.1,0.2-0.4,0.3-0.6
		c0.1,0,0.1-0.1,0.1-0.1c0.2,0,0.3-0.1,0.3-0.3c0.1,0,0.1-0.1,0.2-0.1l0,0c0.1,0,0.2,0,0.3-0.2c0.3,0,0.4-0.1,0.4-0.4
		c0,0,0.1-0.1,0.1-0.1c0.2,0,0.3-0.1,0.3-0.3c0.2-0.1,0.3-0.4,0.3-0.6c0-0.2,0.2-0.4-0.1-0.6c-0.3-0.2-0.6-0.6-1-0.2
		c-0.3-0.2-0.5-0.1-0.7,0.1c-0.1,0-0.1,0.1-0.1,0.1c-0.2,0-0.3,0-0.4,0.1c-0.2,0-0.4,0-0.6,0c0-0.2,0.2-0.4,0.1-0.6
		c0.3-0.4,0.8-0.6,0.9-1.1c0.2-0.1,0.1-0.2,0-0.3c-0.2-0.2-0.4-0.3-0.7-0.2l0,0c0,0,0,0,0,0h0l0,0c-0.5-0.3-1-0.5-1.5-0.1
		c-0.2,0-0.4,0.1-0.4,0.3c-0.5,0-0.9-0.3-1.4-0.3c0-0.2-0.1-0.3-0.1-0.5c0.2-0.1,0.2-0.3,0.1-0.4c0.3-0.1,0.4-0.4,0.4-0.7
		c0.4-0.4,0.4-0.9,0-1c-0.3-0.1-0.7-0.2-1,0.1c-0.1,0-0.2,0-0.3,0.1c-0.7-0.1-1.3,0.1-1.9,0.3c0-0.2-0.1-0.2-0.3-0.3
		c0-0.2,0-0.3,0-0.5c0.2,0,0.2-0.1,0.3-0.3c0.1,0,0.1-0.1,0.2-0.1c0.3,0,0.4-0.1,0.4-0.4c0.1-0.1,0.2-0.2,0.1-0.3
		c-0.2-0.4-0.5-0.7-0.9-0.9c-0.6-0.2-0.9,0.5-1.5,0.3c-0.1,0-0.2,0.1-0.3,0.3c-0.1,0-0.2,0-0.3,0.1c-0.3,0-0.6-0.2-0.7,0.3
		c-0.2,0-0.4,0-0.6,0c0-0.4,0.1-0.7,0.2-1c0.3-0.6,0.1-0.9-0.5-1.1c-0.2-0.3-0.5-0.2-0.8-0.3c-0.2-0.1-0.4,0.1-0.5,0.3
		c-0.1,0-0.1,0.1-0.1,0.1c-0.3,0-0.5,0.2-0.6,0.4c-0.1,0-0.2,0.1-0.3,0.3c-0.1,0.3-0.3,0.3-0.6,0.3c-0.1-0.1-0.2-0.1-0.3-0.1
		c0,0-0.1-0.1-0.1-0.1c0-0.7-0.1-0.8-0.9-1c0-0.1,0-0.1-0.1-0.2c-0.3-0.1-0.6-0.3-0.7-0.6c0,0-0.1,0-0.2,0c-0.1-0.1-0.2-0.2-0.3-0.1
		c-0.3-0.3-0.7-0.5-1.1-0.6c0-0.2-0.1-0.2-0.3-0.3c0-0.1-0.1-0.1-0.1-0.1c-0.2-0.3-0.5-0.1-0.7-0.1c0,0,0,0,0,0s0,0,0,0l0,0
		c0,0,0,0,0,0c-0.1,0-0.1-0.1-0.2-0.1c-0.9-0.4-1.2-0.4-2.1,0.4c-0.1,0-0.2,0-0.3,0c-0.1-0.1-0.2-0.1-0.3-0.1c0-0.1-0.2-0.2-0.3-0.2
		c0-0.1-0.1-0.1-0.2-0.1c0-0.1-0.1-0.2-0.3-0.2c-0.1-0.1-0.2-0.1-0.3-0.1c-0.1-0.2-0.2-0.2-0.3,0c-0.2,0-0.4-0.1-0.6,0.1
		c-0.3,0-0.7,0-1,0c0-0.1-0.1-0.1-0.1,0c-0.3,0.1-0.6,0-0.9,0l0,0c0-0.1-0.1-0.1-0.2-0.1c-0.1-0.2-0.2-0.3-0.4-0.3
		c0-0.1-0.1-0.1-0.1-0.1c-0.2-0.3-0.6-0.2-0.7-0.1c-0.3,0.4-0.8,0.1-1.2,0.3c-0.2,0.1-0.4,0-0.5-0.3c-0.1-0.4-0.5-0.6-0.9-0.7
		c-0.2-0.3-0.5-0.4-0.9-0.4c-0.1-0.2-0.4-0.1-0.6-0.1c-0.1-0.2-0.2-0.2-0.3,0c-0.1,0-0.1,0.1-0.2,0.1c-0.1,0-0.3,0-0.4,0
		c-0.2-0.3-0.4-0.6-0.7-0.9l0,0c0,0,0,0,0,0c-0.1-0.1,0-0.3-0.2-0.4l0,0c-0.1-0.1-0.2-0.1-0.3-0.2c0-0.1-0.1-0.1-0.1,0
		c0,0-0.1,0-0.1,0c-0.1,0-0.1,0.1-0.2,0l0,0c-0.1-0.1-0.3-0.1-0.4,0c-0.1,0.1-0.2,0-0.3,0.1c-0.2,0.1-0.3,0.1-0.5,0c0,0-0.1,0-0.1,0
		c-0.1-0.1-0.2-0.1-0.3-0.1c-0.3-0.5,0.1-0.9,0.1-1.3c0-0.3,0.4-0.1,0.6-0.2c0.1-0.1,0.2-0.1,0.2-0.3c0.1-0.3,0.4-0.4,0.6-0.5l0,0
		c0.3-0.2,0.7-0.2,1-0.3l0,0c0.2,0,0.4-0.3,0.7-0.1l0,0c0.1,0.1,0.2,0.1,0.3,0.1c0.1,0.1,0.3,0,0.4,0.1C95,14,95.2,14,95.3,14l0,0
		c0.4,0.2,0.8,0.4,0.9,0.9c0,0.2,0.2,0.3,0.4,0.3c0.1,0.1,0.3,0.2,0.4,0.3c0.1,0.1,0.2,0.1,0.3,0.2l0,0c0,0.1,0.1,0.1,0.2,0.1l0,0
		c0,0.2,0.1,0.3,0.3,0.4l0,0c0.1,0,0.1,0.1,0.2,0.1c0,0.1,0.1,0.1,0.1,0.1c0,0.1,0.1,0.1,0.1,0.1c0.3,0.4,0.7,0.5,1.1,0.6
		c0.1,0.1,0.2,0.1,0.3,0.1c0.1,0.1,0.2,0.1,0.3,0.1c0.1,0.2,0.4,0.1,0.6,0.1c0.4,0.2,0.4,0.2,0.5-0.1c0.5,0.3,1,0.1,1.6,0
		c0.3,0,0.6-0.1,0.7-0.4c0.2-0.1,0.5,0,0.6-0.3c0,0,0.1,0,0.2,0c0.2,0.2,0.5,0,0.7,0.1l0,0c0.1,0.1,0.2,0.1,0.3,0l0,0
		c0.5-0.2,0.9,0,1.3,0.1c0.1,0.2,0.4,0.1,0.6,0.2c0,0.1,0.1,0.1,0.1,0.1c0.1,0.4,0.2,0.4,0.5,0.1l0,0c0.2,0,0.3,0,0.5,0v0l0,0l0,0
		c0,0,0.1,0.1,0.1,0.1c0.4-0.2,1-0.1,1.3-0.7c0.2-0.1,0.6,0.1,0.7-0.3l0,0c0.5-0.7,1.2-1.4,0.8-2.4l0,0c0-0.1-0.1-0.1-0.1-0.2
		c-0.1-0.6-0.2-1.2-0.7-1.7l0,0c-0.1-0.1-0.2-0.1-0.3-0.2c-0.1-0.1-0.2-0.1-0.3-0.1c-0.2-0.2-0.3-0.4-0.4-0.6
		c-0.2-0.5-0.3-1-0.9-1.2l0,0c-0.4-0.2-0.5-0.6-0.6-1c-0.2-0.2-0.5-0.3-0.7-0.4l0,0c-0.3-0.2-0.3-0.6-0.6-0.7
		c-0.5-0.1-1-0.4-1.5-0.1l0,0c-0.7,0.1-1.3,0.1-2,0.3l0,0c-0.1,0-0.1,0.1-0.2,0.1c-0.1,0-0.1,0.1-0.1,0.1c-0.6,0.1-0.8-0.4-1.2-0.7
		c0-0.1-0.1-0.2-0.3-0.3c0-0.1-0.1-0.1-0.1-0.1c0-0.1-0.1-0.1-0.1-0.1c-0.2-0.3-0.1-0.8-0.6-1C99.6,6,99,6.3,98.3,6.2
		c-0.1-0.1-0.3,0-0.4-0.1c-0.2-0.1-0.5-0.2-0.7-0.3c-0.1-0.1-0.2-0.1-0.3-0.1c-0.1-0.1-0.3-0.2-0.4-0.3l0,0
		c-0.3-0.2-0.4-0.5-0.6-0.7l0,0c-0.2-0.3-0.6-0.2-0.9-0.3l0,0c-0.4-0.1-0.9-0.3-1.3,0.1l0,0c-0.1,0.1-0.1,0.1-0.1,0.2
		C94,5.9,94,5.9,92.9,6c0,0-0.1,0-0.1,0.1l0,0c-0.1,0-0.2,0.2-0.3,0.1l0,0c-0.1-0.1-0.2-0.1-0.3-0.1C92.2,6,92.2,6,92.1,6
		c-0.1-0.3-0.2-0.6-0.5-0.7c0-0.1-0.1-0.1-0.2-0.1l0,0c-0.2-0.2-0.5-0.3-0.7-0.4c-0.2-0.2-0.5-0.1-0.7,0c-0.1,0-0.1,0.1-0.1,0.1l0,0
		c-0.3,0.3-0.6,0.7-0.1,1.1l0,0c0.1,0.4,0.1,0.8,0.1,1.2c0,0.5-0.2,0.7-0.7,0.5l0,0c-0.3-0.1-0.5-0.3-0.7-0.4
		c-0.1-0.1-0.2-0.2-0.3-0.3C88,6.8,88,6.5,87.8,6.4c0-0.1-0.1-0.1-0.1-0.2l0,0c-0.7-0.4-1-0.3-1.4,0.1l0,0c-0.1,0-0.1,0.1-0.1,0.2
		l0,0c-0.3,0.5,0.2,0.8,0.1,1.3l0,0c0.1,0.3,0.1,0.5,0,0.8c-0.1,0.4-0.3,0.7-0.7,0.4c-0.1-0.1-0.2,0-0.3-0.1l0,0
		c-0.3-0.1-0.7-0.1-1,0l0,0c-0.1,0-0.1,0.1-0.2,0.2l0,0C84.1,9,84,9.1,83.9,9.2c-0.2,0.2-0.1,0.4,0,0.5c0.4,0.2,0.4,0.6,0.6,0.9l0,0
		c0,0.1,0.1,0.1,0.1,0.2l0,0c0.1,0.2-0.1,0.2-0.1,0.3c-0.1,0.1-0.2,0-0.3,0.1c-0.1,0-0.1,0.1-0.2,0.2l0,0c-0.2,0.2-0.4,0.3-0.6,0.1
		l0,0c-0.1-0.1-0.2-0.1-0.3-0.1l0,0c-0.3-0.2-0.7-0.1-1-0.2l0,0c-0.1,0.1-0.2,0-0.3,0.2l0,0c-0.1,0-0.1,0.1-0.2,0.1
		c-0.1,0.1-0.3,0-0.4,0.1c-0.2,0.1-0.3,0.3-0.1,0.5l0,0c0.2,0.2,0.5,0.2,0.7,0.3c0.1,0.1,0.2,0.1,0.3,0.1c0.1,0.4,0.5,0.7,0.3,1.2
		c-0.1,0-0.1,0.1-0.1,0.1c-0.1,0-0.1,0.1-0.1,0.1c-0.3,0.2-0.7-0.1-1,0.2c-0.3,0.2,0,0.5-0.1,0.7c-0.3,0.3,0.2,0.6,0,0.9l0,0
		c-0.1,0.3-0.3,0.5-0.6,0.7c-0.1,0.1-0.3,0-0.4,0.1c-0.2,0.1-0.4,0-0.6,0.1c-0.1,0-0.1,0.1-0.2,0.1l0,0c-0.2,0.2-0.1,0.5,0,0.7
		c0.1,0.2,0.2,0.3,0.4,0.4c0,0.1,0.1,0.1,0.2,0.1c0.7,1.1,0.5,1.8-0.7,2c-0.1,0.1-0.1,0.2-0.1,0.3c-0.1,0-0.1,0.1-0.1,0.1
		c-0.1,0-0.1,0.1-0.1,0.2l0,0c-0.1,0.1-0.1,0.3,0,0.4c0.1,0.5,0.4,0.7,0.9,0.7l0,0c0.5,0,0.2,0.5,0.4,0.7l0,0c0,0,0,0,0,0.1
		c0,0,0,0.1,0,0.1v0v0c-0.1,0.1-0.2,0.1-0.3,0.2c-0.2,0.1-0.4,0.3-0.6,0.4l0,0c-0.1,0-0.1,0.1-0.2,0.2l0,0c-0.1,0.1-0.2,0.3-0.3,0.4
		l0,0c-0.1,0.4-0.3,0.8,0.3,1c0.1,0.1,0.3,0,0.5,0.1l0,0c0.2-0.1,0.3-0.1,0.5,0l0,0c0.1,0.1,0.3,0.1,0.4,0.3c0,0.2,0.3,0.5,0.1,0.7
		c-0.3,0.3-0.6,0.6-0.8,0.9l0,0c-0.1,0-0.1,0.1-0.2,0.1c-0.1,0-0.1,0.1-0.1,0.1c-0.1,0-0.1,0.1-0.2,0.1l0,0
		c-0.2,0.1-0.5,0.2-0.3,0.5c0.5,0.3,1,0.5,1.5,0.3c0.1-0.1,0.2-0.1,0.3,0c0.1,0.1,0.2,0.1,0.3,0.1l0,0c0.3,0.1,0.2,0.4,0.3,0.6l0,0
		c0.1,0.3,0,0.5,0,0.8c0,0.1,0,0.1,0,0.2c0,0.1,0,0.3,0,0.4c0,0.1,0,0.2,0,0.3c0,0.1,0,0.1,0.1,0.2c0.1,0.2,0.2,0.4,0.2,0.6
		c0,0.1,0,0.1,0,0.2c0,0.1,0.1,0.2,0.2,0.2c0.2,0.1,0.3,0.3,0.5,0.3c0,0.1,0.1,0.1,0.1,0.2c0,0.2,0.2,0.3,0.1,0.5l0,0
		c-0.1,0.3-0.3,0.5-0.6,0.6l0,0c-0.3,0.1-0.4,0.5-0.7,0.6c-0.7,0.8-0.7,0.8,0,1.5c0.1,0.1,0.2,0.1,0.3,0c0.1-0.1,0.3,0,0.4-0.1
		c0.3-0.1,0.6-0.1,0.9,0l0,0c0.3,0.2,0.5,0.5,0.3,0.9c-0.1,0.1-0.1,0.2-0.1,0.3c-0.1,0.2-0.3,0.2-0.4,0.3l0,0
		c-0.1,0.1-0.2,0.2-0.3,0.3c-0.1,0.1-0.1,0.2-0.2,0.3c-0.1,0-0.1,0.1-0.1,0.2l0,0c-0.2,0.4-0.2,0.7,0.1,1c0.2,0.1,0.4,0.1,0.6,0l0,0
		c0.1-0.1,0.3,0,0.4-0.2c0.1-0.1,0.2,0,0.3-0.1c0.2,0,0.3-0.1,0.3-0.3c0.1,0,0.2,0,0.3,0c0.1,0.2,0.2,0.4,0.4,0.6
		c-0.1,0.4-0.1,0.8,0,1.2c-0.2,0.1-0.3,0.2-0.3,0.4c-0.1,0-0.1,0.1-0.1,0.1c-0.3,0.1-0.3,0.3-0.3,0.6v0v0v0c0,0,0,0,0,0
		c-0.4,0.7-0.4,0.8,0,1.3c0,0.2,0,0.3,0.2,0.4l0,0c0,0,0,0,0,0c0.4,0.2,0.5,0.2,0.8-0.3c0.4,0,0.7-0.2,1-0.4c0,0,0,0,0,0
		c0.1,0,0.1-0.1,0.2-0.1c0.1,0,0.2,0,0.3,0c0.1,0.2,0.3,0.1,0.4,0.1c0,0.5,0,1,0,1.4c-0.2,0.1-0.4,0.3-0.4,0.6
		c-0.3,0.2-0.5,0.5-0.4,0.8c-0.2,0.1-0.2,0.2,0,0.3c0,0.2-0.1,0.4,0.1,0.6c0,0.2,0.1,0.3,0.3,0.3c0.3,0.3,0.6,0.3,1,0
		c0.2,0,0.3-0.1,0.3-0.3c0.3,0,0.5-0.2,0.6-0.4l0,0c0,0,0.1,0,0.1,0c0.1,0.1,0.2,0.1,0.3,0.1C88.7,45,88.8,45,89,45
		c0.1,0.1,0.2,0.1,0.3,0.1c0.2,0.4,0.3,0.8,0,1.2c-0.1,0-0.1,0.1-0.1,0.1C88.9,46.6,89,46.8,89,47c-0.2,0.1-0.2,0.3,0,0.4
		c0,0.1,0,0.1,0,0.2c-0.3,0.2-0.1,0.4,0,0.6c-0.1,0-0.1,0.1-0.1,0.2l0,0l0,0l0,0c0,0,0,0,0,0c-0.1,0.1-0.1,0.2,0,0.3
		c0.2,0.1,0.3,0,0.3-0.2c0.2,0,0.3,0,0.5,0c0.1,0.1,0.2,0.1,0.3,0c0.4-0.1,0.7-0.3,0.7-0.7c0.1,0,0.2,0,0.3-0.1c0.2,0,0.5,0,0.7,0
		c0,0.2,0,0.3,0.1,0.4c-0.1,0.3-0.2,0.6-0.1,0.9l0,0l0,0l0,0c-0.2,0.5,0,1.1-0.1,1.6l0,0c-0.1,0.1-0.1,0.2,0,0.3l0,0
		c0,0.1,0.1,0.1,0.1,0.2c0,0.1,0.1,0.1,0.2,0.1l0,0c0.2,0.2,0.5,0.2,0.7,0.3l0,0c0.1,0.1,0.3,0.1,0.4,0l0,0c0.1,0,0.1-0.1,0.2-0.2
		l0,0c0.3-0.4,0.8-0.5,1.3-0.6l0,0c0.1,0,0.1,0,0.2,0c0.2,0.2,0.4,0,0.6,0.1c0.1,0.2,0,0.4,0.1,0.6l0,0c0.2,0.2-0.1,0.4-0.1,0.6l0,0
		c-0.1,0.4-0.2,0.8-0.1,1.3c-0.1,0.2-0.2,0.5,0,0.7l0,0c0,0.1,0.1,0.1,0.2,0.2c0.1,0.1,0.2,0.1,0.3,0.1c0.1,0.2,0.4,0,0.6,0.2l0,0
		c0.4,0.2,0.5-0.2,0.8-0.3c0.1-0.2,0.2-0.4,0.4-0.6c0.2-0.1,0.4-0.3,0.7-0.1c0.1,0.1,0.2,0.1,0.3,0.2l0,0c0.1,0.1-0.1,0.3,0,0.4l0,0
		c0,0.1,0.1,0.1,0.1,0.2c0.2,0.1,0.2,0.3,0.2,0.5c0,0.5-0.1,1.1,0.1,1.6l0,0c0,0.1,0.1,0.1,0.1,0.2c0,0.1,0,0.1,0,0.2l0,0
		c-0.1,0.3,0.2,0.3,0.3,0.4l0,0c0.1,0,0.1,0.1,0.2,0.1l0,0c0.2,0.2,0.4,0.1,0.6-0.1l0,0c0.3-0.1,0.3-0.4,0.6-0.6
		c0.1-0.1,0.2-0.1,0.3-0.3c0.1,0,0.1-0.1,0.1-0.2l0,0c0.1-0.1,0.2-0.3,0.5-0.1l0,0c0.1,0.1,0.3,0.2,0.4,0.3c0.1,0.1,0.3,0.2,0.4,0.3
		c0.1,0.1,0.2,0.2,0.3,0.3l0,0c0.1,0.2,0,0.4,0.1,0.5c0.1,0.5,0.1,1,0.6,1.3c0.1,0.1,0.2,0.1,0.3,0.2l0,0c0.4,0.2,0.7-0.1,0.8-0.4
		c0.1-0.2,0.1-0.5,0.2-0.7c0,0,0.1,0,0.1,0c0,0,0.1,0.1,0.2,0.1c0.2,0.3,0.6,0.1,0.8,0.1c0,0.1,0.1,0.1,0.2,0.2
		c0.1,0.1,0,0.2,0.1,0.3c0.1,0.1,0,0.2,0.1,0.3c0,0.1,0.1,0.1,0.1,0.2c0,0.1,0.1,0.1,0.1,0.2c0,0.1,0.1,0.1,0.1,0.1l0,0
		c0.1,0.1,0,0.3,0.2,0.4l0,0c0.2,0.2,0.4,0.3,0.6,0.4c0.4,0.2,0.7,0.1,1-0.2l0,0c0.1,0,0.1-0.1,0.2-0.2c0.1-0.1,0.1-0.2,0.1-0.3
		c0.2-0.3,0-0.7,0.2-1l0,0c0.2-0.2,0.3-0.2,0.5,0l0,0c0.1,0.1,0.3,0.3,0.4,0.4l0,0c0,0.1,0.1,0.1,0.1,0.2c0,0.1,0.1,0.1,0.1,0.1
		c0.1,0.3,0.3,0.3,0.6,0.4c0.1,0.1,0.2,0.1,0.3,0.1l0,0c0.3,0.1,0.4-0.2,0.6-0.3l0,0c0.1,0,0.1-0.1,0.1-0.2c0.2-0.1,0.3-0.2,0.4-0.4
		c0.1,0,0.1-0.1,0.1-0.2l0,0c0.1-0.1,0.2-0.2,0.3-0.3c0.3-0.3,0.5-0.6,0.7-1c0.2-0.1,0-0.3,0.1-0.4l0,0c0.2-0.2,0.2-0.5,0.3-0.7
		c0.2-0.2,0.2-0.4,0.3-0.6c0.1-0.1,0.2,0,0.3-0.1c0.1-0.1,0.2,0,0.3-0.1c0.4-0.1,0.9-0.3,1.3-0.6l0,0c0.2-0.1,0.4,0,0.6-0.1
		c0.1,0,0.1-0.1,0.1-0.1c0.6-0.2,1.2-0.2,1.6-0.9c0.1,0,0.1-0.1,0.1-0.2h0c0.2,0,0.4,0.1,0.6,0.2l0,0c0.5,0.3,0.3,0.6,0.1,1l0,0
		c-0.2,0.6-0.3,1.2-0.7,1.7c0,0,0,0,0,0l0,0c-0.2,0.2-0.2,0.5-0.3,0.7c-0.1,0.1-0.1,0.2-0.1,0.3l0,0c-0.4,0.5-0.1,1.2-0.3,1.7l0,0
		c-0.2,0.7,0.3,1.4,0.3,2.1c0.1,0.1,0.3,0.2,0.4,0.3c0.1,0.1,0.3,0.2,0.4,0.3c0.1,0.1,0.2,0.1,0.3,0.1l0,0c0.3,0.2,0.6,0.1,0.8-0.2
		l0,0c0.1,0,0.1-0.1,0.2-0.1l0,0c0.1-0.1,0.1-0.2,0.1-0.3c0.1-0.1,0.1-0.2,0.1-0.3c0.1-0.1,0.1-0.2,0.1-0.3c0.1-0.1,0.1-0.2,0.1-0.3
		c0.2-0.3,0-0.6,0.1-0.9l0,0c0.2-0.4,0-0.8,0.2-1.1l0,0c0.2-0.3,0.2-0.6,0.3-0.9c0.2-0.2,0-0.4,0.1-0.6c0.2-0.2,0-0.4,0.1-0.6l0,0
		c0.2-0.2,0.1-0.5,0.3-0.7l0,0c0.2-0.2,0.4-0.5,0.7-0.3c0.1,0.1,0.2,0.1,0.3,0.1c0.1,0.1,0.2,0.2,0.1,0.3l0,0
		c-0.2,0.4,0.1,0.7,0.1,1c0.1,0.2,0.3,0.4,0.6,0.6l0,0c0.2,0.2,0.4,0,0.6,0.2l0,0c0.4,0.3,0.8,0.3,1.1,0l0,0c0.1-0.1,0.3,0,0.4-0.2
		c0.1-0.1,0.2,0,0.3-0.1l0,0c0.1,0,0.1-0.1,0.1-0.1c0.1,0,0.1-0.1,0.1-0.1c0.2-0.1,0.3-0.2,0.4-0.4c0.1-0.1,0.2-0.3,0.3-0.4
		c0.1,0,0.1-0.1,0.1-0.2c0.1-0.1,0.1-0.2,0.1-0.3c0.1,0,0.1-0.1,0.1-0.2l0,0c0.1-0.1,0.2-0.3,0.3-0.4c0.2-0.1,0-0.3,0.1-0.4
		c0.1-0.1,0.1-0.2,0.1-0.3c0.1-0.1,0.1-0.2,0.1-0.3c0.1-0.1,0.1-0.2,0.1-0.3c0.2-0.2,0-0.4,0.1-0.6c0.2-0.5,0-0.7-0.4-0.8
		c-0.3,0-0.5-0.1-0.7-0.2l0,0c-0.5-0.2-1.1-0.1-1.6-0.3l0,0c-0.3-0.2-0.2-0.3,0-0.5l0,0c0.2-0.1,0.3,0,0.5,0.1
		c0.3,0.1,0.5,0.2,0.8,0l0,0c0.1-0.1,0.1-0.2,0.2-0.3l0,0c0.1-0.1,0.2-0.1,0.3,0l0,0c0.2,0.1,0.5,0.2,0.7,0l0,0
		c0.2-0.1,0.3-0.2,0.4-0.3l0,0c0.1,0,0.1-0.1,0.2-0.1c0.2-0.1,0.4-0.1,0.6-0.3c0.1,0,0.1-0.1,0.2-0.1c0.1,0,0.1-0.1,0.1-0.1
		c0.1,0,0.1-0.1,0.1-0.2l0,0c0.1-0.1,0.2-0.3,0.3-0.4c0.1-0.1,0.2-0.3,0.3-0.4c0.1-0.1,0.2-0.3,0.3-0.4c0.1,0,0.1-0.1,0.1-0.2
		c0.2-0.1,0.3-0.2,0.3-0.4c0.1,0,0.1-0.1,0.1-0.1C130.6,47.9,130.8,47.6,130.7,47.3z M127,33.8L127,33.8l-2.3,9.9v0v0L127,33.8z
		 M125.2,43.3L125.2,43.3l1.4-11.4c0,0,0,0,0,0c0,0,0,0,0,0L125.2,43.3z M115.3,33.9L115.3,33.9c0.2-0.1,0.6,0.1,0.5,0.4
		c0,0.3,0.2,0.4,0.4,0.6c0,0,0,0,0,0c0,0-0.1,0.1-0.1,0.2c0,0,0,0,0,0l-2.1-0.9C114.5,34,114.9,34.1,115.3,33.9z M121.2,28.1
		L121.2,28.1L104.8,20h0h0l0,0L121.2,28.1z M86,41.3L86,41.3L86,41.3L86,41.3z M113.2,51L113.2,51c-0.3,0.7-0.7,1.3-1.4,1.4
		c-0.7,0.1-1.2,0.7-1.8,1c-1,0.4-2,0.8-3,0.6c-0.9-0.2-1.7-0.1-2.5,0c0,0-0.1,0-0.1,0c-0.6-0.5-1.5-0.4-2.2-0.9
		c-0.8-0.6-1.7-1.2-2.6-1.8c-0.4-0.2-0.7-0.4-0.9-0.9c-0.1-0.3-0.4-0.4-0.7-0.6c-0.3-0.2-0.6-0.3-0.6-0.7c0-0.2-0.2-0.3-0.4-0.4
		c-0.3-0.2-0.5-0.5-0.7-0.8c-0.1-0.2-0.3-0.4-0.6-0.5c-0.4-0.2-0.9-0.5-1.3-0.7c-0.4-0.2-0.8-0.4-0.9-0.8c0-0.1-0.1-0.1-0.1-0.2
		c-0.7-0.2-1-1-1.6-1.4c-0.3-0.2-0.4-0.5-0.5-0.7c-0.6-0.9-1.3-1.6-1.7-2.6c-0.1-0.3-0.4-0.5-0.6-0.7c-0.4-0.6-1-1-1.1-1.8
		c0-0.2-0.1-0.3-0.2-0.4c-0.4-0.1-0.6-0.5-0.7-0.8c-0.2-0.5-0.4-1-0.8-1.4C86,35.7,86,35.6,86,35.4c-0.1-0.3-0.1-0.6-0.4-0.8
		c-0.1,0-0.1-0.2-0.1-0.2c0-0.7-0.4-1.2-0.6-1.7c-0.3-0.6-0.4-1.2-0.5-1.9c-0.1-0.3-0.1-0.6-0.3-0.9c-0.2-0.4-0.3-0.9-0.3-1.3
		c0-0.3-0.1-0.6-0.2-0.9c-0.1-0.3-0.2-0.6-0.2-1c0-0.2,0-0.3-0.1-0.4c-0.1,0-0.1-0.1-0.1-0.2c0.1-0.6-0.4-1.1-0.4-1.6
		c0-0.8-0.2-1.5-0.4-2.2c-0.1-0.3,0-0.7,0-1c0.2-0.8,0.2-1.7,0.5-2.5c0.4-1.1,1-2.1,1.2-3.2c0.1-0.3,0.3-0.6,0.5-0.9
		c0.7-0.8,1.4-1.5,2.1-2.2c0.2-0.2,0.5-0.4,0.7-0.7c0.1-0.2,0.3-0.3,0.6-0.5c0.9-0.4,1.8-1.1,2.6-1.7c0.2-0.2,0.4-0.4,0.7-0.2
		c0.1,0,0.3,0.1,0.3,0C92.2,9,93,9.2,93.7,9c0.9-0.2,1.8,0.2,2.7,0.3c0.3,0,0.7,0,1,0c1.3,0.2,2.6,0.5,3.9,0.6
		c0.3,0,0.5,0.2,0.7,0.4c0.5,0.6,1.2,1,1.9,1.4c0.3,0.1,0.5,0.3,0.7,0.6c0.4,0.5,0.8,0.8,1.4,1.1c0.5,0.2,0.6,0.4,0.3,0.8
		c-0.2,0.4-0.4,0.4-0.9,0.3c-0.4-0.1-0.8-0.3-1.2-0.4c-0.4-0.1-0.8,0-1.2,0.1c-0.3,0.1-0.7,0.3-1,0.4c-0.7,0.3-1.2-0.1-1.8-0.3
		c-0.1,0-0.2-0.2-0.2-0.3c0-0.4-0.3-0.6-0.6-0.8c-0.9-0.7-1.9-1.3-2.9-1.8c-0.1-0.1-0.3-0.2-0.4-0.1c-0.4,0.2-0.7,0-1-0.1
		c-0.3-0.2-0.6-0.2-1-0.2c-0.4,0-0.7,0-1.1,0c-0.1,0-0.2,0-0.3,0c-0.7,0.3-1.4,0.3-2,0.3c-0.7,0.1-1.4,0.4-1.7,1.1
		C88.8,13,88.5,13.5,88,14c-0.5,0.4-0.5,1-0.5,1.6c0,0.4,0,0.7,0,1.1c0,0.3,0,0.7,0.3,1c0.1,0,0.1,0.1,0.1,0.2c0.6,1.6,2,2.3,3.5,3
		c0.4,0.2,0.7,0.3,1.1,0.5c0.5,0.2,1,0.4,1.5,0.4c0.1,0,0.2,0,0.3,0.1c0.9,0.4,2,0.4,2.9,0.7c0.1,0,0.1,0.1,0.2,0
		c1.2-0.1,2.2,0.6,3.4,0.6c0,0,0.1,0,0.1,0c1.4,0.9,3.1,0.6,4.5,1.5c0.3,0.2,0.7,0.1,1.1,0.2c1,0.2,1.9,0.6,2.9,1
		c0.2,0.1,0.4,0.3,0.7,0.3c0,0,0,0,0,0c0.9,0.4,1.8,0.8,2.7,1.2c0.4,0.2,0.9,0.2,1.1,0.7c0,0,0.1,0.1,0.1,0.1
		c0.4-0.2,0.6,0.2,0.8,0.3c0.5,0.3,1.1,0.6,1.7,0.8c0.1,0,0.2,0.1,0.3,0.1c0,0,0,0,0,0c0,0,0.1,0.1,0,0.2c-0.1,0.4,0.2,0.5,0.4,0.6
		c0.4,0.2,0.4,0.8,0.8,1c0,0,0,0,0,0.1c-0.3,0.6,0.2,0.6,0.6,0.7c0.2,0,0.4,0.2,0.4,0.4c-0.1,0.5,0.6,0.7,0.5,1.2
		c0.4,0.2,0.3,0.5,0.2,0.8c0,0.3,0,0.6,0.3,0.7c0.2,0.1,0.3,0.3,0.3,0.6c0,0.4,0,0.8,0.5,1.1c0.2,0.1,0.2,0.7,0,0.9
		c-0.1,0.1-0.3,0.3-0.3,0.2c-0.1-0.3-0.7-0.2-0.7-0.6c0-0.3-0.1-0.4-0.3-0.5c-0.3-0.1-0.6-0.3-0.9-0.4c-0.9-0.4-1.8-0.7-2.7-1.1
		c0.1-0.1,0.1-0.1,0.2-0.2l0,0l0,0c0.4,0.1,0.8,0,1.1-0.3c0.2-0.2,0.4-0.3,0.6-0.4c0.4-0.1,0.5-0.5,0.7-0.8c0.2-0.4-0.2-0.7-0.2-1
		c0-0.2-0.3-0.3-0.5-0.4c-0.4-0.2-0.9-0.3-1.3-0.5c-0.2-0.1-0.4-0.2-0.5-0.3c-0.3-0.6-0.9-0.8-1.5-1c-0.4-0.2-0.8-0.4-1.2-0.5
		c-0.3-0.1-0.5-0.3-0.5-0.6c-0.1-0.8-0.2-0.8-0.9-1.1c-0.7-0.4-1.5-0.6-2.2-1.1c-0.3-0.2-0.6-0.3-0.9-0.3c-0.2,0-0.3,0-0.5,0.1
		c-0.3,0.3-0.4,1.4,0,1.7c0.3,0.3,0.2,0.8,0.7,1c0,0,0.1,0.1,0.1,0.1c-0.2,0.6,0.3,0.6,0.6,0.7c0.1,0.1,0.3,0.1,0.4,0.2
		c0.5,0.3,0.6,0.6,0.3,1.1c-0.2,0.2-0.3,0.4-0.2,0.8c0.1,0.5-0.1,1.1,0.3,1.5c0,0,0,0,0,0.1c0,0.4,0.2,0.8-0.1,1.2
		c0.2,0.3-0.1,0.6,0.2,0.9c0.2,0.2,0.2,0.5,0.1,0.7c-0.1,0.4,0,0.7,0.1,1.1c0,0.2,0.1,0.5,0.1,0.7c0,0.4-0.1,0.7,0.3,0.9
		c0.1,0.1,0.1,0.2,0.1,0.3c0,0.4,0,0.8,0.3,1.2c0.3,0.3,0.5,0.7,0.3,1.2c0,0.2-0.1,0.4,0,0.5c0.3,0.3,0.3,0.9,0.7,1.2
		c0,0,0,0.1,0,0.1c-0.1,0.1-0.1,0.2-0.1,0.3c0,0,0.1-0.1,0.1-0.1c0,0.1,0.1,0.2,0.2,0.3c0.2,0.1,0.4,0.3,0.7,0.4
		c0.1,0.1,0.3,0.1,0.3,0.3c0,0.4,0.2,0.4,0.5,0.3c0.2-0.1,0.4,0,0.6,0.1c0.9,0.4,1.6,0.2,2.2-0.5c0.2-0.2,0.4-0.3,0.6-0.1
		c0.4,0.3,0.7,0.2,1.1-0.1c0.2-0.4,0.6-0.7,0.8-1.2c0.1-0.2,0.3-0.3,0.1-0.5c-0.1-0.2-0.4-0.2-0.6-0.1c-0.3,0.2-0.8,0.2-1.1,0.5
		c-0.2,0.1-0.4,0.2-0.6,0.2c-0.1,0-0.2,0-0.2-0.1c-0.1-0.4-0.4-0.4-0.6-0.5c-0.5-0.3-1-0.6-1.4-0.9c-0.1,0-0.1-0.1-0.1-0.2
		c0-0.4-0.3-0.5-0.5-0.7c-0.1-0.1-0.3-0.2-0.2-0.4c0.3-0.5,0.1-1,0-1.4c-0.1-0.5-0.3-1-0.3-1.6c0-0.1,0-0.1-0.1-0.2
		c0.3-0.1,0.6,0,0.9-0.2c0.5-0.3,1.2,0.1,1.2,0.7c0,0.1,0,0.2,0.1,0.3c0.8,0.5,0.7,1.3,0.9,2c0,0.2,0.1,0.3,0.2,0.4
		c0.3,0.2,0.5,0.4,0.6,0.7c0.3,0.5,1.1,0.7,1.6,0.3c0.4-0.4,0.8-0.7,0.9-1.4c0.1-0.6,0.4-1.2,0.4-1.8c0-0.1,0.1-0.3,0.3-0.2
		c0.1,0.1,0.2,0.2,0.2,0.4c-0.2,1.1-0.3,2.1-0.4,3.2c0,0.3-0.1,0.5-0.2,0.8c-0.1,0.2-0.2,0.4-0.2,0.7c0.1,0.3-0.3,0.5-0.6,0.8
		c-0.4,0.5-0.7,1-1.5,1c-0.2,0-0.4,0.2-0.6,0.4c-0.4,0.4-0.9,0.7-1.4,0.9c-0.4,0.2-0.9,0.4-1.5,0.2c-0.6-0.4-1.1-0.7-1.7-1.1
		c-0.1-0.1-0.3-0.1-0.3-0.3c0.2-0.5-0.2-0.5-0.4-0.6c-0.3-0.2-0.6-0.4-0.9-0.6l0,0c-0.2-0.1-0.6-0.2-0.4-0.6c0-0.1-0.1-0.2-0.2-0.3
		c-0.4-0.3-0.6-0.6-0.7-1.1c-0.1-0.5-0.4-0.9-0.4-1.4c0-0.3,0.1-0.7-0.3-0.9c0.2-0.3-0.1-0.5,0.1-0.8c0.1-0.3,0.1-0.6,0-0.9
		c0-0.1-0.1-0.1-0.1-0.2c0.3-0.6-0.1-1.1-0.3-1.6c-0.1-0.3,0.1-0.5,0.1-0.8c0-0.2,0.2-0.3-0.1-0.5c-0.1-0.1-0.1-0.2-0.1-0.3
		c0.2-0.7-0.1-1.4-0.1-2.1c-0.1-0.8-0.6-1.4-0.3-2.2c0.1-0.2-0.1-0.3-0.2-0.4c-0.3-0.2-0.6-0.3-0.5-0.7c0-0.1-0.1-0.2-0.2-0.3
		c-0.1-0.1-0.3-0.1-0.3-0.3c0-0.5-0.4-0.6-0.8-0.8c-0.3-0.2-0.7-0.4-1-0.5c-1-0.4-1.9-0.5-3-0.5c-0.9,0.1-1.7,0.3-2.5,0.6
		c-0.1,0.1-0.3,0.1-0.4,0.2c-0.5,0.6-0.8,1.3-1.2,2c-0.1,0.1,0,0.2,0.1,0.3c0.4,0.5,1,0.8,1.6,0.9c0.1,0,0.3,0,0.3-0.1
		c0.4-0.5,1.1-0.3,1.6-0.4c0.6-0.1,1.2,0,1.7-0.1c0.3-0.1,0.5,0.2,0.7,0.3c0.2,0.1,0.4,0.2,0.4,0.5c0,0,0.1,0.1,0.1,0.2
		c0.1,0.2,0.5,0.2,0.3,0.5c-0.1,0.2-0.4,0-0.6,0.1c-0.3,0.1-0.5,0-0.7-0.1c-0.2-0.2-0.5-0.2-0.8-0.1c-0.9,0.1-1.8,0.1-2.6,0.5
		c-0.2,0.1-0.3,0-0.4-0.1c-0.4-0.3-0.8-0.4-1.2-0.6c-0.2-0.1-0.4-0.2-0.7,0c-0.3,0.2-0.6,0-0.6-0.4c0-0.3-0.1-0.4-0.3-0.4
		c-0.5-0.2-1-0.5-1.2-1.1c-0.1-0.3-0.1-0.7,0.1-1c0.5-0.9,0.9-1.7,0.6-2.8c-0.1-0.4-0.5-0.6-0.7-0.9c-0.2-0.3-0.5-0.4-0.9-0.3
		c-0.1,0-0.3,0-0.4,0c-0.5,0-0.8,0.3-1,0.7c-0.3,0.7-0.1,1.4,0,2.1c0,0.2,0.1,0.4,0.2,0.5c0.2,0.5-0.1,1-0.6,1.1
		c-0.2,0-0.4,0-0.5-0.1c-0.4-0.6-0.9-1.3-1-2c-0.1-0.3,0.2-0.6,0.3-0.9c0-0.1,0.2-0.2,0.2-0.4c0.1-0.9-0.7-2.5-1.6-2.8
		c-0.9-0.4-1.7-0.7-2.6-1.1c-0.2-0.1-0.5-0.2-0.7-0.4c-0.3-0.4-0.7-0.6-1.1-0.9c-0.4-0.2-0.6-0.6-1.1-0.7c-0.6-0.1-0.9,0-1.1,0.5
		C84,20.8,84,21.5,84,22.1c0,1.3,0.2,2.6,0.8,3.7c0.5,1,1.2,1.8,2.3,2.2c1,0.3,1.9,0.7,2.8,1c0.6,0.2,1.3,0.3,1.9,0.6
		c0.2,0.1,0.4,0.1,0.5,0.3c0.1,0.2,0.3,0.4,0.2,0.7c-0.1,0.4-0.7,0.7-1.1,0.5c-1.1-0.4-2.2-0.7-3.2-1.4c0,0-0.1-0.1-0.1-0.1
		c-0.4-0.2-0.8-0.3-1.1-0.1c-0.3,0.2-0.4,0.6-0.4,1c0.1,0.9,0.2,1.8,0.8,2.5c0.3,0.3,0.7,0.5,1.1,0.5c0.7-0.1,1.5,0,2.1-0.5
		c0.1,0.6,0,0.9-0.5,1.1c-0.2,0.1-0.5,0.2-0.7,0.4c-0.5,0.4-0.6,1-0.4,1.4c0.3,0.4,0.9,0.5,1.4,0.1c0.3-0.2,0.7-0.2,1-0.1
		c0.2,0,0.3,0.2,0.2,0.4c-0.2,0.3-0.4,0.6-0.5,0.8c-0.5,0.8-0.9,1.6-0.7,2.5c0,0.1,0,0.3,0.1,0.4c0.3,0.7,0.9,0.9,1.5,0.4
		c0.4-0.3,0.8-0.7,0.9-1.3c0.1-0.6,0.5-1,0.6-1.6c0-0.4,0.1-0.8-0.1-1.2c-0.1-0.3,0-0.5,0.1-0.7c0.1-0.1,0.2-0.1,0.3,0
		c0.3,0.1,0.4,0.3,0.5,0.6c0.1,1.6,0.2,3.2,0.3,4.8c0,0.1,0,0.3,0.1,0.4c0.4,0.2,0.5,0.7,0.8,0.9c0.8,0.6,1.6,1.2,2.7,1.4
		c0.9,0.1,1.9,0.2,2.8,0.3c0.6,0.1,1.3,0.2,1.9,0.2c0.1,0,0.3-0.1,0.4-0.1c0.3-0.1,0.6-0.2,1-0.1c0.7,0.1,1.8-0.7,1.9-1.4
		c0.1-0.3-0.1-0.6-0.3-0.8c-0.3-0.2-0.2-0.4-0.1-0.7c0.1-0.1,0.2-0.2,0.1-0.3c-0.1-0.1-0.2-0.1-0.3,0c-0.3,0.1-0.5,0.3-0.6,0.6
		c-0.2,0.3-0.3,0.4-0.7,0.2c-0.4-0.2-0.9-0.1-1.4-0.1c-0.2,0-0.4,0-0.6,0c-0.6-0.2-1.1-0.3-1.7-0.1c-0.2,0-0.9-0.4-0.9-0.5
		c-0.1-0.3,0-0.9,0.2-1c0.5-0.3,1-0.5,1.7-0.5c0.8,0,1.5,0.3,2.3,0.5c0.8,0.2,1.6-0.1,1.9-1c0-0.1,0.1-0.3,0.2-0.4
		c0.2-0.3,0.4-0.7,0-1.1c-0.2-0.2-0.1-0.6-0.1-0.8c0-0.1,0-0.2-0.1-0.3c-0.1-0.3,0.1-0.6,0.4-0.7c0.2-0.1,0.4,0.1,0.5,0.5
		c0,0.2,0.1,0.4,0,0.6c-0.1,0.5,0.2,1,0.3,1.5c0.1,0.5,0.2,1,0.3,1.5c0,0.5-0.1,0.8-0.2,1.2c-0.1,0.5-0.3,1.1,0.2,1.7
		c0.3,0.4,0.7,0.9,0.8,1.5c0,0.4,0.2,0.7,0.5,1c0.3,0.2,0.1,0.6,0.4,0.8c0.2,0.2,0.5,0.4,0.5,0.7c0,0.1,0.1,0.3,0.2,0.4
		c0.9,0.4,1.2,1.5,2,1.9c0.2,0.1,0.3,0.3,0.4,0.6c0.1,0.4,0.5,0.6,0.9,0.9C113.4,50.5,113.4,50.5,113.2,51z M99.7,35L99.7,35
		c0.5-0.4,1-0.5,1.6-0.3c0.5,0.2,1,0.2,1.5,0.5c0.4,0.2,0.5,0.5,0.4,0.8c-0.2,0.8-0.7,1.3-1.4,1.6c-0.2,0.1-0.5,0.1-0.7-0.1
		c-0.5-0.4-1-0.7-1-1.4C100.2,35.7,100.2,35.2,99.7,35z M98,37.2L98,37.2c0.2,0.4-0.2,0.9,0,1.3c0,0.1-0.1,0.2-0.2,0.3
		c-0.3,0.2-0.5,0.2-0.8,0.1c-0.3-0.2-0.4-0.4-0.4-0.8c0-0.8,0.2-1.6,0-2.3c-0.1-0.5,0.1-1,0.5-1.3c0.2-0.2,0.7-0.1,0.9,0.1
		c0.1,0.1,0.3,0.2,0.4,0.3l0,0c0.2,0.2,0.4,0.2,0.6,0c0,0,0.1,0,0.1,0c0,0.1,0,0.2,0,0.3c-0.3,0.1-0.5,0.2-0.5,0.6
		c0,0.4-0.1,0.9-0.5,1.2C97.9,36.9,97.9,37.1,98,37.2z M89.4,26.8L89.4,26.8c-0.5-0.2-1.1-0.4-1.6-0.9c-0.1-0.1-0.2-0.3-0.3-0.3
		c-0.7-0.3-0.8-1.1-1.2-1.6c-0.2-0.2,0-0.7,0.2-0.8c0.3-0.2,0.6-0.2,0.8,0c0.4,0.5,1,0.6,1.5,0.9c0.5,0.3,0.8,0.7,1,1.2
		c0.1,0.3,0.1,0.6,0.3,0.9C90.3,26.4,89.9,26.9,89.4,26.8z M118.5,50.5L118.5,50.5c-0.1,0-0.2,0-0.3,0.1c-0.9,0.6-1.7,0.2-2.4-0.2
		c-0.3-0.1-0.6-0.3-0.3-0.7c0.1-0.2-0.2-0.3-0.1-0.5c0.1-0.3,0.3-0.5,0.4-0.8c0.2-0.3,0.4-0.3,0.7-0.3c0.3,0,0.5-0.2,0.8-0.1
		c0.5,0,1.1,0,1.6,0.2c0.1,0.1,0.4,0.1,0.3,0.3c0,0.3,0.1,0.5,0.4,0.7c0.1,0.1,0.1,0.2,0,0.3C119.3,50,119,50.3,118.5,50.5z
		 M128,46.6L128,46.6L128,46.6L128,46.6z M124.5,48L124.5,48L124.5,48L124.5,48z M124.2,48.1L124.2,48.1"/>
	<path class="st37" d="M108.7,48.5c-0.4-0.5-0.5-1.1-1.2-1.4c-0.1,0-0.1-0.1-0.1-0.2c0.2-0.4-0.2-0.5-0.4-0.7
		c-0.6-0.5-1.3-0.9-1.9-1.3c-0.1-0.1-0.2-0.2-0.3-0.1c-0.5,0.2-1-0.1-1.4-0.1c-0.3,0-0.6-0.2-0.9-0.1c-1.1,0.1-2.2,0.3-3.3,0.6
		c-0.3,0.1-0.5,0.1-0.8-0.1c-0.7-0.4-1.4-0.8-2.1-1.3c-0.4-0.2-0.8-0.4-1.3-0.6c-0.3-0.1-1,0.1-1.1,0.2c-0.1,0.2,0.1,0.8,0.5,1.1
		c0.2,0.1,0.4,0.2,0.5,0.4c0.4,0.8,1.4,1,1.7,1.8c0,0.1,0.2,0.1,0.3,0.2c1,0.5,1.7,1.4,2.2,2.4c0.4,0.9,1.1,1.6,2,2
		c0.3,0.2,0.8,0.1,1.1-0.1c0.1-0.1,0.2-0.3,0.3-0.5c0.1-0.2-0.1-0.3-0.2-0.5c-0.3-0.7-0.5-1.5-1.2-1.9c-0.3-0.2-0.3-0.6-0.4-0.9
		c0-0.2,0.4-0.2,0.6-0.3c0.1-0.1,0.3,0,0.4,0.1c0.3,0.3,0.7,0.6,1,0.8c0.1,0.1,0.2,0.2,0.2,0.3c0,0.5,0.4,1,0.4,1.5
		c0,0.1,0,0.2,0,0.3c0.5,0.3,0.6,0.8,0.9,1.3c0.2,0.4,0.6,0.7,0.8,1.1c0.2,0.2,0.4,0.4,0.7,0.5c0.5,0.3,1.1,0.1,1.5,0.3
		c0.6,0,1.1-0.3,1.6-0.5c0.4-0.2,0.3-0.6,0.5-0.9c0.2-0.4,0.4-0.9,0.4-1.3C109.5,49.8,109.2,49.1,108.7,48.5z M106.6,49.9
		L106.6,49.9c-0.1,0.2-0.3,0.2-0.5,0.2c-0.3,0-0.9-0.5-1.1-0.8c-0.2-0.5-0.2-1.1-0.7-1.6c-0.1-0.1-0.1-0.3,0-0.5
		c0.1-0.1,0.2-0.2,0.3-0.2c0.1,0,0.2,0.1,0.3,0.2c0.2,0.2,0.4,0.4,0.7,0.5c0.5,0.3,0.6,0.8,0.6,1.3c0,0.2,0,0.3,0.1,0.4
		C106.6,49.6,106.7,49.7,106.6,49.9z"/>
	<path class="st37" d="M41.9,64.4h1.3l3.7,16.3c0.2,0.9,0.7,1.3,1.5,1.3v0.4h-5.1V82c0.9,0,1.1-0.2,1-1c0,0.2-0.4-1.8-0.8-3.9h-3.4
		L39.4,81c-0.1,0.6,0.2,1,1.2,1v0.4h-3.7V82c1.1,0,1.4-0.5,1.7-1.5L41.9,64.4z M43.4,76.4L43.4,76.4l-1.6-7.6l-1.6,7.6H43.4z"/>
	<path class="st37" d="M49.9,81.9h1.7c1.5,0,2.2-0.9,2.2-2.8h0.5v3.3h-7l4.9-11.6H51c-1.6,0-2.5,1-2.5,2.9H48v-3.4h6.8L49.9,81.9z"
		/>
	<path class="st37" d="M56,80.8c-0.8-1.2-1.2-2.6-1.2-4.3c0-1.7,0.4-3.2,1.1-4.4s1.8-1.9,3-1.9c1.2,0,2,0.6,2.6,1.7
		c0.6,1.1,0.9,2.4,0.9,3.8c0,0.3-0.1,0.4-0.2,0.4h-5.2v1c0,1.9,0.2,3.3,0.5,4c0.3,0.7,0.9,1.1,1.5,1.1c1,0,1.6-0.7,1.6-1.6
		c0-0.4-0.3-0.9-0.7-0.9c-0.1,0-0.2,0-0.2,0c0-0.6,0.5-1.1,1.3-1.1c0.7,0,1.2,0.6,1.2,1.3c0,0.8-0.3,1.5-1,2.1
		c-0.6,0.5-1.4,0.8-2.2,0.8C57.8,82.6,56.8,82,56,80.8z M57.1,75.5L57.1,75.5H60c0.2,0,0.3-0.1,0.3-0.3c0-3-0.4-4.5-1.4-4.5
		C57.8,70.6,57.2,72.2,57.1,75.5z"/>
	<path class="st37" d="M65.9,70.3v1.4c0.5-1.1,1.3-1.6,2.4-1.6c1,0,1.9,0.5,1.9,1.7c0,0.8-0.7,1.6-1.6,1.6c-0.2,0-0.3,0-0.5-0.1
		c0.3-0.2,0.4-0.6,0.4-1c0-0.6-0.4-1.1-1-1.1c-0.9,0-1.4,0.7-1.5,2.1v7.8c0,0.5,0.2,0.8,0.7,0.8h0.3v0.4h-4.2V82H63
		c0.4,0,0.7-0.1,0.7-0.8v-9.7c0-0.7-0.3-0.8-0.8-0.8h-0.3v-0.4H65.9z"/>
	<path class="st37" d="M71,70.3c0-4.5,1.5-8.7,4-11.8c2.6-3.1,6.7-5.1,11.5-5.1c2.9,0,8.2,1.5,8.2,6.6c0,1.7-0.6,3.2-1.9,4.4
		c-1.3,1.2-2.9,1.8-4.7,1.8c-2.6,0-4.7-1.3-5.8-3.3l0.3,0c1,2,3,3.1,5.5,3.1c1.8,0,3.2-0.6,4.3-1.7c1.1-1.1,1.7-2.5,1.7-4.2
		c0-2.3-1.1-4.1-2.8-5.1c-1.6-0.9-3.3-1.3-4.9-1.3c-4.2,0-7.7,2-9.9,4.9c-2.2,3-3.4,6.9-3.4,11v1.7c0.5-0.8,1.2-1.1,2.1-1.1
		c1.2,0,2.2,0.6,2.9,1.7c0.7,1.1,1.1,2.6,1.1,4.3c0,1.8-0.4,3.3-1.2,4.5c-0.8,1.2-1.9,1.9-3.2,1.9c-0.7,0-1.2-0.3-1.7-0.9v0.7H70V82
		h0.3c0.4,0,0.7-0.1,0.7-0.8V70.3z M73.2,73.6L73.2,73.6v6.7c0.2,1.1,0.8,1.7,1.6,1.7c1,0,1.6-1,1.9-2.4c0.2-1.5,0.3-2.4,0.3-3.4
		c0-3.7-0.7-5.5-2-5.5C73.8,70.7,73.2,72.1,73.2,73.6z"/>
	<path class="st37" d="M86.8,73.2v8c0,0.5,0.3,0.8,0.9,0.8v0.4h-3.1v-0.5c-0.4,0.4-1.1,0.7-2,0.7c-0.8,0-1.5-0.3-2.2-1
		c-0.6-0.7-1-1.5-1-2.5c0-2.4,1.8-3.8,4.2-3.8c0.3,0,0.6,0,1,0.1v-2.8c0-1-0.1-1.9-1.3-2c-1,0-1.3,0.6-1.3,1.1
		c0,0.2,0.2,0.6,0.2,0.8c0,0.6-0.4,1-1,1c-0.6,0-1.2-0.5-1.2-1.1c0-0.7,0.4-1.2,1.1-1.7c0.8-0.4,1.6-0.7,2.7-0.7
		C85.6,70.1,86.8,71.1,86.8,73.2z M84.6,81.4L84.6,81.4v-5.5c-0.2-0.1-0.4-0.1-0.7-0.1c-1.6,0-2.3,1.1-2.3,3.3
		c0,0.7,0.1,1.3,0.4,1.9c0.3,0.6,0.7,0.9,1.4,0.9C83.9,81.9,84.3,81.7,84.6,81.4z"/>
	<path class="st37" d="M87.8,70.3h3.3v10.9c0,0.5,0.2,0.8,0.7,0.8h0.3v0.4h-4.2V82h0.3c0.4,0,0.7-0.1,0.7-0.8v-9.7
		c0-0.7-0.3-0.8-0.8-0.8h-0.3V70.3z"/>
	<path class="st37" d="M95.5,79.3c0,1.2,0,2.2,0,2.9c0,0.7-0.1,1.6-0.3,2.6c-0.2,1.1-0.4,2-0.7,2.9c1.3,0.8,2.4,1.4,3.2,1.8
		c0.8,0.4,1.8,0.8,3,1.2c1.2,0.4,2.5,0.6,3.6,0.6c1.5,0,2.7-0.3,3.7-1c1-0.7,1.5-1.7,1.5-3c0-1.1-0.7-2.2-1.6-2.4
		c1.7,0,3.1,1,3.1,2.8c0,3.2-3.3,4.2-6.4,4.2c-1.2,0-2.5-0.2-3.8-0.6c-1.3-0.4-2.3-0.8-3.1-1.3c-0.8-0.4-1.9-1.1-3.3-1.9l-0.2,0.6
		c-0.5,1.1-1.2,2.2-2.1,3.1c-0.9,1-2,1.8-3.5,2.5c-1.5,0.7-3,1.1-4.6,1.1c-1.4,0-2.7-0.2-3.9-0.7c-2.4-0.9-4.2-2.9-4.2-5.4
		c0-1.8,0.8-3.2,2.3-4.2c1.5-1,3.3-1.4,5.2-1.4c2.8,0,5.9,1,9.4,3.1c0.3-1.5,0.4-2.8,0.4-3.8V71.5c0-0.7-0.3-0.8-0.8-0.8h-0.4v-0.4
		h3.4V79.3z M92.8,87L92.8,87c-3.4-2-5.9-3.1-9-3.1c-1.2,0-2.2,0.2-3.3,0.5c-2,0.7-3.7,2.5-3.7,4.9c0,4.1,4.3,5.5,7.1,5.5
		C88.7,94.9,91.7,92.3,92.8,87z M94.2,66.4L94.2,66.4c0.8,0,1.5,0.7,1.5,1.4c0,0.9-0.6,1.6-1.5,1.6c-0.8,0-1.5-0.6-1.5-1.6
		C92.8,67.1,93.4,66.4,94.2,66.4z M176.5,66.4L176.5,66.4c0.8,0,1.5,0.7,1.5,1.4c0,0.9-0.6,1.6-1.5,1.6c-0.8,0-1.5-0.6-1.5-1.6
		C175,67.1,175.7,66.4,176.5,66.4z"/>
	<path class="st37" d="M104,73.2v8c0,0.5,0.3,0.8,0.9,0.8v0.4h-3.1v-0.5c-0.4,0.4-1.1,0.7-2,0.7c-0.8,0-1.5-0.3-2.2-1
		c-0.6-0.7-1-1.5-1-2.5c0-2.4,1.8-3.8,4.2-3.8c0.3,0,0.6,0,1,0.1v-2.8c0-1-0.1-1.9-1.3-2c-1,0-1.3,0.6-1.3,1.1
		c0,0.2,0.2,0.6,0.2,0.8c0,0.6-0.4,1-1,1c-0.6,0-1.2-0.5-1.2-1.1c0-0.7,0.4-1.2,1.1-1.7c0.8-0.4,1.6-0.7,2.7-0.7
		C102.8,70.1,104,71.1,104,73.2z M101.8,81.4L101.8,81.4v-5.5c-0.2-0.1-0.4-0.1-0.7-0.1c-1.6,0-2.3,1.1-2.3,3.3
		c0,0.7,0.1,1.3,0.4,1.9c0.3,0.6,0.7,0.9,1.4,0.9C101.1,81.9,101.5,81.7,101.8,81.4z"/>
	<path class="st37" d="M110.8,70.3h2.8v0.4h-0.3c-0.5,0-0.7,0.4-0.7,1.3v10.4h-1l-4.8-9.3V81c0,0.6,0.3,1,0.8,1h0.1v0.4h-2.6V82h0.2
		c0.5,0,0.8-0.3,0.8-1v-8.8c0-1-0.3-1.5-0.8-1.5h-0.3v-0.4h3l3.8,7.6V72c0-0.9-0.2-1.3-0.7-1.3h-0.3V70.3z"/>
	<path class="st37" d="M123.2,64.5V65h-0.2c-1.1,0.1-1.1,0.7-1.1,1.3v14.3c0,0.7,0.1,1.3,1.1,1.4h0.2v0.4h-4.9V82h0.2
		c0.9,0,1-0.5,1-1.4V66.2c0-0.6-0.1-1.2-1.1-1.3h-0.2v-0.4H123.2z M123,73.4L123,73.4l-0.4-1c2-3.6,3.1-5.7,3.3-6.3
		c0.1-0.2,0.1-0.4,0.1-0.5c0-0.4-0.2-0.6-0.7-0.6H125v-0.4h3.9V65c-0.4,0-0.8,0.1-1.1,0.3c-0.7,0.4-0.8,0.8-1.2,1.5l-2.1,3.9
		l3.7,9.7c0.5,1.3,1.1,1.6,1.9,1.6v0.4h-5V82h0.3c0.4,0,0.6-0.3,0.5-0.7L123,73.4z"/>
	<path class="st37" d="M130,80.8c-0.8-1.2-1.2-2.6-1.2-4.3c0-1.7,0.4-3.2,1.1-4.4s1.8-1.9,3-1.9c1.2,0,2,0.6,2.6,1.7
		c0.6,1.1,0.9,2.4,0.9,3.8c0,0.3-0.1,0.4-0.2,0.4H131v1c0,1.9,0.2,3.3,0.5,4c0.3,0.7,0.9,1.1,1.5,1.1c1,0,1.6-0.7,1.6-1.6
		c0-0.4-0.3-0.9-0.7-0.9c-0.1,0-0.2,0-0.2,0c0-0.6,0.5-1.1,1.3-1.1c0.7,0,1.2,0.6,1.2,1.3c0,0.8-0.3,1.5-1,2.1
		c-0.6,0.5-1.4,0.8-2.2,0.8C131.8,82.6,130.7,82,130,80.8z M131.1,75.5L131.1,75.5h2.9c0.2,0,0.3-0.1,0.3-0.3c0-3-0.4-4.5-1.4-4.5
		C131.8,70.6,131.2,72.2,131.1,75.5z"/>
	<path class="st37" d="M148.3,73.2v8c0,0.5,0.3,0.8,0.9,0.8v0.4h-3.1v-0.5c-0.4,0.4-1.1,0.7-2,0.7c-0.8,0-1.5-0.3-2.2-1
		c-0.6-0.7-1-1.5-1-2.5c0-2.4,1.8-3.8,4.2-3.8c0.3,0,0.6,0,1,0.1v-2.8c0-1-0.1-1.9-1.3-2c-1,0-1.3,0.6-1.3,1.1
		c0,0.2,0.2,0.6,0.2,0.8c0,0.6-0.4,1-1,1c-0.6,0-1.2-0.5-1.2-1.1c0-0.7,0.4-1.2,1.1-1.7c0.8-0.4,1.6-0.7,2.7-0.7
		C147.1,70.1,148.3,71.1,148.3,73.2z M146.1,81.4L146.1,81.4v-5.5c-0.2-0.1-0.4-0.1-0.7-0.1c-1.6,0-2.3,1.1-2.3,3.3
		c0,0.7,0.1,1.3,0.4,1.9c0.3,0.6,0.7,0.9,1.4,0.9C145.4,81.9,145.8,81.7,146.1,81.4z"/>
	<path class="st37" d="M150.5,71.4c0.7-0.8,1.7-1.2,2.9-1.2c0.6,0,1.1,0.1,1.5,0.3c0.1-0.5,0.4-1,0.9-1.5c0.5-0.6,1-0.8,1.5-0.8
		c0.5,0,1.1,0.4,1.1,1c0,0.5-0.3,1-0.9,1c-0.3,0-1.1-0.3-1.3-0.3c-0.3,0-0.6,0.3-0.8,0.8c1.3,0.7,2.1,2.1,2.1,3.7
		c0,1.1-0.3,2-1.1,2.8c-0.7,0.8-1.6,1.2-2.7,1.2c-1.6,0.1-2,0.6-2,0.8c0,0.3,0.2,0.5,0.5,0.6c0.3,0.2,0.9,0.3,1.7,0.5
		c0.8,0.2,1.4,0.3,1.7,0.4c1.7,0.6,2.7,1.4,2.7,3.1c0,1.1-0.5,2-1.5,2.9c-1,0.8-2.2,1.2-3.6,1.2c-1.1,0-2-0.2-2.9-0.7
		c-0.8-0.5-1.2-1.2-1.2-2.3c0-1.4,1.2-2.4,2.8-2.4c1.2,0,2.4,0.6,2.4,1.8c0,0.7-0.6,1.2-1.2,1.2c-0.4,0-0.7-0.2-1.1-0.5
		c0.5-0.1,0.8-0.3,0.8-0.8c0-0.5-0.5-1.1-1.2-1.1c-1.1,0-1.7,0.7-1.7,1.8c0,1.5,1.5,2.4,3.3,2.4c0.9,0,1.8-0.2,2.5-0.7
		c0.8-0.4,1.1-1.1,1.1-1.9c0-3.1-7-1.7-7-4.8c0-1,0.7-1.7,2.2-2c-1.6-0.5-2.6-2.1-2.6-3.8C149.4,73.2,149.7,72.2,150.5,71.4z
		 M153.3,78L153.3,78c1.2,0,1.8-0.8,1.8-3.6c0-2.6-0.6-3.9-1.8-3.9c-1.1,0-1.7,1.3-1.7,3.9C151.7,77.1,152.2,78,153.3,78z"/>
	<path class="st37" d="M165.1,73.2v8c0,0.5,0.3,0.8,0.9,0.8v0.4h-3.1v-0.5c-0.4,0.4-1.1,0.7-2,0.7c-0.8,0-1.5-0.3-2.2-1
		c-0.6-0.7-1-1.5-1-2.5c0-2.4,1.8-3.8,4.2-3.8c0.3,0,0.6,0,1,0.1v-2.8c0-1-0.1-1.9-1.3-2c-1,0-1.3,0.6-1.3,1.1
		c0,0.2,0.2,0.6,0.2,0.8c0,0.6-0.4,1-1,1c-0.6,0-1.2-0.5-1.2-1.1c0-0.7,0.4-1.2,1.1-1.7c0.8-0.4,1.6-0.7,2.7-0.7
		C163.9,70.1,165.1,71.1,165.1,73.2z M162.8,81.4L162.8,81.4v-5.5c-0.2-0.1-0.4-0.1-0.7-0.1c-1.6,0-2.3,1.1-2.3,3.3
		c0,0.7,0.1,1.3,0.4,1.9c0.3,0.6,0.7,0.9,1.4,0.9C162.1,81.9,162.5,81.7,162.8,81.4z"/>
	<path class="st37" d="M166.1,71.4c-0.2-0.5-0.5-0.6-1.3-0.6v-0.4h4.7v0.4c-0.7,0-1.1,0.2-1.1,0.6l2,8l0.6-2.3l1.1-3.8
		c0.3-1.2,0.5-1.9,0.5-1.9c0-0.4-0.3-0.6-1-0.6v-0.4h3.2v0.4c-0.8,0-1.2,0.1-1.4,0.6c-1.5,5.3-2.6,9.1-3.4,11.3
		c-0.9,2.6-1.6,4.1-2.8,5.8c-1.1,1.7-2.6,2.5-4.5,2.5c-1.3,0-2.4-0.4-3.2-1.1c-0.9-0.8-1.3-1.7-1.3-2.9c0-1.1,0.3-1.9,1.1-2.6
		c0.7-0.7,1.6-1,2.6-1c0.8,0,1.5,0.2,2.1,0.6c0.6,0.4,0.9,1,0.9,1.7c0,0.7-0.4,1.4-1.1,1.4c-0.4,0-0.8-0.2-1-0.5c0.1,0,0.2,0,0.3,0
		c0.6,0,0.8-0.6,0.8-1.1c0-1.2-0.9-1.9-2.1-1.9c-0.9,0-1.6,0.3-2.2,1c-0.6,0.7-0.8,1.5-0.8,2.4c0,1.9,1.6,3.5,4,3.5
		c1.7,0,3.1-0.8,4.1-2.5c1.1-1.6,1.7-3.1,2.5-5.6L166.1,71.4z"/>
	<path class="st37" d="M174.3,70.3h3.3v10.9c0,0.5,0.2,0.8,0.7,0.8h0.3v0.4h-4.2V82h0.3c0.4,0,0.7-0.1,0.7-0.8v-9.7
		c0-0.7-0.3-0.8-0.8-0.8h-0.3V70.3z"/>
	<path class="st37" d="M152.7,53.3c-4.6,0-8.7,1.9-11.1,5c-2.3,2.8-3.7,6.4-3.9,10.4h2.1c0.1-3.8,1.3-7.5,3.3-10.3
		c2.1-2.9,5.6-4.8,9.6-4.8c1.5,0,3.2,0.4,4.7,1.3c1.6,0.9,2.7,2.6,2.7,4.9c0,1.7-0.5,3-1.6,4.1c-1.1,1.1-2.5,1.6-4.2,1.6
		c-2.5,0-4.4-1.1-5.4-3.1l-0.3,0c1,2,3.1,3.2,5.6,3.2c1.8,0,3.4-0.6,4.6-1.7c1.2-1.2,1.8-2.6,1.8-4.3
		C160.6,54.8,155.5,53.3,152.7,53.3z"/>
	<path class="st37" d="M137.7,81.2c0,0.7-0.3,0.8-0.7,0.8h-0.3v0.4h4.2V82h-0.2c-0.4,0-0.7-0.3-0.7-0.8l-0.1-12.5h-2.1V81.2z"/>
	<path class="st38" d="M114,91.9v-2.3h0.3v0.9h1.2v-0.9h0.3v2.3h-0.3v-1.1h-1.2v1.1H114z M116,91.9l0.9-2.3h0.3l0.9,2.3h-0.3
		l-0.3-0.7h-1l-0.2,0.7H116z M116.6,91h0.8l-0.2-0.6c-0.1-0.2-0.1-0.3-0.2-0.5c0,0.1-0.1,0.3-0.1,0.4L116.6,91z M118.3,91.9v-2.3
		h0.3l1.2,1.8v-1.8h0.3v2.3h-0.3l-1.2-1.8v1.8H118.3z M120.6,91.9v-2.3h0.8c0.2,0,0.3,0,0.4,0c0.1,0,0.2,0.1,0.3,0.2
		c0.1,0.1,0.2,0.2,0.3,0.4c0.1,0.2,0.1,0.3,0.1,0.5c0,0.2,0,0.3-0.1,0.5c0,0.1-0.1,0.2-0.2,0.3c-0.1,0.1-0.1,0.2-0.2,0.2
		c-0.1,0.1-0.2,0.1-0.3,0.1c-0.1,0-0.2,0-0.4,0H120.6z M120.9,91.7h0.5c0.1,0,0.3,0,0.4,0c0.1,0,0.2-0.1,0.2-0.1
		c0.1-0.1,0.1-0.2,0.2-0.3c0-0.1,0.1-0.3,0.1-0.4c0-0.2,0-0.4-0.1-0.5c-0.1-0.1-0.2-0.2-0.3-0.3c-0.1,0-0.2,0-0.4,0h-0.5V91.7z
		 M122.9,91.9v-2.3h0.4l0.5,1.6c0,0.1,0.1,0.3,0.1,0.3c0-0.1,0.1-0.2,0.1-0.4l0.5-1.6h0.4v2.3h-0.3V90l-0.7,1.9h-0.3l-0.7-1.9v1.9
		H122.9z M125.3,91.9l0.9-2.3h0.3l0.9,2.3h-0.3l-0.3-0.7h-1l-0.2,0.7H125.3z M125.9,91h0.8l-0.2-0.6c-0.1-0.2-0.1-0.3-0.2-0.5
		c0,0.1-0.1,0.3-0.1,0.4L125.9,91z M127.6,91.9v-2.3h0.8c0.2,0,0.3,0,0.4,0c0.1,0,0.2,0.1,0.3,0.2c0.1,0.1,0.2,0.2,0.3,0.4
		c0.1,0.2,0.1,0.3,0.1,0.5c0,0.2,0,0.3-0.1,0.5c0,0.1-0.1,0.2-0.2,0.3c-0.1,0.1-0.1,0.2-0.2,0.2c-0.1,0.1-0.2,0.1-0.3,0.1
		c-0.1,0-0.2,0-0.4,0H127.6z M127.9,91.7h0.5c0.1,0,0.3,0,0.4,0c0.1,0,0.2-0.1,0.2-0.1c0.1-0.1,0.1-0.2,0.2-0.3
		c0-0.1,0.1-0.3,0.1-0.4c0-0.2,0-0.4-0.1-0.5c-0.1-0.1-0.2-0.2-0.3-0.3c-0.1,0-0.2,0-0.4,0h-0.5V91.7z M129.9,91.9v-2.3h1.6v0.3
		h-1.3v0.7h1.2v0.3h-1.2v0.8h1.4v0.3H129.9z"/>
	<path class="st38" d="M137,91.9v-2.3h0.9c0.1,0,0.3,0,0.3,0c0.1,0,0.2,0.1,0.3,0.1c0.1,0.1,0.1,0.1,0.2,0.2c0,0.1,0.1,0.2,0.1,0.3
		c0,0.2-0.1,0.4-0.2,0.5c-0.1,0.1-0.3,0.2-0.7,0.2h-0.6v0.9H137z M137.3,90.7h0.6c0.2,0,0.3,0,0.4-0.1c0.1-0.1,0.1-0.2,0.1-0.3
		c0-0.1,0-0.2-0.1-0.2s-0.1-0.1-0.2-0.1c-0.1,0-0.1,0-0.3,0h-0.6V90.7z M140.6,89.7h0.3V91c0,0.2,0,0.4-0.1,0.5
		c-0.1,0.1-0.1,0.2-0.3,0.3c-0.1,0.1-0.3,0.1-0.5,0.1c-0.2,0-0.4,0-0.5-0.1c-0.1-0.1-0.2-0.2-0.3-0.3c-0.1-0.1-0.1-0.3-0.1-0.6v-1.3
		h0.3V91c0,0.2,0,0.3,0.1,0.4c0,0.1,0.1,0.2,0.2,0.2c0.1,0.1,0.2,0.1,0.3,0.1c0.2,0,0.4,0,0.5-0.1c0.1-0.1,0.1-0.3,0.1-0.6V89.7z
		 M141.4,91.9v-2.3h1c0.2,0,0.4,0,0.5,0.1c0.1,0,0.2,0.1,0.3,0.2c0.1,0.1,0.1,0.2,0.1,0.3c0,0.2-0.1,0.3-0.2,0.4
		c-0.1,0.1-0.3,0.2-0.5,0.2c0.1,0,0.1,0.1,0.2,0.1c0.1,0.1,0.2,0.2,0.2,0.3l0.4,0.6H143l-0.3-0.5c-0.1-0.1-0.2-0.2-0.2-0.3
		c-0.1-0.1-0.1-0.1-0.2-0.2c0,0-0.1,0-0.1-0.1c0,0-0.1,0-0.2,0h-0.3v1H141.4z M141.7,90.7h0.6c0.1,0,0.2,0,0.3,0
		c0.1,0,0.1-0.1,0.2-0.1c0-0.1,0.1-0.1,0.1-0.2c0-0.1,0-0.2-0.1-0.3c-0.1-0.1-0.2-0.1-0.4-0.1h-0.7V90.7z M143.7,91.9v-2.3h1.6v0.3
		H144v0.7h1.2v0.3H144v0.8h1.4v0.3H143.7z M146.6,91.2l0.3,0c0,0.1,0,0.2,0.1,0.3s0.1,0.1,0.2,0.2c0.1,0,0.2,0.1,0.3,0.1
		c0.1,0,0.2,0,0.3-0.1c0.1,0,0.2-0.1,0.2-0.1c0-0.1,0.1-0.1,0.1-0.2c0-0.1,0-0.1-0.1-0.2c0-0.1-0.1-0.1-0.2-0.1
		c-0.1,0-0.2-0.1-0.4-0.1c-0.2-0.1-0.4-0.1-0.4-0.1c-0.1-0.1-0.2-0.1-0.2-0.2c-0.1-0.1-0.1-0.2-0.1-0.3c0-0.1,0-0.2,0.1-0.3
		c0.1-0.1,0.2-0.2,0.3-0.2c0.1-0.1,0.3-0.1,0.4-0.1c0.2,0,0.3,0,0.4,0.1c0.1,0.1,0.2,0.1,0.3,0.2c0.1,0.1,0.1,0.2,0.1,0.4l-0.3,0
		c0-0.1-0.1-0.3-0.2-0.3c-0.1-0.1-0.2-0.1-0.4-0.1c-0.2,0-0.3,0-0.4,0.1c-0.1,0.1-0.1,0.1-0.1,0.2c0,0.1,0,0.1,0.1,0.2
		c0.1,0.1,0.2,0.1,0.5,0.2c0.2,0.1,0.4,0.1,0.5,0.1c0.1,0.1,0.2,0.1,0.3,0.2c0.1,0.1,0.1,0.2,0.1,0.3c0,0.1,0,0.2-0.1,0.3
		c-0.1,0.1-0.2,0.2-0.3,0.2c-0.1,0.1-0.3,0.1-0.4,0.1c-0.2,0-0.4,0-0.5-0.1c-0.1-0.1-0.2-0.1-0.3-0.3
		C146.6,91.5,146.6,91.3,146.6,91.2z M148.8,91.9v-2.3h0.3v2.3H148.8z M149.6,91.9v-2.3h0.3v2h1.1v0.3H149.6z M151.4,91.9v-2.3h0.3
		v1.1l1.1-1.1h0.4l-0.9,0.9l1,1.3h-0.4l-0.8-1.1l-0.4,0.4v0.8H151.4z"/>
</g>
</svg>
