<?xml version="1.0" encoding="utf-8"?>
<!-- Generator: Adobe Illustrator 22.0.1, SVG Export Plug-In . SVG Version: 6.00 Build 0)  -->
<svg version="1.1" id="Layer_1" xmlns="http://www.w3.org/2000/svg" xmlns:xlink="http://www.w3.org/1999/xlink" x="0px" y="0px"
	 viewBox="0 0 274 225" style="enable-background:new 0 0 274 225;" xml:space="preserve">
<style type="text/css">
	.st0{fill-rule:evenodd;clip-rule:evenodd;fill:#EC008C;}
</style>
<g>
	<path d="M44.5,127.6h-4.7c-0.5,0-0.6-0.4-0.6-0.9v-30c0-0.6,0.3-1.2,0.9-1.2h4.6c0.7,0,0.9,0.4,0.9,1.3v10.8h0.3
		c3.2-2.5,7.6-3.8,14.5-3.8c11.2,0,20.8,4,20.8,12.1c0,9.3-10.7,12.6-18.9,12.6c-6.8,0-13.4-1.4-16.6-4.2l-0.3,0.2v2.2
		C45.3,127.2,45,127.6,44.5,127.6L44.5,127.6z M45.3,116c0,6.2,6.4,9.4,15.4,9.4c7.9,0,13.9-3,13.9-9.4c0-5.2-6.3-9.2-14.7-9.2
		C51.3,106.9,45.3,110.1,45.3,116L45.3,116z M134.1,122.4c-4.7,3.8-11.2,5.9-19.7,5.9c-11.2,0-22.9-3.5-22.9-11.9
		c0-8.6,10.8-12.7,22.4-12.7c6.3,0,13.6,1.7,16.9,3.7c2.9,1.8,4.6,3.8,5,6.7c0.2,1.2-1.2,2.8-4.1,2.8c-0.8,0-33.9,0-33.9,0
		s-0.3,0.2-0.2,0.5c0.6,4.7,9.5,7.7,16.8,7.7c5.9,0,11.7-1.2,14.5-4.1c0.3-0.3,1.2-0.5,1.2-0.5l3.5,1
		C133.7,121.4,134.6,121.7,134.1,122.4L134.1,122.4z M98.6,114.2h30.6c0,0,0.8-0.1,0.3-0.9c-1.9-3.7-6.7-6.6-15.2-6.6
		c-7.2,0-14.5,2.3-16.1,6.7C97.8,114.1,98.6,114.2,98.6,114.2L98.6,114.2z M240.1,122.2c-4.7,3.8-11.2,5.9-19.7,5.9
		c-11.2,0-22.9-3.5-22.9-11.9c0-8.6,10.8-12.7,22.4-12.7c6.3,0,13.6,1.7,16.9,3.7c2.9,1.8,4.6,3.8,5,6.7c0.2,1.2-1.2,2.8-4.1,2.8
		c-0.8,0-33.9,0-33.9,0s-0.3,0.2-0.2,0.5c0.6,4.7,9.5,7.7,16.8,7.7c5.9,0,11.7-1.2,14.5-4.1c0.3-0.3,1.2-0.5,1.2-0.5l3.5,1
		C239.6,121.2,240.6,121.5,240.1,122.2L240.1,122.2z M204.5,114h30.6c0,0,0.8-0.1,0.3-0.9c-1.9-3.7-6.7-6.6-15.2-6.6
		c-7.2,0-14.5,2.3-16.1,6.7C203.8,113.9,204.5,114,204.5,114L204.5,114z M150.9,127.4h-4.7c-0.5,0-0.6-0.4-0.6-0.9v-30
		c0-0.6,0.3-1.2,0.9-1.2h4.6c0.7,0,0.9,0.4,0.9,1.3v10.8h0.3c3.2-2.5,7.6-3.8,14.5-3.8c11.2,0,20.8,4,20.8,12.1
		c0,9.3-10.7,12.6-18.9,12.6c-6.8,0-13.4-1.4-16.6-4.2l-0.3,0.2v2.2C151.7,127,151.4,127.4,150.9,127.4L150.9,127.4z M151.8,115.8
		c0,6.2,6.4,9.4,15.4,9.4c7.9,0,13.9-3,13.9-9.4c0-5.2-6.3-9.2-14.7-9.2C157.7,106.6,151.8,109.9,151.8,115.8L151.8,115.8z"/>
</g>
</svg>
