<?xml version="1.0" encoding="utf-8"?>
<!-- Generator: Adobe Illustrator 22.0.1, SVG Export Plug-In . SVG Version: 6.00 Build 0)  -->
<svg version="1.1" id="Layer_1" xmlns="http://www.w3.org/2000/svg" xmlns:xlink="http://www.w3.org/1999/xlink" x="0px" y="0px"
	 viewBox="0 0 274 225" style="enable-background:new 0 0 274 225;" xml:space="preserve">
<style type="text/css">
	.st0{fill-rule:evenodd;clip-rule:evenodd;fill:#EC008C;}
	.st1{clip-path:url(#SVGID_2_);fill-rule:evenodd;clip-rule:evenodd;}
	.st2{fill-rule:evenodd;clip-rule:evenodd;}
</style>
<g>
	<g>
		<defs>
			<rect id="SVGID_1_" x="50.8" y="87" width="172.4" height="51.1"/>
		</defs>
		<clipPath id="SVGID_2_">
			<use xlink:href="#SVGID_1_"  style="overflow:visible;"/>
		</clipPath>
		<path class="st1" d="M212.1,87c1.5,0,3.1,0,4.7,0c0,0,0,9.8,0,9.8l3.7,0l-0.1,4.7l-3.6,0c0,0,0,0,0,0c0,0.2,0,13.1,0,19.6
			c0,1.5,0,3.2,0,4.8c0.1,2.5-0.3,5,0.7,6.4c1,1.5,3.9,1.1,5.8,0.6c0,0,0,0,0,0l0,4.5c-2.2,1-5.7,0.8-7.5-0.3
			c-3.2-2-3.6-6.1-3.6-11.3c0-3.9,0-8,0-12c0-3,0-6,0-9c0-1,0-3.2,0-3.2c0,0,0,0,0,0l-3.2,0l-0.1-4.7c0,0,0,0,0,0c0,0,3.3,0,3.3,0
			C212.1,93.5,212.1,90.2,212.1,87L212.1,87z"/>
	</g>
	<path class="st2" d="M50.8,117.9c0-1.1,0-2.2,0-3.3c0,0,0,0,0-0.1c0-2.3,0.2-4.5,0.4-6.5c0.3-2,0.7-4,1.3-5.7
		c1.2-3.4,3.2-6.2,6.9-7c2.2-0.5,4.3-0.1,5.9,0.7c1.6,0.8,2.8,1.9,3.7,3.3c1.7,2.9,2.2,7.1,2,11.9c0,0,0,0,0,0c-1.5,0-3.1,0-4.6,0
		c0.2-3.3,0-6.6-1.1-8.8c-0.5-1-1.3-1.9-2.6-2.3c-0.6-0.2-1.4-0.4-2.1-0.3c-0.7,0.1-1.2,0.3-1.7,0.7c-0.8,0.7-1.4,1.9-1.8,3.1
		c-1.3,3.6-1.5,8.3-1.6,13.1c-0.1,4.9,0.1,9.7,1.6,13c0.5,1.1,1.2,2.2,2.2,2.7c1.2,0.5,2.9,0.5,4-0.1c3.2-1.7,3.1-6.9,2.9-11.6
		l4.7,0c0,0,0.1,0.8,0.1,1c0,2,0,4.2-0.3,5.9c-0.6,4.1-2.2,7.2-5.3,8.9c-1.5,0.8-3.6,1.3-5.9,0.9c-4-0.7-6-3.4-7.3-6.8
		C51.2,127,50.9,122.6,50.8,117.9L50.8,117.9z"/>
	<path class="st2" d="M97,102c-0.7,1.2-1.1,2.7-1.4,4.2c-0.3,1.6-0.6,3.1-0.7,4.9c-0.3,3.4-0.3,7.3,0.1,10.8c0.2,1.7,0.4,3.4,0.6,5
		c0.3,1.5,0.7,3,1.5,4.1c0.7,1.2,1.8,2,3.7,1.9c0.8,0,1.7-0.2,2.2-0.6c0.6-0.4,1-0.9,1.4-1.4c0.7-1.1,1.1-2.6,1.4-4.2
		c0.3-1.5,0.6-3.2,0.7-4.9c0.1-1.7,0.1-3.7,0.1-5.5c0-3.7,0-7.5-0.8-10.5c-0.5-2.2-1.3-4.5-2.9-5.5c-0.6-0.3-1.5-0.5-2.3-0.5
		C98.7,99.9,97.7,100.8,97,102L97,102z M100.1,95.3c5.1-0.3,7.9,2.8,9.4,6.5c1.1,2.9,1.5,6.5,1.7,10.2c0.1,1.3,0.1,2.6,0.1,3.8
		c0,2.6-0.1,5.1-0.4,7.6c-0.2,2.4-0.6,4.7-1.2,6.7c-1.3,4-3.6,7.1-8.5,7.3c-3.9,0.2-6.5-1.5-8.1-3.8c-0.5-0.8-0.9-1.7-1.3-2.7
		c-1.4-3.9-1.8-9-1.8-14.1c0-7.9,0.5-15.4,4.5-19.3c1-1,2.3-1.7,3.9-2.1C98.9,95.4,99.6,95.3,100.1,95.3L100.1,95.3z"/>
	<path class="st2" d="M137.9,116.6c-1.3,1-2.1,2.4-2.6,4.2c-1,3.7-0.7,9,1.4,11.1c0.6,0.6,1.4,1,2.4,1c1,0,1.9-0.3,2.7-0.7
		c4.4-2.4,3.2-10.5,3.4-17.1C142.2,114.9,139.6,115.4,137.9,116.6L137.9,116.6z M150.3,137c-1.6,0-4.5,0-4.5,0
		c-0.2-0.6-0.3-1.4-0.4-2.1c-0.1,0-0.1,0.1-0.2,0.2c-1.2,1.2-2.6,2.1-4.6,2.5c-2.4,0.4-4.6-0.2-6.1-1.3c-2.9-2.1-4.2-6-4.4-10.8
		c-0.2-5.2,1.2-8.9,3.7-11.4c2.5-2.5,6.3-4,11.4-3.6c0.1-2.4,0.1-4.9-0.3-6.8c-0.5-2-1.5-3.2-3.6-3.5c-2.5-0.4-3.7,1-4.4,2.7
		c-0.7,1.7-0.9,4-0.8,6.4c-1.5,0-3.1,0-4.6,0c-0.3-3.9,0.4-7.2,1.8-9.5c1.1-1.8,2.6-3.2,4.8-3.8c0.8-0.2,1.6-0.3,2.5-0.4
		c2.1-0.1,3.8,0.5,5.1,1.4c1.3,0.9,2.3,2.1,3,3.5c1.4,3,1.4,7.2,1.4,11.5C150,120.2,149.4,129.2,150.3,137L150.3,137z"/>
	<path class="st2" d="M180.6,138c-0.2,0-0.4,0-0.6,0c0,0,0,0,0,0c-7.6-0.2-9.9-6.2-9.3-14.3c0,0,0,0,0,0c1.1,0,4.5,0,4.5,0
		c0,0,0.1,0,0.1,0c0,2.2,0,4.3,0.4,6c0.4,1.7,1.2,3.1,2.9,3.4c1,0.2,2.1,0.2,2.9,0c0.8-0.2,1.4-0.7,1.9-1.3c0.5-0.6,0.8-1.4,1-2.2
		c0.3-0.8,0.5-1.7,0.6-2.6c0.2-2.3-0.4-3.7-1.3-4.9c-1-1.2-2.2-2.1-3.4-3c-1.2-0.9-2.5-1.8-3.7-2.7c-1.2-0.9-2.4-2-3.3-3.1
		c-1-1.2-1.8-2.6-2.1-4.3c-0.4-1.8-0.2-4,0.1-5.8c0.4-1.7,1-3.2,2-4.4c1-1.2,2.2-2.1,3.8-2.6c1.7-0.6,3.9-0.6,5.6-0.1
		c1.6,0.5,2.9,1.4,3.8,2.5c1,1.2,1.7,2.6,2.1,4.2c0.4,1.7,0.5,3.8,0.5,6l-4.5,0c0.2-3.2-0.4-6.3-2.1-7.8c-0.5-0.4-1-0.6-1.7-0.7
		c-0.7-0.1-1.5,0-2.1,0.2c-2.4,0.8-3.2,3.6-2.9,6.7c0.1,1.5,0.7,2.5,1.4,3.4c1.5,1.7,3.6,3,5.4,4.3c1.9,1.4,3.8,2.8,5.1,4.6
		c1.4,1.9,2.2,4.3,1.9,7.8c-0.2,3-1.2,5.4-2.6,7.2C185.7,136.6,183.7,137.9,180.6,138L180.6,138z"/>
</g>
</svg>
