<?xml version="1.0" encoding="utf-8"?>
<!-- Generator: Adobe Illustrator 22.0.1, SVG Export Plug-In . SVG Version: 6.00 Build 0)  -->
<svg version="1.1" id="Layer_1" xmlns="http://www.w3.org/2000/svg" xmlns:xlink="http://www.w3.org/1999/xlink" x="0px" y="0px"
	 viewBox="0 0 274 225" style="enable-background:new 0 0 274 225;" xml:space="preserve">
<style type="text/css">
	.st0{fill-rule:evenodd;clip-rule:evenodd;fill:#EC008C;}
	.st1{fill-rule:evenodd;clip-rule:evenodd;}
</style>
<g>
	<path class="st1" d="M201.4,130.9c0.6,0.3,1.2,0.5,1.8,0.5c0,0,0,0,0,0c0.6,0,1.2-0.1,1.8-0.5c0.6-0.3,1-0.8,1.4-1.4
		c0.3-0.6,0.5-1.2,0.5-1.8c0-0.7-0.1-1.3-0.5-1.9c-0.3-0.6-0.8-1-1.4-1.4c-0.6-0.3-1.2-0.5-1.8-0.5c0,0,0,0,0,0
		c-0.6,0-1.2,0.2-1.8,0.5c-0.6,0.3-1,0.8-1.4,1.4c-0.3,0.6-0.5,1.2-0.5,1.9c0,0.6,0.1,1.2,0.5,1.8
		C200.3,130.1,200.8,130.6,201.4,130.9L201.4,130.9L201.4,130.9z M150.1,126.7l-6.9-11.5l-16.9-28.1l-20,12.1l-0.7,0.4l0.7,1.1
		l15.6,26h21.3H150.1L150.1,126.7z M113.2,136.4c-2-1.3-4.3-2-6.9-2c0,0,0,0-0.1,0c-7,0-12.6,5.7-12.6,12.7c0,7,5.7,12.6,12.6,12.7
		c0,0,0,0,0.1,0c2.5,0,4.9-0.7,6.9-2v0v1.3h5.8v-12v-20.3h-5.8V136.4L113.2,136.4z M113.2,148.3c-0.6,3.2-3.5,5.7-6.9,5.7
		c0,0,0,0-0.1,0c-3.8,0-6.9-3.2-6.9-7c0-3.8,3.1-6.9,6.9-7c0,0,0,0,0.1,0c3.4,0,6.2,2.4,6.9,5.6l0,0V148.3L113.2,148.3z M121.9,159
		h6.3v-24.7h-6.3V159L121.9,159z M121.9,132.4h6.3v-5.6h-6.3V132.4L121.9,132.4z M85.5,136.4c-2-1.3-4.3-2-6.9-2c0,0,0,0-0.1,0
		c-6.9,0-12.6,5.7-12.6,12.7c0,7,5.7,12.6,12.6,12.7c0,0,0,0,0.1,0c2.5,0,4.9-0.7,6.9-2v0v1.3h5.8v-12V135h-5.8V136.4L85.5,136.4z
		 M85.5,148.3c-0.6,3.2-3.5,5.7-6.9,5.7c0,0,0,0-0.1,0c-3.8,0-6.9-3.2-6.9-7c0-3.8,3.1-6.9,6.9-7c0,0,0,0,0.1,0
		c3.4,0,6.2,2.4,6.9,5.6V148.3L85.5,148.3z M204.1,145.4c-0.2-0.1-0.5-0.2-0.9-0.3c-1.3-0.4-3.4-1-6.4-1.6c-2.6-0.6-3.9-1.3-3.9-2.3
		c0-0.7,0.2-1.2,0.7-1.6c0.6-0.5,1.7-0.8,3.2-0.8c1.6,0,2.7,0.3,3.4,1c0.4,0.4,0.7,1.1,0.9,2.2l0,0h2.1h4.1c0-3-1.2-5.2-3.7-6.5
		c-0.1-0.1-0.3-0.2-0.4-0.2c-1.7-0.8-3.9-1.2-6.7-1.2c-3.4,0-6,0.9-7.7,2.7c-1.4,1.5-2,3.2-2,5.3c0,2.6,1.3,4.5,3.9,5.7
		c1,0.5,3.4,1.1,7.2,1.9c2.5,0.6,3.8,1.3,3.8,2.4c0,0.6-0.3,1.1-0.8,1.6c-0.7,0.6-1.8,0.9-3.2,0.9c-1.9,0-3.2-0.3-4-0.9
		c-0.8-0.6-1.2-1.5-1.2-2.6h0h-6.5c0,2.9,1.2,5.1,3.7,6.6c2,1.1,4.6,1.7,7.8,1.7c2.2,0,4.1-0.4,5.7-1.1c0.3-0.1,0.6-0.3,1-0.5
		c2.5-1.4,3.8-3.7,3.8-6.7C208,148.6,206.7,146.7,204.1,145.4L204.1,145.4L204.1,145.4z M177.5,136.4c-2-1.3-4.3-2-6.8-2
		c0,0,0,0-0.1,0c-7,0-12.6,5.7-12.6,12.7c0,7,5.7,12.6,12.6,12.7c0,0,0,0,0.1,0c2.5,0,4.9-0.7,6.8-2v0v1.3h5.8v-12V135h-5.8V136.4
		L177.5,136.4z M177.5,148.3c-0.6,3.2-3.5,5.7-6.8,5.7c0,0,0,0-0.1,0c-3.8,0-6.9-3.2-6.9-7c0-3.8,3.1-6.9,6.9-7c0,0,0,0,0.1,0
		c3.4,0,6.2,2.4,6.8,5.6l0,0V148.3L177.5,148.3z M150.1,136.4c-2-1.3-4.3-2-6.8-2c0,0,0,0-0.1,0c-7,0-12.6,5.7-12.6,12.7
		c0,7,5.7,12.6,12.6,12.7c0,0,0,0,0.1,0c2.5,0,4.8-0.7,6.8-2l0,0v1.3h5.8v-12v-20.3h-5.8V136.4L150.1,136.4z M150.1,148.3
		c-0.6,3.2-3.5,5.7-6.8,5.7c0,0,0,0-0.1,0c-3.8,0-6.9-3.2-6.9-7c0-3.8,3.1-6.9,6.9-7c0,0,0,0,0.1,0c3.4,0,6.2,2.4,6.8,5.6h0V148.3
		L150.1,148.3z M159.9,126.7h10.6h17.5l-17.5-29.2l-19.4-32.3l-8,4.8l-12.7,7.6l12.7,21.1L159.9,126.7L159.9,126.7z M106.3,126.7
		h5.8l-5.8-9.6l-4.9-8.1l-20.7,12.4l3.2,5.3H106.3L106.3,126.7z M202.2,128h0.4c0.2,0,0.4,0,0.5,0.1c0,0,0.1,0,0.1,0.1
		c0.2,0.1,0.4,0.4,0.6,0.9l0,0l0.4,0.6h0.8l-0.5-0.8c-0.2-0.4-0.4-0.6-0.6-0.8c-0.1-0.1-0.2-0.1-0.3-0.2c0.3,0,0.6-0.1,0.8-0.4
		c0.2-0.2,0.3-0.5,0.3-0.8c0-0.2-0.1-0.4-0.2-0.6c-0.1-0.2-0.3-0.3-0.5-0.4c-0.2-0.1-0.4-0.1-0.8-0.1c-0.1,0-0.2,0-0.2,0l0,0h-1.4v4
		h0.6V128L202.2,128z M202.2,126.3h0.7c0.1,0,0.2,0,0.2,0c0.2,0,0.3,0,0.4,0.1c0.1,0,0.2,0.1,0.3,0.2c0.1,0.1,0.1,0.2,0.1,0.3
		c0,0.2-0.1,0.3-0.2,0.4c-0.1,0.1-0.3,0.2-0.6,0.2c0,0-0.1,0-0.2,0h-0.8V126.3L202.2,126.3z M200.5,126.1c0.3-0.5,0.7-0.9,1.2-1.2
		c0.5-0.3,1-0.4,1.5-0.4c0,0,0,0,0,0c0.5,0,1,0.1,1.5,0.4c0.5,0.3,0.9,0.7,1.2,1.2c0.3,0.5,0.4,1,0.4,1.6c0,0.5-0.1,1-0.4,1.5
		c-0.3,0.5-0.6,0.9-1.1,1.1c-0.5,0.3-1,0.4-1.5,0.4c0,0,0,0,0,0c-0.5,0-1-0.1-1.5-0.4c-0.5-0.3-0.9-0.7-1.1-1.1
		c-0.3-0.5-0.4-1-0.4-1.5C200.1,127.1,200.3,126.6,200.5,126.1L200.5,126.1L200.5,126.1z"/>
</g>
</svg>
