<?xml version="1.0" encoding="utf-8"?>
<!-- Generator: Adobe Illustrator 22.0.1, SVG Export Plug-In . SVG Version: 6.00 Build 0)  -->
<svg version="1.1" id="Layer_1" xmlns="http://www.w3.org/2000/svg" xmlns:xlink="http://www.w3.org/1999/xlink" x="0px" y="0px"
	 viewBox="0 0 216 75.5" style="enable-background:new 0 0 216 75.5;" xml:space="preserve">
<style type="text/css">
	.st0{fill-rule:evenodd;clip-rule:evenodd;fill:#EC008C;}
	.st1{clip-path:url(#SVGID_2_);}
	.st2{clip-path:url(#SVGID_4_);}
</style>
<g>
	<g>
		<defs>
			<rect id="SVGID_1_" x="3" y="25.3" width="210" height="25"/>
		</defs>
		<clipPath id="SVGID_2_">
			<use xlink:href="#SVGID_1_"  style="overflow:visible;"/>
		</clipPath>
		<polygon class="st1" points="14.1,27.3 5.7,37 5.6,37 5.6,27.3 3,27.3 3,47.7 5.6,47.7 5.6,38 5.7,38 14.1,47.7 17.5,47.7 
			8.4,37.3 17.1,27.3 		"/>
		<g class="st1">
			<defs>
				<rect id="SVGID_3_" x="3" y="25.3" width="210" height="25"/>
			</defs>
			<clipPath id="SVGID_4_">
				<use xlink:href="#SVGID_3_"  style="overflow:visible;"/>
			</clipPath>
			<path class="st2" d="M127.5,27.3L122,38.5c-0.9,1.8-1.9,3.8-2.6,5.5h-0.1c-0.7-1.7-1.8-3.8-2.6-5.5l-5.5-11.2h-1.7l-1.7,20.4h2.3
				l0.8-9.9c0.1-1.4,0.3-3.3,0.3-4.9h0.1c0.7,1.6,1.6,3.8,2.4,5.3l5.6,10.9l5.4-10.9c0.7-1.5,1.8-3.8,2.4-5.3h0.1
				c0.1,1.6,0.2,3.5,0.3,5l0.8,9.9h2.5l-1.7-20.4H127.5z"/>
			<path class="st2" d="M19,47.7h2.6l2.2-5.5h8.3l2.3,5.5h2.7l-9-22L19,47.7z M31.3,40.2h-6.5l2.2-5.6c0.3-0.8,0.7-1.9,1-2.9h0.1
				c0.3,1,0.6,2.1,1,2.9L31.3,40.2z"/>
			<path class="st2" d="M52.3,32.9c0-3.7-3.1-5.6-6.1-5.6h-5.9v20.4h2.6v-9.2h2.8l6.6,9.2h3.3l-7.1-9.6
				C50.7,37.4,52.3,35.6,52.3,32.9 M42.9,36.4v-6.8h2.9c2.1,0,3.8,1.2,3.8,3.4c0,2.2-1.8,3.4-3.8,3.4H42.9z"/>
			<polygon class="st2" points="61.9,38.6 68.7,38.6 68.7,36.3 61.9,36.3 61.9,29.6 70.1,29.6 70.1,27.3 59.3,27.3 59.3,47.7 
				71.3,47.7 71.3,45.5 61.9,45.5 			"/>
			<rect x="136.7" y="27.3" class="st2" width="2.7" height="20.4"/>
			<polygon class="st2" points="149,27.3 146.4,27.3 146.4,47.7 158.3,47.7 158.3,45.5 149,45.5 			"/>
			<polygon class="st2" points="164.9,27.3 162.3,27.3 162.3,47.7 174.1,47.7 174.1,45.5 164.9,45.5 			"/>
			<polygon class="st2" points="180.7,38.6 187.5,38.6 187.5,36.3 180.7,36.3 180.7,29.6 188.9,29.6 188.9,27.3 178.1,27.3 
				178.1,47.7 190,47.7 190,45.5 180.7,45.5 			"/>
			<path class="st2" d="M210.4,27.3v10.3c0,1.6,0,3.4,0.1,5.1l-0.1,0c-1.3-1.6-3.2-3.7-4.4-5.2l-9.1-10.2H195v20.4h2.6V37
				c0-1.7,0-3.5-0.1-5.4l0.1,0c1.4,1.7,3.2,3.8,4.8,5.6L213,48.9v-0.8V27.3H210.4z"/>
			<path class="st2" d="M90.9,27.3v10.3c0,1.6,0,3.4,0.1,5.1l-0.1,0c-1.3-1.6-3.2-3.7-4.4-5.2l-9.1-10.2h-1.8v20.4h2.6V37
				c0-1.7,0-3.5-0.1-5.4l0.1,0c1.4,1.7,3.2,3.8,4.8,5.6l10.6,11.8v-0.8V27.3H90.9z"/>
		</g>
	</g>
</g>
</svg>
