<svg xmlns="http://www.w3.org/2000/svg" width="129" height="31" viewBox="0 0 129 31"><g><g><g><path d="M25.403 26.063c0 2.038-1.675 3.639-2.985 3.639H8.08L26.203.806H1.965V5.61h1.238c0-2.038 1.31-3.64 2.62-3.64h12.374L0 30.867h26.276v-4.804h-.873z"/></g><g><path d="M40.033 9.467l5.75 11.282H34.938zM46.51 29.92v.947H60.85v-.947c-2.184 0-3.494-.655-3.93-1.383L42.87.806l-12.81 27.731c-.218.583-1.456 1.383-3.203 1.383v.947H33.7v-.947c-1.31 0-2.62-.655-2.329-1.383l3.057-6.696H46.22l3.348 6.696c.436.655-1.31 1.383-3.057 1.383z"/></g><g><path d="M62.378 1.97c2.11 0 3.785.51 3.785 1.165v25.33c0 .655-1.674 1.455-3.785 1.455v.874H76.28v-.874c-2.038 0-3.712-.8-3.712-1.528V1.752h4.004c3.857 0 6.987 3.202 6.987 6.842 0 3.64-3.13 6.623-6.987 6.623h-2.766s9.39 14.267 9.462 14.267c.364.51.582 1.455.582 1.455h10.118v-.873c-1.966 0-2.985-.8-3.567-1.529l-9.026-11.864c4.368-.291 7.716-3.785 7.716-8.006 0-4.368-3.712-7.861-8.37-7.861H62.377V1.97z"/></g><g><path d="M108.16 9.467l5.751 11.282h-10.845zm6.552 20.526v.946h14.193v-.873c-2.184 0-3.494-.728-3.93-1.456L110.927.878 98.117 28.61c-.219.582-1.456 1.383-3.203 1.383v.874h6.842v-.874c-1.31 0-2.62-.728-2.33-1.456l3.058-6.696h11.864l3.348 6.696c.437.728-1.31 1.456-3.057 1.456z"/></g></g></g></svg>