<?xml version="1.0" encoding="utf-8"?>
<!-- Generator: Adobe Illustrator 22.0.1, SVG Export Plug-In . SVG Version: 6.00 Build 0)  -->
<svg version="1.1" id="Layer_1" xmlns="http://www.w3.org/2000/svg" xmlns:xlink="http://www.w3.org/1999/xlink" x="0px" y="0px"
	 viewBox="0 0 216 98.8" style="enable-background:new 0 0 216 98.8;" xml:space="preserve">
<style type="text/css">
	.st0{fill-rule:evenodd;clip-rule:evenodd;fill:#EC008C;}
	.st1{fill:#AF1F2C;}
	.st2{clip-path:url(#SVGID_2_);fill:#AF1F2C;}
	.st3{clip-path:url(#SVGID_2_);fill:#F3D0B6;}
	.st4{clip-path:url(#SVGID_2_);fill:#FFFFFF;}
	.st5{clip-path:url(#SVGID_2_);fill:#272726;}
	.st6{fill-rule:evenodd;clip-rule:evenodd;fill:#610000;}
	.st7{clip-path:url(#SVGID_4_);fill:url(#SVGID_5_);}
	.st8{fill:#610000;}
	.st9{fill-rule:evenodd;clip-rule:evenodd;fill:#6A0000;}
	.st10{fill-rule:evenodd;clip-rule:evenodd;fill:#FFFFFF;}
	.st11{fill:#FFFFFF;}
	.st12{fill:none;stroke:#8C100E;stroke-width:0.216;stroke-miterlimit:22.9256;}
	.st13{fill:#414042;}
	.st14{fill:#E9C232;}
	.st15{fill-rule:evenodd;clip-rule:evenodd;fill:#8DC63F;}
	.st16{clip-path:url(#SVGID_7_);fill:url(#SVGID_8_);}
	.st17{clip-path:url(#SVGID_10_);fill:url(#SVGID_11_);}
	.st18{clip-path:url(#SVGID_13_);fill:url(#SVGID_14_);}
	.st19{clip-path:url(#SVGID_16_);}
	.st20{clip-path:url(#SVGID_18_);}
	.st21{clip-path:url(#SVGID_22_);fill:url(#SVGID_23_);}
	.st22{clip-path:url(#SVGID_25_);fill:url(#SVGID_26_);}
	.st23{clip-path:url(#SVGID_28_);fill:url(#SVGID_29_);}
	.st24{clip-path:url(#SVGID_31_);fill:url(#SVGID_32_);}
	.st25{fill:#818385;}
	.st26{clip-path:url(#SVGID_34_);fill:#FFFFFF;}
	.st27{fill:#008B63;}
	.st28{fill:#BA131A;}
	.st29{fill:none;stroke:#FFFFFF;stroke-width:0.5669;stroke-miterlimit:22.9256;}
</style>
<g>
	<path d="M32.3,48.6l3,4.8l6.1-9.7v21.4h5.2V34h-5.3L32.3,48.6 M17.6,34h-5.3v31.1h5.2V43.7l11.9,19l3-4.8L17.6,34 M77.9,55.4
		l4.8,9.6h6.3L73.3,34h-5.7l0,0l7.9,16.5H65l2.7-5.4l-2.9-5.8L51.6,65.1h5.9l5-9.6L77.9,55.4 M123.9,34h-5.2v15.1l5.2,5.3V34
		 M98.6,34h-5.3v31.1h5.2V41.8L120,65.1h3.9v-3.8L98.6,34 M160.5,42.6c-2.5-2.6-6.3-4.2-10.6-4.2c-6.9,0-12.6,4.2-13.5,9.7h-5.8
		c0.8-8.5,9.5-14.8,19.3-14.8c5.9,0,11.1,2.2,14.7,5.7L160.5,42.6 M149.4,60.7c-5.7,0-10.6-3.1-12.5-7.5H131
		c1.9,7.5,9.6,12.5,18.7,12.5c2.1,0,4.5-0.2,6.5-0.7c4.5-1.1,9.5-4.1,9.5-8.7v-8.3h-16.4l0,5.2h11.2v2.4c0,2.6-3.9,4.1-6.3,4.7
		c-1.3,0.3-2.9,0.4-4.3,0.4H149.4 M209,49.5c0-9.3-8.4-16.5-18.8-16.5c-10,0-18.8,6.9-18.8,16c0,8.6,6.9,15.5,16.2,16.6v-5.2
		c-6.1-1-10.7-5.6-10.7-11c0-6.2,5.9-11.2,13.2-11.2c7.3,0,13.2,5,13.2,11.2c0,5.4-4.5,10-10.6,11v5.2C201.8,64.5,209,57.9,209,49.5
		"/>
</g>
</svg>
