<?xml version="1.0" encoding="utf-8"?>
<!-- Generator: Adobe Illustrator 22.0.1, SVG Export Plug-In . SVG Version: 6.00 Build 0)  -->
<svg version="1.1" id="Layer_1" xmlns="http://www.w3.org/2000/svg" xmlns:xlink="http://www.w3.org/1999/xlink" x="0px" y="0px"
	 viewBox="0 0 216 98.8" style="enable-background:new 0 0 216 98.8;" xml:space="preserve">
<style type="text/css">
	.st0{fill-rule:evenodd;clip-rule:evenodd;fill:#EC008C;}
	.st1{fill:#AF1F2C;}
	.st2{clip-path:url(#SVGID_2_);fill:#AF1F2C;}
	.st3{clip-path:url(#SVGID_2_);fill:#F3D0B6;}
	.st4{clip-path:url(#SVGID_2_);fill:#FFFFFF;}
	.st5{clip-path:url(#SVGID_2_);fill:#272726;}
	.st6{fill-rule:evenodd;clip-rule:evenodd;fill:#610000;}
	.st7{clip-path:url(#SVGID_4_);fill:url(#SVGID_5_);}
	.st8{fill:#610000;}
	.st9{fill-rule:evenodd;clip-rule:evenodd;fill:#6A0000;}
	.st10{fill-rule:evenodd;clip-rule:evenodd;fill:#FFFFFF;}
	.st11{fill:#FFFFFF;}
	.st12{fill:none;stroke:#8C100E;stroke-width:0.216;stroke-miterlimit:22.9256;}
	.st13{fill:#414042;}
	.st14{fill:#E9C232;}
	.st15{fill-rule:evenodd;clip-rule:evenodd;fill:#373435;}
</style>
<g>
	<path class="st15" d="M20.6,47.1c-0.3-2-1.7-3.6-4.8-3.6c-2.8,0-4.9,1.2-4.9,3.6c0,4.3,6.4,3.1,6.4,4.8c0,0.5-0.6,0.8-1.5,0.8
		c-0.4,0-0.7-0.1-1-0.3c-0.3-0.2-0.5-0.5-0.6-0.9l-3.5,0c0.1,2,2,3.8,5,3.8c3.1,0,5.2-1.3,5.2-3.9c0-4.1-6.4-3-6.4-4.7
		c0-0.4,0.4-0.6,1.2-0.6c0.4,0,0.7,0.1,0.9,0.2c0.3,0.1,0.5,0.4,0.5,0.8L20.6,47.1L20.6,47.1z M203,50.9l4.2-7.1h-4l-1.9,3.8
		l-1.9-3.8h-4.1l4.2,7.2v4.1h3.7V50.9L203,50.9z M167.4,55.1v-2.6h-5.7v-1.8h4.6V48h-4.6v-1.6h5.5v-2.6h-9.1v11.3H167.4L167.4,55.1z
		 M129.4,55.1v-2.6h-5v-8.6h-3.7v11.3H129.4L129.4,55.1z M91.7,47.1c-0.3-2-1.7-3.6-4.8-3.6c-2.8,0-4.9,1.2-4.9,3.6
		c0,4.3,6.4,3.1,6.4,4.8c0,0.5-0.6,0.8-1.5,0.8c-0.4,0-0.7-0.1-1-0.3c-0.3-0.2-0.5-0.5-0.6-0.9l-3.5,0c0.1,2,2,3.8,5,3.8
		c3.1,0,5.2-1.3,5.2-3.9c0-4.1-6.4-3-6.4-4.7c0-0.4,0.4-0.6,1.2-0.6c0.4,0,0.7,0.1,0.9,0.2c0.3,0.1,0.5,0.4,0.5,0.8L91.7,47.1
		L91.7,47.1z M53.2,55.1V43.8h-3.7v11.3H53.2L53.2,55.1z"/>
</g>
</svg>
