<?xml version="1.0" encoding="utf-8"?>
<!-- Generator: Adobe Illustrator 22.0.1, SVG Export Plug-In . SVG Version: 6.00 Build 0)  -->
<svg version="1.1" id="Layer_1" xmlns="http://www.w3.org/2000/svg" xmlns:xlink="http://www.w3.org/1999/xlink" x="0px" y="0px"
	 viewBox="0 0 216 98.8" style="enable-background:new 0 0 216 98.8;" xml:space="preserve">
<style type="text/css">
	.st0{fill-rule:evenodd;clip-rule:evenodd;fill:#EC008C;}
	.st1{fill:#AF1F2C;}
	.st2{clip-path:url(#SVGID_2_);fill:#AF1F2C;}
	.st3{clip-path:url(#SVGID_2_);fill:#F3D0B6;}
	.st4{clip-path:url(#SVGID_2_);fill:#FFFFFF;}
	.st5{clip-path:url(#SVGID_2_);fill:#272726;}
	.st6{fill-rule:evenodd;clip-rule:evenodd;fill:#610000;}
	.st7{clip-path:url(#SVGID_4_);fill:url(#SVGID_5_);}
	.st8{fill:#610000;}
	.st9{fill-rule:evenodd;clip-rule:evenodd;fill:#6A0000;}
	.st10{fill-rule:evenodd;clip-rule:evenodd;fill:#FFFFFF;}
	.st11{fill:#FFFFFF;}
	.st12{fill:none;stroke:#8C100E;stroke-width:0.216;stroke-miterlimit:22.9256;}
	.st13{fill:#414042;}
	.st14{fill:#E9C232;}
	.st15{fill-rule:evenodd;clip-rule:evenodd;fill:#D71635;}
	.st16{fill-rule:evenodd;clip-rule:evenodd;fill:#00164E;}
</style>
<g>
	<polygon class="st15" points="111.4,46.8 103,46.8 103,52.3 111.4,52.3 111.4,46.8 	"/>
	<polygon class="st10" points="103,46.8 94.6,46.8 94.6,52.3 103,52.3 103,46.8 	"/>
	<polygon class="st16" points="94.6,44.1 111.4,44.1 111.4,46.8 94.6,46.8 94.6,44.1 	"/>
	<polygon class="st16" points="94.6,52.3 111.4,52.3 111.4,55 94.6,55 94.6,52.3 	"/>
	<polygon class="st16" points="16.4,45.5 12.6,45.5 12.6,55 11.1,55 11.1,45.5 7.3,45.5 7.3,44.1 16.4,44.1 16.4,45.5 	"/>
	<path class="st16" d="M28,53.7c2.5,0,4.3-1.8,4.3-4.2c0-2.4-1.8-4.2-4.3-4.2c-2.4,0-4.2,1.8-4.2,4.2C23.8,52,25.6,53.7,28,53.7
		L28,53.7z M28,44c3.6,0,5.9,2.6,5.9,5.6c0,3-2.2,5.6-5.9,5.6c-3.6,0-5.8-2.6-5.8-5.6C22.2,46.5,24.5,44,28,44L28,44z"/>
	<polygon class="st16" points="51.5,55 49.9,55 49.9,46.5 49.9,46.5 46.5,50.8 46.3,50.8 42.9,46.5 42.9,46.5 42.9,55 41.3,55 
		41.3,44.1 42.8,44.1 46.4,48.6 50,44.1 51.5,44.1 51.5,55 	"/>
	<polygon class="st16" points="70.6,55 69,55 69,46.5 69,46.5 65.6,50.8 65.3,50.8 62,46.5 61.9,46.5 61.9,55 60.4,55 60.4,44.1 
		61.8,44.1 65.5,48.6 69.1,44.1 70.6,44.1 70.6,55 	"/>
	<polygon class="st16" points="85.2,44.1 87.1,44.1 83,49.3 83,55 81.4,55 81.4,49.3 77.4,44.1 79.3,44.1 82.2,47.9 85.2,44.1 	"/>
	<polygon class="st16" points="129.6,55 128,55 128,50.3 121.9,50.3 121.9,55 120.3,55 120.3,44.1 121.9,44.1 121.9,48.9 128,48.9 
		128,44.1 129.6,44.1 129.6,55 	"/>
	<polygon class="st16" points="137.6,55 136.1,55 136.1,44.1 137.6,44.1 137.6,55 	"/>
	<polygon class="st16" points="145.7,53.6 150.6,53.6 150.6,55 144.1,55 144.1,44.1 145.7,44.1 145.7,53.6 	"/>
	<polygon class="st16" points="161,45.5 156.7,45.5 156.7,48.5 161,48.5 161,50 156.7,50 156.7,55 155.1,55 155.1,44.1 161,44.1 
		161,45.5 	"/>
	<polygon class="st16" points="168,55 166.5,55 166.5,44.1 168,44.1 168,55 	"/>
	<path class="st16" d="M183,54.3c-1.5,0.6-2.6,0.9-4.2,0.9c-3.4,0-5.8-2.3-5.8-5.5c0-3.2,2.5-5.7,5.9-5.7c1.3,0,2.2,0.2,3.9,0.9v1.6
		c-1.3-0.7-2.6-1.1-3.9-1.1c-2.4,0-4.2,1.8-4.2,4.2c0,2.4,1.8,4.2,4.4,4.2c0.8,0,1.6-0.2,2.4-0.4v-2.2h-2.1v-1.4h3.7V54.3L183,54.3z
		"/>
	<polygon class="st16" points="195.2,45.5 190.5,45.5 190.5,48.8 195,48.8 195,50.2 190.5,50.2 190.5,53.6 195.3,53.6 195.3,55 
		189,55 189,44.1 195.2,44.1 195.2,45.5 	"/>
	<path class="st16" d="M202.3,48.9h1c1.7,0,2.2-0.9,2.1-1.8c0-1-0.6-1.7-2.1-1.7h-1V48.9L202.3,48.9z M203.4,44.1
		c2.2,0,3.6,1.2,3.6,3.1c0,1.3-0.7,2.2-1.8,2.7c1,0.7,1.6,1.7,2.4,3c0.5,0.8,0.7,1.1,1.5,2.2h-1.9l-1.4-2.2
		c-1.4-2.2-2.1-2.5-2.9-2.5h-0.7V55h-1.6V44.1H203.4L203.4,44.1z"/>
</g>
</svg>
