<svg xmlns="http://www.w3.org/2000/svg" width="78" height="90" viewBox="0 0 78 90"><g><g><g><path fill="#242424" d="M55.394 25.553c.72 0 1.303-.584 1.303-1.303v-2.163a1.303 1.303 0 0 0-2.605 0v2.163c0 .72.582 1.303 1.302 1.303z"/></g><g><path fill="#242424" d="M23.127 25.553c.72 0 1.303-.584 1.303-1.303v-2.163a1.303 1.303 0 1 0-2.606 0v2.163c0 .72.584 1.303 1.303 1.303z"/></g><g><path fill="#242424" d="M26.604 39.825a1.303 1.303 0 0 0 1.96-1.717c-1.362-1.555-2.082-3.358-2.082-5.213 0-5.27 5.733-9.557 12.778-9.557 7.047 0 12.779 4.287 12.779 9.557 0 5.27-5.732 9.557-12.778 9.557-2.575 0-5.058-.574-7.182-1.661a1.303 1.303 0 0 0-1.187 2.319c2.49 1.274 5.384 1.947 8.369 1.947 8.483 0 15.384-5.456 15.384-12.162s-6.901-12.162-15.384-12.162c-8.484 0-15.385 5.456-15.385 12.162 0 2.497.943 4.893 2.728 6.93z"/></g><g><path fill="#242424" d="M39.261 27.992c2.593 0 4.783 1.426 4.783 3.113s-2.19 3.113-4.783 3.113c-2.593 0-4.784-1.426-4.784-3.113s2.19-3.113 4.784-3.113zm0 8.831c4.143 0 7.388-2.512 7.388-5.718s-3.245-5.718-7.388-5.718c-4.144 0-7.39 2.512-7.39 5.718.001 3.206 3.246 5.718 7.39 5.718z"/></g><g><path fill="#242424" d="M66.593 61.897c-.88-5.55-2.697-11.465-5.188-16.899a18.163 18.163 0 0 0 2.209-2.203c3.203 2.854 8.018 7.968 10.646 14.76a9.53 9.53 0 0 1-.505 7.96 13.576 13.576 0 0 0-7.162-3.618zM50.651 75.742a14.15 14.15 0 0 0 3.55 9.406c-3.738 1.373-8.552 2.02-14.94 2.02s-11.202-.647-14.94-2.02a14.15 14.15 0 0 0 3.55-9.406c0-7.583-5.915-13.775-13.275-14.02.848-4.975 2.48-10.263 4.669-15.15 1.377.879 2.906 1.634 4.583 2.266-.195 1.001-2.245 11.24 4.86 11.24 1.985 0 4.516-.773 6.567-1.974a6.917 6.917 0 0 0 3.986 1.26 6.919 6.919 0 0 0 3.986-1.26c2.05 1.201 4.581 1.975 6.566 1.975 7.228 0 5.056-10.24 4.86-11.241 1.677-.632 3.207-1.387 4.583-2.266 2.196 4.896 3.82 10.165 4.668 15.15-7.36.245-13.273 6.438-13.273 14.02zm-47.622 0c0-6.3 4.987-11.425 11.119-11.425 6.13 0 11.117 5.125 11.117 11.425 0 6.3-4.987 11.425-11.117 11.425-6.132 0-11.119-5.125-11.119-11.425zm1.232-18.187c2.628-6.792 7.443-11.906 10.647-14.76a18.217 18.217 0 0 0 2.208 2.204c-2.484 5.422-4.307 11.36-5.187 16.898a13.577 13.577 0 0 0-7.163 3.618 9.538 9.538 0 0 1-.505-7.96zM34.904 52.4c0-.45.069-.886.2-1.306 1.336.09 2.721.137 4.157.137 1.435 0 2.82-.047 4.155-.137a4.362 4.362 0 0 1-4.155 5.664 4.361 4.361 0 0 1-4.357-4.358zm-8.552-2.744c1.885.532 3.926.93 6.12 1.193a6.981 6.981 0 0 0-.173 1.551c0 1.384.408 2.674 1.106 3.759-1.543.798-3.328 1.313-4.697 1.313-3.529.001-2.483-6.967-2.356-7.816zm23.461 7.817c-1.368 0-3.153-.515-4.697-1.314a6.917 6.917 0 0 0 .928-5.309c2.196-.263 4.238-.662 6.125-1.194.128.85 1.173 7.817-2.356 7.817zM39.261 3.444c14.396 0 26.109 11.712 26.109 26.109 0 6.618-2.5 11.588-7.433 14.77-4.423 2.856-10.707 4.304-18.676 4.304-7.97 0-14.254-1.448-18.677-4.303-4.932-3.183-7.432-8.153-7.432-14.771 0-14.397 11.712-26.11 26.109-26.11zm-24.836 11.71a3.66 3.66 0 0 1-1.322-2.823 3.681 3.681 0 0 1 3.677-3.677c.774 0 1.507.239 2.118.673a28.89 28.89 0 0 0-4.473 5.827zm-6.533-2.823c0-4.9 3.987-8.888 8.888-8.888 2.341 0 4.523.896 6.17 2.491-.728.504-1.43 1.04-2.107 1.607a6.226 6.226 0 0 0-4.063-1.492 6.29 6.29 0 0 0-6.282 6.282c0 2.1 1.03 4.008 2.706 5.165-.371.799-.707 1.618-1.005 2.454a8.847 8.847 0 0 1-4.307-7.62zm57.526 0a3.66 3.66 0 0 1-1.322 2.823 28.869 28.869 0 0 0-4.473-5.827 3.645 3.645 0 0 1 2.118-.673 3.681 3.681 0 0 1 3.677 3.677zM75.54 67.6a12.14 12.14 0 0 0 1.15-10.986c-2.875-7.43-8.147-12.95-11.546-15.945 1.881-3.08 2.831-6.796 2.831-11.117 0-4.304-.953-8.389-2.657-12.057a6.256 6.256 0 0 0 2.706-5.165A6.29 6.29 0 0 0 61.74 6.05c-1.516 0-2.94.533-4.063 1.492a28.926 28.926 0 0 0-2.106-1.607 8.809 8.809 0 0 1 6.17-2.49c4.9 0 8.887 3.986 8.887 8.887a8.802 8.802 0 0 1-1.87 5.454 1.303 1.303 0 0 0 .229 1.828c.237.185 1.146.668 1.828-.228 1.56-2.05 2.419-4.473 2.419-7.054C73.235 5.994 68.079.838 61.74.838a11.39 11.39 0 0 0-8.427 3.682A28.54 28.54 0 0 0 39.26.838c-5.102 0-9.897 1.34-14.054 3.682A11.39 11.39 0 0 0 16.78.838C10.443.838 5.287 5.994 5.287 12.33a11.44 11.44 0 0 0 6.136 10.17 28.673 28.673 0 0 0-.877 7.051c0 4.322.95 8.037 2.831 11.117-3.399 2.996-8.671 8.516-11.546 15.945A12.143 12.143 0 0 0 2.981 67.6a14.163 14.163 0 0 0-2.557 8.142c0 7.737 6.156 14.031 13.724 14.031a13.45 13.45 0 0 0 8.04-2.67c4.22 1.818 9.676 2.67 17.073 2.67 7.396 0 12.853-.852 17.072-2.67a13.45 13.45 0 0 0 14.771.87 1.303 1.303 0 1 0-1.3-2.258 10.891 10.891 0 0 1-5.43 1.452c-6.13 0-11.118-5.125-11.118-11.425 0-6.3 4.987-11.425 11.118-11.425 6.13 0 11.118 5.125 11.118 11.425 0 2.511-.777 4.893-2.247 6.89a1.303 1.303 0 1 0 2.097 1.545 14.114 14.114 0 0 0 2.756-8.434c0-3.035-.95-5.845-2.558-8.143z"/></g><g><path fill="#242424" d="M14.148 81.51a5.774 5.774 0 0 1-5.768-5.768 5.774 5.774 0 0 1 5.768-5.768 5.774 5.774 0 0 1 5.766 5.768 5.774 5.774 0 0 1-5.766 5.767zm0-14.14c-4.618 0-8.373 3.755-8.373 8.372s3.756 8.373 8.373 8.373c4.616 0 8.372-3.756 8.372-8.373 0-4.617-3.756-8.372-8.372-8.372z"/></g><g><path fill="#242424" d="M64.374 81.51a5.774 5.774 0 0 1-5.767-5.768 5.774 5.774 0 0 1 5.767-5.768 5.774 5.774 0 0 1 5.767 5.768 5.774 5.774 0 0 1-5.767 5.767zm0-14.14c-4.617 0-8.372 3.755-8.372 8.372s3.756 8.373 8.372 8.373c4.617 0 8.373-3.756 8.373-8.373 0-4.617-3.756-8.372-8.373-8.372z"/></g></g></g></svg>