<?xml version="1.0" encoding="utf-8"?>
<!-- Generator: Adobe Illustrator 18.0.0, SVG Export Plug-In . SVG Version: 6.00 Build 0)  -->
<!DOCTYPE svg PUBLIC "-//W3C//DTD SVG 1.1//EN" "http://www.w3.org/Graphics/SVG/1.1/DTD/svg11.dtd">
<svg version="1.1" id="Layer_1" xmlns="http://www.w3.org/2000/svg" xmlns:xlink="http://www.w3.org/1999/xlink" x="0px" y="0px"
	 viewBox="0 0 216 98.8" style="enable-background:new 0 0 216 98.8;" xml:space="preserve">
<style type="text/css">
	.st0{fill-rule:evenodd;clip-rule:evenodd;fill:#EC008C;}
	.st1{fill:#AF1F2C;}
	.st2{clip-path:url(#SVGID_2_);fill:#AF1F2C;}
	.st3{clip-path:url(#SVGID_2_);fill:#F3D0B6;}
	.st4{clip-path:url(#SVGID_2_);fill:#FFFFFF;}
	.st5{clip-path:url(#SVGID_2_);fill:#272726;}
	.st6{fill-rule:evenodd;clip-rule:evenodd;fill:#610000;}
	.st7{clip-path:url(#SVGID_4_);fill:url(#SVGID_5_);}
	.st8{fill:#610000;}
	.st9{fill-rule:evenodd;clip-rule:evenodd;fill:#6A0000;}
	.st10{fill-rule:evenodd;clip-rule:evenodd;fill:#FFFFFF;}
	.st11{fill:#FFFFFF;}
	.st12{fill:none;stroke:#8C100E;stroke-width:0.216;stroke-miterlimit:22.9256;}
	.st13{fill:#414042;}
	.st14{fill:#E9C232;}
	.st15{fill-rule:evenodd;clip-rule:evenodd;fill:#8DC63F;}
	.st16{clip-path:url(#SVGID_7_);fill:url(#SVGID_8_);}
	.st17{clip-path:url(#SVGID_10_);fill:url(#SVGID_11_);}
	.st18{clip-path:url(#SVGID_13_);fill:url(#SVGID_14_);}
	.st19{clip-path:url(#SVGID_16_);}
	.st20{clip-path:url(#SVGID_18_);}
	.st21{clip-path:url(#SVGID_22_);fill:url(#SVGID_23_);}
	.st22{clip-path:url(#SVGID_25_);fill:url(#SVGID_26_);}
	.st23{clip-path:url(#SVGID_28_);fill:url(#SVGID_29_);}
	.st24{clip-path:url(#SVGID_31_);fill:url(#SVGID_32_);}
	.st25{fill:#818385;}
	.st26{clip-path:url(#SVGID_34_);fill:#FFFFFF;}
	.st27{fill:#008B63;}
	.st28{fill:#BA131A;}
	.st29{fill:none;stroke:#FFFFFF;stroke-width:0.5669;stroke-miterlimit:22.9256;}
	.st30{fill-rule:evenodd;clip-rule:evenodd;fill:#ED1C24;}
	.st31{fill-rule:evenodd;clip-rule:evenodd;fill:#00A651;}
	.st32{fill-rule:evenodd;clip-rule:evenodd;fill:none;}
	.st33{fill-rule:evenodd;clip-rule:evenodd;fill:#ED2690;}
	.st34{fill-rule:evenodd;clip-rule:evenodd;fill:#ED2891;}
	.st35{fill-rule:evenodd;clip-rule:evenodd;fill:#E52726;}
	.st36{fill-rule:evenodd;clip-rule:evenodd;fill:#19457B;}
	.st37{fill-rule:evenodd;clip-rule:evenodd;fill:#6D6D6D;}
	.st38{fill-rule:evenodd;clip-rule:evenodd;}
	.st39{fill:#ED2224;}
	.st40{fill:#434345;}
	.st41{fill-rule:evenodd;clip-rule:evenodd;fill:#008256;}
	.st42{fill-rule:evenodd;clip-rule:evenodd;fill:none;stroke:#FFFFFF;stroke-width:2.3661;stroke-miterlimit:22.9256;}
	.st43{fill-rule:evenodd;clip-rule:evenodd;fill:#837B17;}
	.st44{fill-rule:evenodd;clip-rule:evenodd;fill:none;stroke:#FFFFFF;stroke-width:0.705;stroke-miterlimit:22.9256;}
	.st45{fill-rule:evenodd;clip-rule:evenodd;fill:#EF3E33;}
	.st46{fill:#020303;}
</style>
<g>
	<polygon points="5.8,68.9 5.8,29.9 9.7,29.9 9.7,68.9 5.8,68.9 	"/>
	<path class="st38" d="M26.4,51.6v17.3h-3.9v-39h5.9c3,0,4.9,0,5.8,0.1c2.3,0.2,4.1,0.7,5.4,1.5c3,1.8,4.6,4.9,4.6,9.1
		c0,2.5-0.6,4.7-1.7,6.5c-1.2,1.8-2.8,3-4.9,3.7c-1.5,0.5-4.3,0.8-8.2,0.8H26.4L26.4,51.6z M26.4,33v15.5h3.2c3.5,0,5.9-0.4,7.2-1.1
		c2.3-1.3,3.4-3.5,3.4-6.6c0-3.6-1.3-6-3.9-7.1c-1.1-0.5-3.5-0.7-7.1-0.7H26.4L26.4,33z"/>
	<polygon points="52,68.9 52,29.9 72.8,29.9 72.8,33 55.8,33 55.8,46.4 72.8,46.4 72.8,49.5 55.8,49.5 55.8,65.8 72.8,65.8 
		72.8,68.9 52,68.9 	"/>
	<polygon points="83.5,68.9 83.5,29.9 87.3,29.9 87.3,47.3 103,29.9 108.1,29.9 92,47.6 109.2,68.9 104.5,68.9 87.3,47.6 87.3,68.9 
		83.5,68.9 	"/>
	<polygon points="124.2,68.9 124.2,52.6 110.9,29.9 115.2,29.9 126.4,48.7 137.7,29.9 142,29.9 128.1,52.6 128.1,68.9 124.2,68.9 	
		"/>
	<path class="st38" d="M163.3,29.3c5.7,0,10.6,2,14.6,5.9c4,3.9,6,8.6,6,14.2c0,5.7-2,10.4-6,14.3c-3.9,3.9-8.8,5.8-14.6,5.8
		c-5.7,0-10.5-1.9-14.5-5.8c-3.9-3.9-5.9-8.6-5.9-14.2c0-5.7,2-10.5,5.9-14.4C152.7,31.3,157.6,29.3,163.3,29.3L163.3,29.3z
		 M163.4,32.4c-4.8,0-8.7,1.6-11.9,4.9c-3.2,3.2-4.7,7.2-4.7,12.1c0,4.8,1.6,8.9,4.7,12.2c3.2,3.3,7.1,4.9,11.8,4.9
		c4.6,0,8.6-1.6,11.9-4.9c3.3-3.3,5-7.2,5-11.8c0-4.8-1.6-8.9-4.9-12.2C172,34.1,168.1,32.4,163.4,32.4L163.4,32.4z"/>
	<polygon points="193,68.9 193,29.9 196.9,29.9 196.9,65.8 210.2,65.8 210.2,68.9 193,68.9 	"/>
</g>
</svg>
