<svg xmlns="http://www.w3.org/2000/svg" width="196" height="31" viewBox="0 0 196 31"><g><g><g><path fill="#0e0e0e" d="M89.357 25.244c-1.173.196-2.542 0-3.52-.586-1.173-.782-2.15-2.15-2.15-3.52v-.977c.195-1.565 1.368-3.129 3.128-3.52 1.955 2.151 4.106 4.497 6.061 6.648-.977 1.173-2.15 1.76-3.52 1.955zm9.19-2.737c0-.978.195-1.76.39-2.737.392-1.174.978-2.151 1.956-2.738.196 0 .391-.195.587-.195v-.587-.782-1.369-1.564-.391c-1.369 0-2.738.391-3.91.978-1.76.977-3.13 2.737-3.52 4.692-2.542-2.737-5.084-5.67-7.822-8.407-.586-.587-.782-1.565-.782-2.347.196-.977.782-1.76 1.565-2.15.586-.392 1.173-.392 1.76-.196.977.195 1.76.782 2.15 1.76 1.369-.782 2.933-1.37 4.302-2.151-.196-.391-.587-.978-.782-1.369A6.966 6.966 0 0 0 88.184.021c-2.738 0-5.475 1.564-6.844 3.91-.782 1.565-1.173 3.325-.782 4.889.196 1.564.978 3.128 2.15 4.106-1.368.782-2.345 1.76-3.128 3.129-.977 1.564-1.368 3.128-1.368 4.888 0 1.76.586 3.324 1.368 4.888 1.37 2.15 3.715 3.715 6.062 4.302 1.369.195 2.542.195 3.91 0 2.151-.391 4.302-1.565 5.866-3.129.587.782 1.369 1.369 1.956 2.151h6.648c-1.37-2.15-3.52-4.497-5.475-6.648z"/></g><g><path fill="#0e0e0e" d="M11.145 15.664c-.782.977-1.955 1.368-3.128 1.564H5.475V5.496c.977 0 1.955 0 2.933.196 1.173.195 2.346.977 3.128 1.955 1.76 1.955 1.564 5.866-.39 8.017zm6.257-7.04c-.586-2.346-1.955-4.692-3.91-6.061C11.536 1.194 9.19.413 6.844.413H0c.196 9.58.196 19.161.196 28.742h5.083V21.92c1.173 0 2.542 0 3.715-.195 1.956-.196 3.91-1.173 5.28-2.542 1.955-1.76 3.128-4.302 3.52-7.039 0-1.173 0-2.346-.392-3.52z"/></g><g><path fill="#0e0e0e" d="M37.933.412h5.083v19.162c-.195 1.76-.586 3.52-1.564 4.888-.977 1.565-2.15 2.933-3.715 3.715-1.76.978-3.715 1.37-5.866 1.37-2.15 0-4.497-.587-6.452-1.76-1.76-1.174-3.324-2.934-4.106-4.889-.587-1.564-.978-3.324-.978-5.084V.412h5.28v17.793c0 1.76.39 3.52 1.564 4.693a4.815 4.815 0 0 0 3.715 1.76c1.368.195 2.933 0 4.301-.782.978-.587 1.76-1.76 2.151-2.738.196-.782.391-1.564.391-2.542V12.34c.196-3.911.196-7.822.196-11.928z"/></g><g><path fill="#0e0e0e" d="M62.765.412h5.084v23.855h8.798v4.888H62.57c.196-9.58.196-19.162.196-28.743z"/></g><g><path fill="#0e0e0e" d="M118.882 23.29c-.587.586-1.564.781-2.347.977-1.564.195-3.128.195-4.692.195v-7.43h3.52c1.172 0 2.346.196 3.323.978.587.391 1.173 1.173 1.173 1.955v1.564c-.195.587-.586 1.37-.977 1.76zm-7.04-18.185c1.174 0 2.347 0 3.52.195.782.196 1.565.392 2.151 1.174.587.586.782 1.368.587 2.346 0 .978-.196 1.76-.978 2.542-.782.586-1.76.978-2.737.978h-2.738c.196-2.542.196-4.889.196-7.235zm12.515 11.927a9.035 9.035 0 0 0-3.324-3.324c.977-.977 1.76-2.15 2.15-3.52.196-.977.196-1.955 0-3.128-.195-.977-.586-1.955-1.173-2.737-.782-1.173-1.955-2.151-3.324-2.738-.977-.586-2.15-.782-3.324-.782-.782 0-1.368-.195-2.15-.195h-6.649V29.35h9.777c2.346-.196 4.693-1.174 6.257-2.738 1.369-1.173 2.15-2.933 2.346-4.693.391-1.76.196-3.52-.586-4.888z"/></g><g><path fill="#0e0e0e" d="M127.876.412h17.598V5.3H132.96v6.844h11.927v4.693H132.96v7.43h12.514v4.888h-17.598V.412z"/></g><g><path fill="#0e0e0e" d="M157.206 16.837c1.173-2.933 2.346-5.866 3.52-8.604 1.172 2.933 2.345 5.866 3.519 8.604h-7.04zm5.67-16.23c0-.195-.196-.195-.391-.195h-3.91l-11.732 28.743h5.474c.978-2.542 1.956-4.888 2.933-7.43h10.559c.978 2.542 1.955 5.084 2.933 7.43h5.866c-3.715-9.58-7.821-19.162-11.732-28.547z"/></g><g><path fill="#0e0e0e" d="M188.686 11.166c-.196.978-.978 1.76-1.76 2.347-1.173.782-2.737.977-4.106.977h-1.564V5.496c1.564 0 2.933 0 4.497.391.586.196 1.173.391 1.76.782.586.391 1.173 1.173 1.368 1.955 0 .783 0 1.76-.195 2.542zm4.301 13.296l-3.52-7.039c.783-.39 1.565-.977 2.347-1.76.782-.782 1.369-1.955 1.76-3.128.782-2.542.782-5.475-.587-7.821a7.892 7.892 0 0 0-2.541-2.542 12.163 12.163 0 0 0-5.084-1.76c-.587 0-1.369-.195-1.956-.195h-7.43V28.96h5.084v-9.581h1.955c.392 0 .783-.196 1.37-.196.195.391.39.978.586 1.369 1.368 2.933 2.737 5.67 4.301 8.408h6.453c-.978-1.37-1.955-2.933-2.738-4.498z"/></g><g><path fill="#0e0e0e" d="M46.732.412h5.083v23.855h8.8v4.888H46.535c0-9.58.196-19.162.196-28.743z"/></g></g></g></svg>