<svg xmlns="http://www.w3.org/2000/svg" width="98" height="31" viewBox="0 0 98 31"><g><g><g><path d="M38.7 3.25a4.187 4.187 0 0 1 1.218 2.985v19.069a4.418 4.418 0 0 1-1.218 3.031 4.075 4.075 0 0 1-2.955 1.264 4.136 4.136 0 0 1-2.955-1.264 4.336 4.336 0 0 1-1.233-3.031V6.234A4.2 4.2 0 0 1 32.79 3.25a4.165 4.165 0 0 1 2.955-1.233c1.081 0 2.148.411 2.955 1.233zm-7.555-1.402c-1.431.762-2.71 1.874-3.792 3.244-1.082 1.371-1.95 3-2.559 4.813a18.53 18.53 0 0 0-.944 5.895c0 2.086.335 4.082.944 5.894.61 1.813 1.477 3.442 2.559 4.813 1.081 1.371 2.36 2.483 3.792 3.244 1.432.762 2.986 1.188 4.63 1.188 1.615 0 3.169-.426 4.585-1.188 1.417-.761 2.68-1.873 3.762-3.244 1.066-1.37 1.934-3 2.544-4.813a18.53 18.53 0 0 0 .944-5.894c0-2.087-.335-4.082-.944-5.895-.594-1.812-1.462-3.442-2.544-4.813-1.066-1.37-2.345-2.482-3.762-3.244C38.944 1.087 37.39.66 35.776.66c-1.63 0-3.199.427-4.63 1.188z"/></g><g><path d="M88.627 3.25a4.187 4.187 0 0 1 1.219 2.985v19.069a4.418 4.418 0 0 1-1.219 3.031 4.075 4.075 0 0 1-2.955 1.264 4.136 4.136 0 0 1-2.954-1.264 4.335 4.335 0 0 1-1.234-3.031V6.234a4.2 4.2 0 0 1 1.234-2.985 4.165 4.165 0 0 1 2.954-1.233 4.14 4.14 0 0 1 2.955 1.233zm-7.554-1.402c-1.432.762-2.712 1.874-3.793 3.244-1.081 1.371-1.95 3-2.559 4.813a18.53 18.53 0 0 0-.944 5.895c0 2.086.335 4.082.944 5.894.61 1.813 1.478 3.442 2.56 4.813 1.08 1.371 2.36 2.483 3.792 3.244 1.431.762 2.985 1.188 4.63 1.188 1.614 0 3.168-.426 4.584-1.188 1.417-.761 2.681-1.873 3.762-3.244 1.067-1.37 1.935-3 2.544-4.813a18.53 18.53 0 0 0 .944-5.894 18.53 18.53 0 0 0-.944-5.895c-.594-1.812-1.462-3.442-2.544-4.813-1.066-1.37-2.345-2.482-3.762-3.244C88.871 1.087 87.317.66 85.703.66c-1.63 0-3.199.427-4.63 1.188z"/></g><g><path d="M50.2 1.04h11.727v1.585h-2.924v26.38h5.376c2.209 0 3.519-1.69 4.296-3.731.822-2.179 1.035-4.768 1.066-6.139h1.325V30.59H50.199v-1.584h2.925V2.625h-2.925V1.041z"/></g><g><path d="M15.594 8.9c0 .716-.091 1.432-.259 2.117-.167.7-.426 1.371-.776 1.98-.35.61-.808 1.127-1.371 1.493-.564.365-1.249.579-2.056.579H8.756V2.64h2.376c.853 0 1.569.213 2.147.579.58.366 1.036.883 1.386 1.493.335.609.58 1.31.731 2.025.153.701.214 1.417.198 2.163zM-.048 29.005v1.584H11.68v-1.584H8.756V16.653h4.935a9.065 9.065 0 0 0 3.472-.7 8.516 8.516 0 0 0 2.59-1.676 7.645 7.645 0 0 0 1.751-2.437 7.227 7.227 0 0 0 0-5.97 7.445 7.445 0 0 0-.746-1.31 7.834 7.834 0 0 0-.99-1.143 8.46 8.46 0 0 0-2.59-1.69 9.107 9.107 0 0 0-3.472-.686H-.048v1.584h2.925v26.38H-.048z"/></g></g></g></svg>