<svg xmlns="http://www.w3.org/2000/svg" width="189" height="31" viewBox="0 0 189 31"><g><g><path fill="#242424" d="M129.998 13.56c3.67 1.205 6.766 3.957 6.766 8.085 0 4.128-4.186 8.83-12.155 8.83-7.97 0-12.212-4.587-12.212-4.587s1.605-3.784 3.382-4.243c1.778-.459 2.064.975 5.791 1.95 3.727.917 5.504.343 6.594-.115 1.146-.459 1.433-2.294-.23-3.383-1.662-1.09-8.543-3.039-8.543-3.039-6.593-2.694-6.249-6.823-6.249-6.823 0-4.414 3.21-9.116 11.123-9.46 7.912-.344 11.065 2.752 11.065 2.752s-.516 1.95-1.089 3.039c-.573 1.09-1.032 1.605-2.007 1.605-.974 0-2.81-.86-4.644-1.204s-6.708-.458-6.708 1.95 5.504 3.497 9.116 4.644zM64.293 8.918c-1.835 1.548-3.039 3.956-3.153 6.765 0 2.695 1.146 5.103 2.98 6.651 3.556 3.497 9.346 1.204 11.296 1.49.516.115.917.46 1.204.918 0 0 .115.172.23.459a8.7 8.7 0 0 1 .515 1.605c.23.63.344 1.433.459 2.293 0 0-5.848 2.523-10.836 1.663-.975-.057-1.95-.23-2.867-.516-1.261-.344-2.408-.86-3.497-1.49a13.157 13.157 0 0 1-2.982-2.351c-.917-.918-1.663-1.95-2.293-3.039-.63-1.147-1.147-2.35-1.49-3.612a15.726 15.726 0 0 1-.517-4.013c0-1.376.172-2.753.516-4.014a14.5 14.5 0 0 1 1.49-3.612c.631-1.09 1.434-2.121 2.294-3.039.917-.917 1.892-1.72 2.982-2.35 1.089-.631 2.236-1.147 3.497-1.491.688-.172 1.376-.287 2.121-.401.23-.058.459-.115.746-.115 5.16-.287 10.836 1.835 10.836 1.835s-.172.745-.401 1.72c0 .172-.058.344-.115.516l-.172.516v.057l-.172.516v.057l-.172.516a1.845 1.845 0 0 1-.459.746l-.172.172c-.114.114-.286.172-.401.229a1.063 1.063 0 0 1-.402.115c-.516.114-1.089-.058-1.26-.115a7.028 7.028 0 0 0-.918-.23c-.058-.057-.115-.057-.172-.057-.115 0-.172-.057-.287-.057l-.459-.115c-.229 0-.4-.057-.63-.057h-.23c-3.898-.344-5.848.917-7.11 1.835zm37.84 6.708c0-4.587-3.382-8.314-7.567-8.314-4.186 0-7.569 3.727-7.569 8.314s3.383 8.313 7.569 8.313c4.185 0 7.568-3.726 7.568-8.313zm6.652-3.956c.344 1.318.516 2.637.516 4.013s-.172 2.752-.516 4.014a14.5 14.5 0 0 1-1.491 3.612c-.63 1.089-1.434 2.121-2.294 3.038-.917.918-1.892 1.72-2.98 2.351-1.09.63-2.237 1.147-3.498 1.49-1.262.345-2.58.517-3.9.517-1.375 0-2.636-.172-3.898-.516-1.261-.344-2.408-.86-3.497-1.49a13.157 13.157 0 0 1-2.982-2.352c-.917-.917-1.662-1.949-2.293-3.038-.63-1.147-1.147-2.351-1.49-3.612a15.726 15.726 0 0 1-.517-4.014c0-1.376.172-2.752.516-4.013a14.5 14.5 0 0 1 1.491-3.612c.63-1.09 1.433-2.122 2.293-3.039.918-.917 1.892-1.72 2.982-2.35 1.09-.631 2.236-1.147 3.497-1.491A14.856 14.856 0 0 1 94.623.66c1.376 0 2.637.172 3.899.516 1.261.344 2.408.86 3.497 1.49 1.09.63 2.121 1.434 2.981 2.351.918.917 1.663 1.95 2.294 3.039.63 1.09 1.09 2.293 1.49 3.612zm-67.54 5.848L37.46 7.77l-3.612 9.747zM42.39 1.52c.746.573 1.204 2.006 1.204 2.006l8.486 26.546h-6.995c-.115-.459-2.179-6.421-2.179-6.421H32.014L30.58 27.78c-.23.63-.63 1.204-.974 1.605-.574.573-1.606.63-2.007.63H22.38L33.161.948h6.42s2.065.058 2.81.574zm146.605 25.57s.114 1.32-.803 2.294c-.172.172-.688.86-2.924.86h-16.57V1.12h20.296v3.899s.058 1.147-.63 1.835c-.803.802-2.924.688-2.924.688h-9.346v4.357h10.722v6.766h-10.722v4.93h12.9v3.498zM164.284.89v4.53s.058 1.318-1.032 1.777c-1.318.516-2.637.458-2.637.458h-5.332v22.762h-7.11V7.655h-9.116V3.298s-.115-1.032.918-1.777c.974-.688 2.465-.631 2.465-.631zM18.081 24.11c.86.803.746 1.72.746 1.72v4.587H.709V.947h3.555s2.006-.114 2.924.574c.917.63.917 2.58.917 2.58v19.493h7.798s1.662-.057 2.178.516z"/></g></g></svg>