<svg xmlns="http://www.w3.org/2000/svg" width="91" height="90" viewBox="0 0 91 90"><g><g><g><g><g><path fill="#242424" d="M64.54 84.323c-.934 1.49-2.45 2.336-3.863 2.154-1.108-.142-2.212-.907-3.188-2.21-2.875-3.832-6.646-11.597-10.293-19.108-3.332-6.86-6.48-13.34-9.054-17.148a1.712 1.712 0 0 0-2.35-.48c-1.151.744-3.96 2.42-6.18 3.934-.101.07-.16.076-.249.065-1.176.609-1.25-.285-3.236-2.98C22.93 44.212 13.901 18.72 11.29 10.347c-1.013-3.247.066-1.457.86-.436 8.58 11.038 49.418 65.054 52.571 69.886 1 1.531.563 3.343-.18 4.527zm3.052-6.402c-3.246-4.974-50.766-67.54-57.89-76.128C8.715.6 7.537.974 7.096 1.41c-.766.755-1.226 1.857.378 8.46.961 3.957 8.46 26.014 11.017 32.35 5.2 12.893 8.528 12.467 10.435 12.713a3.733 3.733 0 0 0 2.62-.634c2.132-1.455 2.844-1.88 3.667-2.371.29-.172.598-.357.984-.594 2.305 3.777 5.15 9.637 7.914 15.326 3.717 7.655 7.562 15.571 10.634 19.668 1.953 2.604 4.066 3.37 5.495 3.553 2.734.352 5.562-1.113 7.206-3.733 1.668-2.659 1.724-5.811.147-8.226z"/></g></g></g><g><g><g><path fill="#242424" d="M70.993 34.983c-1.127 1.092-3.042 1.63-5.125 1.435-2.407-.224-4.72-1.364-6.51-3.208-3.506-3.613-5.892-8.779-2.26-12.579l14.12 14.132-.225.22zM90.11 18.331a1.714 1.714 0 0 0-2.424-.036c-4.377 4.246-8.46 8.387-11.74 11.715-.837.85-1.605 1.629-2.3 2.33l-3.234-3.236 13.666-13.26a1.715 1.715 0 0 0-2.389-2.461L67.988 26.678l-3.045-3.047 13.748-13.34a1.714 1.714 0 1 0-2.388-2.46L62.519 21.205l-2.965-2.968L74.449 3.783a1.713 1.713 0 1 0-2.388-2.46L54.92 17.955c-4.382 4.25-4.043 10.493.73 16.25L45.9 43.81a1.714 1.714 0 1 0 2.39 2.46l9.756-9.61c1.92 1.6 4.192 2.659 6.578 3.055.307.052.617.091.928.12 3.114.29 5.967-.581 7.83-2.39 1.19-1.153 2.874-2.862 5.008-5.026 3.268-3.315 7.335-7.44 11.685-11.66.68-.661.696-1.747.037-2.427z"/></g></g></g><g><g><g><path fill="#242424" d="M38.152 59.431a1.714 1.714 0 0 0-2.421.143c-6.9 7.764-19.423 21.48-23.648 25.227-2.1 1.863-5.409 1.112-7.18-.76-1.853-1.957-1.574-4.436.766-6.802 5.942-6.005 14.696-12.881 21.298-17.86a1.715 1.715 0 0 0-2.065-2.74C18.215 61.684 9.33 68.664 3.232 74.827c-4.442 4.49-3.218 9.04-.82 11.572 1.356 1.43 3.275 2.46 5.313 2.798 2.268.377 4.684-.1 6.634-1.83 4.883-4.331 18.934-19.888 23.935-25.516a1.713 1.713 0 0 0-.142-2.419z"/></g></g></g></g></g></svg>