<?xml version="1.0" encoding="iso-8859-1"?>
<!-- Generator: Adobe Illustrator 19.0.0, SVG Export Plug-In . SVG Version: 6.00 Build 0)  -->
<svg version="1.1" id="Capa_1" xmlns="http://www.w3.org/2000/svg" xmlns:xlink="http://www.w3.org/1999/xlink" x="0px" y="0px"
	 viewBox="0 0 512 512" style="enable-background:new 0 0 512 512;" xml:space="preserve">
<g>
	<g>
		<path d="M502,204h-54.132c5.786-7.967,9.211-17.755,9.211-28.333v-13.333c0-15.072-12.262-27.333-27.333-27.333h-57.333
			c-15.071,0-27.333,12.262-27.333,27.333v13.333c0,0.074,0.005,0.148,0.006,0.222c0,0.038-0.006,0.074-0.006,0.112
			c0,0.114,0.013,0.224,0.017,0.336c0.142,10.32,3.531,19.865,9.194,27.664H134V93.62c0-11.451-7.489-21.18-17.825-24.561V53.176
			C116.175,42.602,107.573,34,97,34H71c-10.574,0-19.176,8.602-19.176,19.176V69.06C41.489,72.44,34,82.169,34,93.62V204H10
			c-5.523,0-10,4.477-10,10v80v188c0,16.542,13.458,30,30,30s30-13.458,30-30V304h263.5c5.523,0,10-4.478,10-10
			c0-5.522-4.477-10-10-10H266v-60h127.412h15.333H492v60h-30h-65.25c-5.523,0-10,4.478-10,10c0,5.522,4.477,10,10,10H452v178
			c0,16.542,13.458,30,30,30s30-13.458,30-30V294v-80C512,208.477,507.523,204,502,204z M71.825,54h24.351v13.781H71.825V54z
			 M54,93.62c0-3.22,2.62-5.839,5.839-5.839h1.985h44.351h1.985c3.22,0,5.839,2.62,5.839,5.839V204H54V93.62z M40,482
			c0,5.514-4.486,10-10,10s-10-4.486-10-10V304h20V482z M246,284H20v-60h226V284z M408.746,204h-15.334
			c-11.977,0-22.235-7.474-26.373-18h68.081C430.981,196.526,420.723,204,408.746,204z M437.078,166h-72v-3.667
			c0.001-4.043,3.291-7.333,7.334-7.333h57.333c4.044,0,7.333,3.29,7.333,7.333V166z M492,482c0,5.514-4.486,10-10,10
			c-5.514,0-10-4.486-10-10V304h20V482z"/>
	</g>
</g>
<g>
	<g>
		<path d="M369.9,286.93c-1.86-1.86-4.44-2.93-7.07-2.93s-5.21,1.069-7.07,2.93c-1.86,1.861-2.93,4.44-2.93,7.07
			s1.07,5.21,2.93,7.069c1.86,1.86,4.44,2.931,7.07,2.931s5.21-1.07,7.07-2.931c1.86-1.859,2.93-4.439,2.93-7.069
			S371.76,288.79,369.9,286.93z"/>
	</g>
</g>
<g>
	<g>
		<path d="M387.5,246h-17c-5.523,0-10,4.477-10,10c0,5.522,4.477,10,10,10h17c5.523,0,10-4.478,10-10
			C397.5,250.477,393.023,246,387.5,246z"/>
	</g>
</g>
<g>
	<g>
		<path d="M141.5,246h-17c-5.523,0-10,4.477-10,10c0,5.522,4.477,10,10,10h17c5.523,0,10-4.478,10-10
			C151.5,250.477,147.023,246,141.5,246z"/>
	</g>
</g>
<g>
	<g>
		<path d="M328,348H184c-18.748,0-34,15.252-34,34c0,15.269,10.118,28.217,24,32.497V502c0,5.522,4.477,10,10,10s10-4.478,10-10v-86
			h124v22h-62c-5.523,0-10,4.478-10,10c0,5.522,4.477,10,10,10h62v44c0,5.522,4.477,10,10,10s10-4.478,10-10v-87.503
			c13.882-4.281,24-17.228,24-32.497C362,363.252,346.748,348,328,348z M328,396H184c-7.72,0-14-6.28-14-14c0-7.72,6.28-14,14-14
			h144c7.72,0,14,6.28,14,14C342,389.72,335.72,396,328,396z"/>
	</g>
</g>
<g>
	<g>
		<path d="M225.74,440.93c-1.87-1.861-4.44-2.93-7.07-2.93c-2.64,0-5.21,1.069-7.07,2.93c-1.87,1.86-2.93,4.44-2.93,7.07
			s1.06,5.21,2.93,7.069c1.86,1.86,4.44,2.931,7.07,2.931s5.2-1.07,7.07-2.931c1.86-1.859,2.93-4.439,2.93-7.069
			S227.6,442.79,225.74,440.93z"/>
	</g>
</g>
<g>
	<g>
		<path d="M256,0c-47.42,0-86,38.58-86,86v16c0,47.42,38.58,86,86,86s86-38.58,86-86V86C342,38.58,303.42,0,256,0z M322,102
			c0,36.393-29.607,66-66,66c-8.054,0-15.774-1.456-22.916-4.109l49.82-49.82c3.905-3.905,3.905-10.237,0-14.142
			c-3.906-3.906-10.237-3.904-14.142,0l-53.747,53.747C199.79,141.574,190,122.915,190,102V86c0-36.393,29.607-66,66-66
			s66,29.607,66,66V102z"/>
	</g>
</g>
<g>
	<g>
		<path d="M282.05,40.618c-3.905-3.905-10.237-3.905-14.142,0l-45.472,45.471c-3.905,3.905-3.905,10.237,0,14.142
			c1.953,1.953,4.511,2.929,7.071,2.929c2.559,0,5.119-0.977,7.071-2.929L282.05,54.76C285.955,50.855,285.955,44.523,282.05,40.618
			z"/>
	</g>
</g>
<g>
</g>
<g>
</g>
<g>
</g>
<g>
</g>
<g>
</g>
<g>
</g>
<g>
</g>
<g>
</g>
<g>
</g>
<g>
</g>
<g>
</g>
<g>
</g>
<g>
</g>
<g>
</g>
<g>
</g>
</svg>
