<svg xmlns="http://www.w3.org/2000/svg" width="65" height="95" viewBox="0 0 65 95"><g><g><path fill="#242424" d="M27.133 85.458l4.02-23.754h2.606l4.02 23.754-5.322 5.856zM25.54 56.856l-4.083-8.184 3.943-1.527 5.045 6.227-4.905 3.484zm-3.76-38.412c5.447.392 11.35-1.196 16.189-4.358a2.471 2.471 0 0 1 3.155.385c4.385 4.714 4.373 4.455 4.373 5.796.43.038.849.119 1.252.242v-3.342c0-7.96-6.476-14.436-14.436-14.436S17.876 9.207 17.876 17.167v3.437a6.866 6.866 0 0 1 1.327-.3 2.47 2.47 0 0 1 2.576-1.86zm-2.65 4.691c-1.455.336-2.686 1.545-2.686 3.03 0 1.503 1.071 2.838 2.686 3.1zm29.052 3.03c0-1.516-1.089-2.84-2.685-3.1v6.2a3.235 3.235 0 0 0 1.604-.738 3.112 3.112 0 0 0 1.081-2.362zM32.457 51.431l5.219-6.442v-2.698a13.04 13.04 0 0 1-5.195 1.083c-1.762 0-3.565-.316-5.253-.996v2.6zm0 3.92l-2.791 1.981 1.059 1.594h3.463l1.06-1.594zm7.05-8.209l-5.044 6.226c2.646 1.878 4.81 3.416 4.911 3.488l4.084-8.184zM63.03 76.78a1.39 1.39 0 0 1 1.39 1.389v13.059a3.55 3.55 0 0 1-3.546 3.545H23.766a1.389 1.389 0 0 1 0-2.778h5.555l-4.36-4.797a2.49 2.49 0 0 1-.594-2.04l4.152-24.532-1.118-1.684c-.628.446-1.1.862-1.99.862a2.432 2.432 0 0 1-2.176-1.346l-4.38-8.779-9.97 3.865c-.325.139-5.601 2.494-5.601 8.748v28.936c0 .423.344.767.767.767h7.467V64.642a1.389 1.389 0 0 1 2.777 0v27.352h2.989a1.389 1.389 0 0 1 0 2.778H4.05a3.549 3.549 0 0 1-3.545-3.545V62.291c0-8.212 7.032-11.197 7.331-11.32a1.43 1.43 0 0 1 .026-.01l16.589-6.432V40.84a12.877 12.877 0 0 1-5.207-8.767 6.01 6.01 0 0 1-3.53-1.44 5.886 5.886 0 0 1-2.049-4.468c0-1.372.505-2.666 1.433-3.718v-5.28c0-9.492 7.722-17.214 17.214-17.214 9.492 0 17.214 7.722 17.214 17.214v5.145a5.888 5.888 0 0 1 1.433 3.853c0 1.72-.746 3.349-2.048 4.468a6.012 6.012 0 0 1-3.532 1.44 13.015 13.015 0 0 1-4.925 8.562v3.894l16.606 6.432a.676.676 0 0 1 .027.01c.299.123 7.33 3.108 7.33 11.32v9.396a1.389 1.389 0 0 1-2.777 0v-9.395c0-6.233-5.242-8.594-5.603-8.748l-9.978-3.865-4.38 8.779a2.432 2.432 0 0 1-2.177 1.346c-.893 0-1.37-.423-1.988-.862l-1.119 1.684 4.153 24.532.006.043a2.49 2.49 0 0 1-.6 1.997l-4.36 4.797h15.035V64.642a1.389 1.389 0 0 1 2.777 0v27.353h7.467a.768.768 0 0 0 .767-.767v-13.06c0-.766.622-1.388 1.389-1.388z"/></g></g></svg>