<svg xmlns="http://www.w3.org/2000/svg" width="90" height="90" viewBox="0 0 90 90"><g><g><g><g><g><path fill="#242424" d="M61.142 56.612a1.482 1.482 0 1 0-2.766 1.061c1.351 3.526 1.449 6.223.266 7.409-1.434 1.43-5.006.983-9.558-1.195a63.378 63.378 0 0 1-16.401-12.239C21.077 40.041 16.288 28.651 19.25 25.69a4.048 4.048 0 0 1 3.351-.782 1.482 1.482 0 0 0 .288-2.949 6.823 6.823 0 0 0-5.734 1.63c-5.43 5.427 2.87 19.585 13.433 30.15a66.267 66.267 0 0 0 17.217 12.815 29.19 29.19 0 0 0 3.574 1.43l-10.527 3.991a41.94 41.94 0 0 1-26.523-32.662 1.482 1.482 0 0 0-2.928.46c.233 1.48.544 2.962.925 4.412a44.977 44.977 0 0 0 24.522 29.305l-17.327 6.556a1.455 1.455 0 0 0-.296-.352 20.645 20.645 0 0 1-7.646-14.348l-.687-8.325a1.464 1.464 0 0 0-1.56-1.363l-.045.004a1.482 1.482 0 0 0-1.359 1.605l.7 8.322a23.603 23.603 0 0 0 7.84 15.61l-12.361 4.68 2.222-9.122a1.482 1.482 0 1 0-2.88-.702L.559 87.907a1.482 1.482 0 0 0 1.964 1.738l54.823-20.744c.087-.042.17-.094.246-.154a5.756 5.756 0 0 0 3.146-1.569c1.468-1.468 2.732-4.495.404-10.566z"/></g></g></g><g><g><g><path fill="#242424" d="M75.125 52.79a48.793 48.793 0 0 0-25.105-2.437l-5.294.89a1.482 1.482 0 0 0 .489 2.921l5.293-.881a45.796 45.796 0 0 1 23.577 2.29c.166.06.343.09.52.088a1.482 1.482 0 0 0 .52-2.87z"/></g></g></g><g><g><g><path fill="#242424" d="M80.392 29.835a1.482 1.482 0 0 0-1.975-.701L47.301 43.951a1.482 1.482 0 0 0 1.274 2.676L79.691 31.81a1.482 1.482 0 0 0 .701-1.975z"/></g></g></g><g><g><g><path fill="#242424" d="M36.501 10.894a1.482 1.482 0 1 0-2.892.643 41.447 41.447 0 0 1-2.212 25.054l-2.155 5.17a1.482 1.482 0 0 0 1.365 2.046c.598 0 1.137-.359 1.368-.91l2.155-5.165a44.392 44.392 0 0 0 2.371-26.838z"/></g></g></g><g><g><g><path fill="#242424" d="M82.013 60.106a1.482 1.482 0 1 1 0-2.964 1.482 1.482 0 0 1 0 2.964zm0-5.927a4.445 4.445 0 1 0 0 8.89 4.445 4.445 0 0 0 0-8.89z"/></g></g></g><g><g><g><path fill="#242424" d="M46.452 18.618a1.482 1.482 0 1 1 0-2.963 1.482 1.482 0 0 1 0 2.963zm0-5.926a4.445 4.445 0 1 0 0 8.89 4.445 4.445 0 0 0 0-8.89z"/></g></g></g><g><g><g><path fill="#242424" d="M30.153 3.801a2.963 2.963 0 1 1 5.927 0 2.963 2.963 0 0 1-5.927 0z"/></g></g></g><g><g><g><path fill="#242424" d="M74.605 8.246c-.819 0-1.482.664-1.482 1.482v1.482a1.482 1.482 0 0 0 2.963 0V9.728c0-.818-.663-1.482-1.481-1.482z"/></g></g></g><g><g><g><path fill="#242424" d="M74.605.838c-.819 0-1.482.663-1.482 1.482V3.8a1.482 1.482 0 0 0 2.963 0V2.32c0-.819-.663-1.482-1.481-1.482z"/></g></g></g><g><g><g><path fill="#242424" d="M79.05 5.283h-1.482a1.482 1.482 0 0 0 0 2.963h1.482a1.482 1.482 0 0 0 0-2.963z"/></g></g></g><g><g><g><path fill="#242424" d="M71.641 5.283H70.16a1.482 1.482 0 0 0 0 2.963h1.482a1.482 1.482 0 0 0 0-2.963z"/></g></g></g><g><g><g><path fill="#242424" d="M62.751 24.545h-4.476V20.07h4.476zm1.482-7.44h-7.44c-.818 0-1.482.664-1.482 1.482v7.44c0 .818.664 1.482 1.482 1.482h7.44c.818 0 1.481-.664 1.481-1.482v-7.44c0-.818-.663-1.481-1.481-1.481z"/></g></g></g><g><g><g><path fill="#242424" d="M53.439 29.478a1.482 1.482 0 0 0-2.051-.107L36.57 42.706a1.482 1.482 0 0 0 1.982 2.202L53.37 31.573c.598-.56.628-1.497.069-2.095z"/></g></g></g><g><g><g><path fill="#242424" d="M80.531 34.917c-.818 0-1.481.663-1.481 1.482v1.481a1.482 1.482 0 0 0 2.963 0V36.4c0-.819-.663-1.482-1.482-1.482z"/></g></g></g><g><g><g><path fill="#242424" d="M86.818 34.662l-1.047-1.047a1.482 1.482 0 0 0-2.095 2.095l1.047 1.047a1.482 1.482 0 0 0 2.095-2.095z"/></g></g></g><g><g><g><path fill="#242424" d="M87.94 28.99h-1.482a1.482 1.482 0 0 0 0 2.964h1.482a1.482 1.482 0 0 0 0-2.964z"/></g></g></g><g><g><g><path fill="#242424" d="M86.782 24.187a1.482 1.482 0 0 0-2.059 0l-1.047 1.047a1.482 1.482 0 0 0 1.047 2.53c.393 0 .77-.157 1.048-.435l1.047-1.047a1.482 1.482 0 0 0-.036-2.095z"/></g></g></g><g><g><g><path fill="#242424" d="M80.531 21.582c-.818 0-1.481.663-1.481 1.481v1.482a1.482 1.482 0 0 0 2.963 0v-1.482c0-.818-.663-1.481-1.482-1.481z"/></g></g></g><g><g><g><path fill="#242424" d="M77.387 25.234l-1.047-1.047a1.482 1.482 0 0 0-2.095 2.095l1.047 1.047a1.482 1.482 0 0 0 2.095-2.095z"/></g></g></g><g><g><g><path fill="#242424" d="M12.077 10.253c-.35.34-.509.83-.427 1.31l.367 2.14-1.918-1.011a1.482 1.482 0 0 0-1.378 0l-1.927 1.01.368-2.141a1.481 1.481 0 0 0-.42-1.308L5.186 8.737l2.15-.313c.483-.07.9-.373 1.116-.81l.959-1.946.96 1.946c.215.437.632.74 1.114.81l2.148.313zm6.15-3.008a1.482 1.482 0 0 0-1.196-1.008l-4.348-.632-1.94-3.94a1.542 1.542 0 0 0-2.658 0l-1.948 3.94-4.35.632a1.482 1.482 0 0 0-.823 2.527L4.11 11.83l-.741 4.33A1.482 1.482 0 0 0 5.52 17.73l3.89-2.05 3.89 2.044a1.482 1.482 0 0 0 2.149-1.561l-.74-4.331 3.146-3.067c.403-.395.547-.983.372-1.52z"/></g></g></g><g><g><g><path fill="#242424" d="M81.579 82.2a2.963 2.963 0 1 1-5.189-2.864l.013-.024a5.552 5.552 0 0 1 4.013-2.61c.257-.008.512.051.74.171 1.251.698 1.318 3.723.423 5.327z"/></g></g></g></g></g></svg>