<svg xmlns="http://www.w3.org/2000/svg" width="88" height="84" viewBox="0 0 88 84"><g><g><g><path fill="#242424" d="M45.619 57.446L26.665 68.421v-.006l.063-21.945zm-18.92 13.895a2.97 2.97 0 0 0 1.495-.402l18.891-10.97a2.897 2.897 0 0 0 1.46-2.525 2.898 2.898 0 0 0-1.46-2.527l-18.891-10.97a2.989 2.989 0 0 0-2.978-.005 2.89 2.89 0 0 0-1.468 2.53v21.943a2.89 2.89 0 0 0 1.47 2.53c.457.265.97.396 1.482.396z"/></g><g><path fill="#242424" d="M62.853 34.189c.958 0 1.738.78 1.738 1.737V79.13a1.74 1.74 0 0 1-1.738 1.737H5.064a1.74 1.74 0 0 1-1.738-1.738V35.926c0-.958.78-1.737 1.738-1.737zm0 49.596a4.662 4.662 0 0 0 4.656-4.656V35.926a4.662 4.662 0 0 0-4.656-4.654H5.064a4.661 4.661 0 0 0-4.656 4.654V79.13a4.66 4.66 0 0 0 4.656 4.655h57.789z"/></g><g><path fill="#242424" d="M67.509 67.864V47.192l16.878-10.039a.39.39 0 0 1 .4.017.467.467 0 0 1 .226.418v39.88a.466.466 0 0 1-.227.418.387.387 0 0 1-.371.03zm17.064 13.003c.601 0 1.201-.165 1.738-.492a3.383 3.383 0 0 0 1.62-2.906V37.588a3.381 3.381 0 0 0-1.62-2.906c-.998-.611-2.212-.66-3.333-.082L64.591 45.533v23.99l18.385 10.933.084.045c.481.245.997.366 1.513.366z"/></g><g><path fill="#242424" d="M26.665 21.06c0 5.63-4.58 10.212-10.211 10.212-5.63 0-10.211-4.582-10.211-10.211 0-5.63 4.58-10.21 10.211-10.21 5.63 0 10.211 4.58 10.211 10.21zm2.917 0c0-7.238-5.888-13.127-13.128-13.127S3.326 13.822 3.326 21.06c0 7.24 5.888 13.128 13.128 13.128S29.582 28.3 29.582 21.061z"/></g><g><path fill="#242424" d="M57.298 17.414c0 7.641-6.218 13.858-13.858 13.858-7.64 0-13.858-6.217-13.858-13.858 0-7.64 6.217-13.857 13.858-13.857 7.64 0 13.858 6.217 13.858 13.857zm2.917 0C60.215 8.164 52.69.64 43.44.64c-9.25 0-16.775 7.526-16.775 16.775 0 9.25 7.525 16.775 16.775 16.775 9.25 0 16.775-7.525 16.775-16.775z"/></g><g><path fill="#242424" d="M43.44 28.354c-6.032 0-10.94-4.907-10.94-10.94 0-6.033 4.908-10.94 10.94-10.94a1.458 1.458 0 1 1 0 2.917c-4.424 0-8.023 3.6-8.023 8.023s3.599 8.023 8.023 8.023c4.424 0 8.023-3.6 8.023-8.023a1.458 1.458 0 1 1 2.917 0c0 6.033-4.907 10.94-10.94 10.94z"/></g><g><path fill="#242424" d="M16.454 28.354c-4.022 0-7.294-3.272-7.294-7.293a1.458 1.458 0 1 1 2.918 0 4.382 4.382 0 0 0 4.376 4.376 4.381 4.381 0 0 0 4.376-4.376 4.38 4.38 0 0 0-4.376-4.376 1.459 1.459 0 1 1 0-2.917c4.022 0 7.294 3.271 7.294 7.293 0 4.021-3.272 7.293-7.294 7.293z"/></g></g></g></svg>