<?xml version="1.0" encoding="utf-8"?>
<!-- Generator: Adobe Illustrator 22.0.1, SVG Export Plug-In . SVG Version: 6.00 Build 0)  -->
<svg version="1.1" xmlns="http://www.w3.org/2000/svg" xmlns:xlink="http://www.w3.org/1999/xlink" x="0px" y="0px"
	 viewBox="0 0 688.1 339" style="enable-background:new 0 0 688.1 339;" xml:space="preserve">
<style type="text/css">
  
	.stm-1-0{fill:#FCFCFA;}
	.stm-1-1{fill:#F0F0F0;}
	.stm-1-2{fill:#FFFFFF;}
	.stm-1-3{fill:#A8A8A8;}
	.stm-1-4{fill:none;stroke:#C9C9C9;stroke-width:0.5;stroke-miterlimit:10;}
	.stm-1-5{font-family:'Averta-Bold';}
	.stm-1-6{font-size:5.1256px;}
	.stm-1-7{font-size:35.1854px;}
	.stm-1-8{font-size:3.5396px;}
	.stm-1-9{fill:none;stroke:#C9C9C9;stroke-width:0.25;stroke-miterlimit:10;}
	.stm-1-10{fill:#006397;}
	.stm-1-11{fill:none;stroke:#767676;stroke-width:0.12;stroke-linecap:round;stroke-linejoin:round;stroke-miterlimit:10;}
	.stm-1-12{fill:#FFFFFF;stroke:#C9C9C9;stroke-width:0.25;stroke-miterlimit:10;}
	.stm-1-13{fill:#FFFFFF;stroke:#000000;stroke-width:0.5;stroke-miterlimit:10;}
	.stm-1-14{fill:#DFFF7F;}
	.stm-1-15{fill:none;stroke:#C9C9C9;stroke-width:0;stroke-linecap:round;stroke-linejoin:round;stroke-miterlimit:10;}
	.stm-1-16{fill:none;stroke:#C9C9C9;stroke-width:0.25;stroke-linecap:round;stroke-linejoin:round;stroke-miterlimit:10;}
	.stm-1-17{fill:none;}
	.stm-1-18{fill:none;stroke:#D8D8D8;stroke-width:0.5;stroke-miterlimit:10;}
</style>
<g id="Layer_1">
	<polygon class="stm-1-1" points="672.3,286.1 632.3,285.4 632.3,20.4 461.4,20.4 461.4,41.2 414.8,41.2 414.8,22.9 356.6,22.9 
		356.6,20.4 61.3,20.4 61.1,256.1 15.8,256.1 15.8,321.6 168.6,321.6 168.6,314.8 461.8,314.8 461.8,321.6 672.3,321.6 672.3,306.1 
			"/>
	<polyline class="stm-1-4" points="664.8,313.8 469.6,313.8 469.6,307.1 160.8,307.1 160.8,313.8 23.5,313.8 23.5,263.8 68.8,263.8 
		69,28.2 345.5,28.2 348.9,28.2 348.9,30.6 407.1,30.6 407.1,49 469.2,49 469.2,28.2 511.3,28.2 	"/>
	<polygon class="stm-1-2" points="313.4,238.8 313.4,116.1 383.7,116.1 383.7,51.4 471.3,51.4 471.3,28.2 509.3,28.2 509.3,77.1 
		604.8,77.1 604.8,276.7 512,276.7 512,236.8 	"/>
	<polyline class="stm-1-4" points="511.3,292.9 664.8,292.9 624.5,292.9 624.5,28.2 511.3,28.2 511.3,77.1 606.8,77.1 606.8,276.7 
		539.1,276.7 	"/>
	<rect x="116.2" y="28.2" class="stm-1-2" width="31.5" height="27.1"/>
	<rect x="148.7" y="28.2" class="stm-1-2" width="73.3" height="27.1"/>
	<polygon class="stm-1-2" points="259.4,55.2 224,55.2 224,28.2 260.5,28.2 260.5,38.2 265.2,38.2 265.2,51 259.5,51 	"/>
	<rect x="284.6" y="28.2" class="stm-1-2" width="62.2" height="20.9"/>
	<rect x="347.9" y="30.7" class="stm-1-2" width="26" height="18.4"/>
	
		<rect x="374.9" y="30.7" transform="matrix(-1 -1.224647e-16 1.224647e-16 -1 781.9461 79.7742)" class="stm-1-2" width="32.2" height="18.4"/>
	<polygon class="stm-1-2" points="137.8,75.5 137.8,113.8 158.4,113.8 158.4,109.3 208.7,109.3 208.7,75.5 	"/>
	<rect x="224" y="75.5" class="stm-1-2" width="36.3" height="34.3"/>
	<path class="stm-1-4" d="M118.2,203.4c1-0.2,144.9,0,144.9,0v14.7h48v23.1h200.3v40"/>
	<polyline class="stm-1-4" points="382.4,49.1 382.4,113.8 311,113.8 311,211.5 311,218.1 	"/>
	<text transform="matrix(1 0 0 1 175.4223 41.2506)" class="stm-1-3 stm-1-5 stm-1-6">MAĞAZA</text>
	<text transform="matrix(1 0 0 1 177.6391 47.401)" class="stm-1-3 stm-1-5 stm-1-6">30.8 m</text>
	<text transform="matrix(0.583 0 0 0.583 193.9018 45.694)" class="stm-1-3 stm-1-5 stm-1-6">2</text>
	<text transform="matrix(1 0 0 1 163.0356 93.0788)" class="stm-1-3 stm-1-5 stm-1-6">MAĞAZA</text>
	<text transform="matrix(1 0 0 1 165.3901 99.2291)" class="stm-1-3 stm-1-5 stm-1-6">40.7 m</text>
	<text transform="matrix(0.583 0 0 0.583 181.3774 97.5221)" class="stm-1-3 stm-1-5 stm-1-6">2</text>
	<text transform="matrix(1 0 0 1 232.5591 93.0788)" class="stm-1-3 stm-1-5 stm-1-6">MAĞAZA</text>
	<text transform="matrix(1 0 0 1 234.6567 99.2291)" class="stm-1-3 stm-1-5 stm-1-6">20.0 m</text>
	<text transform="matrix(0.583 0 0 0.583 251.1567 97.5221)" class="stm-1-3 stm-1-5 stm-1-6">2</text>
	<text transform="matrix(1 0 0 1 347.3442 179.9831)" class="stm-1-3 stm-1-5 stm-1-7">BAZARSTORE</text>
	<text transform="matrix(1 0 0 1 125.2866 41.2497)" class="stm-1-3 stm-1-5 stm-1-6">GİRİŞ</text>
	<text transform="matrix(1 0 0 1 124.0229 47.4)" class="stm-1-3 stm-1-5 stm-1-6">13.1 m</text>
	<text transform="matrix(0.583 0 0 0.583 138.3286 45.693)" class="stm-1-3 stm-1-5 stm-1-6">2</text>
	<text transform="matrix(1 0 0 1 231.9028 41.2506)" class="stm-1-3 stm-1-5 stm-1-6">MAĞAZA</text>
	<text transform="matrix(1 0 0 1 234.4243 47.401)" class="stm-1-3 stm-1-5 stm-1-6">16.0 m</text>
	<text transform="matrix(0.583 0 0 0.583 250.0766 45.694)" class="stm-1-3 stm-1-5 stm-1-6">2</text>
	<text transform="matrix(1 0 0 1 291.8423 38.1891)" class="stm-1-3 stm-1-5 stm-1-6">QURU TƏMİZLƏMƏ</text>
	<text transform="matrix(1 0 0 1 306.3755 44.3395)" class="stm-1-3 stm-1-5 stm-1-6">20.0 m</text>
	<text transform="matrix(0.583 0 0 0.583 322.8755 42.6325)" class="stm-1-3 stm-1-5 stm-1-6">2</text>
	<text transform="matrix(1 0 0 1 349.8676 39.362)" class="stm-1-3 stm-1-5 stm-1-8">SARACOĞLU</text>
	<text transform="matrix(1 0 0 1 355.9956 43.609)" class="stm-1-3 stm-1-5 stm-1-8">7.2 m</text>
	<text transform="matrix(0.583 0 0 0.583 364.6489 42.4303)" class="stm-1-3 stm-1-5 stm-1-8">2</text>
	<text transform="matrix(1 0 0 1 385.0278 39.5163)" class="stm-1-3 stm-1-5 stm-1-8">DƏRZİ</text>
	<text transform="matrix(1 0 0 1 385.1967 43.7633)" class="stm-1-3 stm-1-5 stm-1-8">9.0 m</text>
	<text transform="matrix(0.583 0 0 0.583 394.5346 42.5846)" class="stm-1-3 stm-1-5 stm-1-8">2</text>
	<line class="stm-1-9" x1="374.9" y1="94.5" x2="328.2" y2="94.8"/>
	<line class="stm-1-9" x1="281.8" y1="95.1" x2="281.8" y2="84.1"/>
	<line class="stm-1-9" x1="281.8" y1="84.1" x2="287.3" y2="84.1"/>
	<line class="stm-1-9" x1="287.3" y1="84.1" x2="321.8" y2="83.9"/>
	<line class="stm-1-9" x1="321.8" y1="83.9" x2="369" y2="83.6"/>
	<line class="stm-1-9" x1="369" y1="83.6" x2="374.9" y2="83.5"/>
	<line class="stm-1-9" x1="371.8" y1="93.2" x2="327.1" y2="93.5"/>
	<line class="stm-1-9" x1="327.1" y1="93.5" x2="285.4" y2="93.7"/>
	<line class="stm-1-9" x1="371.8" y1="84.8" x2="322.6" y2="85.1"/>
	<line class="stm-1-9" x1="322.6" y1="85.1" x2="285.3" y2="85.4"/>
	<line class="stm-1-9" x1="281.8" y1="93.1" x2="326.6" y2="92.8"/>
	<line class="stm-1-9" x1="326.6" y1="92.8" x2="374.9" y2="92.5"/>
	<line class="stm-1-9" x1="328.2" y1="94.8" x2="374.9" y2="94.5"/>
	<line class="stm-1-9" x1="281.8" y1="86.1" x2="323" y2="85.9"/>
	<line class="stm-1-9" x1="323" y1="85.9" x2="374.9" y2="85.5"/>
	<line class="stm-1-9" x1="328.2" y1="94.8" x2="374.9" y2="94.5"/>
	<line class="stm-1-9" x1="297.5" y1="89.5" x2="324.6" y2="89.3"/>
	<line class="stm-1-9" x1="324.6" y1="89.3" x2="357.2" y2="89.1"/>
	<line class="stm-1-9" x1="357.2" y1="89.1" x2="353.2" y2="92.7"/>
	<line class="stm-1-9" x1="357.2" y1="89.1" x2="353.2" y2="85.7"/>
	<line class="stm-1-9" x1="374.9" y1="83.5" x2="374.9" y2="94.5"/>
	<line class="stm-1-9" x1="297.6" y1="86" x2="297.6" y2="93"/>
	<line class="stm-1-9" x1="299.8" y1="86" x2="299.9" y2="92.9"/>
	<line class="stm-1-9" x1="302.2" y1="86" x2="302.2" y2="93"/>
	<line class="stm-1-9" x1="304.5" y1="85.9" x2="304.5" y2="92.9"/>
	<line class="stm-1-9" x1="306.6" y1="85.9" x2="306.7" y2="93"/>
	<line class="stm-1-9" x1="309" y1="85.9" x2="309" y2="92.9"/>
	<line class="stm-1-9" x1="313.6" y1="85.9" x2="313.6" y2="92.9"/>
	<line class="stm-1-9" x1="315.9" y1="85.8" x2="315.9" y2="92.8"/>
	<line class="stm-1-9" x1="318.2" y1="85.9" x2="318.2" y2="92.9"/>
	<line class="stm-1-9" x1="320.5" y1="85.9" x2="320.5" y2="92.8"/>
	<line class="stm-1-9" x1="322.7" y1="85.9" x2="322.9" y2="92.8"/>
	<line class="stm-1-9" x1="325.1" y1="85.9" x2="325.1" y2="89.4"/>
	<line class="stm-1-9" x1="327.3" y1="85.9" x2="327.4" y2="92.8"/>
	<line class="stm-1-9" x1="357.1" y1="85.6" x2="357.2" y2="92.7"/>
	<line class="stm-1-9" x1="374.9" y1="94.5" x2="328.2" y2="94.8"/>
	<line class="stm-1-9" x1="281.8" y1="95.1" x2="281.9" y2="105.9"/>
	<line class="stm-1-9" x1="281.9" y1="105.9" x2="288.1" y2="105.8"/>
	<line class="stm-1-9" x1="288.1" y1="105.8" x2="334.1" y2="105.6"/>
	<line class="stm-1-9" x1="332.2" y1="105.6" x2="369.8" y2="105.3"/>
	<line class="stm-1-9" x1="369.8" y1="105.3" x2="375" y2="105.3"/>
	<line class="stm-1-9" x1="371.8" y1="95.8" x2="328.8" y2="96"/>
	<line class="stm-1-9" x1="328.8" y1="96" x2="285.4" y2="96.3"/>
	<line class="stm-1-9" x1="371.9" y1="104" x2="331.5" y2="104.3"/>
	<line class="stm-1-9" x1="333.4" y1="104.3" x2="285.4" y2="104.6"/>
	<line class="stm-1-9" x1="281.9" y1="97" x2="328.9" y2="96.7"/>
	<line class="stm-1-9" x1="328.9" y1="96.7" x2="375" y2="96.4"/>
	<line class="stm-1-9" x1="328.2" y1="94.8" x2="374.9" y2="94.5"/>
	<line class="stm-1-9" x1="281.9" y1="103.9" x2="332.9" y2="103.6"/>
	<line class="stm-1-9" x1="331" y1="103.6" x2="375" y2="103.3"/>
	<line class="stm-1-9" x1="281.8" y1="95.1" x2="328.2" y2="94.8"/>
	<line class="stm-1-9" x1="297.6" y1="100.3" x2="331" y2="100.2"/>
	<line class="stm-1-9" x1="331" y1="100.2" x2="357.3" y2="100"/>
	<line class="stm-1-9" x1="357.3" y1="100" x2="353.2" y2="96.5"/>
	<line class="stm-1-9" x1="357.3" y1="100" x2="353.3" y2="103.5"/>
	<line class="stm-1-9" x1="375" y1="105.3" x2="374.9" y2="94.5"/>
	<line class="stm-1-9" x1="297.7" y1="103.8" x2="297.7" y2="96.9"/>
	<line class="stm-1-9" x1="299.9" y1="103.8" x2="299.9" y2="96.9"/>
	<line class="stm-1-9" x1="302.3" y1="103.8" x2="302.2" y2="96.8"/>
	<line class="stm-1-9" x1="304.6" y1="103.7" x2="304.5" y2="96.9"/>
	<line class="stm-1-9" x1="306.8" y1="103.8" x2="306.7" y2="96.8"/>
	<line class="stm-1-9" x1="309.1" y1="103.7" x2="309.1" y2="96.8"/>
	<line class="stm-1-9" x1="313.7" y1="103.7" x2="313.7" y2="96.8"/>
	<line class="stm-1-9" x1="316" y1="103.6" x2="315.9" y2="96.8"/>
	<line class="stm-1-9" x1="318.3" y1="103.7" x2="318.3" y2="96.8"/>
	<line class="stm-1-9" x1="320.6" y1="103.6" x2="320.5" y2="96.8"/>
	<line class="stm-1-9" x1="322.9" y1="103.7" x2="322.9" y2="96.8"/>
	<line class="stm-1-9" x1="325.2" y1="103.6" x2="325.2" y2="96.7"/>
	<line class="stm-1-9" x1="327.5" y1="103.6" x2="327.3" y2="96.7"/>
	<line class="stm-1-9" x1="329.7" y1="97.3" x2="329.7" y2="96.7"/>
	<line class="stm-1-9" x1="332" y1="101.3" x2="331.9" y2="96.7"/>
	<line class="stm-1-9" x1="334.3" y1="103.6" x2="334.3" y2="96.7"/>
	<line class="stm-1-9" x1="357.2" y1="103.4" x2="357.2" y2="96.5"/>
	<line class="stm-1-9" x1="311.2" y1="85.9" x2="311.4" y2="92.9"/>
	<line class="stm-1-9" x1="311.3" y1="103.7" x2="311.3" y2="96.8"/>
	<line class="stm-1-9" x1="329.6" y1="85.8" x2="329.6" y2="92.8"/>
	<line class="stm-1-9" x1="331.9" y1="85.7" x2="332" y2="92.8"/>
	<line class="stm-1-9" x1="334.2" y1="85.8" x2="334.3" y2="92.7"/>
	<line class="stm-1-9" x1="336.5" y1="85.7" x2="336.6" y2="92.8"/>
	<line class="stm-1-9" x1="338.8" y1="85.8" x2="338.9" y2="92.7"/>
	<line class="stm-1-9" x1="341.1" y1="85.7" x2="341.1" y2="92.7"/>
	<line class="stm-1-9" x1="343.5" y1="85.7" x2="343.5" y2="92.7"/>
	<line class="stm-1-9" x1="345.6" y1="85.7" x2="345.6" y2="92.7"/>
	<line class="stm-1-9" x1="348" y1="85.7" x2="348" y2="92.7"/>
	<line class="stm-1-9" x1="350.2" y1="85.7" x2="350.3" y2="92.6"/>
	<line class="stm-1-9" x1="352.6" y1="85.7" x2="352.6" y2="92.7"/>
	<line class="stm-1-9" x1="354.9" y1="85.6" x2="354.9" y2="92.6"/>
	<line class="stm-1-9" x1="336.6" y1="103.5" x2="336.6" y2="96.6"/>
	<line class="stm-1-9" x1="338.9" y1="103.6" x2="338.9" y2="96.7"/>
	<line class="stm-1-9" x1="341.2" y1="103.5" x2="341.2" y2="96.6"/>
	<line class="stm-1-9" x1="343.6" y1="103.5" x2="343.4" y2="96.6"/>
	<line class="stm-1-9" x1="345.7" y1="103.5" x2="345.7" y2="96.6"/>
	<line class="stm-1-9" x1="348" y1="103.4" x2="347.9" y2="96.6"/>
	<line class="stm-1-9" x1="350.3" y1="103.5" x2="350.3" y2="96.6"/>
	<line class="stm-1-9" x1="352.6" y1="103.4" x2="352.5" y2="96.6"/>
	<line class="stm-1-9" x1="354.9" y1="103.5" x2="354.9" y2="96.6"/>
	<line class="stm-1-9" x1="290.2" y1="86" x2="290.2" y2="93"/>
	<line class="stm-1-9" x1="290.3" y1="103.8" x2="290.3" y2="96.9"/>
	<line class="stm-1-9" x1="364.4" y1="85.6" x2="364.4" y2="92.6"/>
	<line class="stm-1-9" x1="364.5" y1="103.4" x2="364.5" y2="96.5"/>
	<line class="stm-1-9" x1="325.1" y1="89.4" x2="325.1" y2="92.8"/>
	<line class="stm-1-9" x1="329.7" y1="97.3" x2="329.7" y2="103.6"/>
	<line class="stm-1-9" x1="332" y1="101.3" x2="332.1" y2="103.6"/>
</g>
<g id="Layer_2">
</g>
<g id="Layer_3">
</g>
<g id="Layer_4">
</g>
<g id="Layer_5">
</g>
<g id="Layer_6">
</g>
</svg>
