<?xml version="1.0" encoding="utf-8"?>
<!-- Generator: Adobe Illustrator 22.0.1, SVG Export Plug-In . SVG Version: 6.00 Build 0)  -->
<svg version="1.1" xmlns="http://www.w3.org/2000/svg" xmlns:xlink="http://www.w3.org/1999/xlink" x="0px" y="0px"
	 viewBox="0 0 698.1 262" style="enable-background:new 0 0 698.1 262;" xml:space="preserve">
  
<style type="text/css">
	.stm-2-0{fill:#FCFCFA;}
	.stm-2-1{fill:#F0F0F0;}
	.stm-2-2{fill:#FFFFFF;}
	.stm-2-3{fill:#A8A8A8;}
	.stm-2-4{font-family:'Averta-Bold';}
	.stm-2-5{font-size:10.8695px;}
	.stm-2-6{font-size:14px;}
	.stm-2-7{letter-spacing:14;}
	.stm-2-8{fill:none;stroke:#C9C9C9;stroke-width:0.5;stroke-miterlimit:10;}
	.stm-2-9{fill:none;stroke:#C9C9C9;stroke-width:0.25;stroke-miterlimit:10;}
	.stm-2-10{fill:#006397;}
	.stm-2-11{fill:none;stroke:#767676;stroke-width:0.12;stroke-linecap:round;stroke-linejoin:round;stroke-miterlimit:10;}
	.stm-2-12{fill:#FFFFFF;stroke:#C9C9C9;stroke-width:0.25;stroke-miterlimit:10;}
	.stm-2-13{fill:#FFFFFF;stroke:#000000;stroke-width:0.5;stroke-miterlimit:10;}
	.stm-2-14{fill:#DFFF7F;}
	.stm-2-15{fill:none;stroke:#C9C9C9;stroke-width:0;stroke-linecap:round;stroke-linejoin:round;stroke-miterlimit:10;}
	.stm-2-16{fill:none;stroke:#C9C9C9;stroke-width:0.25;stroke-linecap:round;stroke-linejoin:round;stroke-miterlimit:10;}
	.stm-2-17{fill:none;}
	.stm-2-18{fill:none;stroke:#D8D8D8;stroke-width:0.5;stroke-miterlimit:10;}
</style>
<g id="Layer_1">
	<path class="stm-2-1" d="M683.9,25.3v85.3h-29.8l0.3,68.2c0,9.6-6.2,17.8-14.9,20.8v9l44.1,1.6v39.5l-345.3,0h0
		c-3.8-0.3-124.7-10.3-179.9-15.8c-56-5.7-56.5-10.3-56.5-10.3c-29.5,0.5-42.1-6.3-42.1-6.3c-64.6-18.6-36.2-87.7-35.8-88.7
		c0,0,0,0,0,0V34h9v-8.7H683.9z"/>
	<rect x="73.2" y="32.3" class="stm-2-2" width="603.8" height="24.2"/>
	<path class="stm-2-2" d="M572.1,124.8H104.8c-4.7,0-8.5-3.8-8.5-8.5V88c0-4.7,3.8-8.5,8.5-8.5h467.3c4.7,0,8.5,3.8,8.5,8.5v28.2
		C580.6,120.9,576.8,124.8,572.1,124.8z"/>
	<path class="stm-2-2" d="M572.1,193.8H104.8c-4.7,0-8.5-3.8-8.5-8.5V157c0-4.7,3.8-8.5,8.5-8.5h467.3c4.7,0,8.5,3.8,8.5,8.5v28.2
		C580.6,189.9,576.8,193.8,572.1,193.8z"/>
	<path class="stm-2-2" d="M647.2,125.4H604c-0.9,0-1.7-0.8-1.7-1.7V86.8c0-4,3.3-7.3,7.3-7.3h67.4v24.1h-29.8V125.4z"/>
	<path class="stm-2-2" d="M632.6,193.8h-26.7c-2,0-3.6-1.6-3.6-3.6v-38c0-2,1.6-3.6,3.6-3.6h41.6v30.3
		C647.5,187.1,640.8,193.8,632.6,193.8z"/>
	<path class="stm-2-2" d="M676.7,242.8h-346l-204.6-17.9c-0.8-0.1-1.6-0.3-2.3-0.5l-17.9-7.1h570.8V242.8z"/>
	<rect x="330.7" y="198.3" class="stm-2-2" width="27.5" height="12.8"/>
	<rect x="330.7" y="62.8" class="stm-2-2" width="27.5" height="12.8"/>
	<rect x="78.4" y="128" class="stm-2-2" width="27.5" height="12.8"/>
	<polygon class="stm-2-2" points="68.7,32.3 68.7,87 31.2,87 31.2,41 40.2,41 40.2,32.3 	"/>
	<polygon class="stm-2-2" points="31.2,89.3 31.2,121.5 73.2,121.5 73.2,112 69.9,112 69.9,103.5 73.2,103.5 73.2,89.3 	"/>
	<path class="stm-2-2" d="M72,184.4L72,184.4c-13.4,0-24.3-10.9-24.3-24.2V124H72V184.4z"/>
	<text transform="matrix(1 0 0 1 610.3638 168.2067)"><tspan x="0" y="0" class="stm-2-3 stm-2-4 stm-2-5">AVTO</tspan><tspan x="-0.6" y="13" class="stm-2-3 stm-2-4 stm-2-5">YUMA</tspan></text>
	<g>
		<text transform="matrix(1 0 0 1 265.2091 176.3779)" class="stm-2-3 stm-2-4 stm-2-6 stm-2-7">PARKING</text>
	</g>
	<g>
		<text transform="matrix(1 0 0 1 265.2091 233.8779)" class="stm-2-3 stm-2-4 stm-2-6 stm-2-7">PARKING</text>
	</g>
	<g>
		<text transform="matrix(1 0 0 1 265.2091 108.3779)" class="stm-2-3 stm-2-4 stm-2-6 stm-2-7">PARKING</text>
	</g>
	<text transform="matrix(1 0 0 1 265.2091 49.8779)" class="stm-2-3 stm-2-4 stm-2-6 stm-2-7">PARKING</text>
	<path class="stm-2-2" d="M28,161c0,0-11.5,56.2,77.9,56.2"/>
</g>
<g id="Layer_2">
</g>
<g id="Layer_3">
</g>
<g id="Layer_4">
</g>
<g id="Layer_5">
</g>
<g id="Layer_6">
</g>
</svg>
