<?xml version="1.0" encoding="utf-8"?>
<!-- Generator: Adobe Illustrator 22.0.1, SVG Export Plug-In . SVG Version: 6.00 Build 0)  -->
<svg version="1.1" xmlns="http://www.w3.org/2000/svg" xmlns:xlink="http://www.w3.org/1999/xlink" x="0px" y="0px"
	 viewBox="0 0 763.6 365.5" style="enable-background:new 0 0 763.6 365.5;" xml:space="preserve">
<style type="text/css">
	.stm1-0{fill:#FCFCFA;}
	.stm1-1{fill:#F0F0F0;}
	.stm1-2{fill:#FFFFFF;}
	.stm1-3{fill:#A8A8A8;}
	.stm1-4{fill:none;stroke:#C9C9C9;stroke-width:0.5;stroke-miterlimit:10;}
	.stm1-5{fill:none;stroke:#C9C9C9;stroke-width:0.25;stroke-miterlimit:10;}
	.stm1-6{fill:#006397;}
	.stm1-7{font-family:'Averta-Bold';}
	.stm1-8{font-size:8.3568px;}
	.stm1-9{font-size:2.3261px;}
	.stm1-10{font-size:2.2188px;}
	.stm1-11{font-size:3.3318px;}
	.stm1-12{font-size:7.7748px;}
	.stm1-13{font-size:6.8319px;}
	.stm1-14{font-size:5.5612px;}
	.stm1-15{font-size:3.9939px;}
	.stm1-16{fill:none;stroke:#767676;stroke-width:0.12;stroke-linecap:round;stroke-linejoin:round;stroke-miterlimit:10;}
	.stm1-17{font-size:4.274px;}
	.stm1-18{fill:#FFFFFF;stroke:#C9C9C9;stroke-width:0.25;stroke-miterlimit:10;}
	.stm1-19{fill:#FFFFFF;stroke:#000000;stroke-width:0.5;stroke-miterlimit:10;}
	.stm1-20{fill:#DFFF7F;}
	.stm1-21{fill:none;stroke:#C9C9C9;stroke-width:0;stroke-linecap:round;stroke-linejoin:round;stroke-miterlimit:10;}
	.stm1-22{fill:none;stroke:#C9C9C9;stroke-width:0.25;stroke-linecap:round;stroke-linejoin:round;stroke-miterlimit:10;}
	.stm1-23{fill:none;}
	.stm1-24{fill:none;stroke:#D8D8D8;stroke-width:0.5;stroke-miterlimit:10;}
</style>
  
<g id="Layer_1">
	<path class="stm1-1" d="M746.1,130.5c-0.1-1.7-0.3-3.5-0.7-5.2l-2.9-14.8c-0.8-4.2-2.4-8.3-4.5-12c-3-5.2-6.8-9.9-11.2-14l-5.4-4.7
		c-1.2-0.9-2.4-1.8-3.6-2.6l-1.2-0.9l-0.1,0.1c-3.8-2.4-7.8-4.3-12-5.8V34.4l-187.3,1v10.8h-28.6V9.1l-25.6,26.7l-1.7,1.7l-1.8,1.9
		l-5.2,5.3l-20-3.6l-3.5-0.6l-9.9-1.1l-35.8-2.4h-3l-5.2,0.3l-22.2,0.2l-27.7,3.2l-22.3,3.9l-5.2-5.3l-1.1-1.1l-0.2-1L270.6,9.7
		v36.5H242V35.4L54.7,33.6v36C2.5,93.8,15.6,188.8,15.6,188.8l0.2,92.9l0.1,28.3h75v-1.6h17.8v13.6h121.7v22.7l13.9-13l6.1-6.1
		l0.8,1l2.1,1.7l0.8,0.8l2.7,1.6l1.6,0.8l2.5,0.9l1.1,0.4l2.7,0.5l1.1,0.4l5-0.2l4.2-0.9l3.9-1.6l3.6-2.4l2-1.8l1.2-1.2l1.5-2.2
		l0.9-1.1l1.2-2.8l0.6-1.3l0.1-0.3h65.1v34.8h49.4v-34.8H438v5.2h25.2v0.2h9l0.8,1l1.4,2l1.7,1.5l1.9,1.6l1.6,1l2.4,1.3l4.4,1.6
		l2.5,0.3l1.9,0.3l4.6-0.3l4.6-1.2l1.6-0.8l2.5-1.1l3.7-2.7l1.6-1.8l19.6,19.6v-23.4h30.4h3.8h61h13.4h93.6v-2.5h2.5v-11.1h14.2
		v-16.8h1.8V188.8L746.1,130.5z"/>
	<path class="stm1-2" d="M737.9,135.1h-16.6c-2,11.4-9.1,21.1-18.8,26.6l10,13.2C726.2,166.4,735.9,151.9,737.9,135.1z"/>
	<path class="stm1-2" d="M718.4,111.9l13.4-9.7c-3.5-6.1-8.2-11.4-13.8-15.7l-9.9,13.1C712.4,102.9,715.9,107.1,718.4,111.9z"/>
	<path class="stm1-2" d="M707.2,98.6l9.9-13.1c-6-4.7-13.1-8.1-20.7-9.9l-5.2,15.7C697.2,92.5,702.6,95,707.2,98.6z"/>
	<path class="stm1-2" d="M76.1,173.2L87.7,185c5.5-4.4,10.1-9.8,13.5-16l-14.4-7.9C84.1,165.8,80.5,169.9,76.1,173.2z"/>
	<path class="stm1-2" d="M94.7,144.9l12.9,10.3c4.9-5,8.8-11,11.5-17.5l-15.3-6.1C101.8,136.7,98.7,141.2,94.7,144.9z"/>
	<polygon class="stm1-2" points="234.1,282 235.6,282 235.6,264.6 253,264.6 253,251.8 224.6,251.8 224.6,264.6 224.6,282 224.6,285.5 
		221,285.5 221,295.8 239.6,295.8 239.6,285.5 234.1,285.5 	"/>
	<polygon class="stm1-2" points="100.3,272.9 100.3,273.9 99.3,273.9 99.3,274.7 98.3,274.7 98.3,281.7 110.4,281.7 110.4,274.7 
		109.4,274.7 109.4,273.9 106.4,273.9 106.4,272.9 	"/>
	<rect x="84.7" y="283.5" class="stm1-2" width="29.6" height="17.8"/>
	<rect x="130.8" y="285.5" class="stm1-2" width="89.3" height="10.4"/>
	<rect x="115.9" y="296.9" class="stm1-2" width="119.7" height="18.1"/>
	<polygon class="stm1-2" points="253.2,285.5 240.6,285.5 240.6,292.1 240.6,300.1 278.6,300.1 278.6,292.1 253.2,292.1 	"/>
	<polygon class="stm1-2" points="615.8,309.4 614.8,309.4 614.8,296.9 595.2,296.9 595.2,298.9 587.4,298.9 587.4,296.9 574.6,296.9 
		574.6,298.9 574.6,309.4 573.6,309.4 573.6,296.9 557,296.9 557,309.4 557,312.4 566.5,312.4 566.5,314.9 595.2,314.9 603.2,314.9 
		603.2,312.4 606.8,312.4 606.8,314.9 630.4,314.9 630.4,312.4 630.4,309.4 630.4,296.9 615.8,296.9 	"/>
	<polygon class="stm1-2" points="506.5,266.7 505.4,266.7 505.4,265.7 480.7,265.7 480.7,266.7 480.7,272.7 480.7,273.7 505.4,273.7 
		505.4,272.7 506.5,272.7 506.5,273.7 514.7,273.7 514.7,274.7 480.7,274.7 480.7,282 482.1,282 482.1,283 482.1,285.5 478.5,285.5 
		478.5,283 473.3,283 473.3,285.5 473.3,299.3 473.3,299.5 473.3,300.9 473.3,301.1 473.7,301.3 476,302.4 476.5,301.3 476.6,301.1 
		476.7,300.9 477.8,299.5 478.1,299.3 501.1,299.3 501.1,285.5 501.1,283 497.7,283 497.7,282 502.1,282 502.1,285.5 502.1,295.8 
		521.3,295.8 521.3,285.5 518.7,285.5 518.7,282 521.3,282 521.3,274.7 520.7,274.7 520.7,273.7 522.8,273.7 522.8,272.7 
		522.8,266.7 522.8,251.8 506.5,251.8 	"/>
	<polygon class="stm1-2" points="680.8,287 679.6,287 679.6,285.5 647,285.5 647,287 646,287 646,285.5 643.4,285.5 643.4,282 
		633.2,282 633.2,285.5 534.9,285.5 534.9,282 534.9,274.7 534.9,273.7 526.1,273.7 526.1,274.7 523.8,274.7 523.8,282 525.3,282 
		525.3,285.5 523.8,285.5 523.8,287 523.8,294.4 523.8,295.8 526.3,295.8 526.3,296.9 523.8,296.9 523.8,312.4 526.3,312.4 
		526.3,314.9 556,314.9 556,312.4 556,296.9 532.3,296.9 532.3,295.8 538.4,295.8 538.4,294.4 539.4,294.4 539.4,295.8 628.6,295.8 
		628.6,294.4 629.6,294.4 629.6,294.5 629.6,295.3 629.6,295.8 633.2,295.8 633.2,298.1 633.2,304.1 633.2,304.9 633.6,304.9 
		633.6,305.9 631.4,305.9 631.4,314.9 643.4,314.9 643.4,305.9 639.7,305.9 639.7,304.9 643.4,304.9 643.4,304.1 644.5,304.1 
		644.5,314.1 675.6,314.1 675.6,304.1 675.6,298.1 675.6,297.1 644.5,297.1 644.5,298.1 643.4,298.1 643.4,295.8 643.4,295.3 
		646,295.3 646,294.5 647,294.5 647,295.3 679.6,295.3 679.6,294.5 680.8,294.5 680.8,295.3 684.8,295.3 684.8,296.3 676.6,296.3 
		676.6,301.3 676.6,312.4 676.6,314.9 683.8,314.9 683.8,312.4 687.2,312.4 687.2,314.9 724,314.9 724,312.4 726.4,312.4 
		726.4,301.3 740.6,301.3 740.6,296.3 740.6,295.3 740.6,294.5 740.6,294.4 740.6,287 740.6,285.5 680.8,285.5 	"/>
	<polygon class="stm1-2" points="673.6,125.8 673.8,126.6 674.4,127.3 674.7,128 675.4,128.6 676,129.2 676.6,129.7 677.3,130.2 
		678.2,130.6 678.9,130.8 679.8,131.1 680.4,131.3 682.1,131.4 682.6,131.3 683.8,131.1 684.4,130.8 685.3,130.6 686,130.2 
		686.8,129.7 687.4,129.2 688.1,128.6 688.6,128 689.1,127.3 689.4,126.6 689.9,125.8 690.1,125 690.3,124.3 690.4,123.4 
		690.6,122.6 690.4,121.7 690.3,120.9 690.1,120 689.9,119.2 689.4,118.6 689.1,117.8 688.6,117.1 688.1,116.5 687.4,115.9 
		686.8,115.3 686,114.9 685.3,114.6 684.4,114.2 683.8,114 682.6,113.9 682.1,113.8 680.4,113.9 679.8,114 678.9,114.2 678.2,114.6 
		677.3,114.9 676.6,115.3 676,115.9 675.4,116.5 674.7,117.1 674.4,117.8 673.8,118.6 673.6,119.2 673.3,120 673.1,120.9 673,121.7 
		673,122.6 673,123.4 673.1,124.3 673.3,125 	"/>
	<polygon class="stm1-2" points="85.4,126.6 85.9,125.8 86.1,125 86.3,124.3 86.4,123.4 86.5,122.6 86.4,121.7 86.3,120.9 86.1,120 
		85.9,119.2 85.4,118.6 85.1,117.8 84.5,117.1 84.1,116.5 83.4,115.9 82.7,115.3 82,114.9 81.3,114.6 80.4,114.2 79.7,114 
		78.6,113.9 78.1,113.8 76.4,113.9 75.8,114 74.8,114.2 74.2,114.6 73.3,114.9 72.6,115.3 71.9,115.9 71.4,116.5 70.8,117.1 
		70.4,117.8 69.8,118.6 69.6,119.2 69.3,120 69,120.9 68.9,121.7 68.9,122.6 68.9,123.4 69,124.3 69.3,125 69.6,125.8 69.8,126.6 
		70.4,127.3 70.8,128 71.4,128.6 71.9,129.2 72.6,129.7 73.3,130.2 74.2,130.6 74.8,130.8 75.8,131.1 76.4,131.3 78.1,131.4 
		78.6,131.3 79.7,131.1 80.4,130.8 81.3,130.6 82,130.2 82.7,129.7 83.4,129.2 84.1,128.6 84.5,128 85.1,127.3 	"/>
	<polygon class="stm1-2" points="277.4,69 277.4,61.4 277.4,60.2 277.4,53.4 238.8,53.4 238.8,60.2 239.8,60.2 239.8,61.4 238.8,61.4 
		238.8,61.2 234.1,61.2 234.1,59.7 234.8,59.7 234.8,42.6 205,42.6 205.2,59.7 228,59.7 228,61.2 221,61.2 221,61.4 220,61.4 
		220,61.2 192.8,61.2 192.8,50.9 192.8,50.6 192.8,44.6 192.8,44.4 192.8,41.8 192.8,41.7 157.2,41.8 157.2,44.4 155.8,44.4 
		155.8,44.6 154.8,44.6 154.8,50.6 155.8,50.6 155.8,50.9 184.8,50.9 184.8,61.2 184.8,61.4 184.8,69 184.8,69.2 224.6,69.2 
		224.6,72.8 224.6,89.2 234.8,89.2 234.8,72.8 234.1,72.8 234.1,69.2 238.8,69.2 238.8,69 239.8,69 239.8,69.2 277.4,69.2 	"/>
	<polygon class="stm1-2" points="520.5,61.2 520.5,61.4 519.5,61.4 519.5,60.2 520.5,60.2 520.5,53.4 482.1,53.4 482.1,60.2 
		482.1,61.4 482.1,69 482.1,69.2 519.5,69.2 519.5,69 520.5,69 520.5,69.2 525.3,69.2 525.3,72.8 524.5,72.8 524.5,89.2 534.9,89.2 
		534.9,72.8 534.9,69.2 574.6,69.2 574.6,69 574.6,61.4 574.6,61.2 574.6,50.9 604.5,50.9 604.5,50.6 605.5,50.6 605.5,44.6 
		604.5,44.6 604.5,44.4 603.2,44.4 603.2,41.8 566.5,41.7 566.5,41.8 566.5,44.4 566.5,44.6 566.5,50.6 566.5,50.9 566.5,61.2 
		539.4,61.2 539.4,61.4 538.4,61.4 538.4,61.2 531.3,61.2 531.3,59.7 554.2,59.7 554.4,42.6 524.5,42.6 524.5,59.7 525.3,59.7 
		525.3,61.2 	"/>
	<rect x="507.2" y="104" class="stm1-2" width="13.4" height="13"/>
	<rect x="238.8" y="104" class="stm1-2" width="13.4" height="13"/>
	<rect x="238.8" y="237.7" class="stm1-2" width="13.4" height="13.1"/>
	<rect x="237" y="225.8" class="stm1-2" width="17.6" height="9.8"/>
	<rect x="507.2" y="237.7" class="stm1-2" width="13.4" height="13.1"/>
	<polygon class="stm1-2" points="479.5,311.7 479.5,312.4 482.1,312.4 482.1,313.1 501.1,313.1 501.1,312.4 501.1,311.7 501.1,301.1 
		479.5,301.1 	"/>
	<polygon class="stm1-2" points="72.2,199.5 72.2,196 24.9,196 22.8,196 22.8,199.5 22.9,236.7 23,281.7 23,283.5 23.1,302.9 
		83.7,302.9 83.7,283.5 72.2,283.5 72.2,281.7 98.3,281.7 98.3,236.7 112.4,236.7 75.7,199.5 	"/>
	<polygon class="stm1-2" points="192.8,236.7 156.2,236.7 156.2,240.2 152.6,240.2 152.6,236.8 127.2,236.8 127.2,240.2 127.2,282 
		127.2,284.5 192.8,284.5 192.8,282 194.2,282 194.2,240.2 192.8,240.2 	"/>
	<polygon class="stm1-6" points="357,295.6 354.8,291.1 351.9,284.5 351.9,284.4 351,282 347.6,272.9 345.4,265.7 344,261.2 
		341.1,249.3 339.6,240.2 339,237.2 338.9,237.2 338.9,236.9 338.2,236.9 338.2,236.8 321.1,236.8 321.1,236.9 321.1,237.2 
		321.1,240.2 317.6,240.2 317.6,236.8 317.6,236.7 281.9,236.7 281.6,236.7 281.6,236.8 280.9,236.8 280.9,240.2 277.4,240.2 
		277.4,236.8 254,236.8 254,240.2 254,249.3 254,261.2 254,265.7 238.1,265.7 238.1,272.9 238.1,282 240.6,282 240.6,284.4 
		240.6,284.5 254.2,284.5 254.2,291.1 279.6,291.1 279.6,295.6 279.6,296.9 279.6,300.1 282.1,300.1 283.5,302.4 284.6,305 
		285.2,307.8 285.4,309.7 285.4,310.6 360,310.6 360,309.7 360.4,309.7 360.4,307.8 360.4,305 360.4,302.4 360.4,300.1 360.4,296.9 
		357,296.9 	"/>
	<polygon class="stm1-2" points="478.5,236.8 478.5,236.7 442.8,236.7 442.5,236.7 442.5,236.8 441.9,236.8 441.9,240.2 438.3,240.2 
		438.3,237.2 438.3,236.9 438.3,236.8 421.1,236.8 421.1,236.9 420.5,236.9 420.5,237.2 420.4,237.2 419.8,240.2 418.3,249.2 
		415.6,261.1 412,272.7 408.4,282 408.1,283 407.7,284.1 402.6,295.2 402.4,295.6 402.4,296.9 399,296.9 399,301.1 399,302.4 
		399,305.7 399,309.1 399,309.7 399.4,309.7 399.4,310.6 445.2,310.6 445.2,312.6 445.2,315.8 470.4,315.8 470.4,316 474.7,316 
		474.7,315.8 474.1,312.6 474.1,310.6 474.1,309.7 474.1,309.1 474.6,305.7 475.6,303.4 472.4,301.7 472.4,296.9 472.4,295.6 
		472.4,295.2 472.4,284.1 472.4,282 478.5,282 478.5,282 479.7,282 479.7,272.7 479.7,261.1 479.7,249.2 479.7,240.2 478.5,240.2 	
		"/>
	<polygon class="stm1-2" points="698.8,284.5 698.8,282 698.8,275.5 698.8,236.7 698.8,234.6 685.2,234.6 684.4,233.8 667.7,217.1 
		651.1,233.8 651.1,234.6 651.1,236.7 658,236.7 658,275.5 658,282 658,284.5 683.8,284.5 683.8,282 687.2,282 687.2,284.5 	"/>
	<polygon class="stm1-2" points="623.5,177.8 565.3,177.8 565.3,178.6 565.3,180.1 565.3,180.2 565.3,180.3 565.3,180.4 565.3,194.6 
		565.3,194.7 565.3,195.5 565.3,196 566.5,196 566.5,199.5 565.3,199.5 565.3,200.1 565.3,201 565.3,201.1 565.3,201.4 565.3,210.2 
		565.3,210.3 565.3,212.2 567.3,212.2 567.3,212.3 567.5,212.3 567.5,212.4 587.5,212.4 587.5,212.3 587.7,212.3 587.7,212.2 
		590.7,212.2 592.6,210.3 592.7,210.3 592.8,210.3 592.8,210.2 593,210.2 593.1,210.2 601.9,201.4 601.8,201.4 602,201.1 601.9,201 
		602.8,200.1 602.8,199.5 602.8,196 602.8,195.5 607.4,195.5 608.2,194.7 608.3,194.6 608.4,194.7 608.6,194.6 608.7,194.6 
		622.8,180.4 622.7,180.3 622.9,180.2 622.8,180.1 624.3,178.6 	"/>
	<polygon class="stm1-2" points="298.7,212.4 298.7,212.3 299.1,212.3 299.1,212.2 299.1,209.2 299,208.9 299.1,208.9 299,208.6 
		299.1,208.6 296.7,201.7 296.1,199.5 295.2,196 294.9,194.7 293.8,187.4 293.2,180.1 293.2,179.9 293.1,179.9 293.1,177.8 
		235.8,177.8 235.8,179.9 235.8,180.1 235.8,187.4 235.8,194.7 235.8,196 240.6,196 240.6,199.5 235.8,199.5 235.8,201.7 
		235.8,208.6 235.8,208.9 235.8,209.2 235.8,212.2 275.1,212.3 	"/>
	<polygon class="stm1-2" points="121,146.9 118.4,151 115.4,154.9 120,159.5 117.8,161.6 117.9,161.7 117.9,161.8 132.8,176.5 
		132.9,176.6 133,176.5 133.1,176.6 133.3,176.8 134.4,178 135.6,176.8 194.2,176.8 194.2,176.6 194.2,176.5 194.2,161.8 
		194.2,161.7 194.2,161.6 194.2,159.5 194.2,154.9 194.2,151 194.2,146.9 194.2,142.5 123.2,142.5 	"/>
	<polygon class="stm1-2" points="192.8,70.2 183.8,70.2 183.8,69.2 183.8,61.2 154.8,61.2 154.8,69.2 156.2,69.2 156.2,70.2 
		156.2,72.8 154.8,72.8 154.8,114.6 156.2,114.6 156.2,118 192.8,118 192.8,114.6 194.2,114.6 194.2,72.8 192.8,72.8 	"/>
	<polygon class="stm1-2" points="239.6,70.2 239.6,72.8 238.1,72.8 238.1,89.2 254,89.2 254,114.6 254,118 277.4,118 277.4,114.6 
		280.9,114.6 280.9,118 303.5,118.1 303.5,118 303.5,114.6 303.5,89.2 303.5,72.8 303.5,69.2 303.5,61.2 278.4,61.2 278.4,69.2 
		280.9,69.2 280.9,72.8 277.4,72.8 277.4,70.2 	"/>
	<polygon class="stm1-2" points="397.3,43.9 392.5,43.9 392.5,44.1 389.5,44.1 389.5,45.1 389.5,47.3 389.5,117.8 427.3,117.8 
		427.3,47.3 408.2,45.1 407.8,45.1 397.3,45.1 397.3,44.1 	"/>
	<rect x="535.9" y="70.2" class="stm1-2" width="28.4" height="47.8"/>
	<polygon class="stm1-2" points="661.8,73.9 678.9,73.9 678.9,72.8 678.9,69.2 678.9,68.8 690.7,68.8 690.7,73.2 697.5,73.2 
		697.5,68.8 697.5,44.4 697.5,41.6 687.2,41.6 687.2,44.4 679.3,44.4 679.3,41.6 647,41.6 647,44.4 643.4,44.4 643.4,41.6 
		606.8,41.6 606.8,44.4 605.5,44.4 605.5,68.8 605.5,69.2 606.8,69.2 606.8,72.8 605.5,72.8 605.5,73.9 605.5,77.2 605.5,83.4 
		605.5,90.9 605.5,99.7 605.5,109.5 605.5,114.6 606.8,114.6 606.8,118 630.1,118 630.6,114.6 631.4,109.5 635,99.7 640.2,90.9 
		647,83.4 655.2,77.2 	"/>
	<polygon class="stm1-2" points="112.4,237.7 99.3,237.7 99.3,240.2 99.3,260.9 114.9,260.9 114.9,240.2 112.4,240.2 	"/>
	<polygon class="stm1-2" points="111.4,264.9 99.3,264.9 99.3,272.9 114.9,272.9 114.9,264.9 114.9,261.9 111.4,261.9 	"/>
	<polygon class="stm1-2" points="654,269.4 644.5,269.4 644.5,281 644.5,282 647,282 647,284.5 657,284.5 657,282 657,281 654,281 	"/>
	<rect x="575.6" y="51.9" class="stm1-2" width="29" height="8.2"/>
	<rect x="154.8" y="51.9" class="stm1-2" width="29" height="8.2"/>
	<polygon class="stm1-2" points="240.6,310.2 251,311 277.3,313.2 277.4,311 279.8,311 279.8,310.2 279.8,301.1 240.6,301.1 	"/>
	<polygon class="stm1-2" points="518.7,313 518.7,312.4 521.3,312.4 521.3,296.9 502.1,296.9 502.1,312.4 502.1,313 518.7,313.1 	"/>
	<polygon class="stm1-2" points="481.1,52.6 481.1,44.4 478.5,44.4 478.5,42.6 478.5,41.8 478.5,41.4 478.5,40.8 481.5,40.8 481.5,27 
		468.3,40.8 467.7,41.4 467.3,41.8 466.5,42.6 464.8,44.4 456.7,52.6 456.7,60.2 481.1,60.2 	"/>
	<polygon class="stm1-2" points="292,41.8 291.8,40.8 277.8,27 277.8,40.8 280.9,40.8 280.9,41.8 280.9,44.4 278.4,44.4 278.4,52.6 
		278.4,60.2 302.7,60.2 302.7,52.6 294.6,44.4 	"/>
	<polygon class="stm1-2" points="647,240.2 644.5,240.2 644.5,268.4 657,268.4 657,240.2 657,237.7 647,237.7 	"/>
	<polygon class="stm1-2" points="282.9,304 281.4,301.3 280.9,301.3 280.9,304 280.9,306.8 280.9,309.8 280.9,312.8 280.9,314.6 
		277.4,314.6 277.3,314.2 268.6,313.6 259.7,312.8 237.6,311 237.6,312.8 237.6,313.6 237.6,314.2 237.6,326.5 237.6,328.2 
		239.4,326.5 251.5,314.2 252.3,313.6 252.5,314.2 252.7,314.6 253,315.7 253.1,316.3 254.2,318.5 254.6,319 255.9,320.9 
		256.3,321.5 258.1,322.9 258.6,323.4 260.6,324.6 261.2,324.9 263.5,325.7 264,325.9 266.6,326.4 266.9,326.5 269.9,326.4 
		271.9,325.9 272.9,325.7 274.8,324.9 275.6,324.6 277.5,323.4 278.2,322.9 279.7,321.5 280.3,320.9 281.6,319 282.1,318.5 
		283,316.3 283.3,315.7 283.5,314.6 284,312.8 284.2,309.8 283.7,306.8 	"/>
	<polygon class="stm1-2" points="518.7,314.1 507.7,314.1 509.5,315.9 521.8,328.2 521.8,315.9 518.7,315.9 	"/>
	<polygon class="stm1-2" points="482.1,315.9 478.5,315.9 478.5,312.8 478.5,309.6 478.5,306.4 478.5,303.4 478.5,300.6 477,303.4 
		475.8,306.4 475.4,309.6 475.6,312.8 476.4,315.9 477.1,317.2 477.8,318.8 478.7,319.9 479.7,321.4 480.9,322.4 482.2,323.5 
		483.4,324.3 484.9,325 486.4,325.6 488,326.2 489.9,326.4 491.1,326.6 494.3,326.4 495.3,326.2 497.5,325.6 498.6,325 500.4,324.3 
		501.4,323.5 502.9,322.4 503.8,321.4 505,319.9 505.7,318.8 506.7,317.2 507.2,315.9 507.7,314.1 482.1,314.1 	"/>
	<rect x="482.1" y="236.8" class="stm1-2" width="23.3" height="27.9"/>
	<polygon class="stm1-2" points="223.6,282 223.6,240.2 223.6,236.7 196.4,236.7 196.4,240.2 195.2,240.2 195.2,282 196.4,282 
		196.4,284.5 223.6,284.5 	"/>
	<polygon class="stm1-2" points="632.2,284.5 632.2,282 632.2,240.2 632.2,236.8 630.2,236.8 606.8,236.8 606.8,240.2 603.2,240.2 
		603.2,236.8 603.2,236.7 584.9,236.8 566.5,236.8 566.5,240.2 563,240.2 563,236.8 535.9,236.8 535.9,240.2 535.9,282 535.9,284.5 
		563,284.5 563,282 566.5,282 566.5,284.5 603.2,284.5 603.2,282 606.8,282 606.8,284.5 	"/>
	<polygon class="stm1-2" points="736.7,195 736.7,198.9 724.5,199 724.5,198.9 724.5,195.1 706,195.1 706,193.5 691,193.5 689.2,195.1 
		688.8,195.1 688.8,198.9 688.8,199 688.8,199.1 684.9,199.1 684.9,200.1 668.7,216.3 686.2,234 699.8,234 699.8,271.3 699.8,282 
		699.8,284.5 725,284.5 725,282 735.5,282 735.5,284.5 743.4,284.5 743.4,282 743.4,271.3 743.4,234 743.4,216.3 743.4,200.1 
		743.4,199.1 743.4,199 743.4,198.9 743.4,195 	"/>
	<polygon class="stm1-2" points="638.4,146.9 636.2,142.5 605,142.5 605,146.9 605,151 605,154.9 605,155.2 606.8,155.2 606.8,158.8 
		605,158.8 605,159.5 605,161.6 605,161.7 605,176.8 623.9,176.8 624.9,178 626,176.8 641.5,161.7 641.4,161.7 641.5,161.6 
		639.4,159.5 640.1,158.8 643.6,155.2 644,154.9 641,151 	"/>
	<polygon class="stm1-2" points="562.3,212.2 564.3,212.2 564.3,209.2 564.3,208.9 564.3,208.6 564.3,201 564.3,199.5 563,199.5 
		563,196 564.3,196 564.3,193.2 564.3,185.3 564.3,177.4 564.3,176.8 604,176.8 604,169.4 604,161.5 604,158.8 603.2,158.8 
		603.2,155.2 604,155.2 604,153.7 604,146.1 604,145.9 604,145.8 604,145.5 604,142.5 514.4,142.4 460.7,142.3 460.7,142.4 
		460.4,142.4 460.4,142.5 460.4,145.5 460.4,145.8 460.2,145.9 460.4,146.1 462.9,153.7 463.3,155.2 464.1,158.8 464.8,161.5 
		465.9,169.4 466.3,176.8 466.4,177.4 465.9,185.3 464.8,193.2 464.1,196 463.3,199.5 462.9,201 460.4,208.6 460.2,208.9 
		460.4,208.9 460.4,209.2 460.4,212.2 460.4,212.3 460.6,212.3 460.6,212.4 562.3,212.3 	"/>
	<polygon class="stm1-2" points="195.2,145.9 195.2,152.9 195.2,155.2 196.4,155.2 196.4,158.8 195.2,158.8 195.2,160.1 195.2,167.5 
		195.2,174.8 195.2,176.8 293.1,176.8 293.1,174.8 293.2,174.8 293.9,167.5 295.1,160.1 295.3,158.8 296.2,155.2 296.8,152.9 
		299.1,145.9 299.1,142.5 299.1,142.3 195.2,142.5 	"/>
	<polygon class="stm1-2" points="234.8,196 234.8,195.5 234.8,178.6 234.8,177.8 135.9,177.8 135.1,178.6 151.9,195.5 156.6,195.5 
		156.6,196 156.6,199.5 156.6,200.1 168.6,212.2 234.8,212.2 234.8,200.1 234.8,199.5 233.1,199.5 233.1,196 	"/>
	<polygon class="stm1-2" points="68.7,69.2 80.1,69.2 80.1,72.8 80.1,74 97.6,74 104.1,77.2 112.4,83.4 119.2,90.9 124.4,99.7 
		128,109.5 128.8,114.6 129.3,118 152.6,118 152.6,114.6 153.8,114.6 153.8,109.5 153.8,99.7 153.8,90.9 153.8,83.4 153.8,77.2 
		153.8,74 153.8,72.8 152.6,72.8 152.6,69.2 153.8,69.2 153.8,44.4 152.6,44.4 152.6,40.8 115.9,40.8 115.9,44.4 112.4,44.4 
		112.4,40.8 80.1,40.8 80.1,44.4 76.6,44.4 76.6,40.8 61.9,40.8 61.9,44.4 61.9,69.2 61.9,73.2 68.7,73.2 	"/>
	<polygon class="stm1-2" points="196.4,118 223.6,118 223.6,114.6 223.6,72.8 223.6,70.2 196.4,70.2 196.4,72.8 195.2,72.8 
		195.2,114.6 196.4,114.6 	"/>
	<polygon class="stm1-2" points="362.1,45.1 352.1,45.1 352.1,45 351,45.1 328,47.8 304.5,51.9 304.5,114.6 304.5,117.9 317.6,117.9 
		317.6,114.6 321.1,114.6 321.1,117.8 321.1,117.9 369.9,117.8 369.9,114.6 369.9,51.9 369.9,47.8 369.9,45.1 369.9,44.5 
		362.1,44.5 	"/>
	<polygon class="stm1-2" points="438.3,117.9 438.3,114.6 441.9,114.6 441.9,118 444.1,118 478.5,118 478.5,114.6 482.1,114.6 
		482.1,118 505.4,118 505.4,114.6 505.4,89.2 521.3,89.2 521.3,72.8 519.7,72.8 519.7,70.2 482.1,70.2 482.1,72.8 478.5,72.8 
		478.5,69.2 481.1,69.2 481.1,61.2 455.7,61.2 455.7,52.2 428.3,47.3 428.3,52.2 428.3,61.2 428.3,69.2 428.3,72.8 428.3,89.2 
		428.3,114.6 428.3,117.9 438.3,118 	"/>
	<polygon class="stm1-2" points="566.5,118 603.2,118 603.2,114.6 604.5,114.6 604.5,72.8 603.2,72.8 603.2,70.2 603.2,69.2 
		604.5,69.2 604.5,61.2 575.6,61.2 575.6,69.2 575.6,70.2 566.5,70.2 566.5,72.8 565.3,72.8 565.3,114.6 566.5,114.6 	"/>
	<text transform="matrix(1 0 0 1 142.1047 163.9212)" class="stm1-3 stm1-7 stm1-8">HUMMEL</text>
	<text transform="matrix(0.656 -0.7548 0.7548 0.656 87.3556 173.1597)"><tspan x="0" y="0" class="stm1-3 stm1-7 stm1-9">HI</tspan><tspan x="-7.1" y="2.8" class="stm1-3 stm1-7 stm1-9">ACCESUARESS</tspan></text>
	<text transform="matrix(1 0 0 1 232.8694 163.9212)" class="stm1-3 stm1-7 stm1-8">IDEAL</text>
	<text transform="matrix(1 0 0 1 172.1409 198.1614)" class="stm1-3 stm1-7 stm1-8">ALMA STORE</text>
	<text transform="matrix(1 0 0 1 252.0667 198.1614)" class="stm1-3 stm1-7 stm1-8">LUI JO</text>
	<text transform="matrix(1 0 0 1 238.2053 230.6946)"><tspan x="0" y="0" class="stm1-3 stm1-7 stm1-10">AZƏRBAYCAN</tspan><tspan x="2" y="2.7" class="stm1-3 stm1-7 stm1-10">KƏLAĞAYI</tspan></text>
	<text transform="matrix(1 0 0 1 40.3977 253.7288)" class="stm1-3 stm1-7 stm1-8">ADIDAS</text>
	<text transform="matrix(1 0 0 1 147.1331 264.7688)" class="stm1-3 stm1-7 stm1-8">COAST</text>
	<text transform="matrix(1 0 0 1 201.22 263.4788)" class="stm1-3 stm1-7 stm1-8">ASB</text>
	<text transform="matrix(1 0 0 1 285.0852 273.6184)" class="stm1-2 stm1-7 stm1-8">MANGO</text>
	<text transform="matrix(1 0 0 1 435.5823 273.6184)" class="stm1-3 stm1-7 stm1-8">BEBE</text>
	<text transform="matrix(1 0 0 1 577.9094 265.262)" class="stm1-3 stm1-7 stm1-8">ADL</text>
	<text transform="matrix(1 0 0 1 483.1848 252.4964)" class="stm1-3 stm1-7 stm1-11">COCCINELLE</text>
	<text transform="matrix(0.585 0.811 -0.811 0.585 658.903 232.3323)" class="stm1-3 stm1-7 stm1-8">GALZEDONIA</text>
	<text transform="matrix(1 0 0 1 685.3655 218.5442)" class="stm1-3 stm1-7 stm1-8">INTIMISSIMI</text>
	<text transform="matrix(0.5724 -0.82 0.82 0.5724 713.4996 170.5858)" class="stm1-3 stm1-7 stm1-8">ALI NINO</text>
	<text transform="matrix(1 0 0 1 568.1897 188.2728)" class="stm1-3 stm1-7 stm1-12">LOCCITANE</text>
	<text transform="matrix(1 0 0 1 492.8176 181.6009)" class="stm1-3 stm1-7 stm1-12">BENETTON</text>
	<text transform="matrix(1 0 0 1 616.2883 160.3987)" class="stm1-3 stm1-7 stm1-12">SIX</text>
	<text transform="matrix(1 0 0 1 434.6418 86.7786)" class="stm1-3 stm1-7 stm1-12">TOMMY HILFIGER</text>
	<text transform="matrix(1 0 0 1 319.6018 86.6106)" class="stm1-3 stm1-7 stm1-12">LACOSTE</text>
	<text transform="matrix(1 0 0 1 398.0959 80.4143)"><tspan x="0" y="0" class="stm1-3 stm1-7 stm1-12">TARA</tspan><tspan x="-6.5" y="9.3" class="stm1-3 stm1-7 stm1-12">JARMON</tspan></text>
	<text transform="matrix(1 0 0 1 264.6204 86.6106)" class="stm1-3 stm1-7 stm1-12">SISLEY</text>
	<text transform="matrix(1 0 0 1 200.0872 86.6106)" class="stm1-3 stm1-7 stm1-12">ELLE</text>
	<text transform="matrix(1 0 0 1 161.3723 86.3694)"><tspan x="0" y="0" class="stm1-3 stm1-7 stm1-12">KAREN</tspan><tspan x="-1.1" y="9.3" class="stm1-3 stm1-7 stm1-12">MILLEN</tspan></text>
	<text transform="matrix(1 0 0 1 90.2034 61.7454)" class="stm1-3 stm1-7 stm1-12">NETWORK</text>
	<text transform="matrix(0 -1 1 0 548.3079 103.0784)"><tspan x="0" y="0" class="stm1-3 stm1-7 stm1-12">NEW</tspan><tspan x="-12.4" y="9.3" class="stm1-3 stm1-7 stm1-12">BALANCRO</tspan></text>
	<text transform="matrix(1 0 0 1 567.4602 94.1604)" class="stm1-3 stm1-7 stm1-13">PABLOSKY</text>
	<text transform="matrix(1 0 0 1 633.6321 61.429)" class="stm1-3 stm1-7 stm1-12">IPEKYOL</text>
	<text transform="matrix(0.9076 0.4199 -0.4199 0.9076 695.451 81.923)"><tspan x="0" y="0" class="stm1-3 stm1-7 stm1-14">SILVER</tspan><tspan x="1.2" y="6.5" class="stm1-3 stm1-7 stm1-14">STYLE</tspan></text>
	<text transform="matrix(0.6281 0.6803 -0.7347 0.6784 713.7434 94.0588)" class="stm1-3 stm1-7 stm1-15">MAJESTE</text>
	<line class="stm1-16" x1="107.5" y1="193.8" x2="97.1" y2="196.5"/>
	<line class="stm1-16" x1="106.6" y1="194" x2="126.8" y2="214.3"/>
	<line class="stm1-16" x1="126.8" y1="214.3" x2="106.6" y2="194"/>
	<line class="stm1-16" x1="130" y1="217.6" x2="106.6" y2="194"/>
	<line class="stm1-16" x1="106.6" y1="194" x2="126.8" y2="214.3"/>
	<line class="stm1-16" x1="130" y1="217.6" x2="124.4" y2="223.2"/>
	<line class="stm1-16" x1="124.4" y1="223.2" x2="97.9" y2="196.2"/>
	<line class="stm1-16" x1="105.6" y1="194.2" x2="127.6" y2="216.4"/>
	<line class="stm1-16" x1="105.4" y1="194.3" x2="127.4" y2="216.6"/>
	<line class="stm1-16" x1="99.1" y1="195.9" x2="123.4" y2="220.5"/>
	<line class="stm1-16" x1="98.9" y1="196" x2="123.3" y2="220.6"/>
	<line class="stm1-16" x1="123.3" y1="220.6" x2="123.4" y2="220.5"/>
	<line class="stm1-16" x1="127.4" y1="216.6" x2="127.6" y2="216.4"/>
	<line class="stm1-16" x1="129" y1="218.6" x2="105.1" y2="194.3"/>
	<line class="stm1-16" x1="126.8" y1="214.3" x2="106.6" y2="194"/>
	<line class="stm1-16" x1="125.4" y1="222.2" x2="99.5" y2="195.9"/>
	<line class="stm1-16" x1="119.2" y1="212.3" x2="102.3" y2="195.1"/>
	<line class="stm1-16" x1="121.9" y1="219.3" x2="122.1" y2="219.1"/>
	<line class="stm1-16" x1="126" y1="215.3" x2="126.2" y2="215.1"/>
	<line class="stm1-16" x1="117.4" y1="214.1" x2="121" y2="210.5"/>
	<line class="stm1-16" x1="116.3" y1="212.8" x2="119.9" y2="209.3"/>
	<line class="stm1-16" x1="115.1" y1="211.7" x2="118.6" y2="208.2"/>
	<line class="stm1-16" x1="114" y1="210.5" x2="117.5" y2="206.9"/>
	<line class="stm1-16" x1="112.7" y1="209.3" x2="116.3" y2="205.8"/>
	<line class="stm1-16" x1="111.6" y1="208.2" x2="115.2" y2="204.6"/>
	<line class="stm1-16" x1="109.3" y1="205.8" x2="112.9" y2="202.3"/>
	<line class="stm1-16" x1="108.1" y1="204.6" x2="111.6" y2="201"/>
	<line class="stm1-16" x1="106.9" y1="203.4" x2="110.5" y2="199.9"/>
	<line class="stm1-16" x1="105.7" y1="202.3" x2="109.4" y2="198.7"/>
	<line class="stm1-16" x1="104.6" y1="201" x2="108.2" y2="197.6"/>
	<line class="stm1-16" x1="103.5" y1="199.9" x2="107.1" y2="196.3"/>
	<line class="stm1-16" x1="102.3" y1="198.7" x2="105.8" y2="195.1"/>
	<line class="stm1-16" x1="101.2" y1="197.6" x2="103.9" y2="194.7"/>
	<line class="stm1-16" x1="99.9" y1="196.3" x2="100.8" y2="195.6"/>
	<line class="stm1-16" x1="110.4" y1="206.9" x2="114" y2="203.5"/>
	<line class="stm1-16" x1="121.1" y1="217.7" x2="124.7" y2="214.3"/>
	<line class="stm1-16" x1="117.3" y1="184" x2="106.9" y2="186.8"/>
	<line class="stm1-16" x1="116.5" y1="184.2" x2="136.6" y2="204.6"/>
	<line class="stm1-16" x1="136.6" y1="204.6" x2="116.5" y2="184.2"/>
	<line class="stm1-16" x1="139.9" y1="207.9" x2="116.5" y2="184.2"/>
	<line class="stm1-16" x1="116.5" y1="184.2" x2="136.6" y2="204.6"/>
	<line class="stm1-16" x1="139.9" y1="207.9" x2="134.4" y2="213.4"/>
	<line class="stm1-16" x1="134.4" y1="213.4" x2="107.7" y2="186.5"/>
	<line class="stm1-16" x1="115.5" y1="184.5" x2="137.5" y2="206.7"/>
	<line class="stm1-16" x1="115.3" y1="184.5" x2="137.3" y2="206.8"/>
	<line class="stm1-16" x1="109.1" y1="186.2" x2="133.4" y2="210.7"/>
	<line class="stm1-16" x1="108.8" y1="186.2" x2="133.1" y2="210.9"/>
	<line class="stm1-16" x1="137.3" y1="206.8" x2="137.5" y2="206.7"/>
	<line class="stm1-16" x1="138.9" y1="208.8" x2="115" y2="184.6"/>
	<line class="stm1-16" x1="136.6" y1="204.6" x2="116.5" y2="184.2"/>
	<line class="stm1-16" x1="135.4" y1="212.4" x2="109.4" y2="186.1"/>
	<line class="stm1-16" x1="129.1" y1="202.5" x2="112.2" y2="185.4"/>
	<line class="stm1-16" x1="135.9" y1="205.5" x2="136.1" y2="205.3"/>
	<line class="stm1-16" x1="127.3" y1="204.3" x2="130.9" y2="200.7"/>
	<line class="stm1-16" x1="126.1" y1="203.1" x2="129.7" y2="199.6"/>
	<line class="stm1-16" x1="125" y1="201.9" x2="128.6" y2="198.4"/>
	<line class="stm1-16" x1="123.8" y1="200.7" x2="127.3" y2="197.2"/>
	<line class="stm1-16" x1="122.7" y1="199.6" x2="126.2" y2="196"/>
	<line class="stm1-16" x1="121.4" y1="198.4" x2="125" y2="194.9"/>
	<line class="stm1-16" x1="119.1" y1="196" x2="122.8" y2="192.4"/>
	<line class="stm1-16" x1="118" y1="194.9" x2="121.5" y2="191.3"/>
	<line class="stm1-16" x1="116.9" y1="193.7" x2="120.4" y2="190.1"/>
	<line class="stm1-16" x1="115.6" y1="192.4" x2="119.2" y2="189"/>
	<line class="stm1-16" x1="114.5" y1="191.3" x2="118.1" y2="187.8"/>
	<line class="stm1-16" x1="113.3" y1="190.1" x2="116.9" y2="186.5"/>
	<line class="stm1-16" x1="112.2" y1="189" x2="115.7" y2="185.4"/>
	<line class="stm1-16" x1="111" y1="187.8" x2="113.9" y2="185"/>
	<line class="stm1-16" x1="109.8" y1="186.5" x2="110.6" y2="185.8"/>
	<line class="stm1-16" x1="120.3" y1="197.2" x2="123.9" y2="193.7"/>
	<line class="stm1-16" x1="131" y1="208" x2="134.6" y2="204.5"/>
	<line class="stm1-16" x1="651.6" y1="193.8" x2="661.9" y2="196.5"/>
	<line class="stm1-16" x1="652.5" y1="194" x2="632.3" y2="214.3"/>
	<line class="stm1-16" x1="632.3" y1="214.3" x2="652.5" y2="194"/>
	<line class="stm1-16" x1="629.1" y1="217.6" x2="652.5" y2="194"/>
	<line class="stm1-16" x1="652.5" y1="194" x2="632.3" y2="214.3"/>
	<line class="stm1-16" x1="629.1" y1="217.6" x2="634.6" y2="223.2"/>
	<line class="stm1-16" x1="634.6" y1="223.2" x2="661.1" y2="196.2"/>
	<line class="stm1-16" x1="653.5" y1="194.2" x2="631.5" y2="216.4"/>
	<line class="stm1-16" x1="653.7" y1="194.3" x2="631.6" y2="216.6"/>
	<line class="stm1-16" x1="659.9" y1="195.9" x2="635.6" y2="220.5"/>
	<line class="stm1-16" x1="660.1" y1="196" x2="635.7" y2="220.6"/>
	<line class="stm1-16" x1="635.7" y1="220.6" x2="635.6" y2="220.5"/>
	<line class="stm1-16" x1="631.6" y1="216.6" x2="631.5" y2="216.4"/>
	<line class="stm1-16" x1="630.1" y1="218.6" x2="654" y2="194.3"/>
	<line class="stm1-16" x1="632.3" y1="214.3" x2="652.5" y2="194"/>
	<line class="stm1-16" x1="633.6" y1="222.2" x2="659.6" y2="195.9"/>
	<line class="stm1-16" x1="639.9" y1="212.3" x2="656.8" y2="195.1"/>
	<line class="stm1-16" x1="637.2" y1="219.3" x2="637" y2="219.1"/>
	<line class="stm1-16" x1="633.1" y1="215.3" x2="632.8" y2="215.1"/>
	<line class="stm1-16" x1="641.6" y1="214.1" x2="638.1" y2="210.5"/>
	<line class="stm1-16" x1="642.8" y1="212.8" x2="639.2" y2="209.3"/>
	<line class="stm1-16" x1="644" y1="211.7" x2="640.4" y2="208.2"/>
	<line class="stm1-16" x1="645.1" y1="210.5" x2="641.5" y2="206.9"/>
	<line class="stm1-16" x1="646.3" y1="209.3" x2="642.8" y2="205.8"/>
	<line class="stm1-16" x1="647.4" y1="208.2" x2="643.9" y2="204.6"/>
	<line class="stm1-16" x1="649.8" y1="205.8" x2="646.2" y2="202.3"/>
	<line class="stm1-16" x1="651" y1="204.6" x2="647.4" y2="201"/>
	<line class="stm1-16" x1="652.1" y1="203.4" x2="648.6" y2="199.9"/>
	<line class="stm1-16" x1="653.3" y1="202.3" x2="649.7" y2="198.7"/>
	<line class="stm1-16" x1="654.5" y1="201" x2="650.9" y2="197.6"/>
	<line class="stm1-16" x1="655.6" y1="199.9" x2="652" y2="196.3"/>
	<line class="stm1-16" x1="656.8" y1="198.7" x2="653.2" y2="195.1"/>
	<line class="stm1-16" x1="657.9" y1="197.6" x2="655.1" y2="194.7"/>
	<line class="stm1-16" x1="659.1" y1="196.3" x2="658.2" y2="195.6"/>
	<line class="stm1-16" x1="648.7" y1="206.9" x2="645.1" y2="203.5"/>
	<line class="stm1-16" x1="638" y1="217.7" x2="634.4" y2="214.3"/>
	<line class="stm1-16" x1="641.8" y1="184" x2="652.1" y2="186.8"/>
	<line class="stm1-16" x1="642.5" y1="184.2" x2="622.5" y2="204.6"/>
	<line class="stm1-16" x1="622.5" y1="204.6" x2="642.5" y2="184.2"/>
	<line class="stm1-16" x1="619.1" y1="207.9" x2="642.5" y2="184.2"/>
	<line class="stm1-16" x1="642.5" y1="184.2" x2="622.5" y2="204.6"/>
	<line class="stm1-16" x1="619.1" y1="207.9" x2="624.7" y2="213.4"/>
	<line class="stm1-16" x1="624.7" y1="213.4" x2="651.3" y2="186.5"/>
	<line class="stm1-16" x1="643.5" y1="184.5" x2="621.6" y2="206.7"/>
	<line class="stm1-16" x1="643.8" y1="184.5" x2="621.8" y2="206.8"/>
	<line class="stm1-16" x1="650" y1="186.2" x2="625.7" y2="210.7"/>
	<line class="stm1-16" x1="650.2" y1="186.2" x2="625.9" y2="210.9"/>
	<line class="stm1-16" x1="621.8" y1="206.8" x2="621.6" y2="206.7"/>
	<line class="stm1-16" x1="620.1" y1="208.8" x2="644.1" y2="184.6"/>
	<line class="stm1-16" x1="622.5" y1="204.6" x2="642.5" y2="184.2"/>
	<line class="stm1-16" x1="623.7" y1="212.4" x2="649.7" y2="186.1"/>
	<line class="stm1-16" x1="629.9" y1="202.5" x2="646.9" y2="185.4"/>
	<line class="stm1-16" x1="623.1" y1="205.5" x2="622.9" y2="205.3"/>
	<line class="stm1-16" x1="631.7" y1="204.3" x2="628.2" y2="200.7"/>
	<line class="stm1-16" x1="633" y1="203.1" x2="629.4" y2="199.6"/>
	<line class="stm1-16" x1="634.1" y1="201.9" x2="630.5" y2="198.4"/>
	<line class="stm1-16" x1="635.3" y1="200.7" x2="631.7" y2="197.2"/>
	<line class="stm1-16" x1="636.4" y1="199.6" x2="632.8" y2="196"/>
	<line class="stm1-16" x1="637.6" y1="198.4" x2="634.1" y2="194.9"/>
	<line class="stm1-16" x1="640" y1="196" x2="636.3" y2="192.4"/>
	<line class="stm1-16" x1="641.1" y1="194.9" x2="637.5" y2="191.3"/>
	<line class="stm1-16" x1="642.2" y1="193.7" x2="638.6" y2="190.1"/>
	<line class="stm1-16" x1="643.4" y1="192.4" x2="639.9" y2="189"/>
	<line class="stm1-16" x1="644.5" y1="191.3" x2="641" y2="187.8"/>
	<line class="stm1-16" x1="645.8" y1="190.1" x2="642.2" y2="186.5"/>
	<line class="stm1-16" x1="646.9" y1="189" x2="643.3" y2="185.4"/>
	<line class="stm1-16" x1="648.1" y1="187.8" x2="645.2" y2="185"/>
	<line class="stm1-16" x1="649.2" y1="186.5" x2="648.4" y2="185.8"/>
	<line class="stm1-16" x1="638.7" y1="197.2" x2="635.2" y2="193.7"/>
	<line class="stm1-16" x1="628" y1="208" x2="624.5" y2="204.5"/>
	<line class="stm1-16" x1="354.9" y1="156.3" x2="354.9" y2="155.5"/>
	<line class="stm1-16" x1="354.9" y1="156.3" x2="402.6" y2="156.3"/>
	<line class="stm1-16" x1="354.9" y1="136.5" x2="402.6" y2="136.5"/>
	<line class="stm1-16" x1="388.9" y1="146.5" x2="396.4" y2="146.5"/>
	<line class="stm1-16" x1="396.4" y1="154.3" x2="360.6" y2="154.3"/>
	<line class="stm1-16" x1="362.8" y1="147.4" x2="396.4" y2="147.4"/>
	<line class="stm1-16" x1="362.8" y1="147.6" x2="396.4" y2="147.6"/>
	<line class="stm1-16" x1="362.8" y1="153.2" x2="396.4" y2="153.2"/>
	<line class="stm1-16" x1="362.8" y1="153.4" x2="396.4" y2="153.4"/>
	<line class="stm1-16" x1="396.4" y1="147.8" x2="360.6" y2="147.8"/>
	<line class="stm1-16" x1="396.4" y1="146.5" x2="388.9" y2="146.5"/>
	<line class="stm1-16" x1="396.4" y1="152.8" x2="360.6" y2="152.8"/>
	<line class="stm1-16" x1="396.4" y1="146.5" x2="388.9" y2="146.5"/>
	<line class="stm1-16" x1="396.4" y1="150.4" x2="373.4" y2="150.4"/>
	<line class="stm1-16" x1="362.8" y1="153.4" x2="362.8" y2="153.2"/>
	<line class="stm1-16" x1="362.8" y1="147.6" x2="362.8" y2="147.4"/>
	<line class="stm1-16" x1="373.4" y1="150.4" x2="376.3" y2="147.8"/>
	<line class="stm1-16" x1="373.4" y1="150.4" x2="376.3" y2="152.8"/>
	<line class="stm1-16" x1="360.6" y1="154.3" x2="360.6" y2="146.5"/>
	<line class="stm1-16" x1="364.8" y1="153.4" x2="364.8" y2="153.2"/>
	<line class="stm1-16" x1="364.8" y1="147.6" x2="364.8" y2="147.4"/>
	<line class="stm1-16" x1="373.4" y1="152.8" x2="373.4" y2="147.8"/>
	<line class="stm1-16" x1="388.9" y1="146.5" x2="396.4" y2="146.5"/>
	<line class="stm1-16" x1="396.4" y1="138.6" x2="360.6" y2="138.6"/>
	<line class="stm1-16" x1="362.8" y1="145.6" x2="396.4" y2="145.6"/>
	<line class="stm1-16" x1="362.8" y1="145.2" x2="396.4" y2="145.2"/>
	<line class="stm1-16" x1="362.8" y1="139.8" x2="396.4" y2="139.8"/>
	<line class="stm1-16" x1="362.8" y1="139.4" x2="396.4" y2="139.4"/>
	<line class="stm1-16" x1="396.4" y1="145" x2="360.6" y2="145"/>
	<line class="stm1-16" x1="396.4" y1="146.5" x2="388.9" y2="146.5"/>
	<line class="stm1-16" x1="396.4" y1="140" x2="360.6" y2="140"/>
	<line class="stm1-16" x1="396.4" y1="146.5" x2="360.6" y2="146.5"/>
	<line class="stm1-16" x1="396.4" y1="142.5" x2="373.4" y2="142.5"/>
	<line class="stm1-16" x1="362.8" y1="139.4" x2="362.8" y2="139.8"/>
	<line class="stm1-16" x1="362.8" y1="145.2" x2="362.8" y2="145.6"/>
	<line class="stm1-16" x1="373.4" y1="142.5" x2="376.3" y2="145"/>
	<line class="stm1-16" x1="373.4" y1="142.5" x2="376.3" y2="140"/>
	<line class="stm1-16" x1="360.6" y1="138.6" x2="360.6" y2="146.5"/>
	<line class="stm1-16" x1="364.8" y1="139.4" x2="364.8" y2="139.8"/>
	<line class="stm1-16" x1="364.8" y1="145.2" x2="364.8" y2="145.6"/>
	<line class="stm1-16" x1="373.4" y1="140" x2="373.4" y2="145"/>
	<line class="stm1-16" x1="368.2" y1="152.8" x2="368.2" y2="147.8"/>
	<line class="stm1-16" x1="368.2" y1="140" x2="368.2" y2="145"/>
	<line class="stm1-16" x1="394.9" y1="152.8" x2="394.9" y2="147.8"/>
	<line class="stm1-16" x1="393.1" y1="152.8" x2="393.1" y2="147.8"/>
	<line class="stm1-16" x1="391.4" y1="152.8" x2="391.4" y2="147.8"/>
	<line class="stm1-16" x1="389.6" y1="152.8" x2="389.6" y2="147.8"/>
	<line class="stm1-16" x1="387.8" y1="152.8" x2="387.8" y2="147.8"/>
	<line class="stm1-16" x1="394.9" y1="140" x2="394.9" y2="145"/>
	<line class="stm1-16" x1="393.1" y1="140" x2="393.1" y2="145"/>
	<line class="stm1-16" x1="391.4" y1="140" x2="391.4" y2="145"/>
	<line class="stm1-16" x1="389.6" y1="140" x2="389.6" y2="145"/>
	<line class="stm1-16" x1="387.8" y1="140" x2="387.8" y2="145"/>
	<line class="stm1-16" x1="386" y1="152.8" x2="386" y2="147.8"/>
	<line class="stm1-16" x1="384.2" y1="152.8" x2="384.2" y2="147.8"/>
	<line class="stm1-16" x1="382.4" y1="152.8" x2="382.4" y2="147.8"/>
	<line class="stm1-16" x1="380.7" y1="152.8" x2="380.7" y2="147.8"/>
	<line class="stm1-16" x1="378.8" y1="152.8" x2="378.8" y2="147.8"/>
	<line class="stm1-16" x1="386" y1="140" x2="386" y2="145"/>
	<line class="stm1-16" x1="384.2" y1="140" x2="384.2" y2="145"/>
	<line class="stm1-16" x1="382.4" y1="140" x2="382.4" y2="145"/>
	<line class="stm1-16" x1="380.7" y1="140" x2="380.7" y2="145"/>
	<line class="stm1-16" x1="378.8" y1="140" x2="378.8" y2="145"/>
	<line class="stm1-16" x1="377" y1="152.8" x2="377" y2="147.8"/>
	<line class="stm1-16" x1="375.2" y1="152.8" x2="375.2" y2="147.8"/>
	<line class="stm1-16" x1="377" y1="140" x2="377" y2="145"/>
	<line class="stm1-16" x1="375.2" y1="140" x2="375.2" y2="145"/>
	<line class="stm1-16" x1="364.8" y1="155.3" x2="364.8" y2="153.6"/>
	<line class="stm1-16" x1="364.4" y1="155.3" x2="364.4" y2="153.6"/>
	<line class="stm1-16" x1="354.9" y1="155.5" x2="402.6" y2="155.5"/>
	<line class="stm1-16" x1="364.4" y1="155.3" x2="364.8" y2="155.3"/>
	<line class="stm1-16" x1="397.7" y1="155.3" x2="398" y2="155.3"/>
	<line class="stm1-16" x1="402.6" y1="156.3" x2="402.6" y2="155.5"/>
	<polyline class="stm1-16" points="354.9,136.5 354.9,137.3 402.6,137.3 	"/>
	<line class="stm1-16" x1="397.7" y1="137.6" x2="398" y2="137.6"/>
	<line class="stm1-16" x1="402.6" y1="136.5" x2="402.6" y2="137.3"/>
	<line class="stm1-16" x1="397" y1="155.5" x2="397" y2="137.3"/>
	<line class="stm1-16" x1="397.7" y1="137.6" x2="397.7" y2="155.3"/>
	<line class="stm1-16" x1="398" y1="137.6" x2="398" y2="155.3"/>
	<line class="stm1-16" x1="364.4" y1="153.6" x2="364.8" y2="153.6"/>
	<line class="stm1-16" x1="364.8" y1="137.6" x2="364.8" y2="139.2"/>
	<polyline class="stm1-16" points="364.8,137.6 364.4,137.6 364.4,139.2 364.8,139.2 	"/>
	<rect x="677" y="118" class="stm1-1" width="9.3" height="9.3"/>
	<rect x="73.1" y="118" class="stm1-1" width="9.3" height="9.3"/>
	<rect x="354.5" y="172.5" class="stm1-2" width="50.3" height="21.8"/>
	<text transform="matrix(1 0 0 1 363.1047 181.5999)" class="stm1-3 stm1-7 stm1-12">F1 STORE</text>
	<text transform="matrix(1 0 0 1 366.2265 192.4332)" class="stm1-3 stm1-7 stm1-12">iTICKET</text>
	<path class="stm1-2" d="M49.8,107.1L38,95.5c4.8-8.7,15.8-17.3,21.9-20.7l7.8,14.4C63,91.9,52.9,100.8,49.8,107.1z"/>
	<text transform="matrix(0.5603 -0.8283 0.8283 0.5603 103.5249 145.8127)"><tspan x="0" y="0" class="stm1-3 stm1-7 stm1-17">LIFE</tspan><tspan x="-2.6" y="5.1" class="stm1-3 stm1-7 stm1-17">SPORT</tspan></text>
	<text transform="matrix(0.7339 -0.6792 0.6792 0.7339 45.0737 99.9818)" class="stm1-3 stm1-7 stm1-17">GREEN LİFE</text>
	<rect x="362.4" y="311.3" class="stm1-18" width="35.2" height="3.1"/>
	<rect x="362.4" y="314.4" class="stm1-18" width="35.2" height="3.1"/>
	<rect x="362.4" y="317.5" class="stm1-18" width="35.2" height="3.1"/>
	<rect x="362.4" y="320.6" class="stm1-18" width="35.2" height="3.1"/>
	<rect x="362.4" y="323.7" class="stm1-18" width="35.2" height="3.1"/>
	<rect x="362.4" y="326.8" class="stm1-18" width="35.2" height="3.1"/>
	<rect x="362.4" y="329.9" class="stm1-18" width="35.2" height="3.1"/>
	<rect x="362.4" y="333" class="stm1-18" width="35.2" height="3.1"/>
	<rect x="362.4" y="336.1" class="stm1-18" width="35.2" height="3.1"/>
	<rect x="362.4" y="339.2" class="stm1-18" width="35.2" height="3.1"/>
	<rect x="362.4" y="342.3" class="stm1-18" width="35.2" height="3.1"/>
	<line class="stm1-24" x1="354.4" y1="184" x2="405" y2="184"/>
</g>
<g id="Layer_2">
</g>
<g id="Layer_3">
</g>
<g id="Layer_4">
</g>
<g id="Layer_5">
</g>
<g id="Layer_6">
</g>
</svg>
