<?xml version="1.0" encoding="utf-8"?>
<!-- Generator: Adobe Illustrator 22.0.1, SVG Export Plug-In . SVG Version: 6.00 Build 0)  -->
<svg version="1.1" xmlns="http://www.w3.org/2000/svg" xmlns:xlink="http://www.w3.org/1999/xlink" x="0px" y="0px"
	 viewBox="0 0 797.1 314" style="enable-background:new 0 0 797.1 314;" xml:space="preserve">
<style type="text/css">
	.stm2-0{fill:#FCFCFA;}
	.stm2-1{fill:#F0F0F0;}
	.stm2-2{fill:#FFFFFF;}
	.stm2-3{fill:#A8A8A8;}
	.stm2-4{fill:none;stroke:#C9C9C9;stroke-width:0.5;stroke-miterlimit:10;}
	.stm2-5{fill:none;stroke:#C9C9C9;stroke-width:0.25;stroke-miterlimit:10;}
	.stm2-6{fill:#006397;}
	.stm2-7{fill:none;stroke:#767676;stroke-width:0.12;stroke-linecap:round;stroke-linejoin:round;stroke-miterlimit:10;}
	.stm2-8{fill:#FFFFFF;stroke:#C9C9C9;stroke-width:0.25;stroke-miterlimit:10;}
	.stm2-9{fill:#FFFFFF;stroke:#000000;stroke-width:0.5;stroke-miterlimit:10;}
	.stm2-10{fill:#DFFF7F;}
	.stm2-11{fill:none;stroke:#C9C9C9;stroke-width:0;stroke-linecap:round;stroke-linejoin:round;stroke-miterlimit:10;}
	.stm2-12{fill:none;stroke:#C9C9C9;stroke-width:0.25;stroke-linecap:round;stroke-linejoin:round;stroke-miterlimit:10;}
	.stm2-13{font-family:'Averta-Bold';}
	.stm2-14{font-size:7.1105px;}
	.stm2-15{font-size:3.4px;}
	.stm2-16{font-size:7.0514px;}
	.stm2-17{font-size:5.1657px;}
	.stm2-18{font-size:6.7666px;}
	.stm2-19{font-size:6.8093px;}
	.stm2-20{font-size:4.659px;}
	.stm2-21{font-size:6.6107px;}
	.stm2-22{font-size:4.6343px;}
	.stm2-23{font-size:2.4861px;}
	.stm2-24{font-size:3.3968px;}
	.stm2-25{font-size:4.2795px;}
	.stm2-26{fill:none;}
	.stm2-27{fill:none;stroke:#D8D8D8;stroke-width:0.5;stroke-miterlimit:10;}
</style>
  
<g id="Layer_1">
	<path class="stm2-1" d="M754.8,157.6l0.5-6c1.4-17.2-4.9-33.9-17.4-45.7l-5.4-5.1l-35.8-43.5H710V15.2h-17.3v-0.5h-62.5h-9.6h-40.4
		v0.8h-42.1v11.4h-30.5v-9.7h-2.4v-2.5h-20.5l-10.9,10.9l-44.4-6.6l-1-0.1L417,18.2l-34.7,0l-9.1,0.5l-2.1,0.1l-45.9,6.7l-6.4-6.4
		l-4.3-4.5H294v2.5h-2.5v9.7h-30.4V15.5H219v-0.8h-40.4H169h-62.5v0.5H89.1v42.2L55.6,99.6c0,0-38.8,66.4-42.6,71v116.7h14.5v1.1
		h57.7v-0.6h43v13.7h133.6v-5.4l36.4,3.1l0.5,3l196.2,0.3h6.6l0-4.4h14.2v0.8h21.7h2.4v2.2l124.1,0.3l6.6,0v-0.8h20.1v0.8h60.5V299
		h3.2l-0.1-10.5h17.5v-1.1h14.4V170.7L754.8,157.6z"/>
	<path class="stm2-2" d="M733.3,110.7l-9,12.2c7.3,7.7,10.6,18.2,9.3,28.3l15.1-0.2C749.9,136.3,744.6,121.3,733.3,110.7z"/>
	<path class="stm2-2" d="M58.9,151l12.8-8.2c-4.1-9.8-3.4-20.7,1.4-29.8l-14.2-5.2C52.5,121.2,52.1,137.1,58.9,151z"/>
	<g>
		<polygon class="stm2-2" points="508.3,150 500.8,157.6 481.1,177.2 481.1,192 544.2,192 544.2,177.2 544.2,157.6 515.9,157.6 		"/>
		<polygon class="stm2-2" points="664.4,134.5 661.4,130.7 658.8,126.6 656.6,122.2 545.2,122.2 545.2,126.6 545.2,130.7 545.2,134.5 
			545.2,139.1 545.2,141.3 545.2,156.6 585.6,156.6 585.6,175.2 585.6,179.9 585.6,192 611,192 623.1,179.9 623.1,175.2 
			627.8,175.2 646.5,156.6 662,141.3 659.9,139.1 		"/>
		<polygon class="stm2-2" points="379.9,34.2 379.9,39 379.9,48.7 379.9,52.3 380,94.1 380,97.7 458.3,97.7 458.3,94.1 460.8,94.1 
			460.5,52.3 458.3,52.3 458.3,48.7 460.8,48.7 460.8,39 419.8,34.2 		"/>
		<polygon class="stm2-2" points="259.3,52.3 257.7,52.3 257.7,68.6 273.6,68.6 273.6,97.7 337.3,97.7 337.3,68.6 337.3,52.3 
			337.3,49.8 259.3,49.8 		"/>
		<polygon class="stm2-2" points="175.6,97.7 212.4,97.7 212.4,94.1 213.6,94.1 213.6,52.3 212.4,52.3 212.4,49.8 203.3,49.8 
			203.3,48.7 203.3,40.7 174.3,40.7 174.3,48.7 175.6,48.7 175.6,49.8 175.6,52.3 174.3,52.3 174.3,94.1 175.6,94.1 		"/>
		<polygon class="stm2-2" points="152.7,156.6 153.8,157.7 154.9,156.6 213.6,156.6 213.6,141.3 213.6,139.1 213.6,134.5 213.6,130.7 
			213.6,126.6 213.6,122.2 142.5,122.2 140.3,126.6 137.7,130.7 134.7,134.5 139.3,139.1 137.2,141.3 		"/>
		<polygon class="stm2-2" points="317.8,192.1 318,192.1 318,192 318,179.3 318,177.2 316.4,175.7 298.3,157.6 290.8,150 283.2,157.6 
			214.6,157.6 214.6,175.7 215.9,175.7 215.9,177.2 215.9,179.3 214.6,179.3 214.6,192 279,192.1 317.8,192.2 		"/>
		<rect x="556" y="216.6" class="stm2-2" width="96.5" height="47.8"/>
		<polygon class="stm2-2" points="498.6,216.6 461.9,216.6 461.9,220 461.9,261.9 461.9,265.4 461.9,271 461.9,283.3 483,283.3 
			483,271 499.9,271 499.9,265.4 498.6,265.4 498.6,261.9 499.9,261.9 499.9,220 498.6,220 		"/>
		<rect x="379.9" y="216.6" class="stm2-2" width="39.8" height="66.7"/>
		<polygon class="stm2-2" points="300.5,220 299.3,220 299.3,261.9 300.5,261.9 300.5,265.4 299.3,265.4 299.3,271 316.1,271 
			316.1,283.3 337.3,283.3 337.3,271 337.3,265.4 337.3,261.9 337.3,220 337.3,216.6 300.5,216.6 		"/>
		<rect x="146.6" y="216.6" class="stm2-2" width="96.5" height="47.8"/>
		<polygon class="stm2-2" points="583.2,94.1 584.6,94.1 584.6,52.3 583.2,52.3 583.2,49.8 556,49.8 556,52.3 556,94.1 556,97.7 
			583.2,97.7 		"/>
	</g>
	<polygon class="stm2-2" points="677.5,275.8 677.5,275.3 677.5,272 677.5,265.4 677.5,260.9 674.5,260.9 674.5,249.3 663.9,249.3 
		663.9,227.7 653.5,227.7 653.5,249.3 653.5,260.9 653.5,265.4 555,265.4 555,261.9 555,244.5 555,231.7 526.6,231.7 526.6,244.5 
		544,244.5 544,261.9 545.5,261.9 545.5,265.4 513.2,265.4 513.2,272 484,272 484,275.3 484,275.8 484,280.1 484,284.3 315.1,284.3 
		315.1,280.1 315.1,272 272.8,272 272.8,265.4 255.2,265.4 255.2,244.5 272.6,244.5 272.6,231.8 253.8,231.8 253.8,227.7 
		244.1,227.7 244.1,231.8 244.1,244.5 244.1,265.4 145.5,265.4 145.5,263.4 145.5,261.6 145.5,244.8 145.5,241.8 145.5,227.6 
		135.3,227.6 135.3,241.8 130.7,241.8 130.7,244.8 117.6,244.7 117.6,244.8 117.6,261.6 135.3,261.6 135.3,263.4 104,263.4 
		104,265.4 104,272 104,280.1 104,281.3 134.7,281.3 134.7,294.9 255.2,294.9 255.2,281.3 255.2,280.1 301.8,280.1 302.5,284.3 
		304.3,295.7 494.9,296 494.9,295.7 496.7,284.3 497.4,280.1 521.3,280.1 521.3,275.8 544,275.8 544,277 544,292.4 546.4,292.4 
		546.4,294.1 546.4,294.6 663.9,294.9 663.9,294.6 663.9,294.1 696.1,294.1 696.1,292.4 696.1,277 677.5,277 	"/>
	<polygon class="stm2-2" points="204.3,40.7 204.3,48.7 244.1,48.7 244.1,52.3 244.1,69.6 244.1,82.5 272.6,82.5 272.6,69.6 
		254.5,69.6 254.5,52.3 253.7,52.3 253.7,48.7 337.3,48.7 337.3,40.7 337.3,38 379.4,33.2 419.8,33.2 461.9,38 461.9,40.7 
		461.9,48.7 545.5,48.7 545.5,52.3 544.7,52.3 544.7,69.6 526.6,69.6 526.6,82.4 526.6,82.5 555,82.4 555,69.6 555,52.3 555,48.7 
		594.8,48.7 594.8,40.7 594.8,33.5 594.8,30.3 624.8,30.3 624.8,23.8 623.6,23.8 623.6,22 623.6,21.2 586.8,21.2 586.8,22 544.7,22 
		544.7,23.8 544.7,30.3 544.7,33.5 502.1,33.5 502.1,40.7 474.9,40.7 474.9,38 474.9,33.2 474.9,32.3 428.4,25.4 427.6,25.3 
		416.7,24.8 382.4,24.8 373.6,25.3 371.6,25.4 324.3,32.3 324.3,33.2 324.3,38 324.3,40.7 297,40.7 297,33.5 258.5,33.5 258.5,40.7 
		254.5,40.7 254.5,30.3 254.5,23.8 254.5,22 212.4,22 212.4,21.2 175.6,21.2 175.6,22 175.6,23.8 174.3,23.8 174.3,30.3 204.3,30.3 
			"/>
	<polygon class="stm2-2" points="105.7,106.7 106.2,105.8 106.4,104.9 106.6,104 106.8,103.1 106.9,102.1 106.8,101.2 106.6,100.3 
		106.4,99.4 106.2,98.5 105.7,97.6 105.3,96.8 104.7,96.1 104.1,95.3 103.3,94.7 102.6,94.1 101.8,93.6 101,93.1 100,92.8 
		99.3,92.5 98.1,92.3 97.4,92.3 95.6,92.3 94.8,92.5 93.7,92.8 92.9,93.1 92,93.6 91.3,94.1 90.4,94.7 89.8,95.3 89.2,96.1 
		88.7,96.8 88.1,97.6 87.8,98.5 87.4,99.4 87.3,100.3 87.1,101.2 87.1,102.1 87.1,103.1 87.3,104 87.4,104.9 87.8,105.8 88.1,106.7 
		88.7,107.5 89.2,108.3 89.8,109 90.4,109.7 91.3,110.3 92,110.7 92.9,111.2 93.7,111.5 94.8,111.7 95.6,112 97.4,112.1 98.1,112 
		99.3,111.7 100,111.5 101,111.2 101.8,110.7 102.6,110.3 103.3,109.7 104.1,109 104.7,108.3 105.3,107.5 	"/>
	<polygon class="stm2-2" points="710.9,101.3 710.9,100.5 710.6,99.7 710.4,98.9 710,98.1 709.6,97.4 709.1,96.7 708.6,96 708,95.5 
		707.3,95 706.5,94.5 705.8,94.1 705,93.8 704.3,93.6 703.2,93.4 702.7,93.4 700.9,93.4 700.3,93.6 699.3,93.8 698.7,94.1 
		697.8,94.5 697.2,95 696.4,95.5 695.8,96 695.2,96.7 694.8,97.4 694.4,98.1 694.1,98.9 693.7,99.7 693.6,100.5 693.4,101.3 
		693.4,102.1 693.4,103 693.6,103.8 693.7,104.6 694.1,105.4 694.4,106.2 694.8,106.9 695.2,107.6 695.8,108.3 696.4,108.9 
		697.2,109.4 697.8,109.8 698.7,110.2 699.3,110.5 700.3,110.7 700.9,110.9 702.7,111 703.2,110.9 704.3,110.7 705,110.5 
		705.8,110.2 706.5,109.8 707.3,109.4 708,108.9 708.6,108.3 709.1,107.6 709.6,106.9 710,106.2 710.4,105.4 710.6,104.6 
		710.9,103.8 710.9,103 711,102.1 	"/>
	<rect x="522.3" y="276.8" class="stm2-9" width="16.6" height="15.6"/>
	<rect x="527.3" y="83.5" class="stm2-2" width="13.5" height="13.1"/>
	<rect x="510" y="100.3" class="stm2-2" width="16.6" height="10.4"/>
	<rect x="258.5" y="83.5" class="stm2-2" width="13.3" height="13.1"/>
	<rect x="527.3" y="217.5" class="stm2-2" width="13.5" height="13.1"/>
	<rect x="258.5" y="217.5" class="stm2-2" width="13.3" height="13.1"/>
	<rect x="502.1" y="281.1" class="stm2-2" width="19.2" height="10.5"/>
	<rect x="545.2" y="157.6" class="stm2-2" width="39.3" height="34.5"/>
	<polygon class="stm2-2" points="338.4,48.7 340.9,48.7 340.9,52.3 338.4,52.3 338.4,94.1 340.9,94.1 340.9,97.7 378.9,97.7 
		378.9,94.1 378.9,52.3 378.9,48.7 378.9,39 378.9,34.3 338.4,39 	"/>
	<rect x="214.6" y="49.8" class="stm2-2" width="28.4" height="47.9"/>
	<polygon class="stm2-2" points="172,97.5 172,94.1 173.3,94.1 173.3,91.4 173.3,85.5 173.3,79.9 173.3,74.5 173.3,69.4 173.3,64.7 
		173.3,58.5 173.3,52.3 172,52.3 172,52.1 172,48.7 173.3,48.7 173.3,48.3 173.3,43.1 173.3,40.9 173.3,31.6 173.3,29.4 173.3,24.2 
		173.3,23.8 172,23.8 172,21.2 113.1,21.2 113.1,23.8 113.1,24.2 104,24.2 104,21.7 95.7,21.7 95.7,24.2 95.7,29.4 98.4,29.4 
		98.4,31.6 95.7,31.6 95.7,40.9 98.4,40.9 98.4,43.1 95.7,43.1 95.7,48.3 95.7,50.8 104.1,50.8 104.1,48.3 113,48.3 113,48.7 
		113,52.1 118,52.1 118,52.3 118,58.5 133.8,58.5 133.8,64.7 137.8,69.4 141.2,74.5 144,79.9 146.4,85.5 148,91.4 148.4,94.1 
		149,97.5 172,97.7 	"/>
	<polygon class="stm2-2" points="290,149.3 279.1,138.4 275.7,135 262.9,122.2 253.7,122 253.7,122 253.5,122 216.9,122 216.7,122 
		216.7,122.2 214.6,122.2 214.6,135 215.9,135 215.9,138.4 214.6,138.4 214.6,149.3 214.6,156.6 282.8,156.6 	"/>
	<polygon class="stm2-2" points="154.5,158.4 171.3,175.2 176.1,175.2 176.1,179.9 188.1,192 213.6,192 213.6,179.9 213.6,175.2 
		213.6,158.4 213.6,157.6 155.3,157.6 	"/>
	<polygon class="stm2-2" points="523.5,135 519.9,138.4 509,149.3 516.4,156.6 544.2,156.6 544.2,149.3 544.2,138.4 538.9,138.4 
		538.9,135 544.2,135 544.2,122.2 536.3,122.2 	"/>
	<polygon class="stm2-2" points="768.4,177.2 768.4,179.3 760.3,179.3 760.3,176.7 748.1,176.7 748.1,179.3 744.5,179.3 744.5,176.7 
		708.3,176.7 708.3,179.3 708.3,179.8 704.4,179.8 704.4,180.8 690,195.2 687.8,197.4 671.6,213.5 671.6,216.6 678.5,216.6 
		678.5,217 678.5,219.2 678.5,238.8 678.5,241 678.5,260.6 678.5,262.8 678.5,275.3 697.2,275.3 697.2,279 697.2,292.4 697.2,294.9 
		704.2,294.9 704.2,292.4 707.8,292.4 707.8,294.9 744.5,294.9 744.5,292.4 747.7,292.4 747.6,279 750.2,279 750.2,281.9 
		765.1,281.9 765.1,279 767.3,279 767.3,280.8 779.5,280.8 779.5,279 779.5,275.3 779.5,262.8 772.3,262.8 772.3,260.6 779.5,260.6 
		779.5,241 772.3,241 772.3,238.8 779.5,238.8 779.5,219.2 772.3,219.2 772.3,217 779.5,217 779.5,216.6 779.5,213.5 779.5,197.4 
		772.3,197.4 772.3,195.2 779.5,195.2 779.5,180.8 779.5,179.8 779.5,179.3 779.5,177.2 	"/>
	<polygon class="stm2-2" points="525.6,220 525.6,216.6 502.1,216.6 502.1,220 500.9,220 500.9,245.5 500.9,261.9 502.1,261.9 
		502.1,264.4 502.1,265.4 500.9,265.4 500.9,271 512.2,271 512.2,265.4 512.2,264.4 538.9,264.4 538.9,261.9 541.4,261.9 
		541.4,245.5 525.6,245.5 	"/>
	<polygon class="stm2-2" points="458.3,216.6 420.2,216.6 420.3,220 420.3,220.4 420.3,283.3 460.8,283.3 460.8,220.4 460.8,220 
		458.3,220 	"/>
	<rect x="338.4" y="216.4" class="stm2-2" width="40.6" height="67"/>
	<polygon class="stm2-2" points="297,216.6 273.6,216.6 273.6,220 273.6,245.5 257.7,245.5 257.7,261.9 260.2,261.9 260.2,264.4 
		273.8,264.4 273.8,265.4 273.8,271 298.3,271 298.3,265.4 297,265.4 297,264.4 297,261.9 298.3,261.9 298.3,245.5 298.3,220 
		297,220 	"/>
	<polygon class="stm2-2" points="109.2,195.2 94.8,180.8 94.8,179.8 90.9,179.8 90.9,179.3 90.9,176.7 38.9,176.7 38.9,179.3 
		30.8,179.3 30.8,177.2 19.6,177.2 19.6,179.3 19.6,179.8 19.6,180.8 19.6,195.2 26.8,195.2 26.8,197.4 19.6,197.4 19.6,213.5 
		19.6,216.6 19.6,217 26.8,217 26.8,219.2 19.6,219.2 19.6,238.8 26.8,238.8 26.8,241 19.6,241 19.6,260.6 26.8,260.6 26.8,261.6 
		26.8,262.8 19.6,262.8 19.6,263.4 19.6,279 19.6,280.8 31.9,280.8 31.9,279 34.1,279 34.1,281.9 52,281.9 52,279 54.2,279 
		54.2,281.9 72.2,281.9 72.2,279 74.4,279 74.4,281.3 74.4,281.9 78.6,281.9 78.6,281.3 103.1,281.3 103.1,279 103.1,263.4 
		91.4,263.4 91.4,262.8 91.4,261.6 117.6,261.6 117.6,260.6 117.6,241 117.6,238.8 117.6,219.2 117.6,217 117.6,216.6 127.5,216.6 
		127.5,213.5 111.4,197.4 	"/>
	<polygon class="stm2-2" points="502.1,97.7 525.6,97.7 525.6,94.1 525.6,68.6 541.4,68.6 541.4,52.3 539.9,52.3 539.9,49.8 
		502.1,49.8 502.1,52.3 498.6,52.3 498.6,49.8 461.9,49.8 461.9,52.3 461.9,68.6 461.9,94.1 461.9,97.7 498.6,97.7 498.6,94.1 
		502.1,94.1 	"/>
	<polygon class="stm2-2" points="681.1,52.3 681.1,52.1 686.1,52.1 686.1,49.8 686.1,48.3 695.1,48.3 695.1,50.8 703.4,50.8 
		703.4,48.3 703.4,43.1 700.7,43.1 700.7,40.9 703.4,40.9 703.4,40.7 703.4,31.6 700.7,31.6 700.7,29.4 703.4,29.4 703.4,24.2 
		703.4,21.7 695.1,21.7 695.1,24.2 686.1,24.2 686.1,23.8 686.1,21.2 667.4,21.2 667.4,23.8 663.9,23.8 663.9,21.2 627.2,21.2 
		627.2,23.8 625.8,23.8 625.8,24.2 625.8,29.4 625.8,31.6 625.8,40.7 595.9,40.7 595.9,40.9 595.9,43.1 595.9,48.3 595.9,49.8 
		586.8,49.8 586.8,52.1 586.8,52.3 585.6,52.3 585.6,58.5 585.6,64.7 585.6,69.4 585.6,74.5 585.6,79.9 585.6,85.5 585.6,91.4 
		585.6,94.1 586.8,94.1 586.8,97.7 623.6,97.7 623.6,94.1 627.2,94.1 627.2,97.5 650.1,97.5 650.7,94.1 651.2,91.4 652.8,85.5 
		655.1,79.9 657.9,74.5 661.4,69.4 665.4,64.7 665.4,58.5 681.1,58.5 	"/>
	<polygon class="stm2-10" points="458.6,100.1 458.7,100.1 458.7,100.2 458.8,100.2 458.9,100.2 458.9,100.1 458.9,100 458.8,100 
		458.8,99.9 458.7,100 458.7,99.9 458.8,99.9 458.8,99.8 458.8,99.7 458.8,99.6 458.7,99.6 458.7,99.7 458.7,99.8 458.6,99.7 
		458.7,99.7 458.7,99.6 458.8,99.6 458.9,99.6 458.9,99.7 458.9,99.8 458.9,99.9 458.8,99.9 458.9,99.9 458.9,100 458.9,100.1 
		458.9,100.2 458.9,100.3 458.8,100.3 458.7,100.3 458.7,100.2 458.6,100.2 	"/>
	<path class="stm2-10" d="M459,100.1L459,100.1l0.1,0.1h0.1v-0.1V100v-0.1h-0.1v0.1H459V100.1z M459.3,99.7h-0.1v-0.1h-0.1v0.1H459v0.1
		v0.1h0.1v-0.1h0.1v0.1h0.1v0.1v0.1v0.1h-0.1v0.1h-0.1H459v-0.1v-0.1V100v-0.1v-0.1v-0.1v-0.1h0.1h0.1v0.1H459.3z"/>
	<polygon class="stm2-10" points="459.3,100.1 459.4,100.1 459.4,100.2 459.5,100.2 459.6,100.2 459.6,100.1 459.6,100 459.5,100 
		459.5,99.9 459.4,99.9 459.4,100 459.3,100 459.4,99.6 459.6,99.6 459.6,99.7 459.4,99.7 459.4,99.9 459.4,99.8 459.5,99.8 
		459.6,99.8 459.6,99.9 459.6,100 459.6,100.1 459.6,100.2 459.6,100.3 459.5,100.3 459.4,100.3 459.4,100.2 459.3,100.2 	"/>
	<g>
		<polygon class="stm2-2" points="260.2,289.3 297,292.5 297,289.3 297,281.1 260.2,281.1 		"/>
		<rect x="522.3" y="276.8" class="stm2-2" width="16.6" height="15.6"/>
		<polygon class="stm2-2" points="667.4,217.5 667.4,220 665,220 665,248.3 677.5,248.3 677.5,220 677.5,217.5 		"/>
		<rect x="595.9" y="31.3" class="stm2-2" width="28.9" height="8.4"/>
		<rect x="175.6" y="31.3" class="stm2-2" width="27.7" height="8.4"/>
		<polygon class="stm2-2" points="131.7,217.5 118.6,217.5 118.6,220 118.6,240.7 134.2,240.7 134.2,220 131.7,220 		"/>
		<rect x="125.7" y="241.8" class="stm2-2" width="4.1" height="2"/>
		<rect x="118.6" y="241.8" class="stm2-2" width="6" height="2"/>
		<rect x="675.5" y="249.3" class="stm2-2" width="2" height="6"/>
		<rect x="675.5" y="256.3" class="stm2-2" width="2" height="3.6"/>
		<polygon class="stm2-2" points="498.6,21.2 487.4,21.2 484.9,23.8 476.6,32 476.6,39.7 501.1,39.9 501.1,39.7 501.1,32 501.1,23.8 
			498.6,23.8 		"/>
		<polygon class="stm2-2" points="311.8,21.2 300.5,21.2 300.5,23.8 298,23.8 298,32 298,39.7 322.5,39.7 322.5,32 314.2,23.8 		"/>
	</g>
	<g>
		<g>
			<g>
				<line class="stm2-5" x1="445.1" y1="160.4" x2="463.8" y2="165.2"/>
				<line class="stm2-5" x1="430.5" y1="186.3" x2="424.9" y2="180.8"/>
				<line class="stm2-5" x1="424.9" y1="180.8" x2="445.1" y2="160.4"/>
				<line class="stm2-5" x1="453" y1="162.4" x2="431.7" y2="183.9"/>
				<line class="stm2-5" x1="446.1" y1="160.7" x2="427.4" y2="179.6"/>
				<line class="stm2-5" x1="429.5" y1="185.4" x2="452.3" y2="162.3"/>
				<line class="stm2-5" x1="426" y1="181.9" x2="446.7" y2="160.8"/>
				<line class="stm2-5" x1="430.5" y1="186.3" x2="454" y2="162.7"/>
				<line class="stm2-5" x1="435.7" y1="175.4" x2="449.5" y2="161.5"/>
				<line class="stm2-5" x1="434" y1="173.7" x2="437.6" y2="177.3"/>
				<line class="stm2-5" x1="435.1" y1="172.5" x2="438.7" y2="176.1"/>
				<line class="stm2-5" x1="436.3" y1="171.4" x2="439.9" y2="174.8"/>
				<line class="stm2-5" x1="437.5" y1="170.1" x2="441" y2="173.7"/>
				<line class="stm2-5" x1="438.7" y1="168.9" x2="442.3" y2="172.5"/>
				<line class="stm2-5" x1="439.8" y1="167.8" x2="443.4" y2="171.4"/>
				<line class="stm2-5" x1="442.2" y1="165.5" x2="445.7" y2="168.9"/>
				<line class="stm2-5" x1="443.3" y1="164.2" x2="446.9" y2="167.8"/>
				<line class="stm2-5" x1="444.5" y1="163.1" x2="448.1" y2="166.6"/>
				<line class="stm2-5" x1="445.6" y1="161.9" x2="449.3" y2="165.5"/>
				<line class="stm2-5" x1="447.1" y1="160.9" x2="450.4" y2="164.2"/>
				<line class="stm2-5" x1="430.5" y1="186.3" x2="436.1" y2="192"/>
				<line class="stm2-5" x1="436.1" y1="192" x2="462.7" y2="164.9"/>
				<line class="stm2-5" x1="455" y1="162.9" x2="433" y2="185.2"/>
				<line class="stm2-5" x1="461.7" y1="164.7" x2="437.3" y2="189.4"/>
				<line class="stm2-5" x1="431.6" y1="187.4" x2="455.5" y2="163.1"/>
				<line class="stm2-5" x1="435.1" y1="190.9" x2="461.1" y2="164.5"/>
				<line class="stm2-5" x1="430.5" y1="186.3" x2="454" y2="162.7"/>
				<line class="stm2-5" x1="441.3" y1="180.9" x2="458.4" y2="163.8"/>
				<line class="stm2-5" x1="443.2" y1="182.8" x2="439.6" y2="179.2"/>
				<line class="stm2-5" x1="444.3" y1="181.6" x2="440.7" y2="178"/>
				<line class="stm2-5" x1="445.5" y1="180.4" x2="442" y2="176.9"/>
				<line class="stm2-5" x1="446.6" y1="179.2" x2="443.1" y2="175.6"/>
				<line class="stm2-5" x1="447.9" y1="178" x2="444.3" y2="174.5"/>
				<line class="stm2-5" x1="449" y1="176.9" x2="445.4" y2="173.3"/>
				<line class="stm2-5" x1="451.3" y1="174.5" x2="447.8" y2="171"/>
				<line class="stm2-5" x1="452.6" y1="173.3" x2="448.9" y2="169.7"/>
				<line class="stm2-5" x1="453.7" y1="172.1" x2="450.1" y2="168.6"/>
				<line class="stm2-5" x1="454.8" y1="171" x2="451.2" y2="167.4"/>
				<line class="stm2-5" x1="456" y1="169.7" x2="452.5" y2="166.3"/>
				<line class="stm2-5" x1="457.1" y1="168.6" x2="453.6" y2="165.1"/>
				<line class="stm2-5" x1="458.4" y1="167.4" x2="454.8" y2="163.8"/>
				<line class="stm2-5" x1="441" y1="166.6" x2="444.6" y2="170.1"/>
				<line class="stm2-5" x1="450.2" y1="175.6" x2="446.5" y2="172.1"/>
				<line class="stm2-5" x1="430.2" y1="177.5" x2="433.9" y2="181.1"/>
				<line class="stm2-5" x1="439.4" y1="186.6" x2="435.8" y2="183"/>
				<line class="stm2-5" x1="450.2" y1="161.7" x2="451.5" y2="163"/>
				<line class="stm2-5" x1="456.6" y1="163.4" x2="459.5" y2="166.2"/>
				<line class="stm2-5" x1="459.9" y1="164.2" x2="460.7" y2="165.1"/>
				<polyline class="stm2-5" points="463.8,165.2 440.2,189 439.8,188.6 				"/>
				<line class="stm2-5" x1="438.7" y1="188.1" x2="440.4" y2="189.8"/>
				<line class="stm2-5" x1="464.6" y1="165.9" x2="440.4" y2="190.3"/>
				<line class="stm2-5" x1="464.3" y1="165.6" x2="440.4" y2="189.8"/>
				<line class="stm2-5" x1="438.3" y1="188.3" x2="440.4" y2="190.3"/>
			</g>
		</g>
		<g>
			<line class="stm2-12" x1="695.8" y1="152.5" x2="669.8" y2="178.8"/>
			<line class="stm2-12" x1="696" y1="152.7" x2="669.9" y2="179.1"/>
			<line class="stm2-12" x1="670.1" y1="179.2" x2="697.8" y2="151.3"/>
			<line class="stm2-12" x1="669.1" y1="178.3" x2="696.8" y2="150.3"/>
			<line class="stm2-12" x1="696" y1="152.7" x2="695.9" y2="152.5"/>
			<line class="stm2-12" x1="690.6" y1="162.2" x2="686.7" y2="162.4"/>
			<line class="stm2-12" x1="690.6" y1="162.2" x2="690.3" y2="166"/>
			<line class="stm2-12" x1="702.4" y1="155.8" x2="696.8" y2="150.3"/>
			<line class="stm2-12" x1="694.7" y1="154" x2="694.5" y2="153.9"/>
			<line class="stm2-12" x1="678.4" y1="178.1" x2="674.8" y2="174.5"/>
			<line class="stm2-12" x1="679.5" y1="177" x2="675.9" y2="173.4"/>
			<line class="stm2-12" x1="680.7" y1="175.8" x2="677.2" y2="172.2"/>
			<line class="stm2-12" x1="681.8" y1="174.6" x2="678.3" y2="171.1"/>
			<line class="stm2-12" x1="683.1" y1="173.4" x2="679.4" y2="169.8"/>
			<line class="stm2-12" x1="684.2" y1="172.2" x2="680.6" y2="168.7"/>
			<line class="stm2-12" x1="685.3" y1="171.1" x2="681.7" y2="167.5"/>
			<line class="stm2-12" x1="686.5" y1="169.8" x2="683" y2="166.4"/>
			<line class="stm2-12" x1="687.6" y1="168.7" x2="684.1" y2="165.2"/>
			<line class="stm2-12" x1="688.9" y1="167.5" x2="685.2" y2="163.9"/>
			<line class="stm2-12" x1="690" y1="166.4" x2="686.4" y2="162.8"/>
			<line class="stm2-12" x1="691.1" y1="165.2" x2="687.5" y2="161.6"/>
			<g>
				<g>
					<line class="stm2-12" x1="674.7" y1="183.8" x2="702.4" y2="155.8"/>
					<line class="stm2-12" x1="700" y1="156.6" x2="673.9" y2="183"/>
					<line class="stm2-12" x1="700.2" y1="156.8" x2="674.1" y2="183.2"/>
					<line class="stm2-12" x1="673.7" y1="182.8" x2="701.4" y2="154.8"/>
					<line class="stm2-12" x1="672" y1="181.1" x2="690.6" y2="162.2"/>
					<line class="stm2-12" x1="674.8" y1="181.7" x2="671.2" y2="178.1"/>
					<line class="stm2-12" x1="676" y1="180.4" x2="672.5" y2="177"/>
					<line class="stm2-12" x1="677.2" y1="179.3" x2="673.6" y2="175.8"/>
				</g>
				<line class="stm2-12" x1="696.1" y1="160.2" x2="692.5" y2="156.6"/>
			</g>
			<line class="stm2-12" x1="664.8" y1="174" x2="692.5" y2="146"/>
			<line class="stm2-12" x1="685.9" y1="142.7" x2="659.9" y2="169.1"/>
			<line class="stm2-12" x1="686.1" y1="142.9" x2="660" y2="169.3"/>
			<line class="stm2-12" x1="690.1" y1="146.8" x2="664" y2="173.2"/>
			<line class="stm2-12" x1="690.3" y1="147" x2="664.2" y2="173.4"/>
			<line class="stm2-12" x1="660.2" y1="169.5" x2="688" y2="141.5"/>
			<line class="stm2-12" x1="659.2" y1="168.5" x2="686.9" y2="140.5"/>
			<line class="stm2-12" x1="663.8" y1="173" x2="691.5" y2="145"/>
			<line class="stm2-12" x1="662.1" y1="171.3" x2="680.7" y2="152.4"/>
			<line class="stm2-12" x1="690.3" y1="147" x2="690.1" y2="146.8"/>
			<line class="stm2-12" x1="686.1" y1="142.9" x2="685.9" y2="142.7"/>
			<line class="stm2-12" x1="680.7" y1="152.4" x2="676.8" y2="152.7"/>
			<line class="stm2-12" x1="680.7" y1="152.4" x2="680.4" y2="156.2"/>
			<line class="stm2-12" x1="692.5" y1="146" x2="686.9" y2="140.5"/>
			<line class="stm2-12" x1="688.9" y1="148.3" x2="688.8" y2="148.2"/>
			<line class="stm2-12" x1="664.9" y1="171.9" x2="661.4" y2="168.3"/>
			<line class="stm2-12" x1="666.1" y1="170.8" x2="662.6" y2="167.2"/>
			<line class="stm2-12" x1="667.3" y1="169.5" x2="663.7" y2="166"/>
			<line class="stm2-12" x1="668.5" y1="168.3" x2="664.8" y2="164.8"/>
			<line class="stm2-12" x1="669.6" y1="167.2" x2="666" y2="163.6"/>
			<line class="stm2-12" x1="670.8" y1="166" x2="667.2" y2="162.4"/>
			<line class="stm2-12" x1="682.5" y1="154.1" x2="678.9" y2="150.6"/>
			<line class="stm2-12" x1="672" y1="164.8" x2="668.4" y2="161.3"/>
			<line class="stm2-12" x1="673.1" y1="163.6" x2="669.5" y2="160.1"/>
			<line class="stm2-12" x1="674.3" y1="162.5" x2="670.7" y2="158.9"/>
			<line class="stm2-12" x1="675.4" y1="161.3" x2="671.9" y2="157.7"/>
			<line class="stm2-12" x1="676.6" y1="160.1" x2="673" y2="156.6"/>
			<line class="stm2-12" x1="677.8" y1="158.9" x2="674.2" y2="155.4"/>
			<line class="stm2-12" x1="678.9" y1="157.7" x2="675.3" y2="154.2"/>
			<line class="stm2-12" x1="680.1" y1="156.6" x2="676.5" y2="153"/>
			<line class="stm2-12" x1="681.2" y1="155.4" x2="677.7" y2="151.8"/>
			<line class="stm2-5" x1="689.3" y1="149.3" x2="693.5" y2="153.3"/>
			<line class="stm2-5" x1="689.2" y1="148.1" x2="694.8" y2="153.6"/>
			<line class="stm2-5" x1="689.5" y1="147.8" x2="695.1" y2="153.3"/>
			<polyline class="stm2-5" points="699.4,159.1 700.4,160.2 673.9,187.1 666.8,179.9 			"/>
			<polyline class="stm2-5" points="666.5,180.5 655.1,169.2 682.6,141.5 684.9,143.9 			"/>
			<polyline class="stm2-5" points="699.1,157.8 701.4,160.2 674,188 666.5,180.5 			"/>
			<polyline class="stm2-5" points="666.2,180.8 654.5,169.2 682.6,140.9 685.2,143.5 			"/>
			<polyline class="stm2-5" points="699.4,157.6 702,160.2 674,188.6 666.2,180.8 			"/>
			<polyline class="stm2-5" points="682.6,142.5 656.2,169.2 666.8,179.9 			"/>
		</g>
		<g>
			<g>
				<line class="stm2-5" x1="352.9" y1="160" x2="334.2" y2="164.8"/>
				<line class="stm2-5" x1="367.5" y1="186" x2="373.1" y2="180.5"/>
				<line class="stm2-5" x1="373.1" y1="180.5" x2="352.9" y2="160"/>
				<line class="stm2-5" x1="345.1" y1="162" x2="366.4" y2="183.5"/>
				<line class="stm2-5" x1="351.9" y1="160.3" x2="370.6" y2="179.3"/>
				<line class="stm2-5" x1="368.5" y1="185.1" x2="345.7" y2="161.9"/>
				<line class="stm2-5" x1="372.1" y1="181.5" x2="351.3" y2="160.4"/>
				<line class="stm2-5" x1="367.5" y1="186" x2="344" y2="162.4"/>
				<line class="stm2-5" x1="362.3" y1="175.1" x2="348.5" y2="161.2"/>
				<line class="stm2-5" x1="364" y1="173.4" x2="360.5" y2="176.9"/>
				<line class="stm2-5" x1="362.9" y1="172.1" x2="359.3" y2="175.7"/>
				<line class="stm2-5" x1="361.7" y1="171" x2="358.1" y2="174.5"/>
				<line class="stm2-5" x1="360.6" y1="169.8" x2="357" y2="173.4"/>
				<line class="stm2-5" x1="359.3" y1="168.6" x2="355.8" y2="172.1"/>
				<line class="stm2-5" x1="358.2" y1="167.4" x2="354.6" y2="171"/>
				<line class="stm2-5" x1="355.9" y1="165.1" x2="352.3" y2="168.6"/>
				<line class="stm2-5" x1="354.7" y1="163.9" x2="351.1" y2="167.4"/>
				<line class="stm2-5" x1="353.5" y1="162.8" x2="350" y2="166.2"/>
				<line class="stm2-5" x1="352.4" y1="161.5" x2="348.7" y2="165.1"/>
				<line class="stm2-5" x1="351" y1="160.5" x2="347.6" y2="163.9"/>
				<line class="stm2-5" x1="367.5" y1="186" x2="361.9" y2="191.6"/>
				<line class="stm2-5" x1="361.9" y1="191.6" x2="335.3" y2="164.6"/>
				<line class="stm2-5" x1="343" y1="162.6" x2="365" y2="184.9"/>
				<line class="stm2-5" x1="336.3" y1="164.4" x2="360.8" y2="189"/>
				<line class="stm2-5" x1="366.5" y1="187" x2="342.5" y2="162.8"/>
				<line class="stm2-5" x1="362.9" y1="190.6" x2="336.9" y2="164.2"/>
				<line class="stm2-5" x1="367.5" y1="186" x2="344" y2="162.4"/>
				<line class="stm2-5" x1="356.7" y1="180.6" x2="339.7" y2="163.5"/>
				<line class="stm2-5" x1="354.9" y1="182.4" x2="358.4" y2="178.9"/>
				<line class="stm2-5" x1="353.7" y1="181.2" x2="357.3" y2="177.6"/>
				<line class="stm2-5" x1="352.5" y1="180.1" x2="356.1" y2="176.5"/>
				<line class="stm2-5" x1="351.4" y1="178.9" x2="355" y2="175.3"/>
				<line class="stm2-5" x1="350.2" y1="177.6" x2="353.7" y2="174.2"/>
				<line class="stm2-5" x1="349" y1="176.5" x2="352.6" y2="172.9"/>
				<line class="stm2-5" x1="346.7" y1="174.2" x2="350.3" y2="170.6"/>
				<line class="stm2-5" x1="345.5" y1="172.9" x2="349.1" y2="169.4"/>
				<line class="stm2-5" x1="344.4" y1="171.7" x2="347.9" y2="168.3"/>
				<line class="stm2-5" x1="343.2" y1="170.6" x2="346.8" y2="167"/>
				<line class="stm2-5" x1="342" y1="169.4" x2="345.6" y2="165.9"/>
				<line class="stm2-5" x1="340.9" y1="168.3" x2="344.5" y2="164.7"/>
				<line class="stm2-5" x1="339.7" y1="167" x2="343.2" y2="163.5"/>
				<line class="stm2-5" x1="357" y1="166.2" x2="353.4" y2="169.8"/>
				<line class="stm2-5" x1="347.8" y1="175.3" x2="351.5" y2="171.7"/>
				<line class="stm2-5" x1="367.8" y1="177.1" x2="364.1" y2="180.7"/>
				<line class="stm2-5" x1="358.6" y1="186.2" x2="362.2" y2="182.6"/>
				<line class="stm2-5" x1="347.8" y1="161.3" x2="346.5" y2="162.7"/>
				<line class="stm2-5" x1="341.4" y1="163.1" x2="338.5" y2="165.8"/>
				<line class="stm2-5" x1="338.1" y1="163.9" x2="337.3" y2="164.7"/>
				<polyline class="stm2-5" points="334.2,164.8 357.8,188.6 358.2,188.2 				"/>
				<line class="stm2-5" x1="359.3" y1="187.7" x2="357.6" y2="189.5"/>
				<line class="stm2-5" x1="333.4" y1="165.6" x2="357.6" y2="190"/>
				<line class="stm2-5" x1="333.7" y1="165.3" x2="357.6" y2="189.5"/>
				<line class="stm2-5" x1="359.7" y1="188" x2="357.6" y2="190"/>
			</g>
		</g>
		<g>
			<line class="stm2-12" x1="101.9" y1="152.5" x2="128" y2="178.8"/>
			<line class="stm2-12" x1="101.8" y1="152.7" x2="127.9" y2="179.1"/>
			<line class="stm2-12" x1="127.7" y1="179.2" x2="100" y2="151.3"/>
			<line class="stm2-12" x1="128.7" y1="178.3" x2="101" y2="150.3"/>
			<line class="stm2-12" x1="101.8" y1="152.7" x2="101.9" y2="152.5"/>
			<line class="stm2-12" x1="107.2" y1="162.2" x2="111.1" y2="162.4"/>
			<line class="stm2-12" x1="107.2" y1="162.2" x2="107.5" y2="166"/>
			<line class="stm2-12" x1="95.4" y1="155.8" x2="101" y2="150.3"/>
			<line class="stm2-12" x1="103.1" y1="154" x2="103.3" y2="153.9"/>
			<line class="stm2-12" x1="119.4" y1="178.1" x2="123" y2="174.5"/>
			<line class="stm2-12" x1="118.3" y1="177" x2="121.9" y2="173.4"/>
			<line class="stm2-12" x1="117.1" y1="175.8" x2="120.6" y2="172.2"/>
			<line class="stm2-12" x1="116" y1="174.6" x2="119.5" y2="171.1"/>
			<line class="stm2-12" x1="114.7" y1="173.4" x2="118.4" y2="169.8"/>
			<line class="stm2-12" x1="113.6" y1="172.2" x2="117.2" y2="168.7"/>
			<line class="stm2-12" x1="112.5" y1="171.1" x2="116.1" y2="167.5"/>
			<line class="stm2-12" x1="111.3" y1="169.8" x2="114.8" y2="166.4"/>
			<line class="stm2-12" x1="110.2" y1="168.7" x2="113.7" y2="165.2"/>
			<line class="stm2-12" x1="108.9" y1="167.5" x2="112.6" y2="163.9"/>
			<line class="stm2-12" x1="107.8" y1="166.4" x2="111.4" y2="162.8"/>
			<line class="stm2-12" x1="106.7" y1="165.2" x2="110.3" y2="161.6"/>
			<g>
				<g>
					<line class="stm2-12" x1="123.1" y1="183.8" x2="95.4" y2="155.8"/>
					<line class="stm2-12" x1="97.8" y1="156.6" x2="123.9" y2="183"/>
					<line class="stm2-12" x1="97.6" y1="156.8" x2="123.7" y2="183.2"/>
					<line class="stm2-12" x1="124.1" y1="182.8" x2="96.4" y2="154.8"/>
					<line class="stm2-12" x1="125.8" y1="181.1" x2="107.2" y2="162.2"/>
					<line class="stm2-12" x1="123" y1="181.7" x2="126.6" y2="178.1"/>
					<line class="stm2-12" x1="121.8" y1="180.4" x2="125.3" y2="177"/>
					<line class="stm2-12" x1="120.6" y1="179.3" x2="124.2" y2="175.8"/>
				</g>
				<line class="stm2-12" x1="101.7" y1="160.2" x2="105.3" y2="156.6"/>
			</g>
			<line class="stm2-12" x1="133" y1="174" x2="105.3" y2="146"/>
			<line class="stm2-12" x1="111.9" y1="142.7" x2="137.9" y2="169.1"/>
			<line class="stm2-12" x1="111.7" y1="142.9" x2="137.8" y2="169.3"/>
			<line class="stm2-12" x1="107.7" y1="146.8" x2="133.8" y2="173.2"/>
			<line class="stm2-12" x1="107.5" y1="147" x2="133.6" y2="173.4"/>
			<line class="stm2-12" x1="137.6" y1="169.5" x2="109.8" y2="141.5"/>
			<line class="stm2-12" x1="138.6" y1="168.5" x2="110.9" y2="140.5"/>
			<line class="stm2-12" x1="134" y1="173" x2="106.3" y2="145"/>
			<line class="stm2-12" x1="135.7" y1="171.3" x2="117.1" y2="152.4"/>
			<line class="stm2-12" x1="107.5" y1="147" x2="107.7" y2="146.8"/>
			<line class="stm2-12" x1="111.7" y1="142.9" x2="111.9" y2="142.7"/>
			<line class="stm2-12" x1="117.1" y1="152.4" x2="121" y2="152.7"/>
			<line class="stm2-12" x1="117.1" y1="152.4" x2="117.4" y2="156.2"/>
			<line class="stm2-12" x1="105.3" y1="146" x2="110.9" y2="140.5"/>
			<line class="stm2-12" x1="108.9" y1="148.3" x2="109" y2="148.2"/>
			<line class="stm2-12" x1="132.9" y1="171.9" x2="136.4" y2="168.3"/>
			<line class="stm2-12" x1="131.7" y1="170.8" x2="135.2" y2="167.2"/>
			<line class="stm2-12" x1="130.5" y1="169.5" x2="134.1" y2="166"/>
			<line class="stm2-12" x1="129.3" y1="168.3" x2="133" y2="164.8"/>
			<line class="stm2-12" x1="128.2" y1="167.2" x2="131.8" y2="163.6"/>
			<line class="stm2-12" x1="127" y1="166" x2="130.6" y2="162.4"/>
			<line class="stm2-12" x1="115.3" y1="154.1" x2="118.9" y2="150.6"/>
			<line class="stm2-12" x1="125.8" y1="164.8" x2="129.4" y2="161.3"/>
			<line class="stm2-12" x1="124.7" y1="163.6" x2="128.3" y2="160.1"/>
			<line class="stm2-12" x1="123.5" y1="162.5" x2="127.1" y2="158.9"/>
			<line class="stm2-12" x1="122.4" y1="161.3" x2="125.9" y2="157.7"/>
			<line class="stm2-12" x1="121.2" y1="160.1" x2="124.8" y2="156.6"/>
			<line class="stm2-12" x1="120" y1="158.9" x2="123.6" y2="155.4"/>
			<line class="stm2-12" x1="118.9" y1="157.7" x2="122.5" y2="154.2"/>
			<line class="stm2-12" x1="117.7" y1="156.6" x2="121.3" y2="153"/>
			<line class="stm2-12" x1="116.6" y1="155.4" x2="120.1" y2="151.8"/>
			<line class="stm2-5" x1="108.5" y1="149.3" x2="104.3" y2="153.3"/>
			<line class="stm2-5" x1="108.6" y1="148.1" x2="103" y2="153.6"/>
			<line class="stm2-5" x1="108.3" y1="147.8" x2="102.7" y2="153.3"/>
			<polyline class="stm2-5" points="98.4,159.1 97.4,160.2 123.9,187.1 131,179.9 			"/>
			<polyline class="stm2-5" points="131.3,180.5 142.7,169.2 115.2,141.5 112.9,143.9 			"/>
			<polyline class="stm2-5" points="98.7,157.8 96.4,160.2 123.8,188 131.3,180.5 			"/>
			<polyline class="stm2-5" points="131.6,180.8 143.3,169.2 115.2,140.9 112.6,143.5 			"/>
			<polyline class="stm2-5" points="98.4,157.6 95.8,160.2 123.8,188.6 131.6,180.8 			"/>
			<polyline class="stm2-5" points="115.2,142.5 141.6,169.2 131,179.9 			"/>
		</g>
	</g>
	<text transform="matrix(1 0 0 1 124.289 42.1258)" class="stm2-3 stm2-13 stm2-14">GERUTTI</text>
	<text transform="matrix(1 0 0 1 90.5148 100.8155)"><tspan x="0" y="0" class="stm2-3 stm2-13 stm2-15">WORLD</tspan><tspan x="-1.7" y="4.1" class="stm2-3 stm2-13 stm2-15">TELECOM</tspan></text>
	<text transform="matrix(1 0 0 1 179.9023 70.3528)" class="stm2-3 stm2-13 stm2-14">ROMAN</text>
	<text transform="matrix(0 -1 1 0 231.3027 95.6892)" class="stm2-3 stm2-13 stm2-14">SASSOFONO</text>
	<text transform="matrix(1 0 0 1 278.9491 75.0515)" class="stm2-3 stm2-13 stm2-16">PIERRE CARDIN</text>
	<text transform="matrix(0 -1 1 0 361.329 93.0804)" class="stm2-3 stm2-13 stm2-14">ACCESSORIES</text>
	<text transform="matrix(1 0 0 1 551.8456 173.5266)"><tspan x="0" y="0" class="stm2-3 stm2-13 stm2-14">ROYAM</tspan><tspan x="-5.4" y="8.5" class="stm2-3 stm2-13 stm2-14">JEWELERY</tspan></text>
	<text transform="matrix(1 0 0 1 598.8417 140.8997)" class="stm2-3 stm2-13 stm2-14">MAVI</text>
	<text transform="matrix(0.2732 0.962 -0.962 0.2732 734.5762 119.0314)"><tspan x="0" y="0" class="stm2-3 stm2-13 stm2-17">QARABAGH</tspan><tspan x="7.6" y="5.6" class="stm2-3 stm2-13 stm2-17">SHOP</tspan></text>
	<text transform="matrix(1 0 0 1 698.2587 236.8606)" class="stm2-3 stm2-13 stm2-14">ENGLISH HOME</text>
	<text transform="matrix(1 0 0 1 594.8271 242.6692)" class="stm2-3 stm2-13 stm2-14">LOFT</text>
	<text transform="matrix(0 -1 1 0 510.2148 263.9539)" class="stm2-3 stm2-13 stm2-14">GREENWICH</text>
	<text transform="matrix(1 0 0 1 509.0507 177.3655)" class="stm2-3 stm2-13 stm2-14">VMF</text>
	<text transform="matrix(1 0 0 1 473.7509 238.3889)" class="stm2-3 stm2-13 stm2-14">BYT</text>
	<text transform="matrix(1 0 0 1 426.205 237.5061)"><tspan x="0" y="0" class="stm2-3 stm2-13 stm2-14">MONICA</tspan><tspan x="5.2" y="8.5" class="stm2-3 stm2-13 stm2-14">RICCI</tspan></text>
	<text transform="matrix(1 0 0 1 386.7245 237.5056)" class="stm2-3 stm2-13 stm2-14">MUMUS</text>
	<text transform="matrix(1 0 0 1 342.8163 237.5052)" class="stm2-3 stm2-13 stm2-14">ACOOLA</text>
	<text transform="matrix(1 0 0 1 265.871 254.22)"><tspan x="0" y="0" class="stm2-3 stm2-13 stm2-18">WOMEN</tspan><tspan x="-0.9" y="6.8" class="stm2-3 stm2-13 stm2-18">SECRETS</tspan></text>
	<text transform="matrix(1 0 0 1 177.8232 242.8723)" class="stm2-3 stm2-13 stm2-14">US POLO</text>
	<text transform="matrix(1 0 0 1 51.7196 231.0183)" class="stm2-3 stm2-13 stm2-14">KARACA</text>
	<text transform="matrix(1 0 0 1 168.8417 167.6331)" class="stm2-3 stm2-13 stm2-14">SAMSONITE</text>
	<text transform="matrix(1 0 0 1 165.454 142.9383)" class="stm2-3 stm2-13 stm2-14">LUFIAN</text>
	<text transform="matrix(1 0 0 1 245.2255 176.7366)" class="stm2-3 stm2-13 stm2-14">GREYDER</text>
	<text transform="matrix(1 0 0 1 229.4286 142.9383)" class="stm2-3 stm2-13 stm2-14">PYLONES</text>
	<text transform="matrix(1 0 0 1 301.9696 228.8777)"><tspan x="0" y="0" class="stm2-3 stm2-13 stm2-19">ORIGINAL</tspan><tspan x="1.3" y="8.2" class="stm2-3 stm2-13 stm2-19">MARINES</tspan></text>
	<text transform="matrix(0.7152 -0.6989 0.6989 0.7152 515.2352 153.7292)" class="stm2-3 stm2-13 stm2-14">KIDAMORE</text>
	<text transform="matrix(1 0 0 1 607.3007 75.052)" class="stm2-3 stm2-13 stm2-14">COLINS</text>
	<text transform="matrix(1 0 0 1 562.4706 75.0515)" class="stm2-3 stm2-13 stm2-14">PINK</text>
	<text transform="matrix(1 0 0 1 475.4774 75.7683)" class="stm2-3 stm2-13 stm2-14">CACHAREL</text>
	<text transform="matrix(1 0 0 1 410.5341 70.3528)" class="stm2-3 stm2-13 stm2-14">OVS</text>
	<path class="stm2-2" d="M466.8,123l-13,5.2c3.9,5.1,6.2,11.5,6.2,18.4c0,2.3-0.3,4.6-0.8,6.7l12.9,2.3c1.6-3.7,2.6-7.9,2.6-12.2
		C474.6,135.5,471.6,128.4,466.8,123z"/>
	<path class="stm2-2" d="M337.1,123l13,5.2c-3.9,5.1-6.2,11.5-6.2,18.4c0,2.3,0.3,4.6,0.8,6.7l-12.9,2.3c-1.6-3.7-2.6-7.9-2.6-12.2
		C329.2,135.5,332.2,128.4,337.1,123z"/>
	<text transform="matrix(0.1702 0.9854 -0.9854 0.1702 462.6912 132.3572)" class="stm2-3 stm2-13 stm2-14">Billur</text>
	<text transform="matrix(0.1168 -0.9932 0.9932 0.1168 336.3608 149.3146)"><tspan x="0" y="0" class="stm2-3 stm2-13 stm2-20">Zuleykha</tspan><tspan x="-2.8" y="4.5" class="stm2-3 stm2-13 stm2-20">accesuaries</tspan></text>
	<text transform="matrix(8.836000e-02 -0.9961 0.9961 8.836000e-02 63.7356 141.9581)" class="stm2-3 stm2-13 stm2-21">INGLOT</text>
	<rect x="669.1" y="63.4" class="stm2-2" width="20.9" height="14.4"/>
	<text transform="matrix(1 0 0 1 673.4667 70.2444)"><tspan x="0" y="0" class="stm2-3 stm2-13 stm2-22">BUTA</tspan><tspan x="-2.3" y="4.4" class="stm2-3 stm2-13 stm2-22">suvinier</tspan></text>
	<text transform="matrix(1 0 0 1 515.3925 105.3699)"><tspan x="0" y="0" class="stm2-3 stm2-13 stm2-23">OXO</tspan><tspan x="-3.9" y="2.4" class="stm2-3 stm2-13 stm2-23">accesuaries</tspan></text>
	<rect x="273.4" y="100.3" class="stm2-2" width="16.6" height="10.4"/>
	<text transform="matrix(1 0 0 1 275.994 107.0686)" class="stm2-3 stm2-13 stm2-24">CROFF</text>
	<path class="stm2-2" d="M403.5,169.5h-8.4c-6.1,0-11,4.9-11,11v0h30.3v0C414.5,174.4,409.5,169.5,403.5,169.5z"/>
	<text transform="matrix(1 0 0 1 390.0038 177.1272)" class="stm2-3 stm2-13 stm2-25">RAY BAN</text>
</g>
<g id="Layer_2">
</g>
<g id="Layer_3">
</g>
<g id="Layer_4">
</g>
<g id="Layer_5">
</g>
<g id="Layer_6">
</g>
</svg>
