<?xml version="1.0" encoding="utf-8"?>
<!-- Generator: Adobe Illustrator 22.0.1, SVG Export Plug-In . SVG Version: 6.00 Build 0)  -->
<svg version="1.1" xmlns="http://www.w3.org/2000/svg" xmlns:xlink="http://www.w3.org/1999/xlink" x="0px" y="0px"
	 viewBox="0 0 800.6 323" style="enable-background:new 0 0 800.6 323;" xml:space="preserve">
<style type="text/css">
	.stm-3-0{fill:#FCFCFA;}
	.stm-3-1{fill:#F0F0F0;}
	.stm-3-2{fill:#FFFFFF;}
	.stm-3-3{fill:#A8A8A8;}
	.stm-3-4{fill:none;stroke:#C9C9C9;stroke-width:0.5;stroke-miterlimit:10;}
	.stm-3-5{fill:none;stroke:#C9C9C9;stroke-width:0.25;stroke-miterlimit:10;}
	.stm-3-6{fill:#006397;}
	.stm-3-7{fill:none;stroke:#767676;stroke-width:0.12;stroke-linecap:round;stroke-linejoin:round;stroke-miterlimit:10;}
	.stm-3-8{fill:#FFFFFF;stroke:#C9C9C9;stroke-width:0.25;stroke-miterlimit:10;}
	.stm-3-9{fill:#FFFFFF;stroke:#000000;stroke-width:0.5;stroke-miterlimit:10;}
	.stm-3-10{fill:#DFFF7F;}
	.stm-3-11{fill:none;stroke:#C9C9C9;stroke-width:0;stroke-linecap:round;stroke-linejoin:round;stroke-miterlimit:10;}
	.stm-3-12{fill:none;stroke:#C9C9C9;stroke-width:0.25;stroke-linecap:round;stroke-linejoin:round;stroke-miterlimit:10;}
	.stm-3-13{font-family:'Averta-Bold';}
	.stm-3-14{font-size:7.0651px;}
	.stm-3-15{font-size:4.4393px;}
	.stm-3-16{font-family:'Arial-BoldMT';}
	.stm-3-17{font-size:4.5382px;}
	.stm-3-18{fill:none;}
	.stm-3-19{font-size:2.2326px;}
	.stm-3-20{font-size:5.0627px;}
	.stm-3-21{fill:none;stroke:#D8D8D8;stroke-width:0.5;stroke-miterlimit:10;}
</style>
  
<g id="Layer_1">
	<path class="stm-3-1" d="M694.7,63.8V21.9h-17.3v-0.5h-48.7h-9.6h-40v0.8h-11.3h-30.5v10.7h-32.8V22.2h-17.6l-7.8-2
		c-2.7-0.7-5.4-1.3-8.1-1.7l-8.6-1.4l-12.5-1.7l-12.5-1.4l-12.7-1L412,12.3l-12.7-0.2l-12.7,0.2l-12.6,0.6l-12.6,0.9l-12.7,1.4
		L336.1,17L323.6,19l-12.1,2.3h-7.2v-0.5h-51.5v1.3h-21.4h-11.2v-0.8h-98.4v0.5h-17.2v41.9L11.4,175.3v117.5h76.4H100h30v13.6h130.2
		v-5.5l37.6,3.1l-0.6,3h205.2l-0.9-3.9H515v0.8h21.5h2.5v2.5h129.7v-0.8h30.5v0.8h49.3v-3.6h3.4v-7.8h0.4v-1.1h0.5v-0.5h34.8V176.6
		L694.7,63.8z"/>
	<polygon class="stm-3-2" points="273.7,278.4 337.7,278.4 337.7,270.4 254.6,270.4 254.6,268.5 254.6,266.9 256.2,266.9 256.2,256.6 
		256.2,249.6 273.6,249.6 273.6,237.1 254.8,237.1 254.8,233.9 245.1,233.9 245.1,237.1 245.1,249.6 245.1,256.6 147.3,256.6 
		147.3,249.9 147.3,246.9 147.3,226.3 137,226.3 137,246.9 132.5,246.9 132.5,249.9 120.5,249.9 120.5,256.6 120.5,266.9 
		120.5,268.5 94.4,268.5 94.4,270.4 94.4,278.4 94.4,285 94.4,286.2 136.5,286.2 136.5,292.2 136.5,299.8 253.6,299.8 253.6,292.2 
		256.1,292.2 256.1,286.2 256.1,285 273.7,285 	"/>
	<polygon class="stm-3-2" points="538.7,55.2 544.5,55.2 544.5,58.7 543.8,58.7 543.8,75 545.3,75 545.3,76 525.8,76 525.8,88.7 
		543.8,88.7 543.8,92.5 554,92.5 554,88.7 554,76 554,75 554,58.7 554,55.2 584.6,55.2 584.6,47.2 584.6,46.2 593.6,46.2 
		593.6,40.1 593.6,36.9 623.4,36.9 623.4,30.4 622.2,30.4 622.2,28.7 622.2,27.9 585.6,27.9 585.6,28.7 577.3,28.7 577.3,30.4 
		577.3,36.9 577.3,40.1 573.4,40.1 573.4,28.7 543.8,28.7 543.8,40.1 543.8,46.2 543.8,47.2 538.7,47.2 	"/>
	<polygon class="stm-3-2" points="88,110.7 88.4,111.5 88.7,112.2 89.1,112.9 89.5,113.6 90.1,114.3 90.7,114.9 91.4,115.4 92,115.9 
		92.9,116.2 93.5,116.5 94.5,116.8 95.1,116.9 96.9,117 97.4,116.9 98.5,116.8 99.2,116.5 100,116.2 100.7,115.9 101.5,115.4 
		102.1,114.9 102.7,114.3 103.2,113.6 103.7,112.9 104.2,112.2 104.6,111.5 104.8,110.7 105,109.9 105.1,109.1 105.2,108.3 
		105.1,107.4 105,106.6 104.8,105.7 104.6,105 104.2,104.2 103.7,103.5 103.2,102.8 102.7,102.2 102.1,101.6 101.5,101.1 
		100.7,100.7 100,100.3 99.2,100 98.5,99.8 97.4,99.6 96.9,99.5 95.1,99.6 94.5,99.8 93.5,100 92.9,100.3 92,100.7 91.4,101.1 
		90.7,101.6 90.1,102.2 89.5,102.8 89.1,103.5 88.7,104.2 88.4,105 88,105.7 87.9,106.6 87.6,107.4 87.6,108.3 87.6,109.1 
		87.9,109.9 	"/>
	<polygon class="stm-3-2" points="691.8,110.7 692.1,111.5 692.4,112.2 692.9,112.9 693.3,113.6 694,114.3 694.5,114.9 695.2,115.4 
		695.9,115.9 696.7,116.2 697.4,116.5 698.3,116.8 699,116.9 700.6,117 701.2,116.9 702.3,116.8 703,116.5 703.9,116.2 704.5,115.9 
		705.3,115.4 705.9,114.9 706.6,114.3 707.1,113.6 707.6,112.9 707.9,112.2 708.3,111.5 708.6,110.7 708.8,109.9 708.9,109.1 
		709,108.3 708.9,107.4 708.8,106.6 708.6,105.7 708.3,104.9 707.9,104.2 707.6,103.5 707.1,102.8 706.6,102.2 705.9,101.6 
		705.3,101.1 704.5,100.7 703.9,100.3 703,100 702.3,99.8 701.2,99.6 700.6,99.5 699,99.6 698.3,99.8 697.4,100 696.7,100.3 
		695.9,100.7 695.2,101.1 694.5,101.6 694,102.2 693.3,102.8 692.9,103.5 692.4,104.2 692.1,104.9 691.8,105.7 691.6,106.6 
		691.5,107.4 691.5,108.3 691.5,109.1 691.6,109.9 	"/>
	<path class="stm-3-2" d="M683.9,149.7l-20.2-20.2v0c5.1-5.1,13.4-5.1,18.6,0l1.7,1.7C689.1,136.2,689.1,144.5,683.9,149.7L683.9,149.7z
		"/>
	<polygon class="stm-3-2" points="452.8,278.7 445.9,276.4 444.2,275.9 436.6,273.8 435.4,273.5 427.2,271.8 426.4,271.7 417.6,270.5 
		417.6,232.3 417.1,232.3 417.1,227.5 416.9,227.5 416.9,227.4 382.2,227.4 382.2,227.5 382.1,227.5 382.1,232.3 381.6,232.3 
		381.6,270.5 372.6,271.7 372.1,271.8 363.7,273.5 362.7,273.8 354.9,275.9 353.3,276.4 346.3,278.7 344.2,279.4 337.7,281.9 
		337.7,279.7 337.7,279.4 301.2,279.4 301.2,279.7 300.2,279.7 300.2,279.4 274.7,279.4 274.7,279.7 274.7,281.9 274.7,284.7 
		301.2,284.7 301.2,285 302.4,285 304,287.7 305.1,290.7 305.7,293.9 305.6,297.1 305,300.4 494.2,300.4 493.5,297.1 493.5,293.9 
		494,290.7 495.1,287.7 496.8,285 520.5,285 520.5,284.7 520.5,281.9 520.5,279.4 455,279.4 	"/>
	<polygon class="stm-3-2" points="650.9,225.3 650.9,221.9 650.9,201.2 650.9,201.1 650.2,201.1 650.2,191.1 626.4,191.1 626.4,201.1 
		626.4,201.2 623.2,201.2 623.2,221.9 625.6,221.9 625.6,225.3 623.2,225.3 623.2,255.7 650.9,255.7 	"/>
	<polygon class="stm-3-2" points="622.2,225.3 622.2,221.9 622.2,210.4 622.2,200.4 622.2,191.2 622.2,191 621.4,191.2 586.3,200.4 
		586.3,210.4 583.1,210.4 583.1,221.9 585.6,221.9 585.6,225.3 583.1,225.3 583.1,255.7 622.2,255.7 	"/>
	<polygon class="stm-3-2" points="581.4,201.6 558.3,206.7 558.3,210.4 558.3,216.6 555,216.6 555,255.7 582.1,255.7 582.1,216.6 
		582.1,210.4 581.4,210.4 581.4,206.7 	"/>
	<polygon class="stm-3-2" points="497.4,230.2 497.2,220.2 497.2,216.6 462.2,220.2 462.2,230.2 461.4,230.2 461.4,269.5 497.9,269.5 	
		"/>
	<polygon class="stm-3-2" points="419.9,266.6 420.2,266.7 420.5,266.8 420.6,266.9 420.9,267 421.1,267.3 421.4,267.7 421.5,268.1 
		421.6,268.5 421.6,268.8 421.6,269.2 421.4,269.6 421.2,269.9 424.4,270.4 429.9,271.3 438.5,273.2 446.9,275.6 455.2,278.4 
		460.5,278.4 460.5,275.6 460.5,273.2 460.5,271.3 460.5,270.4 457.9,270.4 457.9,269.9 457.9,269.6 457.9,269.2 457.9,268.8 
		457.9,268.5 457.9,268.1 457.9,267.7 457.9,267.3 457.9,267 457.9,266.9 460.5,266.9 460.5,266.8 460.5,266.7 460.5,266.6 
		460.5,232.3 460.5,230.2 457.1,230.2 457.1,222.3 457.1,220.5 422.1,222.3 422.1,230.2 422.1,232.3 418.6,232.3 418.6,266.6 
		419.8,266.6 	"/>
	<polygon class="stm-3-2" points="358,273.9 367.9,271.6 374.8,270.4 377.9,269.9 377.7,269.6 377.6,269.2 377.5,268.8 377.5,268.5 
		377.6,268.1 377.8,267.7 378,267.3 378.3,267 378.7,266.9 378.7,266.8 379.1,266.7 379.4,266.6 379.5,266.6 379.9,266.6 
		380.2,266.7 380.5,266.9 380.6,266.9 380.6,266.7 380.6,266.6 380.6,232.3 377,232.3 377,230.1 377,222.3 342,220.5 342,222.3 
		342,230.1 338.8,230.1 338.8,232.3 338.8,266.6 338.8,266.7 338.8,266.8 338.8,266.9 341.3,266.9 341.3,267 341.3,267.3 
		341.3,267.7 341.3,268.1 341.3,268.5 341.3,268.8 341.3,269.2 341.3,269.6 341.3,269.9 341.3,270.4 338.8,270.4 338.8,271.6 
		338.8,273.9 338.8,276.9 338.8,280.5 348.3,276.9 	"/>
	<polygon class="stm-3-2" points="337,220.2 302,216.6 302,220.2 302,226 301.2,226 301.2,230.1 301.2,269.5 337.7,269.5 337.7,230.1 
		337,230.1 337,226 	"/>
	<polygon class="stm-3-2" points="297.8,269.5 297.8,266.9 300.2,266.9 300.2,250.6 300.2,225.9 296.9,225.9 296.9,221.9 296.9,215.9 
		259.8,210.2 259.8,215.9 259.8,221.9 274.6,221.9 274.6,225.9 274.6,250.6 258.7,250.6 258.7,266.9 261.2,266.9 261.2,269.5 	"/>
	<polygon class="stm-3-2" points="524.8,221.9 539.4,221.9 539.4,215.9 539.4,213.3 539.4,210.2 520.8,213.3 502.2,215.9 502.2,221.9 
		502.3,225.9 498.9,225.9 498.9,250.6 498.9,266.9 501.5,266.9 501.5,269.5 538,269.5 538,266.9 540.6,266.9 540.6,250.6 
		524.8,250.6 524.8,225.9 	"/>
	<polygon class="stm-3-2" points="745.8,183.1 745.8,184.8 742.3,184.8 742.3,182.3 705.7,182.3 705.7,184.8 702.3,184.8 702.3,184.4 
		702.3,183.9 702.3,183.5 702.3,183 702.3,182.5 702.3,182.2 687.3,182.2 687.3,182 687,182 666.5,182 666.3,182 666.3,182.2 
		666.4,182.5 666.5,183 666.5,183.5 666.3,183.9 666.1,184.4 665.9,184.8 665.8,184.8 665.5,185.1 665.1,185.3 664.6,185.5 
		664.2,185.6 663.2,185.6 663.2,221.9 676.7,221.9 676.7,280.2 675.7,280.2 675.7,278.4 675.7,270.4 675.7,266.9 675.7,265.9 
		672.7,265.9 672.7,256.6 672.7,254.5 662.2,254.5 662.2,204.8 651.9,204.8 651.9,254.5 651.9,256.6 554,256.6 554,249.6 554,237 
		553.3,237 553.3,236.9 553.3,232.9 544.4,232.9 544.4,236.9 525.8,236.9 525.8,237 525.8,249.6 543,249.6 543,256.6 543,265.9 
		543,266.9 544.5,266.9 544.5,270.4 461.4,270.4 461.4,278.4 521.5,278.4 521.5,280.2 521.5,280.7 543,280.7 543,297.2 545.5,297.2 
		545.5,299.8 582.1,299.8 582.1,297.2 585.6,297.2 585.6,299.8 622.2,299.8 622.2,297.2 625.6,297.2 625.6,298.9 625.6,299.8 
		662.2,299.8 662.2,298.9 702.3,298.9 702.3,297.2 704.7,297.2 704.7,280.7 704.7,280.2 705.7,280.2 705.7,286.7 705.7,287.2 
		705.7,288.3 705.7,296.1 705.7,299.8 742,299.8 742,296.1 745.4,296.1 745.4,288.3 745.8,288.3 745.8,287.2 746.3,287.2 
		746.3,286.7 781.1,286.7 781.1,280.2 781.1,221.9 781.1,185.6 781.1,185.5 781.1,185.3 781.1,185.1 781.1,184.8 781.1,183.1 	"/>
	<rect x="555" y="56.2" class="stm-3-2" width="48.3" height="47.5"/>
	<polygon class="stm-3-2" points="622.2,100.3 624.6,100.3 624.6,58.7 622.2,58.7 622.2,56.2 604.3,56.2 604.3,58.7 604.3,100.3 
		604.3,103.7 622.2,103.7 	"/>
	<polygon class="stm-3-2" points="585.6,47.4 585.6,49.7 585.6,55.1 585.6,55.2 625.6,55.2 625.6,58.7 625.6,71.8 625.6,103.7 
		653.2,103.7 653.2,71.8 663.8,71.8 663.8,58.7 662.2,58.7 662.2,55.2 671.3,55.1 679.9,55.1 679.9,57.2 688.2,57.2 688.2,55.1 
		688.2,49.7 685.6,49.7 685.6,47.4 688.2,47.4 688.2,47.2 688.2,38.2 685.6,38.2 685.6,36 688.2,36 688.2,30.8 688.2,28.4 
		679.9,28.4 679.9,30.8 670.9,30.8 670.9,30.4 670.9,27.9 665.7,27.9 665.7,30.4 662.2,30.4 662.2,27.9 625.6,27.9 625.6,30.4 
		624.4,30.4 624.4,30.8 624.4,36 624.4,38.2 624.4,47.2 585.6,47.2 	"/>
	<polygon class="stm-3-2" points="261.4,47.2 261.4,56.2 260.2,56.2 260.2,58.7 258.7,58.7 258.7,69.4 258.7,75 274.5,75 274.5,81 
		274.5,89.2 308.6,89.2 316.9,81 316.9,75 317,69.4 319.2,69.4 319.2,58.7 319.2,56.2 319.2,47.2 297.8,47.2 297.8,46.2 297.8,27.4 
		259.4,27.4 259.4,46.2 261.4,46.2 	"/>
	<polygon class="stm-3-2" points="480,48.5 478.9,48.5 478.9,56.2 478.9,58.7 478.9,69.4 482.2,69.4 482.2,75 482.2,81 490,88.7 
		490.5,89.2 523.1,89.2 523.1,88.7 524.8,88.7 524.8,81 524.8,75 540.6,75 540.6,69.4 540.6,58.7 539,58.7 539,56.2 537.7,56.2 
		537.7,48.5 537.7,47.2 537.7,46.2 539.7,46.2 539.7,39.4 501.5,39.4 501.5,46.2 501.5,47.2 480,47.2 	"/>
	<polygon class="stm-3-2" points="119.4,251.6 113.7,251.6 113.7,242 119.4,242 119.4,221.9 148.3,221.9 148.3,255.7 244.1,255.7 
		244,221.9 243.9,194.3 254.6,194.3 254.6,185.7 252.8,185.7 252.8,184.8 252.8,182.3 252.8,180.5 260.4,180.5 260.4,172.6 
		260.4,171.5 260.4,166.9 260.4,165.3 260.4,163.2 260.4,160.5 260.4,157.4 260.4,153.8 260.4,150.8 260.4,147.5 260.4,145.1 
		252.8,145.1 252.8,144 252.8,140.6 252.8,139.9 254.6,139.9 254.6,137.1 254.6,133.8 254.6,130.9 254.6,128.3 254.6,126.2 
		254.6,124.6 254.6,123.7 254.6,118.2 254.6,117.7 243.9,117.7 244,115.2 244,114.1 244,112.8 244,111.4 244,109.8 244,108.3 
		244,106.7 244,105.1 244,103.6 244,102.4 244,101.3 244,101.1 244,100.4 244,99.3 244,97.7 244,95.8 244,93.7 244,91.3 244,88.8 
		244.1,83.7 244.1,59.1 244.1,58.7 244.1,56.2 217.1,56.2 217.1,58.7 213.6,58.7 213.6,54.8 213.6,49.7 213.6,48.1 213.6,47.4 
		213.6,47.2 214.6,47.2 214.6,55.2 245.1,55.2 245.1,58.7 245.1,76 245.1,88.7 245.1,92.8 255.4,92.8 255.4,88.7 273.4,88.7 
		273.4,76 255.4,76 255.4,58.7 254.6,58.7 254.6,55.2 260.4,55.2 260.4,47.2 255.4,47.2 255.4,40.1 255.4,28.7 225.9,28.7 
		225.9,40.1 221.8,40.1 221.8,36.9 221.8,30.4 221.8,28.7 213.6,28.7 213.6,27.9 177.1,27.9 177.1,28.7 177.1,30.4 175.8,30.4 
		175.8,36.9 205.6,36.9 205.6,40.1 205.6,47.2 174.8,47.2 174.8,38.2 174.8,36 174.8,30.8 174.8,30.4 173.5,30.4 173.5,27.9 
		137,27.9 137,30.4 133.5,30.4 133.5,27.9 128.3,27.9 128.3,30.4 128.3,30.8 119.3,30.8 119.3,28.4 111,28.4 111,30.8 111,36 
		113.7,36 113.7,38.2 111,38.2 111,47.2 111,47.4 113.7,47.4 113.7,48.1 113.7,49.7 111,49.7 111,54.8 111,57.2 119.3,57.2 
		119.3,54.8 137.4,54.8 137.4,58.7 137.4,59.1 135.4,59.1 135.4,83.7 132.6,82.2 132.6,83.7 132.5,88.8 132.2,91.3 131.4,93.7 
		130.1,95.8 128.5,97.7 126.4,99.3 124.2,100.4 121.8,101.1 119.2,101.3 104.3,101.3 105.5,102.4 106.4,103.6 107.1,105.1 
		107.6,106.7 107.7,108.3 107.6,109.8 107.1,111.4 106.4,112.8 105.5,114.1 104.3,115.2 128.4,117.7 133.6,118.2 131.6,123.7 
		128.3,124.6 125.1,126.2 122.4,128.3 119.9,130.9 118.1,133.8 116.8,137.1 116.2,139.9 116.1,140.6 116.1,144 116.3,145.1 
		116.7,147.5 117.8,150.8 119.6,153.8 115.7,157.4 111.3,160.5 106.7,163.2 101.7,165.3 96.7,166.9 96.7,171.5 101.2,172.6 
		101.2,180.5 101.2,182.3 97,182.3 97,184.8 53.4,184.8 53.4,181.8 18,181.8 18,184.8 18,185.7 18,194.3 18,221.9 18,242 18,251.6 
		18,266.6 18,286.2 93.4,286.2 93.4,266.6 119.4,266.6 	"/>
	<polygon class="stm-3-2" points="323,38.6 314.8,30.4 312.3,27.9 301.2,27.9 301.2,30.4 298.7,30.4 298.7,38.6 298.7,46.2 323,46.2 	
		"/>
	<polygon class="stm-3-2" points="261.2,294.3 297.8,297.3 297.8,294.3 297.8,286 261.2,286 	"/>
	<rect x="521.5" y="281.7" class="stm-3-2" width="16.5" height="15.5"/>
	<rect x="526.5" y="89.8" class="stm-3-2" width="13.3" height="13"/>
	<rect x="259.4" y="89.8" class="stm-3-2" width="13.3" height="13"/>
	<rect x="526.5" y="222.9" class="stm-3-2" width="13.3" height="13"/>
	<rect x="259.4" y="222.9" class="stm-3-2" width="13.5" height="13"/>
	<rect x="501.5" y="286" class="stm-3-2" width="19" height="10.4"/>
	<polygon class="stm-3-2" points="675.7,225.3 675.7,222.9 665.7,222.9 665.7,225.3 663.2,225.3 663.2,253.4 675.7,253.4 	"/>
	<polygon class="stm-3-2" points="135.9,225.3 133.5,225.3 133.5,222.9 120.5,222.9 120.5,225.3 120.5,245.9 135.9,245.9 	"/>
	<rect x="177.1" y="37.9" class="stm-3-2" width="27.5" height="8.3"/>
	<rect x="594.6" y="37.9" class="stm-3-2" width="28.8" height="8.3"/>
	<polygon class="stm-3-2" points="497.9,38.6 497.9,28.7 486.1,28.7 476.2,38.6 476.2,46.2 497.9,46.2 	"/>
	<rect x="127.4" y="246.9" class="stm-3-2" width="4.1" height="2"/>
	<rect x="120.5" y="246.9" class="stm-3-2" width="6" height="2"/>
	<rect x="222.8" y="28.7" class="stm-3-2" width="2" height="6"/>
	<rect x="222.8" y="35.7" class="stm-3-2" width="2" height="3.4"/>
	<rect x="574.3" y="28.7" class="stm-3-2" width="2" height="6"/>
	<rect x="574.3" y="35.7" class="stm-3-2" width="2" height="3.4"/>
	<rect x="673.7" y="254.4" class="stm-3-2" width="2" height="6.1"/>
	<rect x="673.7" y="261.4" class="stm-3-2" width="2" height="3.5"/>
	<polygon class="stm-3-2" points="114.7,250.5 117.4,250.5 119.4,250.5 119.4,243 117.4,243 114.7,243 	"/>
	<polygon class="stm-3-9" points="116.6,58.2 116.5,58.2 116.5,58.4 116.5,58.5 116.6,58.5 	"/>
	<rect x="116.3" y="58.3" class="stm-3-9" width="0.1" height="0.1"/>
	<polygon class="stm-3-9" points="116,58.5 116.1,58.5 116.1,58.4 116,58.4 115.9,58.4 115.9,58.5 	"/>
	<rect x="115.9" y="58.2" class="stm-3-9" width="0.1" height="0.1"/>
	<polygon class="stm-3-9" points="116.2,58.2 116.1,58.2 116.1,58.3 116.2,58.3 116.3,58.3 116.3,58.2 	"/>
	<polygon class="stm-3-9" points="116.6,58 116.6,57.9 116.5,57.9 116.5,58 116.5,58.1 116.6,58.1 	"/>
	<rect x="115.9" y="58" class="stm-3-9" width="0.1" height="0.1"/>
	<polygon class="stm-3-9" points="116.1,57.9 116.2,57.9 116.3,57.9 116.4,57.9 116.4,57.8 116.5,57.8 116.5,57.7 116.4,57.7 
		116.3,57.7 116.2,57.7 116.2,57.8 116.1,57.8 116.1,57.7 116,57.7 115.9,57.7 115.9,57.8 116,57.8 116,57.9 	"/>
	<rect x="116.2" y="58" class="stm-3-2" width="0.1" height="0.1"/>
	<polygon class="stm-3-9" points="116.2,57.5 116.1,57.5 116,57.5 115.9,57.5 115.9,57.6 116,57.6 116.1,57.6 116.2,57.6 116.3,57.6 
		116.4,57.5 116.3,57.5 	"/>
	<polygon class="stm-3-9" points="116.6,57.6 116.6,57.5 116.5,57.5 116.4,57.5 116.4,57.6 116.5,57.6 116.5,57.7 116.6,57.7 	"/>
	<g>
		<polyline class="stm-3-5" points="452.2,180.6 452.9,180.3 453.6,179.9 455,179.3 456.4,178.7 457.7,178 459,177.3 460.2,176.6 
			461.4,175.9 462.5,175.2 463.6,174.5 464.8,173.7 465.8,173 466.8,172.1 467.8,171.3 468.7,170.5 469.6,169.7 470.4,168.9 
			471.2,168.1 472,167.3 472.7,166.4 473.4,165.6 474,164.6 474.5,163.8 475.1,162.9 475.5,162 476,161.2 476.3,160.3 476.7,159.4 
			477,158.5 477.2,157.6 477.4,156.6 477.6,155.7 477.6,155.3 477.6,155 477.6,154.9 477.7,154.7 		"/>
		<line class="stm-3-5" x1="477.7" y1="154.7" x2="482.4" y2="150"/>
		<line class="stm-3-5" x1="441.4" y1="191.5" x2="452.2" y2="180.6"/>
		<line class="stm-3-5" x1="441.9" y1="192" x2="452.5" y2="181.3"/>
		<line class="stm-3-5" x1="441.9" y1="192.6" x2="452.8" y2="181.6"/>
		<line class="stm-3-5" x1="441.9" y1="192" x2="440.3" y2="190.5"/>
		<line class="stm-3-5" x1="441.9" y1="192.6" x2="440.1" y2="190.8"/>
		<line class="stm-3-5" x1="481.6" y1="148.6" x2="481.3" y2="149"/>
		<line class="stm-3-5" x1="478.3" y1="155" x2="482.9" y2="150.5"/>
		<polyline class="stm-3-5" points="478.7,155.2 483.5,150.5 481.6,148.6 		"/>
		<line class="stm-3-5" x1="481.3" y1="149" x2="482.9" y2="150.5"/>
		<line class="stm-3-5" x1="440.1" y1="190.8" x2="440.3" y2="190.5"/>
		<line class="stm-3-5" x1="479.1" y1="141" x2="455.5" y2="164.9"/>
		<line class="stm-3-5" x1="432.1" y1="188.6" x2="426.5" y2="183.1"/>
		<line class="stm-3-5" x1="426.5" y1="183.1" x2="429.3" y2="180.2"/>
		<line class="stm-3-5" x1="429.3" y1="180.2" x2="446.7" y2="162.6"/>
		<line class="stm-3-5" x1="446.7" y1="162.6" x2="470.6" y2="138.4"/>
		<line class="stm-3-5" x1="470.6" y1="138.4" x2="473.6" y2="135.4"/>
		<line class="stm-3-5" x1="476.9" y1="141.9" x2="454.3" y2="164.7"/>
		<line class="stm-3-5" x1="454.3" y1="164.7" x2="433.2" y2="186.1"/>
		<line class="stm-3-5" x1="476.7" y1="141.7" x2="454" y2="164.7"/>
		<line class="stm-3-5" x1="454" y1="164.7" x2="433" y2="186"/>
		<line class="stm-3-5" x1="472.9" y1="137.8" x2="448.1" y2="162.9"/>
		<line class="stm-3-5" x1="448.1" y1="162.9" x2="429.1" y2="182.1"/>
		<line class="stm-3-5" x1="472.7" y1="137.6" x2="447.8" y2="162.8"/>
		<line class="stm-3-5" x1="447.8" y1="162.8" x2="428.9" y2="182"/>
		<line class="stm-3-5" x1="428.9" y1="182" x2="429.1" y2="182.1"/>
		<line class="stm-3-5" x1="433" y1="186" x2="433.2" y2="186.1"/>
		<line class="stm-3-5" x1="431" y1="187.6" x2="453.7" y2="164.6"/>
		<line class="stm-3-5" x1="453.7" y1="164.6" x2="478.1" y2="139.9"/>
		<line class="stm-3-5" x1="455.5" y1="164.9" x2="479.1" y2="141"/>
		<line class="stm-3-5" x1="427.5" y1="184.1" x2="448.4" y2="163"/>
		<line class="stm-3-5" x1="448.4" y1="163" x2="474.6" y2="136.4"/>
		<line class="stm-3-5" x1="455.5" y1="164.9" x2="479.1" y2="141"/>
		<line class="stm-3-5" x1="437.2" y1="177.8" x2="450.9" y2="163.9"/>
		<line class="stm-3-5" x1="450.9" y1="163.9" x2="467.4" y2="147.2"/>
		<line class="stm-3-5" x1="472.7" y1="137.6" x2="472.9" y2="137.8"/>
		<line class="stm-3-5" x1="476.7" y1="141.7" x2="476.9" y2="141.9"/>
		<line class="stm-3-5" x1="467.4" y1="147.2" x2="467.2" y2="151.1"/>
		<line class="stm-3-5" x1="467.4" y1="147.2" x2="463.6" y2="147.5"/>
		<line class="stm-3-5" x1="473.6" y1="135.4" x2="479.1" y2="141"/>
		<line class="stm-3-5" x1="475.4" y1="143.1" x2="475.6" y2="143.3"/>
		<line class="stm-3-5" x1="435.5" y1="176" x2="439" y2="179.5"/>
		<line class="stm-3-5" x1="436.6" y1="174.9" x2="440.2" y2="178.3"/>
		<line class="stm-3-5" x1="437.8" y1="173.7" x2="441.4" y2="177.2"/>
		<line class="stm-3-5" x1="438.9" y1="172.4" x2="442.5" y2="176"/>
		<line class="stm-3-5" x1="440.1" y1="171.3" x2="443.7" y2="174.9"/>
		<line class="stm-3-5" x1="441.3" y1="170.1" x2="444.8" y2="173.7"/>
		<line class="stm-3-5" x1="443.6" y1="167.8" x2="447.1" y2="171.3"/>
		<line class="stm-3-5" x1="444.7" y1="166.6" x2="448.3" y2="170.1"/>
		<line class="stm-3-5" x1="445.9" y1="165.5" x2="449.5" y2="169"/>
		<line class="stm-3-5" x1="447.1" y1="164.3" x2="450.6" y2="167.8"/>
		<line class="stm-3-5" x1="448.2" y1="163.2" x2="451.8" y2="166.6"/>
		<line class="stm-3-5" x1="449.4" y1="162" x2="451.2" y2="163.7"/>
		<line class="stm-3-5" x1="450.6" y1="160.8" x2="454.1" y2="164.2"/>
		<line class="stm-3-5" x1="465.6" y1="145.5" x2="469.2" y2="149.1"/>
		<line class="stm-3-5" x1="479.1" y1="141" x2="455.5" y2="164.9"/>
		<line class="stm-3-5" x1="432.1" y1="188.6" x2="437.6" y2="194.1"/>
		<line class="stm-3-5" x1="437.6" y1="194.1" x2="440.5" y2="191.2"/>
		<line class="stm-3-5" x1="440.8" y1="190.9" x2="464.1" y2="167.4"/>
		<line class="stm-3-5" x1="464.3" y1="167.2" x2="481.8" y2="149.4"/>
		<line class="stm-3-5" x1="482.1" y1="149.1" x2="484.7" y2="146.4"/>
		<line class="stm-3-5" x1="478.2" y1="143.2" x2="456.5" y2="165.2"/>
		<line class="stm-3-5" x1="456.5" y1="165.2" x2="434.5" y2="187.4"/>
		<line class="stm-3-5" x1="478.4" y1="143.3" x2="456.8" y2="165.2"/>
		<line class="stm-3-5" x1="456.8" y1="165.2" x2="434.7" y2="187.6"/>
		<line class="stm-3-5" x1="482.3" y1="147.2" x2="462.9" y2="166.8"/>
		<line class="stm-3-5" x1="462.7" y1="167" x2="438.5" y2="191.5"/>
		<line class="stm-3-5" x1="482.5" y1="147.3" x2="463.2" y2="166.9"/>
		<line class="stm-3-5" x1="463" y1="167.1" x2="438.7" y2="191.7"/>
		<line class="stm-3-5" x1="438.7" y1="191.7" x2="438.5" y2="191.5"/>
		<line class="stm-3-5" x1="434.7" y1="187.6" x2="434.5" y2="187.4"/>
		<line class="stm-3-5" x1="433.1" y1="189.6" x2="456.9" y2="165.5"/>
		<line class="stm-3-5" x1="456.9" y1="165.5" x2="480.2" y2="141.9"/>
		<line class="stm-3-5" x1="455.5" y1="164.9" x2="479.1" y2="141"/>
		<line class="stm-3-5" x1="436.6" y1="193.1" x2="462.4" y2="167"/>
		<line class="stm-3-5" x1="462.6" y1="166.8" x2="483.7" y2="145.4"/>
		<line class="stm-3-5" x1="432.1" y1="188.6" x2="455.5" y2="164.9"/>
		<line class="stm-3-5" x1="442.8" y1="183.3" x2="459.7" y2="166.2"/>
		<line class="stm-3-5" x1="459.7" y1="166.2" x2="473" y2="152.7"/>
		<line class="stm-3-5" x1="482.5" y1="147.3" x2="482.3" y2="147.2"/>
		<line class="stm-3-5" x1="478.4" y1="143.3" x2="478.2" y2="143.2"/>
		<line class="stm-3-5" x1="473" y1="152.7" x2="469.1" y2="153"/>
		<line class="stm-3-5" x1="473" y1="152.7" x2="472.8" y2="156.5"/>
		<line class="stm-3-5" x1="484.7" y1="146.4" x2="479.1" y2="141"/>
		<line class="stm-3-5" x1="481.2" y1="148.8" x2="481" y2="148.5"/>
		<line class="stm-3-5" x1="477" y1="144.7" x2="476.8" y2="144.5"/>
		<line class="stm-3-5" x1="440.2" y1="190.3" x2="440" y2="190.1"/>
		<line class="stm-3-5" x1="444.6" y1="185" x2="441.1" y2="181.5"/>
		<line class="stm-3-5" x1="445.7" y1="183.9" x2="442.2" y2="180.3"/>
		<line class="stm-3-5" x1="446.9" y1="182.7" x2="443.3" y2="179.1"/>
		<line class="stm-3-5" x1="448.1" y1="181.5" x2="444.5" y2="178"/>
		<line class="stm-3-5" x1="449.3" y1="180.3" x2="445.6" y2="176.8"/>
		<line class="stm-3-5" x1="450.4" y1="179.1" x2="446.8" y2="175.6"/>
		<line class="stm-3-5" x1="452.7" y1="176.8" x2="449.2" y2="173.3"/>
		<line class="stm-3-5" x1="453.8" y1="175.6" x2="450.3" y2="172.1"/>
		<line class="stm-3-5" x1="455" y1="174.5" x2="451.5" y2="170.9"/>
		<line class="stm-3-5" x1="456.2" y1="173.3" x2="452.6" y2="169.8"/>
		<line class="stm-3-5" x1="457.4" y1="172.1" x2="453.8" y2="168.6"/>
		<line class="stm-3-5" x1="458.5" y1="170.9" x2="454.9" y2="167.4"/>
		<line class="stm-3-5" x1="459.7" y1="169.7" x2="456.1" y2="166.3"/>
		<line class="stm-3-5" x1="457.6" y1="165.4" x2="457.3" y2="165.1"/>
		<line class="stm-3-5" x1="460.8" y1="166.3" x2="458.4" y2="163.9"/>
		<line class="stm-3-5" x1="463.1" y1="166.3" x2="459.6" y2="162.7"/>
		<line class="stm-3-5" x1="474.7" y1="154.5" x2="471.1" y2="151"/>
		<line class="stm-3-5" x1="442.4" y1="169" x2="446" y2="172.4"/>
		<line class="stm-3-5" x1="451.5" y1="178" x2="448" y2="174.5"/>
		<line class="stm-3-5" x1="451.7" y1="159.6" x2="455.2" y2="163.1"/>
		<line class="stm-3-5" x1="452.8" y1="158.4" x2="456.5" y2="161.9"/>
		<line class="stm-3-5" x1="454" y1="157.3" x2="457.6" y2="160.7"/>
		<line class="stm-3-5" x1="455.1" y1="156" x2="458.8" y2="159.6"/>
		<line class="stm-3-5" x1="456.4" y1="154.9" x2="459.9" y2="158.4"/>
		<line class="stm-3-5" x1="457.5" y1="153.7" x2="461" y2="157.3"/>
		<line class="stm-3-5" x1="458.7" y1="152.5" x2="462.2" y2="156"/>
		<line class="stm-3-5" x1="459.8" y1="151.4" x2="463.3" y2="154.9"/>
		<line class="stm-3-5" x1="461" y1="150.2" x2="464.6" y2="153.7"/>
		<line class="stm-3-5" x1="462.1" y1="149.1" x2="465.7" y2="152.5"/>
		<line class="stm-3-5" x1="463.3" y1="147.8" x2="466.9" y2="151.4"/>
		<line class="stm-3-5" x1="464.5" y1="146.6" x2="468" y2="150.2"/>
		<line class="stm-3-5" x1="464.3" y1="165.1" x2="460.7" y2="161.5"/>
		<line class="stm-3-5" x1="465.5" y1="163.9" x2="461.9" y2="160.4"/>
		<line class="stm-3-5" x1="466.6" y1="162.7" x2="463" y2="159.2"/>
		<line class="stm-3-5" x1="467.8" y1="161.5" x2="464.2" y2="158.1"/>
		<line class="stm-3-5" x1="468.9" y1="160.4" x2="465.4" y2="156.9"/>
		<line class="stm-3-5" x1="470" y1="159.2" x2="466.5" y2="155.7"/>
		<line class="stm-3-5" x1="471.2" y1="158.1" x2="467.7" y2="154.5"/>
		<line class="stm-3-5" x1="472.4" y1="156.9" x2="468.8" y2="153.4"/>
		<line class="stm-3-5" x1="473.6" y1="155.7" x2="470" y2="152.2"/>
		<line class="stm-3-5" x1="431.8" y1="179.7" x2="435.3" y2="183.3"/>
		<line class="stm-3-5" x1="440.9" y1="188.7" x2="437.3" y2="185.2"/>
		<line class="stm-3-5" x1="469.3" y1="141.8" x2="472.9" y2="145.3"/>
		<line class="stm-3-5" x1="478.4" y1="150.8" x2="474.9" y2="147.2"/>
		<line class="stm-3-5" x1="451.2" y1="163.7" x2="452.9" y2="165.5"/>
		<line class="stm-3-5" x1="457.6" y1="165.4" x2="460.8" y2="168.6"/>
		<line class="stm-3-5" x1="460.8" y1="166.3" x2="462" y2="167.4"/>
		<polyline class="stm-3-5" points="478.3,155 478.2,155.8 478.1,156.5 478,157.4 477.8,158.1 477.6,158.9 477.3,159.6 477,160.4 
			476.7,161.1 476.4,161.8 476,162.6 475.6,163.3 475.2,164 474.7,164.7 474.2,165.6 473.7,166.3 473.2,167 472.6,167.7 472,168.3 
			471.3,169 470.6,169.7 469.9,170.4 469.2,171 468.4,171.7 467.6,172.3 466.8,173.1 466,173.7 465.2,174.3 464.3,174.9 
			463.3,175.5 462.8,175.8 462.5,176 462.3,176.2 461.9,176.4 461.6,176.6 461.1,176.9 460.6,177.1 460.4,177.3 460.1,177.5 
			459.7,177.6 459.4,177.8 459,178 458.7,178.3 458.2,178.5 457.8,178.7 456.6,179.4 455.2,180 453.9,180.6 452.5,181.3 		"/>
		<polyline class="stm-3-5" points="478.7,155.2 478.6,156 478.5,156.9 478.3,157.6 478.1,158.4 477.9,159.1 477.7,159.9 477.4,160.6 
			477.1,161.4 476.7,162.1 476.3,162.9 475.9,163.6 475.5,164.3 475,165.1 474.5,165.9 474,166.6 473.4,167.3 472.8,168 
			472.2,168.7 471.5,169.4 470.8,170 470.1,170.7 469.4,171.4 468.6,172 467.9,172.7 467.1,173.4 466.2,174 465.4,174.7 
			464.5,175.3 463.5,175.9 462.5,176.5 461.6,177.1 460.6,177.6 460.2,177.9 459.9,178 459.6,178.2 459.3,178.4 459,178.5 
			458.8,178.7 458.5,178.8 458.3,178.9 458.2,179 458,179 457.8,179.2 457.6,179.3 457.4,179.4 457.3,179.4 457.2,179.5 
			457.1,179.5 456.8,179.7 455.4,180.3 454.1,180.9 452.8,181.6 		"/>
		<polyline class="stm-3-5" points="336.2,180.6 335.5,180.3 334.8,179.9 333.4,179.3 332.1,178.7 330.7,178 329.4,177.3 328.2,176.6 
			327,175.9 325.9,175.2 324.8,174.5 323.7,173.7 322.6,173 321.6,172.1 320.6,171.3 319.7,170.5 318.8,169.7 318,168.9 
			317.2,168.1 316.5,167.3 315.8,166.4 315.1,165.6 314.4,164.6 313.9,163.8 313.3,162.9 312.9,162 312.4,161.2 312.1,160.3 
			311.7,159.4 311.4,158.5 311.2,157.6 311,156.6 310.8,155.7 310.8,155.3 310.8,155 310.8,154.9 310.7,154.7 		"/>
		<line class="stm-3-5" x1="310.7" y1="154.7" x2="306" y2="150"/>
		<line class="stm-3-5" x1="347.1" y1="191.5" x2="336.2" y2="180.6"/>
		<line class="stm-3-5" x1="346.5" y1="192" x2="335.9" y2="181.3"/>
		<line class="stm-3-5" x1="346.5" y1="192.6" x2="335.6" y2="181.6"/>
		<line class="stm-3-5" x1="346.5" y1="192" x2="348.2" y2="190.5"/>
		<line class="stm-3-5" x1="346.5" y1="192.6" x2="348.4" y2="190.8"/>
		<line class="stm-3-5" x1="306.9" y1="148.6" x2="307.2" y2="149"/>
		<line class="stm-3-5" x1="310.1" y1="155" x2="305.5" y2="150.5"/>
		<polyline class="stm-3-5" points="309.7,155.2 304.9,150.5 306.9,148.6 		"/>
		<line class="stm-3-5" x1="307.2" y1="149" x2="305.5" y2="150.5"/>
		<line class="stm-3-5" x1="348.4" y1="190.8" x2="348.2" y2="190.5"/>
		<line class="stm-3-5" x1="309.3" y1="141" x2="332.9" y2="164.9"/>
		<line class="stm-3-5" x1="356.4" y1="188.6" x2="361.9" y2="183.1"/>
		<line class="stm-3-5" x1="361.9" y1="183.1" x2="359.1" y2="180.2"/>
		<line class="stm-3-5" x1="359.1" y1="180.2" x2="341.7" y2="162.6"/>
		<line class="stm-3-5" x1="341.7" y1="162.6" x2="317.8" y2="138.4"/>
		<line class="stm-3-5" x1="317.8" y1="138.4" x2="314.9" y2="135.4"/>
		<line class="stm-3-5" x1="311.5" y1="141.9" x2="334.1" y2="164.7"/>
		<line class="stm-3-5" x1="334.1" y1="164.7" x2="355.3" y2="186.1"/>
		<line class="stm-3-5" x1="311.7" y1="141.7" x2="334.4" y2="164.7"/>
		<line class="stm-3-5" x1="334.4" y1="164.7" x2="355.5" y2="186"/>
		<line class="stm-3-5" x1="315.6" y1="137.8" x2="340.4" y2="162.9"/>
		<line class="stm-3-5" x1="340.4" y1="162.9" x2="359.3" y2="182.1"/>
		<line class="stm-3-5" x1="315.8" y1="137.6" x2="340.7" y2="162.8"/>
		<line class="stm-3-5" x1="340.7" y1="162.8" x2="359.5" y2="182"/>
		<line class="stm-3-5" x1="359.5" y1="182" x2="359.3" y2="182.1"/>
		<line class="stm-3-5" x1="355.5" y1="186" x2="355.3" y2="186.1"/>
		<line class="stm-3-5" x1="357.4" y1="187.6" x2="334.7" y2="164.6"/>
		<line class="stm-3-5" x1="334.7" y1="164.6" x2="310.3" y2="139.9"/>
		<line class="stm-3-5" x1="332.9" y1="164.9" x2="309.3" y2="141"/>
		<line class="stm-3-5" x1="360.9" y1="184.1" x2="340.1" y2="163"/>
		<line class="stm-3-5" x1="340.1" y1="163" x2="313.8" y2="136.4"/>
		<line class="stm-3-5" x1="332.9" y1="164.9" x2="309.3" y2="141"/>
		<line class="stm-3-5" x1="351.2" y1="177.8" x2="337.5" y2="163.9"/>
		<line class="stm-3-5" x1="337.5" y1="163.9" x2="321" y2="147.2"/>
		<line class="stm-3-5" x1="315.8" y1="137.6" x2="315.6" y2="137.8"/>
		<line class="stm-3-5" x1="311.7" y1="141.7" x2="311.5" y2="141.9"/>
		<line class="stm-3-5" x1="321" y1="147.2" x2="321.2" y2="151.1"/>
		<line class="stm-3-5" x1="321" y1="147.2" x2="324.8" y2="147.5"/>
		<line class="stm-3-5" x1="314.9" y1="135.4" x2="309.3" y2="141"/>
		<line class="stm-3-5" x1="313" y1="143.1" x2="312.8" y2="143.3"/>
		<line class="stm-3-5" x1="352.9" y1="176" x2="349.4" y2="179.5"/>
		<line class="stm-3-5" x1="351.8" y1="174.9" x2="348.3" y2="178.3"/>
		<line class="stm-3-5" x1="350.6" y1="173.7" x2="347.1" y2="177.2"/>
		<line class="stm-3-5" x1="349.5" y1="172.4" x2="345.9" y2="176"/>
		<line class="stm-3-5" x1="348.4" y1="171.3" x2="344.7" y2="174.9"/>
		<line class="stm-3-5" x1="347.2" y1="170.1" x2="343.6" y2="173.7"/>
		<line class="stm-3-5" x1="344.8" y1="167.8" x2="341.3" y2="171.3"/>
		<line class="stm-3-5" x1="343.7" y1="166.6" x2="340.2" y2="170.1"/>
		<line class="stm-3-5" x1="342.5" y1="165.5" x2="339" y2="169"/>
		<line class="stm-3-5" x1="341.3" y1="164.3" x2="337.8" y2="167.8"/>
		<line class="stm-3-5" x1="340.2" y1="163.2" x2="336.6" y2="166.6"/>
		<line class="stm-3-5" x1="339" y1="162" x2="337.2" y2="163.7"/>
		<line class="stm-3-5" x1="337.8" y1="160.8" x2="334.3" y2="164.2"/>
		<line class="stm-3-5" x1="322.9" y1="145.5" x2="319.2" y2="149.1"/>
		<line class="stm-3-5" x1="309.3" y1="141" x2="332.9" y2="164.9"/>
		<line class="stm-3-5" x1="356.4" y1="188.6" x2="350.8" y2="194.1"/>
		<line class="stm-3-5" x1="350.8" y1="194.1" x2="348" y2="191.2"/>
		<line class="stm-3-5" x1="347.7" y1="190.9" x2="324.4" y2="167.4"/>
		<line class="stm-3-5" x1="324.2" y1="167.2" x2="306.7" y2="149.4"/>
		<line class="stm-3-5" x1="306.3" y1="149.1" x2="303.7" y2="146.4"/>
		<line class="stm-3-5" x1="310.2" y1="143.2" x2="332" y2="165.2"/>
		<line class="stm-3-5" x1="332" y1="165.2" x2="353.9" y2="187.4"/>
		<line class="stm-3-5" x1="310" y1="143.3" x2="331.7" y2="165.2"/>
		<line class="stm-3-5" x1="331.7" y1="165.2" x2="353.7" y2="187.6"/>
		<line class="stm-3-5" x1="306.1" y1="147.2" x2="325.5" y2="166.8"/>
		<line class="stm-3-5" x1="325.7" y1="167" x2="349.9" y2="191.5"/>
		<line class="stm-3-5" x1="305.9" y1="147.3" x2="325.2" y2="166.9"/>
		<line class="stm-3-5" x1="325.4" y1="167.1" x2="349.7" y2="191.7"/>
		<line class="stm-3-5" x1="349.7" y1="191.7" x2="349.9" y2="191.5"/>
		<line class="stm-3-5" x1="353.7" y1="187.6" x2="353.9" y2="187.4"/>
		<line class="stm-3-5" x1="355.4" y1="189.6" x2="331.6" y2="165.5"/>
		<line class="stm-3-5" x1="331.6" y1="165.5" x2="308.3" y2="141.9"/>
		<line class="stm-3-5" x1="332.9" y1="164.9" x2="309.3" y2="141"/>
		<line class="stm-3-5" x1="351.8" y1="193.1" x2="326" y2="167"/>
		<line class="stm-3-5" x1="325.8" y1="166.8" x2="304.7" y2="145.4"/>
		<line class="stm-3-5" x1="356.4" y1="188.6" x2="332.9" y2="164.9"/>
		<line class="stm-3-5" x1="345.6" y1="183.3" x2="328.7" y2="166.2"/>
		<line class="stm-3-5" x1="328.7" y1="166.2" x2="315.5" y2="152.7"/>
		<line class="stm-3-5" x1="305.9" y1="147.3" x2="306.1" y2="147.2"/>
		<line class="stm-3-5" x1="310" y1="143.3" x2="310.2" y2="143.2"/>
		<line class="stm-3-5" x1="315.5" y1="152.7" x2="319.3" y2="153"/>
		<line class="stm-3-5" x1="315.5" y1="152.7" x2="315.7" y2="156.5"/>
		<line class="stm-3-5" x1="303.7" y1="146.4" x2="309.3" y2="141"/>
		<line class="stm-3-5" x1="307.3" y1="148.8" x2="307.5" y2="148.5"/>
		<line class="stm-3-5" x1="311.4" y1="144.7" x2="311.6" y2="144.5"/>
		<line class="stm-3-5" x1="348.3" y1="190.3" x2="348.5" y2="190.1"/>
		<line class="stm-3-5" x1="343.8" y1="185" x2="347.4" y2="181.5"/>
		<line class="stm-3-5" x1="342.7" y1="183.9" x2="346.2" y2="180.3"/>
		<line class="stm-3-5" x1="341.5" y1="182.7" x2="345.1" y2="179.1"/>
		<line class="stm-3-5" x1="340.4" y1="181.5" x2="343.9" y2="178"/>
		<line class="stm-3-5" x1="339.2" y1="180.3" x2="342.8" y2="176.8"/>
		<line class="stm-3-5" x1="338" y1="179.1" x2="341.6" y2="175.6"/>
		<line class="stm-3-5" x1="335.7" y1="176.8" x2="339.3" y2="173.3"/>
		<line class="stm-3-5" x1="334.6" y1="175.6" x2="338.1" y2="172.1"/>
		<line class="stm-3-5" x1="333.4" y1="174.5" x2="336.9" y2="170.9"/>
		<line class="stm-3-5" x1="332.3" y1="173.3" x2="335.8" y2="169.8"/>
		<line class="stm-3-5" x1="331.1" y1="172.1" x2="334.6" y2="168.6"/>
		<line class="stm-3-5" x1="329.9" y1="170.9" x2="333.5" y2="167.4"/>
		<line class="stm-3-5" x1="328.7" y1="169.7" x2="332.4" y2="166.3"/>
		<line class="stm-3-5" x1="330.9" y1="165.4" x2="331.2" y2="165.1"/>
		<line class="stm-3-5" x1="327.6" y1="166.3" x2="330" y2="163.9"/>
		<line class="stm-3-5" x1="325.3" y1="166.3" x2="328.8" y2="162.7"/>
		<line class="stm-3-5" x1="313.7" y1="154.5" x2="317.3" y2="151"/>
		<line class="stm-3-5" x1="346" y1="169" x2="342.4" y2="172.4"/>
		<line class="stm-3-5" x1="336.9" y1="178" x2="340.5" y2="174.5"/>
		<line class="stm-3-5" x1="336.7" y1="159.6" x2="333.2" y2="163.1"/>
		<line class="stm-3-5" x1="335.6" y1="158.4" x2="332" y2="161.9"/>
		<line class="stm-3-5" x1="334.4" y1="157.3" x2="330.9" y2="160.7"/>
		<line class="stm-3-5" x1="333.3" y1="156" x2="329.6" y2="159.6"/>
		<line class="stm-3-5" x1="332.1" y1="154.9" x2="328.5" y2="158.4"/>
		<line class="stm-3-5" x1="331" y1="153.7" x2="327.4" y2="157.3"/>
		<line class="stm-3-5" x1="329.7" y1="152.5" x2="326.2" y2="156"/>
		<line class="stm-3-5" x1="328.6" y1="151.4" x2="325.1" y2="154.9"/>
		<line class="stm-3-5" x1="327.4" y1="150.2" x2="323.9" y2="153.7"/>
		<line class="stm-3-5" x1="326.3" y1="149.1" x2="322.8" y2="152.5"/>
		<line class="stm-3-5" x1="325.1" y1="147.8" x2="321.5" y2="151.4"/>
		<line class="stm-3-5" x1="324" y1="146.6" x2="320.4" y2="150.2"/>
		<line class="stm-3-5" x1="324.2" y1="165.1" x2="327.7" y2="161.5"/>
		<line class="stm-3-5" x1="323" y1="163.9" x2="326.5" y2="160.4"/>
		<line class="stm-3-5" x1="321.8" y1="162.7" x2="325.4" y2="159.2"/>
		<line class="stm-3-5" x1="320.6" y1="161.5" x2="324.3" y2="158.1"/>
		<line class="stm-3-5" x1="319.5" y1="160.4" x2="323.1" y2="156.9"/>
		<line class="stm-3-5" x1="318.4" y1="159.2" x2="321.9" y2="155.7"/>
		<line class="stm-3-5" x1="317.2" y1="158.1" x2="320.7" y2="154.5"/>
		<line class="stm-3-5" x1="316.1" y1="156.9" x2="319.6" y2="153.4"/>
		<line class="stm-3-5" x1="314.9" y1="155.7" x2="318.4" y2="152.2"/>
		<line class="stm-3-5" x1="356.7" y1="179.7" x2="353.1" y2="183.3"/>
		<line class="stm-3-5" x1="347.6" y1="188.7" x2="351.1" y2="185.2"/>
		<line class="stm-3-5" x1="319.1" y1="141.8" x2="315.6" y2="145.3"/>
		<line class="stm-3-5" x1="310" y1="150.8" x2="313.5" y2="147.2"/>
		<line class="stm-3-5" x1="337.2" y1="163.7" x2="335.5" y2="165.5"/>
		<line class="stm-3-5" x1="330.9" y1="165.4" x2="327.6" y2="168.6"/>
		<line class="stm-3-5" x1="327.6" y1="166.3" x2="326.4" y2="167.4"/>
		<polyline class="stm-3-5" points="310.1,155 310.2,155.8 310.3,156.5 310.4,157.4 310.6,158.1 310.8,158.9 311.1,159.6 311.4,160.4 
			311.7,161.1 312,161.8 312.4,162.6 312.8,163.3 313.2,164 313.7,164.7 314.2,165.6 314.8,166.3 315.3,167 315.9,167.7 
			316.5,168.3 317.1,169 317.8,169.7 318.5,170.4 319.2,171 320,171.7 320.8,172.3 321.6,173.1 322.4,173.7 323.3,174.3 
			324.2,174.9 325.1,175.5 325.6,175.8 325.9,176 326.1,176.2 326.5,176.4 326.8,176.6 327.3,176.9 327.8,177.1 328,177.3 
			328.3,177.5 328.7,177.6 329,177.8 329.4,178 329.7,178.3 330.2,178.5 330.6,178.7 331.9,179.4 333.2,180 334.5,180.6 
			335.9,181.3 		"/>
		<polyline class="stm-3-5" points="309.7,155.2 309.8,156 309.9,156.9 310.1,157.6 310.3,158.4 310.5,159.1 310.7,159.9 311,160.6 
			311.3,161.4 311.7,162.1 312.1,162.9 312.5,163.6 312.9,164.3 313.4,165.1 313.9,165.9 314.4,166.6 315.1,167.3 315.7,168 
			316.3,168.7 316.9,169.4 317.6,170 318.3,170.7 319,171.4 319.8,172 320.5,172.7 321.3,173.4 322.2,174 323.1,174.7 324,175.3 
			324.9,175.9 325.9,176.5 326.8,177.1 327.8,177.6 328.2,177.9 328.5,178 328.8,178.2 329.1,178.4 329.4,178.5 329.6,178.7 
			329.9,178.8 330.1,178.9 330.2,179 330.4,179 330.6,179.2 330.9,179.3 331.1,179.4 331.2,179.4 331.3,179.5 331.4,179.5 
			331.7,179.7 333,180.3 334.3,180.9 335.6,181.6 		"/>
		<g>
			<polyline class="stm-3-5" points="426.5,183.1 421.1,180 415.5,177.7 409.6,175.7 403.5,174.5 397.4,173.9 391.3,173.9 385,174.5 
				379,175.7 373.1,177.7 367.3,180 361.9,183.1 			"/>
		</g>
		<g>
			<polyline class="stm-3-5" points="427.2,182.3 421.7,179.2 416,176.8 410,174.8 403.7,173.5 397.4,172.9 391.2,172.9 384.7,173.5 
				378.7,174.8 372.6,176.8 366.7,179.2 361.2,182.3 			"/>
		</g>
		<g>
			<polyline class="stm-3-5" points="471.8,137.1 458.8,129.8 445.4,124.2 431.2,119.4 416.5,116.4 401.8,115.1 387.1,115.1 372,116.4 
				357.7,119.4 343.4,124.2 329.6,129.8 316.6,137.1 			"/>
		</g>
		<g>
			<polyline class="stm-3-5" points="473.6,135.3 460.3,127.8 446.6,122 432,117.1 417,114 402,112.7 386.9,112.7 371.5,114 
				356.9,117.1 342.3,122 328.1,127.8 314.9,135.3 			"/>
		</g>
	</g>
	<g>
		<polyline class="stm-3-2" points="583,185.5 612.7,179.5 613.7,177.3 615.1,175.3 617,173.7 619,172.3 621.2,171.3 623.5,170.7 
			626,170.6 628.4,170.9 630.7,171.7 632.9,172.8 634.9,174.2 651.1,169.9 652.3,169.3 653.2,168.4 653.8,167.3 654,166.1 
			654,122.8 653.8,121.5 653.3,120.4 652.4,119.6 651.3,119 650.1,118.8 530.2,118.8 529,119 527.9,119.6 526.9,120.4 526.3,121.5 
			526.1,122.8 526.1,189.4 526.4,190.7 527,191.8 528.1,192.7 529.3,193.2 530.6,193.3 548.1,191.1 565.6,188.6 583,185.5 		"/>
	</g>
	<text transform="matrix(1 0 0 1 561.1243 151.9409)" class="stm-3-3 stm-3-13 stm-3-14">FOOD COURT</text>
	<text transform="matrix(1 0 0 1 499.0374 66.4282)" class="stm-3-3 stm-3-13 stm-3-14">KFC</text>
	<text transform="matrix(0.7375 0.6754 -0.6754 0.7375 669.8465 130.9395)" class="stm-3-3 stm-3-13 stm-3-15">CADORE</text>
	<text transform="matrix(1 0 0 1 267.6741 64.1836)" class="stm-3-3 stm-3-13 stm-3-14">McDONALDS</text>
	<text transform="matrix(0 -1 1 0 289.0608 259.6826)" class="stm-3-3 stm-3-13 stm-3-14">PAKDAD</text>
	<text transform="matrix(1 0 0 1 307.7932 242.7446)"><tspan x="0" y="0" class="stm-3-3 stm-3-13 stm-3-14">NAMLI</tspan><tspan x="-0.2" y="8.5" class="stm-3-3 stm-3-13 stm-3-14">KEBAB</tspan></text>
	<text transform="matrix(1 0 0 1 349.2131 246.0864)"><tspan x="0" y="0" class="stm-3-3 stm-3-13 stm-3-14">WOKI</tspan><tspan x="3.7" y="8.5" class="stm-3-3 stm-3-13 stm-3-14">OKI</tspan></text>
	<text transform="matrix(1 0 0 1 369.7639 289.1196)" class="stm-3-3 stm-3-16 stm-3-14">ШОКОЛАДНИЦА</text>
	<text transform="matrix(1 0 0 1 467.9163 248.0776)" class="stm-3-3 stm-3-13 stm-3-14">YEDOY</text>
	<text transform="matrix(1 0 0 1 559.3323 232.5522)" class="stm-3-3 stm-3-13 stm-3-14">KUKU</text>
	<text transform="matrix(1 0 0 1 703.3225 231.978)" class="stm-3-3 stm-3-13 stm-3-14">lL PATlO</text>
	<text transform="matrix(0 -1 1 0 443.0989 269.752)" class="stm-3-3 stm-3-13 stm-3-14">BÜYÜKFIRAT</text>
	<text transform="matrix(0 -1 1 0 603.925 249.8882)" class="stm-3-3 stm-3-13 stm-3-14">BAYDONER</text>
	<text transform="matrix(0 -1 1 0 640.5286 242.0972)" class="stm-3-3 stm-3-13 stm-3-14">NARGİLE</text>
	<text transform="matrix(0 -1 1 0 510.1477 248.8804)"><tspan x="0" y="0" class="stm-3-3 stm-3-13 stm-3-14">PAPA</tspan><tspan x="-2.2" y="8.5" class="stm-3-3 stm-3-13 stm-3-14">JONES</tspan></text>
	<text transform="matrix(1 0 0 1 607.2424 78.978)"><tspan x="0" y="0" class="stm-3-3 stm-3-13 stm-3-17">VAFLE</tspan><tspan x="2.7" y="5.4" class="stm-3-3 stm-3-13 stm-3-17">ART</tspan></text>
	<text transform="matrix(1 0 0 1 565.4241 77.6787)"><tspan x="0" y="0" class="stm-3-3 stm-3-13 stm-3-14">BURGER</tspan><tspan x="5.5" y="8.5" class="stm-3-3 stm-3-13 stm-3-14">KING</tspan></text>
	<text transform="matrix(1 0 0 1 632.0237 42.0649)"><tspan x="0" y="0" class="stm-3-3 stm-3-13 stm-3-14">COFFEESHOP</tspan><tspan x="5.5" y="8.5" class="stm-3-3 stm-3-13 stm-3-14">COMPANY</tspan></text>
	<polyline class="stm-3-4" points="390.7,56.1 390.7,71.7 390.4,72.9 389.8,74.1 388.8,75.1 387.6,75.8 386.3,76.4 384.9,76.7 
		373.8,77.4 362.8,78.4 351.8,79.9 340.8,81.6 330,83.9 319.4,86.3 308.7,89.2 	"/>
	<polyline class="stm-3-18" points="323,38.5 334.2,48.7 346,46.9 357.8,45.5 369.7,44.3 381.6,43.7 393.6,43.3 405.6,43.3 417.4,43.7 
		429.4,44.3 441.3,45.5 453.1,46.9 464.9,48.7 476.2,38.4 	"/>
	<path class="stm-3-4" d="M486.1,28.7l-8.6-2.2c-2.5-0.6-5-1.2-7.5-1.6l-8.5-1.4L449,21.7l-12.3-1.4l-12.5-0.9l-12.6-0.6l-12.5-0.2
		l-12.6,0.2l-12.5,0.6l-12.5,0.9l-12.5,1.4L337,23.4l-12.2,2.1l-12.2,2.3"/>
	<path class="stm-3-4" d="M478.9,66.2l-7.9-2.2c-2.3-0.6-4.6-1.2-6.9-1.6l-7.9-1.4l-11.4-1.7l-11.4-1.4L422,56.9l-11.5-0.6L399,56.1
		l-11.5,0.2L376,56.9l-11.5,0.9l-11.5,1.4l-11.4,1.7l-11.3,2.1l-11.3,2.3"/>
	<polyline class="stm-3-4" points="490.7,89.2 480.1,86.3 469.5,83.9 458.6,81.6 447.7,79.9 436.7,78.4 425.7,77.4 414.6,76.7 
		413.2,76.4 411.8,75.8 410.6,75.1 409.8,74.1 409.1,72.9 408.7,71.7 408.7,56.1 	"/>
	<circle class="stm-3-2" cx="379.1" cy="67.8" r="6.5"/>
	<text transform="matrix(1 0 0 1 373.9573 68.6733)" class="stm-3-3 stm-3-13 stm-3-19">AZƏRÇAY</text>
	<circle class="stm-3-2" cx="395.8" cy="189.6" r="8.3"/>
	<g>
		<text transform="matrix(1 0 0 1 391.1887 191.5366)" class="stm-3-3 stm-3-13 stm-3-20">N/A</text>
	</g>
	<rect x="200.7" y="56.2" class="stm-3-2" width="43.4" height="48.5"/>
	<text transform="matrix(1 0 0 1 161.3577 145.3088)" class="stm-3-3 stm-3-13 stm-3-14">HAPPYLAND</text>
	<text transform="matrix(1 0 0 1 207.0237 79.3296)"><tspan x="0" y="0" class="stm-3-3 stm-3-13 stm-3-14">GALLERY</tspan><tspan x="7.7" y="8.5" class="stm-3-3 stm-3-13 stm-3-14">KIDS</tspan></text>
</g>
<g id="Layer_2">
</g>
<g id="Layer_3">
</g>
<g id="Layer_4">
</g>
<g id="Layer_5">
</g>
<g id="Layer_6">
</g>
</svg>
