<?xml version="1.0" encoding="utf-8"?>
<!-- Generator: Adobe Illustrator 22.0.1, SVG Export Plug-In . SVG Version: 6.00 Build 0)  -->
<svg version="1.1" xmlns="http://www.w3.org/2000/svg" xmlns:xlink="http://www.w3.org/1999/xlink" x="0px" y="0px"
	 viewBox="0 0 803.6 342" style="enable-background:new 0 0 803.6 342;" xml:space="preserve">
<style type="text/css">
	.stm-4-0{fill:#FCFCFA;}
	.stm-4-1{fill:#F0F0F0;}
	.stm-4-2{fill:#FFFFFF;}
	.stm-4-3{fill:#A8A8A8;}
	.stm-4-4{fill:none;stroke:#C9C9C9;stroke-width:0.5;stroke-miterlimit:10;}
	.stm-4-5{fill:none;stroke:#C9C9C9;stroke-width:0.25;stroke-miterlimit:10;}
	.stm-4-6{fill:#006397;}
	.stm-4-7{fill:none;stroke:#767676;stroke-width:0.12;stroke-linecap:round;stroke-linejoin:round;stroke-miterlimit:10;}
	.stm-4-8{fill:#FFFFFF;stroke:#C9C9C9;stroke-width:0.25;stroke-miterlimit:10;}
	.stm-4-9{fill:#FFFFFF;stroke:#000000;stroke-width:0.5;stroke-miterlimit:10;}
	.stm-4-10{fill:#DFFF7F;}
	.stm-4-11{fill:none;stroke:#C9C9C9;stroke-width:0;stroke-linecap:round;stroke-linejoin:round;stroke-miterlimit:10;}
	.stm-4-12{fill:none;stroke:#C9C9C9;stroke-width:0.25;stroke-linecap:round;stroke-linejoin:round;stroke-miterlimit:10;}
	.stm-4-13{fill:none;}
	.stm-4-14{font-family:'Averta-Bold';}
	.stm-4-15{font-size:7.8132px;}
	.stm-4-16{font-size:5.9369px;}
	.stm-4-17{fill:none;stroke:#D8D8D8;stroke-width:0.5;stroke-miterlimit:10;}
</style>
  
<g id="Layer_1">
	<polygon class="stm-4-1" points="788.4,186.9 788.4,184.1 751.4,108 751.4,106.3 750.8,104.5 750.4,103.2 749.6,101.6 748.7,99.9 
		747,97.7 744.7,95.8 710.9,60.7 710.9,13.2 648.1,13.2 600.6,13.1 600.6,13.2 554.3,13.2 554.3,26 520.9,26 520.9,16 518.2,16 
		518.2,13.2 495.6,13.2 479.5,29.3 479.5,35.5 391.9,35.5 378.4,35.5 326.6,35.5 326.6,34.6 324.6,34.6 324.6,29.3 313.4,18.2 
		308.7,13.2 286,13.2 286,16 283.2,16 283.2,26.6 249.9,26.6 249.9,13.2 203.6,13.2 193,13.2 159.3,13.2 148.8,13.2 93.2,13.2 
		93.2,60.7 58.6,96.4 57.5,97.5 56.4,98.7 54.5,101.5 15.8,184.1 15.8,186.9 13,186.9 13,231.7 13,242.3 13,313.4 103.8,313.4 
		103.8,328.4 200.7,328.4 214.2,328.4 250.7,328.4 250.7,322.5 296.6,326.4 296.6,312.1 507.5,312.1 507.5,324.7 529.7,324.7 
		529.7,325.6 552.4,325.6 556.2,325.6 556.2,328.4 689.1,328.4 689.1,328.6 728,328.4 788.4,328.4 788.4,325.6 791.2,325.6 
		791.2,220.7 791.2,220.7 791.2,186.9 	"/>
	<polygon class="stm-4-2" points="319.4,42.7 319.4,41.8 289.3,41.8 289.3,33.9 247,33.9 247,41.8 247,42.7 247,50.3 247,50.7 
		247.9,50.7 247.9,52.6 247.9,54.6 247.6,54.6 247.6,54.7 247.6,61.8 263.7,61.8 263.7,100.3 263.7,100.4 263.7,100.6 263.7,100.8 
		263.7,101.2 263.7,101.6 263.7,102 263.7,102.4 263.7,102.9 263.7,103.3 263.7,103.6 263.7,104 263.7,104.3 263.7,104.4 
		246.2,104.4 246.2,104.5 246.2,104.6 246.2,111.9 246.2,115.5 263.4,115.5 263.4,140.7 326.3,115.5 335,111.9 335,104.6 
		334.7,104.5 334.5,104.4 334.4,104.3 334,104 333.8,103.6 333.6,103.3 333.5,102.9 333.5,102.4 333.5,102 333.6,101.6 333.8,101.2 
		334.1,100.8 334.5,100.6 334.9,100.4 335.4,100.3 335.8,100.3 336,100.3 336.2,100.3 336.3,100.3 336.6,100.4 336.9,100.6 
		337,100.6 337.3,100.8 337.4,101 337.5,101.2 337.6,101.3 337.7,101.5 337.8,101.7 337.9,102 337.9,102.1 337.9,102.3 337.9,102.5 
		337.9,102.7 337.9,103 337.9,103.1 337.8,103.4 337.7,103.5 337.6,103.9 338.2,103.9 338.2,104.3 338.5,104.3 338.5,104.4 
		377.1,104.4 377.1,104.3 377.5,104.3 377.5,103.9 378.3,103.9 377.9,103.5 377.9,103.4 377.8,103.1 377.8,103 377.7,102.7 
		377.7,102.5 377.7,102.3 377.7,102.1 377.7,102 377.8,101.7 377.9,101.5 378,101.3 378,101.2 378.3,101 378.4,100.8 378.6,100.6 
		378.9,100.4 379,100.4 379.4,100.3 379.4,61.8 379.4,54.7 379.3,54.6 377.7,52.6 379.7,50.7 379.9,50.3 384.6,50.3 384.6,42.7 	"/>
	<polygon class="stm-4-2" points="107.2,194.1 107.2,191.3 23.1,191.3 23.1,194.1 20.3,194.1 20.3,194.7 20.3,235.1 23.1,235.1 
		23.1,237.8 63.5,237.8 63.5,235.1 110.5,235.1 110.5,194.7 107.2,194.7 	"/>
	<polygon class="stm-4-2" points="225.9,129.7 224.9,126.6 224.2,124.7 224.2,120.9 224.2,117.5 220.6,117.5 218.4,115.4 216.4,113.5 
		211.8,110.2 211.7,110.2 206.5,107.4 201.1,105.4 176.4,105.4 170.9,99.9 150.2,99.9 150.2,105.4 151.5,105.4 150.2,107.4 
		148.5,110.2 148.4,110.2 147,113.5 146.1,115.4 145.4,117.5 144.4,120.9 143.7,124.7 143.4,126.6 143.3,129.7 143.1,132.5 
		143.4,134.9 143.7,138.2 144.2,140.2 144.9,143.8 145.5,145.4 147,149.1 147.6,150.5 149.6,154.3 150.2,155.2 152.1,157.8 
		152.9,159 155.6,161.9 156.8,163.3 158.8,161.9 162.9,159 164.5,157.8 165.5,159 166,159.6 167.9,161.9 169.7,163.4 171.8,165.4 
		173.8,166.6 176.3,168.2 178.5,169.2 181.1,170.3 183.6,171 186.3,171.8 189.3,172.1 191.5,172.3 196.8,172.1 198.5,171.8 
		201.9,171 203.7,170.3 206.9,169.2 208.6,168.2 211.4,166.6 213.1,165.4 215.6,163.4 217,161.9 219.3,159.6 219.6,159 220.5,157.8 
		222.3,155.2 222.6,154.3 224.5,150.5 224.9,149.1 226.1,145.4 226.3,143.8 226.8,140.2 226.8,138.2 226.8,134.9 226.3,132.5 	"/>
	<polygon class="stm-4-2" points="248.9,306 248.9,315.1 289.3,318.5 289.3,315.1 289.3,306 	"/>
	<rect x="512" y="207.3" class="stm-4-2" width="47.7" height="77.6"/>
	<polygon class="stm-4-2" points="168.4,197.9 168.4,265.6 167.3,265.6 167.3,225.7 167.3,207.3 124.1,207.3 124.1,225.7 124.1,265.6 
		124.1,287.6 176.7,287.6 176.7,265.6 176.7,197.9 	"/>
	<polygon class="stm-4-2" points="231.6,277.1 230.4,277.1 230.4,265.6 230.4,207.3 187.2,207.3 187.2,265.6 186.1,265.6 186.1,197.9 
		177.8,197.9 177.8,265.6 177.8,277.1 177.8,283.8 177.8,284.9 177.8,287.6 196.4,287.6 196.4,284.9 200.2,284.9 200.2,287.6 
		230.4,287.6 230.4,284.9 230.4,283.8 231.6,283.8 231.6,284.9 231.6,288.7 241.8,288.7 241.8,284.9 243.4,284.9 243.4,283.8 
		243.4,277.1 243.4,276.5 231.6,276.5 	"/>
	<polygon class="stm-4-2" points="244.6,235.1 244.6,238.9 244.6,265.6 243.4,265.6 243.4,197.9 231.6,197.9 231.6,265.6 231.6,275.5 
		244.6,275.5 244.6,284.9 248.9,284.9 248.9,287.6 289.3,287.6 289.3,284.9 292.1,284.9 292.1,275.5 292.1,265.6 292.1,238.9 
		289.3,238.9 289.3,235.1 292.1,235.1 292.1,207.3 244.6,207.3 	"/>
	<polygon class="stm-4-2" points="323.7,235.1 345.9,235.1 345.9,227.3 345.9,224 335.6,224 335.6,227.3 293.3,227.3 293.3,235.1 
		293.3,238.9 293.3,296 391.8,296 391.8,238.9 323.7,238.9 	"/>
	<polygon class="stm-4-2" points="423.4,235 423.7,234.9 423.7,223.7 423.7,223.3 423.7,222.4 413,223.3 412.9,223.3 402.1,223.7 
		391.2,223.3 380.6,222.4 380.5,222.4 380.5,223.3 380.5,223.7 380.5,234.9 380.7,235 381.1,235.1 392.9,235.1 392.9,296 411.2,296 
		411.2,235.1 423.2,235.1 	"/>
	<polygon class="stm-4-2" points="468.5,224 458.3,224 458.3,227.3 458.3,235.1 480.5,235.1 480.5,238.9 412.3,238.9 412.3,296 
		510.9,296 510.9,238.9 510.9,235.1 510.9,227.3 468.5,227.3 	"/>
	<polygon class="stm-4-2" points="249.1,128.3 249.7,134.3 249.7,140.5 249.6,141.2 249,146.5 262.2,141.2 262.2,140.5 262.2,134.3 
		262.2,128.3 262.2,122.3 262.2,116.5 245.9,116.5 247.8,122.3 	"/>
	<rect x="536.9" y="301.3" class="stm-4-2" width="21.1" height="17.1"/>
	<polygon class="stm-4-2" points="648.2,20.4 607.8,20.3 607.8,20.4 607.8,23.2 607.8,40.7 651,40.7 651,23.2 648.2,23.2 	"/>
	<polygon class="stm-4-2" points="156,23.2 153.2,23.2 153.2,40.7 196.4,40.7 196.4,23.2 196.4,20.4 156,20.4 	"/>
	<rect x="696.4" y="238.9" class="stm-4-2" width="11.1" height="31"/>
	<polygon class="stm-4-2" points="107.7,236.1 93.4,236.1 93.4,238.9 93.4,261.6 110.5,261.6 110.5,238.9 107.7,238.9 	"/>
	<polygon class="stm-4-2" points="305.6,20.4 293.3,20.4 293.3,23.2 290.5,23.2 290.5,32.3 290.5,40.7 317.3,40.7 317.3,32.3 
		308.3,23.2 	"/>
	<polygon class="stm-4-2" points="510.9,20.4 498.6,20.4 495.8,23.2 486.8,32.3 486.8,40.7 513.6,40.7 513.6,32.3 513.6,23.2 
		510.9,23.2 	"/>
	<rect x="541.6" y="73.6" class="stm-4-2" width="14.7" height="14.1"/>
	<polygon class="stm-4-2" points="514.8,53.5 557.2,53.5 557.2,50.7 557.2,41.8 557.2,33.2 514.8,33.2 514.8,41.8 512,41.8 512,50.7 
		514.8,50.7 	"/>
	<polygon class="stm-4-2" points="78.2,113.8 78.6,112.9 78.8,112 79.1,111.1 79.2,110.2 79.3,109.4 79.2,108.5 79.1,107.6 78.8,106.7 
		78.6,105.8 78.2,104.9 77.7,104.1 77.2,103.4 76.6,102.6 75.8,102.1 75.1,101.5 74.4,101 73.6,100.5 72.6,100.2 71.9,99.9 
		70.7,99.7 70,99.7 68.2,99.7 67.4,99.9 66.4,100.2 65.6,100.5 64.7,101 64.1,101.5 63.2,102.1 62.6,102.6 61.9,103.4 61.5,104.1 
		60.9,104.9 60.6,105.8 60.2,106.7 60.1,107.6 59.9,108.5 59.9,109.4 59.9,110.2 60.1,111.1 60.2,112 60.6,112.9 60.9,113.8 
		61.5,114.6 61.9,115.4 62.6,116.1 63.2,116.7 64.1,117.3 64.7,117.8 65.6,118.2 66.4,118.5 67.4,118.8 68.2,119 70,119.1 70.7,119 
		71.9,118.8 72.6,118.5 73.6,118.2 74.4,117.8 75.1,117.3 75.8,116.7 76.6,116.1 77.2,115.4 77.7,114.6 	"/>
	<polygon class="stm-4-2" points="177.1,103.3 195,103.3 195,99.5 200.2,99.5 200.2,104.4 203,104.4 206.9,105.7 210.7,107.4 
		214.2,109.6 221.4,115.5 242.7,115.5 242.7,111.7 242.7,111.6 242.8,111.6 242.8,111.5 242.7,111.5 242.8,111.4 242.7,111.4 
		242.7,111 242.7,110.9 242.7,109.6 242.7,107.4 242.7,105.7 242.7,104.4 242.7,99.5 242.7,98.9 242.7,87.7 262.6,87.7 262.6,70.6 
		262.6,62.9 247.6,62.9 247.6,70.6 246.5,70.6 246.5,70 242.7,70 242.7,54.6 241.8,54.6 241.8,51.8 241.8,50.7 242.7,50.7 
		242.7,41.8 242.7,20.4 210,20.4 210,41.8 208.8,41.8 208.8,40.7 208.8,34.1 205.5,34.1 205.5,21.3 205.5,20.4 200.2,20.4 
		200.2,21.3 197.5,21.3 197.5,34.1 197.5,40.7 201.7,40.7 201.7,41.8 197.5,41.8 197.5,50.7 200.2,50.7 200.2,51.8 200.2,54.6 
		196.4,54.6 196.4,51.8 172.8,51.8 172.8,54.6 172.8,70 172.8,70.6 172.8,87.7 172.8,98.9 173.3,99.5 	"/>
	<polygon class="stm-4-2" points="554.6,112.9 554.6,126.3 600.3,126.3 600.3,112.9 606.7,112.9 606.7,112.4 606.7,104.4 603.9,104.4 
		603.9,100.5 606.7,100.5 606.7,87.7 606.7,78.2 599,78.2 599,73.6 599,63.2 607.8,63.2 607.8,58.4 615,58.4 615,41.8 594.1,41.8 
		594.3,20.4 561.6,20.4 561.6,41.8 561.6,58.4 561.6,63.2 561.6,73.6 561.6,78.2 561.6,87.7 561.6,100.5 561.6,104.4 559.1,104.4 
		559.1,112.4 554.6,112.4 	"/>
	<polygon class="stm-4-2" points="292.1,288.7 227.6,288.7 227.5,297 227.5,300.2 227.5,301.3 207.9,301.3 207.9,321.2 243.4,321.2 
		243.4,301.3 243.4,300.2 244.6,300.2 244.6,304.9 510.9,304.9 510.9,300.2 510.9,297 292.1,297 	"/>
	<polygon class="stm-4-2" points="226.5,300.2 226.5,297.9 226.5,288.7 123,288.6 123,285.7 123,276.1 123,238.9 111.6,238.9 
		111.6,276.1 92.3,276.1 92.3,285.7 77.3,285.7 77.3,288.6 77.3,288.7 77.3,297.9 77.3,306.2 110,306.2 110,297.9 111.9,297.9 
		111.9,300.2 	"/>
	<polygon class="stm-4-2" points="707.5,299.6 707.5,288.7 703.7,288.7 703.7,287.6 707.5,287.6 707.5,283.8 704.2,283.8 704.2,271 
		692.6,271 692.6,238.9 675.9,238.9 675.9,271 675.9,283.8 675.9,287.6 675.9,288.7 675.9,299.6 675.9,300.7 675.9,309.6 
		588.1,309.6 588.1,300.2 588.1,288.7 588.1,278.2 562.5,278.2 562.5,288.7 555.2,288.7 555.2,286.1 514.8,286.1 514.8,288.7 
		512,288.7 512,300.2 512,304 535.8,304 535.8,300.2 559.7,300.2 559.7,309.6 559.7,318.4 563.5,318.4 563.5,320.3 563.5,321.2 
		692.6,321.2 692.6,320.3 696.4,320.3 696.4,321.2 696.4,321.3 728,321.2 728,320.3 728,318.4 728,309.6 728,300.7 707.5,300.7 	"/>
	<rect x="542.4" y="88.9" class="stm-4-2" width="14.8" height="14.4"/>
	<rect x="247" y="88.9" class="stm-4-2" width="14.7" height="14.4"/>
	<rect x="514.8" y="306" class="stm-4-2" width="21.1" height="11.5"/>
	<polygon class="stm-4-2" points="744.2,108.5 744.2,107.6 743.9,106.7 743.6,105.8 743.2,104.9 742.7,104.1 742.2,103.4 741.6,102.6 
		740.9,102.1 740.3,101.5 739.4,101 738.6,100.5 737.7,100.2 736.9,99.9 735.7,99.7 735.1,99.7 733.2,99.7 732.5,99.9 731.4,100.2 
		730.8,100.5 729.7,101 729.1,101.5 728.3,102.1 727.6,102.6 726.9,103.4 726.5,104.1 726.1,104.9 725.7,105.8 725.3,106.7 
		725.2,107.6 724.9,108.5 724.9,109.4 724.9,110.2 725.2,111.1 725.3,112 725.7,112.9 726.1,113.8 726.5,114.6 726.9,115.4 
		727.6,116.1 728.3,116.7 729.1,117.3 729.7,117.8 730.8,118.2 731.4,118.5 732.5,118.8 733.2,119 735.1,119.1 735.7,119 
		736.9,118.8 737.7,118.5 738.6,118.2 739.4,117.8 740.3,117.3 740.9,116.7 741.6,116.1 742.2,115.4 742.7,114.6 743.2,113.8 
		743.6,112.9 743.9,112 744.2,111.1 744.2,110.2 744.3,109.4 	"/>
	<text transform="matrix(1 0 0 1 294.7483 74.1929)"><tspan x="0" y="0" class="stm-4-3 stm-4-14 stm-4-15">RESTAURANT</tspan><tspan x="1.5" y="9.4" class="stm-4-3 stm-4-14 stm-4-15">KITCHENETE</tspan></text>
	<text transform="matrix(1 0 0 1 39.0032 212.2959)"><tspan x="0" y="0" class="stm-4-3 stm-4-14 stm-4-15">PARK BULVAR</tspan><tspan x="12.7" y="9.4" class="stm-4-3 stm-4-14 stm-4-15">OFFICE</tspan></text>
	<path class="stm-4-3" d="M147.7,285.3c-8.7,0-16.1-5.6-16.1-16.1c0-9,5.8-16.3,16.1-16.3c4.4,0,9.1,1.8,12.6,6.1l-4.6,3.9
		c-1.9-2.2-4.7-4-8-4c-5.5,0-9.6,4-9.6,10.3c0,5.9,3.9,10.1,9.6,10.1c3.3,0,6.1-1.7,8-4l4.6,3.9
		C157.6,282.6,153.3,285.3,147.7,285.3L147.7,285.3z"/>
	<path class="stm-4-3" d="M203.8,253.2h6.3v31.7h-6.3V253.2z"/>
	<path class="stm-4-3" d="M283.6,253.2v31.7h-6.4l-13.9-21h-0.1v21h-6.3v-31.7h6.3l14.1,21.4h0.1v-21.4H283.6z"/>
	<path class="stm-4-3" d="M333.2,253.2h20.3v5.6h-14.1v7.6h11.3v5.5h-11.3v7.3h15v5.6h-21.2V253.2z"/>
	<path class="stm-4-3" d="M461.5,253.2v31.7h-6.2v-19.7h-0.1l-7.7,13.7h-4.1l-7.7-13.7h-0.1v19.7h-6.2v-31.7h6.3l9.7,18h0.1l9.7-18
		H461.5z"/>
	<path class="stm-4-3" d="M486.5,278.6h-12.2l-2.2,6.3h-6.6l11.7-31.7h6.1l11.8,31.7h-6.6L486.5,278.6z M484.7,273.2l-4.2-12.4h0
		l-4.2,12.4H484.7z"/>
	<text transform="matrix(1 0 0 1 158.5754 138.8965)" class="stm-4-3 stm-4-14 stm-4-15">PLANETARIUM</text>
	<polygon class="stm-4-2" points="111.9,305.6 111.1,305.6 111.1,321.2 206.9,321.2 206.9,305.6 206.9,301.3 111.9,301.3 	"/>
	<polygon class="stm-4-2" points="540.5,72.5 558,72.5 558,54.7 558,54.6 510.9,54.6 510.9,54.4 510.9,54.1 510.9,53.8 510.9,53.5 
		510.9,53 510.9,52.7 510.9,52.2 510.9,51.9 510.9,51.5 510.9,42.7 385.6,42.7 385.6,51.5 381.8,51.5 382.1,51.9 382.2,52.2 
		382.2,52.7 382.1,53 382,53.5 381.8,53.8 381.5,54.1 381.3,54.4 380.9,54.6 380.8,54.6 380.5,54.7 380.5,72.5 380.6,104.4 
		380.6,104.5 469.1,104.5 469.1,111.9 470.3,112.4 504.8,126.3 507.5,127.4 546.6,143.1 552.8,127.4 553.5,126.3 553.5,112.4 
		559.1,112.4 559.1,111.9 559.1,104.5 559.1,104.4 540.5,104.4 	"/>
	<polygon class="stm-4-2" points="781.1,194.1 781.1,191.3 740.7,191.3 740.7,194.1 736.8,194.1 736.8,191.3 716.7,191.3 713.7,191.3 
		713.7,174.3 717.3,174.7 717.3,171.4 711.9,167.7 707,163.4 702.7,158.4 698.8,153.1 695.8,147.2 693.4,141.1 691.7,134.8 
		690.8,128.2 690.8,128.1 690.7,121.6 726.2,117.9 725.4,117.1 724.3,115.1 724,114.2 723.5,113.1 723.3,112 723.1,111 723.1,108.7 
		723.3,107.7 723.5,106.6 724,105.5 724.4,104.4 724.9,103.5 725.5,102.6 726,102.1 684.8,102.1 682.3,104.9 680.4,104.9 
		680.4,100.8 682.9,100.8 682.9,77.3 615,77.3 615,58.4 607.8,58.4 607.8,63.3 600.1,63.3 600.1,77.3 607.8,77.3 607.8,114.6 
		601.4,114.6 601.4,128.1 589.2,128.1 589.2,191.3 589.2,191.3 589.2,308.4 674.8,308.4 674.8,237.8 692.6,237.8 692.6,213.5 
		783.9,213.5 783.9,194.1 	"/>
	<text transform="matrix(1 0 0 1 421.6536 74.1929)"><tspan x="0" y="0" class="stm-4-3 stm-4-14 stm-4-15">RESTAURANT</tspan><tspan x="-4.4" y="9.4" class="stm-4-3 stm-4-14 stm-4-15">PARK ZƏFƏRAN</tspan></text>
	<text transform="matrix(1 0 0 1 617.7141 173.375)"><tspan x="0" y="0" class="stm-4-3 stm-4-14 stm-4-15">SPORTS CAFE</tspan><tspan x="20.8" y="9.4" class="stm-4-3 stm-4-14 stm-4-15">VƏ</tspan><tspan x="7.3" y="18.8" class="stm-4-3 stm-4-14 stm-4-15">BOWLİNG</tspan></text>
	<text transform="matrix(1 0 0 1 394.2952 232.8994)" class="stm-4-3 stm-4-14 stm-4-15">BAR</text>
	<text transform="matrix(1 0 0 1 127.9973 218.3848)" class="stm-4-3 stm-4-14 stm-4-16">CAFFESHOP</text>
	<text transform="matrix(0 1 -1 0 254.0735 119.2222)" class="stm-4-3 stm-4-14 stm-4-16">OFFİCE</text>
	<g>
		<polyline class="stm-4-5" points="468.8,195.2 469.6,194.8 470.4,194.4 472,193.7 473.4,193 474.9,192.2 476.3,191.5 477.7,190.7 
			479,189.9 480.2,189.1 481.5,188.3 482.7,187.4 483.8,186.6 485,185.7 486.1,184.9 487.1,184 488.1,183.1 489,182.2 489.9,181.3 
			490.7,180.4 491.4,179.4 492.2,178.5 492.9,177.5 493.5,176.6 494.1,175.6 494.6,174.6 495.1,173.7 495.5,172.6 495.9,171.6 
			496.3,170.6 496.5,169.6 496.7,168.6 496.9,167.6 496.9,167.2 496.9,166.8 496.9,166.7 497,166.5 		"/>
		<line class="stm-4-5" x1="497" y1="166.5" x2="502.2" y2="161.2"/>
		<line class="stm-4-5" x1="456.8" y1="207.1" x2="468.8" y2="195.2"/>
		<line class="stm-4-5" x1="457.4" y1="207.7" x2="469.2" y2="195.8"/>
		<line class="stm-4-5" x1="457.4" y1="208.4" x2="469.5" y2="196.2"/>
		<line class="stm-4-5" x1="457.4" y1="207.7" x2="455.6" y2="206"/>
		<line class="stm-4-5" x1="457.4" y1="208.4" x2="455.4" y2="206.4"/>
		<line class="stm-4-5" x1="501.3" y1="159.8" x2="501" y2="160.1"/>
		<line class="stm-4-5" x1="497.7" y1="166.8" x2="502.8" y2="161.8"/>
		<polyline class="stm-4-5" points="498.2,167 503.4,161.8 501.3,159.8 		"/>
		<line class="stm-4-5" x1="501" y1="160.1" x2="502.8" y2="161.8"/>
		<line class="stm-4-5" x1="455.4" y1="206.4" x2="455.6" y2="206"/>
		<line class="stm-4-5" x1="498.6" y1="151.3" x2="472.5" y2="177.7"/>
		<line class="stm-4-5" x1="446.5" y1="204" x2="440.4" y2="197.8"/>
		<line class="stm-4-5" x1="440.4" y1="197.8" x2="443.5" y2="194.7"/>
		<line class="stm-4-5" x1="443.5" y1="194.7" x2="462.8" y2="175.2"/>
		<line class="stm-4-5" x1="462.8" y1="175.2" x2="489.2" y2="148.5"/>
		<line class="stm-4-5" x1="489.2" y1="148.5" x2="492.5" y2="145.1"/>
		<line class="stm-4-5" x1="496.2" y1="152.3" x2="471.2" y2="177.6"/>
		<line class="stm-4-5" x1="471.2" y1="177.6" x2="447.8" y2="201.2"/>
		<line class="stm-4-5" x1="495.9" y1="152" x2="470.8" y2="177.6"/>
		<line class="stm-4-5" x1="470.8" y1="177.6" x2="447.6" y2="201.1"/>
		<line class="stm-4-5" x1="491.7" y1="147.8" x2="464.2" y2="175.6"/>
		<line class="stm-4-5" x1="464.2" y1="175.6" x2="443.3" y2="196.7"/>
		<line class="stm-4-5" x1="491.4" y1="147.6" x2="463.9" y2="175.4"/>
		<line class="stm-4-5" x1="463.9" y1="175.4" x2="443.1" y2="196.6"/>
		<line class="stm-4-5" x1="443.1" y1="196.6" x2="443.3" y2="196.7"/>
		<line class="stm-4-5" x1="447.6" y1="201.1" x2="447.8" y2="201.2"/>
		<line class="stm-4-5" x1="445.4" y1="202.9" x2="470.5" y2="177.5"/>
		<line class="stm-4-5" x1="470.5" y1="177.5" x2="497.5" y2="150.1"/>
		<line class="stm-4-5" x1="472.5" y1="177.7" x2="498.6" y2="151.3"/>
		<line class="stm-4-5" x1="441.5" y1="199" x2="464.6" y2="175.7"/>
		<line class="stm-4-5" x1="464.6" y1="175.7" x2="493.6" y2="146.2"/>
		<line class="stm-4-5" x1="472.5" y1="177.7" x2="498.6" y2="151.3"/>
		<line class="stm-4-5" x1="452.3" y1="192" x2="467.4" y2="176.7"/>
		<line class="stm-4-5" x1="467.4" y1="176.7" x2="485.6" y2="158.2"/>
		<line class="stm-4-5" x1="491.4" y1="147.6" x2="491.7" y2="147.8"/>
		<line class="stm-4-5" x1="495.9" y1="152" x2="496.2" y2="152.3"/>
		<line class="stm-4-5" x1="485.6" y1="158.2" x2="485.4" y2="162.5"/>
		<line class="stm-4-5" x1="485.6" y1="158.2" x2="481.5" y2="158.5"/>
		<line class="stm-4-5" x1="492.5" y1="145.1" x2="498.6" y2="151.3"/>
		<line class="stm-4-5" x1="494.5" y1="153.6" x2="494.7" y2="153.8"/>
		<line class="stm-4-5" x1="450.4" y1="190" x2="454.3" y2="193.9"/>
		<line class="stm-4-5" x1="451.6" y1="188.8" x2="455.5" y2="192.6"/>
		<line class="stm-4-5" x1="452.9" y1="187.4" x2="456.8" y2="191.3"/>
		<line class="stm-4-5" x1="454.2" y1="186.1" x2="458.1" y2="190"/>
		<line class="stm-4-5" x1="455.4" y1="184.9" x2="459.4" y2="188.8"/>
		<line class="stm-4-5" x1="456.7" y1="183.5" x2="460.7" y2="187.4"/>
		<line class="stm-4-5" x1="459.3" y1="180.9" x2="463.2" y2="184.9"/>
		<line class="stm-4-5" x1="460.5" y1="179.6" x2="464.5" y2="183.5"/>
		<line class="stm-4-5" x1="461.9" y1="178.4" x2="465.8" y2="182.3"/>
		<line class="stm-4-5" x1="463.2" y1="177.1" x2="467" y2="180.9"/>
		<line class="stm-4-5" x1="464.4" y1="175.8" x2="468.4" y2="179.6"/>
		<line class="stm-4-5" x1="465.7" y1="174.5" x2="467.7" y2="176.5"/>
		<line class="stm-4-5" x1="467" y1="173.2" x2="471" y2="177"/>
		<line class="stm-4-5" x1="483.6" y1="156.3" x2="487.6" y2="160.2"/>
		<line class="stm-4-5" x1="498.6" y1="151.3" x2="472.5" y2="177.7"/>
		<line class="stm-4-5" x1="446.5" y1="204" x2="452.7" y2="210"/>
		<line class="stm-4-5" x1="452.7" y1="210" x2="455.8" y2="206.8"/>
		<line class="stm-4-5" x1="456.2" y1="206.5" x2="481.9" y2="180.5"/>
		<line class="stm-4-5" x1="482.2" y1="180.3" x2="501.5" y2="160.6"/>
		<line class="stm-4-5" x1="501.9" y1="160.2" x2="504.8" y2="157.3"/>
		<line class="stm-4-5" x1="497.6" y1="153.7" x2="473.5" y2="178"/>
		<line class="stm-4-5" x1="473.5" y1="178" x2="449.2" y2="202.7"/>
		<line class="stm-4-5" x1="497.8" y1="153.8" x2="473.9" y2="178"/>
		<line class="stm-4-5" x1="473.9" y1="178" x2="449.5" y2="202.9"/>
		<line class="stm-4-5" x1="502.1" y1="158.2" x2="480.7" y2="179.8"/>
		<line class="stm-4-5" x1="480.5" y1="180" x2="453.7" y2="207.1"/>
		<line class="stm-4-5" x1="502.3" y1="158.3" x2="481" y2="179.9"/>
		<line class="stm-4-5" x1="480.8" y1="180.1" x2="453.9" y2="207.4"/>
		<line class="stm-4-5" x1="453.9" y1="207.4" x2="453.7" y2="207.1"/>
		<line class="stm-4-5" x1="449.5" y1="202.9" x2="449.2" y2="202.7"/>
		<line class="stm-4-5" x1="447.7" y1="205" x2="474" y2="178.4"/>
		<line class="stm-4-5" x1="474" y1="178.4" x2="499.7" y2="152.3"/>
		<line class="stm-4-5" x1="472.5" y1="177.7" x2="498.6" y2="151.3"/>
		<line class="stm-4-5" x1="451.6" y1="208.9" x2="480.1" y2="180"/>
		<line class="stm-4-5" x1="480.4" y1="179.8" x2="503.7" y2="156.2"/>
		<line class="stm-4-5" x1="446.5" y1="204" x2="472.5" y2="177.7"/>
		<line class="stm-4-5" x1="458.4" y1="198.1" x2="477.1" y2="179.1"/>
		<line class="stm-4-5" x1="477.1" y1="179.1" x2="491.8" y2="164.2"/>
		<line class="stm-4-5" x1="502.3" y1="158.3" x2="502.1" y2="158.2"/>
		<line class="stm-4-5" x1="497.8" y1="153.8" x2="497.6" y2="153.7"/>
		<line class="stm-4-5" x1="491.8" y1="164.2" x2="487.5" y2="164.6"/>
		<line class="stm-4-5" x1="491.8" y1="164.2" x2="491.6" y2="168.5"/>
		<line class="stm-4-5" x1="504.8" y1="157.3" x2="498.6" y2="151.3"/>
		<line class="stm-4-5" x1="500.9" y1="159.9" x2="500.6" y2="159.7"/>
		<line class="stm-4-5" x1="496.3" y1="155.4" x2="496" y2="155.2"/>
		<line class="stm-4-5" x1="455.5" y1="205.8" x2="455.3" y2="205.6"/>
		<line class="stm-4-5" x1="460.4" y1="200" x2="456.5" y2="196"/>
		<line class="stm-4-5" x1="461.7" y1="198.7" x2="457.7" y2="194.8"/>
		<line class="stm-4-5" x1="463" y1="197.4" x2="459" y2="193.5"/>
		<line class="stm-4-5" x1="464.2" y1="196" x2="460.3" y2="192.2"/>
		<line class="stm-4-5" x1="465.6" y1="194.8" x2="461.5" y2="190.9"/>
		<line class="stm-4-5" x1="466.8" y1="193.5" x2="462.9" y2="189.6"/>
		<line class="stm-4-5" x1="469.4" y1="190.9" x2="465.5" y2="187"/>
		<line class="stm-4-5" x1="470.6" y1="189.6" x2="466.7" y2="185.7"/>
		<line class="stm-4-5" x1="472" y1="188.3" x2="468" y2="184.4"/>
		<line class="stm-4-5" x1="473.2" y1="187" x2="469.3" y2="183.2"/>
		<line class="stm-4-5" x1="474.5" y1="185.7" x2="470.6" y2="181.8"/>
		<line class="stm-4-5" x1="475.8" y1="184.4" x2="471.9" y2="180.5"/>
		<line class="stm-4-5" x1="477.1" y1="183.1" x2="473.1" y2="179.3"/>
		<line class="stm-4-5" x1="474.8" y1="178.2" x2="474.4" y2="177.9"/>
		<line class="stm-4-5" x1="478.3" y1="179.3" x2="475.7" y2="176.7"/>
		<line class="stm-4-5" x1="480.9" y1="179.3" x2="477" y2="175.3"/>
		<line class="stm-4-5" x1="493.7" y1="166.3" x2="489.8" y2="162.3"/>
		<line class="stm-4-5" x1="458" y1="182.3" x2="462" y2="186.1"/>
		<line class="stm-4-5" x1="468" y1="192.2" x2="464.1" y2="188.3"/>
		<line class="stm-4-5" x1="468.3" y1="171.9" x2="472.2" y2="175.8"/>
		<line class="stm-4-5" x1="469.5" y1="170.5" x2="473.5" y2="174.4"/>
		<line class="stm-4-5" x1="470.8" y1="169.3" x2="474.8" y2="173.1"/>
		<line class="stm-4-5" x1="472.1" y1="167.9" x2="476.1" y2="171.9"/>
		<line class="stm-4-5" x1="473.4" y1="166.7" x2="477.3" y2="170.5"/>
		<line class="stm-4-5" x1="474.7" y1="165.4" x2="478.6" y2="169.3"/>
		<line class="stm-4-5" x1="476" y1="164" x2="479.9" y2="167.9"/>
		<line class="stm-4-5" x1="477.2" y1="162.8" x2="481.1" y2="166.7"/>
		<line class="stm-4-5" x1="478.6" y1="161.4" x2="482.5" y2="165.4"/>
		<line class="stm-4-5" x1="479.8" y1="160.2" x2="483.7" y2="164"/>
		<line class="stm-4-5" x1="481.1" y1="158.9" x2="485.1" y2="162.8"/>
		<line class="stm-4-5" x1="482.4" y1="157.5" x2="486.3" y2="161.4"/>
		<line class="stm-4-5" x1="482.2" y1="177.9" x2="478.2" y2="174"/>
		<line class="stm-4-5" x1="483.5" y1="176.7" x2="479.6" y2="172.8"/>
		<line class="stm-4-5" x1="484.7" y1="175.3" x2="480.8" y2="171.4"/>
		<line class="stm-4-5" x1="486.1" y1="174" x2="482" y2="170.2"/>
		<line class="stm-4-5" x1="487.3" y1="172.8" x2="483.4" y2="168.8"/>
		<line class="stm-4-5" x1="488.5" y1="171.4" x2="484.6" y2="167.6"/>
		<line class="stm-4-5" x1="489.9" y1="170.2" x2="486" y2="166.3"/>
		<line class="stm-4-5" x1="491.1" y1="168.8" x2="487.2" y2="165"/>
		<line class="stm-4-5" x1="492.5" y1="167.6" x2="488.5" y2="163.7"/>
		<line class="stm-4-5" x1="446.2" y1="194.1" x2="450.1" y2="198.1"/>
		<line class="stm-4-5" x1="456.3" y1="204.1" x2="452.4" y2="200.2"/>
		<line class="stm-4-5" x1="487.8" y1="152.2" x2="491.7" y2="156.1"/>
		<line class="stm-4-5" x1="497.8" y1="162.1" x2="493.9" y2="158.2"/>
		<line class="stm-4-5" x1="467.7" y1="176.5" x2="469.6" y2="178.4"/>
		<line class="stm-4-5" x1="474.8" y1="178.2" x2="478.3" y2="181.8"/>
		<line class="stm-4-5" x1="478.3" y1="179.3" x2="479.7" y2="180.5"/>
		<polyline class="stm-4-5" points="497.7,166.8 497.6,167.7 497.5,168.5 497.4,169.4 497.2,170.2 496.9,171.1 496.6,171.9 496.3,172.8 
			495.9,173.5 495.6,174.3 495.1,175.2 494.7,176 494.2,176.8 493.7,177.6 493.1,178.5 492.6,179.3 492,180 491.3,180.8 
			490.7,181.5 490,182.3 489.2,183.1 488.4,183.8 487.6,184.5 486.7,185.3 485.8,186 485,186.8 484.1,187.4 483.2,188.1 
			482.2,188.8 481.1,189.4 480.6,189.8 480.2,190 480,190.2 479.6,190.5 479.2,190.7 478.7,191 478.1,191.2 477.9,191.5 
			477.6,191.7 477.1,191.8 476.8,192 476.3,192.2 476,192.6 475.4,192.8 475,193 473.6,193.8 472.2,194.5 470.7,195.2 469.2,195.8 
					"/>
		<polyline class="stm-4-5" points="498.2,167 498.1,167.9 497.9,168.8 497.7,169.6 497.5,170.5 497.3,171.3 497,172.2 496.7,173 
			496.4,173.9 495.9,174.7 495.5,175.6 495,176.3 494.6,177.1 494,177.9 493.5,178.8 492.9,179.6 492.2,180.4 491.6,181.2 
			490.9,181.9 490.2,182.7 489.4,183.4 488.6,184.2 487.9,185 487,185.6 486.2,186.4 485.3,187.1 484.3,187.8 483.4,188.5 
			482.4,189.2 481.4,189.9 480.2,190.6 479.2,191.2 478.1,191.8 477.7,192.1 477.3,192.2 477,192.5 476.7,192.7 476.3,192.8 
			476.1,193 475.8,193.1 475.5,193.3 475.4,193.4 475.2,193.4 475,193.6 474.8,193.7 474.5,193.8 474.4,193.8 474.3,193.9 
			474.2,193.9 473.9,194.1 472.4,194.8 471,195.5 469.5,196.2 		"/>
		<polyline class="stm-4-5" points="340.6,195.2 339.8,194.8 339,194.4 337.4,193.7 336,193 334.5,192.2 333.1,191.5 331.7,190.7 
			330.4,189.9 329.1,189.1 327.9,188.3 326.7,187.4 325.6,186.6 324.4,185.7 323.3,184.9 322.3,184 321.3,183.1 320.4,182.2 
			319.5,181.3 318.7,180.4 317.9,179.4 317.2,178.5 316.5,177.5 315.9,176.6 315.2,175.6 314.8,174.6 314.2,173.7 313.9,172.6 
			313.5,171.6 313.1,170.6 312.9,169.6 312.7,168.6 312.5,167.6 312.5,167.2 312.5,166.8 312.5,166.7 312.3,166.5 		"/>
		<line class="stm-4-5" x1="312.3" y1="166.5" x2="307.2" y2="161.2"/>
		<line class="stm-4-5" x1="352.5" y1="207.1" x2="340.6" y2="195.2"/>
		<line class="stm-4-5" x1="352" y1="207.7" x2="340.2" y2="195.8"/>
		<line class="stm-4-5" x1="352" y1="208.4" x2="339.9" y2="196.2"/>
		<line class="stm-4-5" x1="352" y1="207.7" x2="353.8" y2="206"/>
		<line class="stm-4-5" x1="352" y1="208.4" x2="354" y2="206.4"/>
		<line class="stm-4-5" x1="308.1" y1="159.8" x2="308.4" y2="160.1"/>
		<line class="stm-4-5" x1="311.7" y1="166.8" x2="306.6" y2="161.8"/>
		<polyline class="stm-4-5" points="311.2,167 306,161.8 308.1,159.8 		"/>
		<line class="stm-4-5" x1="308.4" y1="160.1" x2="306.6" y2="161.8"/>
		<line class="stm-4-5" x1="354" y1="206.4" x2="353.8" y2="206"/>
		<line class="stm-4-5" x1="310.8" y1="151.3" x2="336.9" y2="177.7"/>
		<line class="stm-4-5" x1="362.8" y1="204" x2="369" y2="197.8"/>
		<line class="stm-4-5" x1="369" y1="197.8" x2="365.9" y2="194.7"/>
		<line class="stm-4-5" x1="365.9" y1="194.7" x2="346.6" y2="175.2"/>
		<line class="stm-4-5" x1="346.6" y1="175.2" x2="320.2" y2="148.5"/>
		<line class="stm-4-5" x1="320.2" y1="148.5" x2="316.9" y2="145.1"/>
		<line class="stm-4-5" x1="313.2" y1="152.3" x2="338.2" y2="177.6"/>
		<line class="stm-4-5" x1="338.2" y1="177.6" x2="361.6" y2="201.2"/>
		<line class="stm-4-5" x1="313.5" y1="152" x2="338.5" y2="177.6"/>
		<line class="stm-4-5" x1="338.5" y1="177.6" x2="361.8" y2="201.1"/>
		<line class="stm-4-5" x1="317.7" y1="147.8" x2="345.1" y2="175.6"/>
		<line class="stm-4-5" x1="345.1" y1="175.6" x2="366.1" y2="196.7"/>
		<line class="stm-4-5" x1="317.9" y1="147.6" x2="345.5" y2="175.4"/>
		<line class="stm-4-5" x1="345.5" y1="175.4" x2="366.3" y2="196.6"/>
		<line class="stm-4-5" x1="366.3" y1="196.6" x2="366.1" y2="196.7"/>
		<line class="stm-4-5" x1="361.8" y1="201.1" x2="361.6" y2="201.2"/>
		<line class="stm-4-5" x1="364" y1="202.9" x2="338.9" y2="177.5"/>
		<line class="stm-4-5" x1="338.9" y1="177.5" x2="311.9" y2="150.1"/>
		<line class="stm-4-5" x1="336.9" y1="177.7" x2="310.8" y2="151.3"/>
		<line class="stm-4-5" x1="367.9" y1="199" x2="344.8" y2="175.7"/>
		<line class="stm-4-5" x1="344.8" y1="175.7" x2="315.8" y2="146.2"/>
		<line class="stm-4-5" x1="336.9" y1="177.7" x2="310.8" y2="151.3"/>
		<line class="stm-4-5" x1="357.1" y1="192" x2="342" y2="176.7"/>
		<line class="stm-4-5" x1="342" y1="176.7" x2="323.8" y2="158.2"/>
		<line class="stm-4-5" x1="317.9" y1="147.6" x2="317.7" y2="147.8"/>
		<line class="stm-4-5" x1="313.5" y1="152" x2="313.2" y2="152.3"/>
		<line class="stm-4-5" x1="323.8" y1="158.2" x2="324" y2="162.5"/>
		<line class="stm-4-5" x1="323.8" y1="158.2" x2="327.9" y2="158.5"/>
		<line class="stm-4-5" x1="316.9" y1="145.1" x2="310.8" y2="151.3"/>
		<line class="stm-4-5" x1="314.9" y1="153.6" x2="314.7" y2="153.8"/>
		<line class="stm-4-5" x1="359" y1="190" x2="355.1" y2="193.9"/>
		<line class="stm-4-5" x1="357.8" y1="188.8" x2="353.9" y2="192.6"/>
		<line class="stm-4-5" x1="356.5" y1="187.4" x2="352.5" y2="191.3"/>
		<line class="stm-4-5" x1="355.2" y1="186.1" x2="351.3" y2="190"/>
		<line class="stm-4-5" x1="354" y1="184.9" x2="350" y2="188.8"/>
		<line class="stm-4-5" x1="352.6" y1="183.5" x2="348.7" y2="187.4"/>
		<line class="stm-4-5" x1="350.1" y1="180.9" x2="346.2" y2="184.9"/>
		<line class="stm-4-5" x1="348.8" y1="179.6" x2="344.9" y2="183.5"/>
		<line class="stm-4-5" x1="347.5" y1="178.4" x2="343.6" y2="182.3"/>
		<line class="stm-4-5" x1="346.2" y1="177.1" x2="342.3" y2="180.9"/>
		<line class="stm-4-5" x1="344.9" y1="175.8" x2="341" y2="179.6"/>
		<line class="stm-4-5" x1="343.6" y1="174.5" x2="341.7" y2="176.5"/>
		<line class="stm-4-5" x1="342.3" y1="173.2" x2="338.4" y2="177"/>
		<line class="stm-4-5" x1="325.8" y1="156.3" x2="321.7" y2="160.2"/>
		<line class="stm-4-5" x1="310.8" y1="151.3" x2="336.9" y2="177.7"/>
		<line class="stm-4-5" x1="362.8" y1="204" x2="356.7" y2="210"/>
		<line class="stm-4-5" x1="356.7" y1="210" x2="353.5" y2="206.8"/>
		<line class="stm-4-5" x1="353.2" y1="206.5" x2="327.5" y2="180.5"/>
		<line class="stm-4-5" x1="327.2" y1="180.3" x2="307.9" y2="160.6"/>
		<line class="stm-4-5" x1="307.5" y1="160.2" x2="304.6" y2="157.3"/>
		<line class="stm-4-5" x1="311.8" y1="153.7" x2="335.9" y2="178"/>
		<line class="stm-4-5" x1="335.9" y1="178" x2="360.2" y2="202.7"/>
		<line class="stm-4-5" x1="311.6" y1="153.8" x2="335.5" y2="178"/>
		<line class="stm-4-5" x1="335.5" y1="178" x2="359.9" y2="202.9"/>
		<line class="stm-4-5" x1="307.3" y1="158.2" x2="328.7" y2="179.8"/>
		<line class="stm-4-5" x1="328.9" y1="180" x2="355.7" y2="207.1"/>
		<line class="stm-4-5" x1="307.1" y1="158.3" x2="328.4" y2="179.9"/>
		<line class="stm-4-5" x1="328.6" y1="180.1" x2="355.4" y2="207.4"/>
		<line class="stm-4-5" x1="355.4" y1="207.4" x2="355.7" y2="207.1"/>
		<line class="stm-4-5" x1="359.9" y1="202.9" x2="360.2" y2="202.7"/>
		<line class="stm-4-5" x1="361.7" y1="205" x2="335.4" y2="178.4"/>
		<line class="stm-4-5" x1="335.4" y1="178.4" x2="309.7" y2="152.3"/>
		<line class="stm-4-5" x1="336.9" y1="177.7" x2="310.8" y2="151.3"/>
		<line class="stm-4-5" x1="357.8" y1="208.9" x2="329.2" y2="180"/>
		<line class="stm-4-5" x1="329" y1="179.8" x2="305.7" y2="156.2"/>
		<line class="stm-4-5" x1="362.8" y1="204" x2="336.9" y2="177.7"/>
		<line class="stm-4-5" x1="351" y1="198.1" x2="332.3" y2="179.1"/>
		<line class="stm-4-5" x1="332.3" y1="179.1" x2="317.6" y2="164.2"/>
		<line class="stm-4-5" x1="307.1" y1="158.3" x2="307.3" y2="158.2"/>
		<line class="stm-4-5" x1="311.6" y1="153.8" x2="311.8" y2="153.7"/>
		<line class="stm-4-5" x1="317.6" y1="164.2" x2="321.9" y2="164.6"/>
		<line class="stm-4-5" x1="317.6" y1="164.2" x2="317.8" y2="168.5"/>
		<line class="stm-4-5" x1="304.6" y1="157.3" x2="310.8" y2="151.3"/>
		<line class="stm-4-5" x1="308.5" y1="159.9" x2="308.8" y2="159.7"/>
		<line class="stm-4-5" x1="313.1" y1="155.4" x2="313.3" y2="155.2"/>
		<line class="stm-4-5" x1="353.9" y1="205.8" x2="354.1" y2="205.6"/>
		<line class="stm-4-5" x1="349" y1="200" x2="352.9" y2="196"/>
		<line class="stm-4-5" x1="347.7" y1="198.7" x2="351.6" y2="194.8"/>
		<line class="stm-4-5" x1="346.4" y1="197.4" x2="350.4" y2="193.5"/>
		<line class="stm-4-5" x1="345.1" y1="196" x2="349.1" y2="192.2"/>
		<line class="stm-4-5" x1="343.8" y1="194.8" x2="347.8" y2="190.9"/>
		<line class="stm-4-5" x1="342.6" y1="193.5" x2="346.5" y2="189.6"/>
		<line class="stm-4-5" x1="340" y1="190.9" x2="343.9" y2="187"/>
		<line class="stm-4-5" x1="338.8" y1="189.6" x2="342.7" y2="185.7"/>
		<line class="stm-4-5" x1="337.4" y1="188.3" x2="341.3" y2="184.4"/>
		<line class="stm-4-5" x1="336.2" y1="187" x2="340.1" y2="183.2"/>
		<line class="stm-4-5" x1="334.8" y1="185.7" x2="338.8" y2="181.8"/>
		<line class="stm-4-5" x1="333.6" y1="184.4" x2="337.5" y2="180.5"/>
		<line class="stm-4-5" x1="332.3" y1="183.1" x2="336.3" y2="179.3"/>
		<line class="stm-4-5" x1="334.6" y1="178.2" x2="335" y2="177.9"/>
		<line class="stm-4-5" x1="331" y1="179.3" x2="333.7" y2="176.7"/>
		<line class="stm-4-5" x1="328.5" y1="179.3" x2="332.4" y2="175.3"/>
		<line class="stm-4-5" x1="315.7" y1="166.3" x2="319.6" y2="162.3"/>
		<line class="stm-4-5" x1="351.4" y1="182.3" x2="347.4" y2="186.1"/>
		<line class="stm-4-5" x1="341.3" y1="192.2" x2="345.3" y2="188.3"/>
		<line class="stm-4-5" x1="341.1" y1="171.9" x2="337.2" y2="175.8"/>
		<line class="stm-4-5" x1="339.9" y1="170.5" x2="335.9" y2="174.4"/>
		<line class="stm-4-5" x1="338.5" y1="169.3" x2="334.6" y2="173.1"/>
		<line class="stm-4-5" x1="337.3" y1="167.9" x2="333.3" y2="171.9"/>
		<line class="stm-4-5" x1="336" y1="166.7" x2="332" y2="170.5"/>
		<line class="stm-4-5" x1="334.7" y1="165.4" x2="330.8" y2="169.3"/>
		<line class="stm-4-5" x1="333.4" y1="164" x2="329.5" y2="167.9"/>
		<line class="stm-4-5" x1="332.2" y1="162.8" x2="328.2" y2="166.7"/>
		<line class="stm-4-5" x1="330.8" y1="161.4" x2="326.9" y2="165.4"/>
		<line class="stm-4-5" x1="329.6" y1="160.2" x2="325.7" y2="164"/>
		<line class="stm-4-5" x1="328.2" y1="158.9" x2="324.3" y2="162.8"/>
		<line class="stm-4-5" x1="327" y1="157.5" x2="323.1" y2="161.4"/>
		<line class="stm-4-5" x1="327.2" y1="177.9" x2="331.2" y2="174"/>
		<line class="stm-4-5" x1="325.9" y1="176.7" x2="329.8" y2="172.8"/>
		<line class="stm-4-5" x1="324.7" y1="175.3" x2="328.6" y2="171.4"/>
		<line class="stm-4-5" x1="323.3" y1="174" x2="327.3" y2="170.2"/>
		<line class="stm-4-5" x1="322.1" y1="172.8" x2="326" y2="168.8"/>
		<line class="stm-4-5" x1="320.8" y1="171.4" x2="324.8" y2="167.6"/>
		<line class="stm-4-5" x1="319.5" y1="170.2" x2="323.4" y2="166.3"/>
		<line class="stm-4-5" x1="318.3" y1="168.8" x2="322.2" y2="165"/>
		<line class="stm-4-5" x1="316.9" y1="167.6" x2="320.8" y2="163.7"/>
		<line class="stm-4-5" x1="363.2" y1="194.1" x2="359.3" y2="198.1"/>
		<line class="stm-4-5" x1="353.1" y1="204.1" x2="357" y2="200.2"/>
		<line class="stm-4-5" x1="321.6" y1="152.2" x2="317.7" y2="156.1"/>
		<line class="stm-4-5" x1="311.6" y1="162.1" x2="315.5" y2="158.2"/>
		<line class="stm-4-5" x1="341.7" y1="176.5" x2="339.8" y2="178.4"/>
		<line class="stm-4-5" x1="334.6" y1="178.2" x2="331" y2="181.8"/>
		<line class="stm-4-5" x1="331" y1="179.3" x2="329.7" y2="180.5"/>
		<polyline class="stm-4-5" points="311.7,166.8 311.8,167.7 311.9,168.5 312,169.4 312.2,170.2 312.5,171.1 312.8,171.9 313.1,172.8 
			313.5,173.5 313.8,174.3 314.2,175.2 314.7,176 315.1,176.8 315.7,177.6 316.3,178.5 316.8,179.3 317.4,180 318,180.8 
			318.7,181.5 319.4,182.3 320.2,183.1 321,183.8 321.7,184.5 322.6,185.3 323.5,186 324.4,186.8 325.3,187.4 326.2,188.1 
			327.2,188.8 328.2,189.4 328.8,189.8 329.1,190 329.4,190.2 329.8,190.5 330.1,190.7 330.7,191 331.3,191.2 331.5,191.5 
			331.8,191.7 332.3,191.8 332.6,192 333.1,192.2 333.4,192.6 333.9,192.8 334.4,193 335.7,193.8 337.2,194.5 338.7,195.2 
			340.2,195.8 		"/>
		<polyline class="stm-4-5" points="311.2,167 311.3,167.9 311.4,168.8 311.7,169.6 311.9,170.5 312.1,171.3 312.3,172.2 312.7,173 
			313,173.9 313.5,174.7 313.9,175.6 314.4,176.3 314.8,177.1 315.4,177.9 315.9,178.8 316.5,179.6 317.2,180.4 317.8,181.2 
			318.5,181.9 319.2,182.7 320,183.4 320.7,184.2 321.5,185 322.4,185.6 323.2,186.4 324.1,187.1 325.1,187.8 326,188.5 327,189.2 
			328,189.9 329.1,190.6 330.1,191.2 331.3,191.8 331.7,192.1 332,192.2 332.4,192.5 332.7,192.7 333.1,192.8 333.3,193 
			333.6,193.1 333.8,193.3 333.9,193.4 334.2,193.4 334.4,193.6 334.6,193.7 334.8,193.8 335,193.8 335.1,193.9 335.2,193.9 
			335.5,194.1 337,194.8 338.4,195.5 339.9,196.2 		"/>
		<polyline class="stm-4-5" points="440.4,197.9 434.4,194.5 428.3,191.9 421.7,189.7 414.9,188.3 408.2,187.7 401.4,187.7 394.5,188.3 
			387.9,189.7 381.3,191.9 375,194.5 369,197.9 		"/>
		<polyline class="stm-4-5" points="441.2,197 435.1,193.6 428.8,190.9 422.1,188.7 415.2,187.2 408.3,186.6 401.3,186.6 394.2,187.2 
			387.5,188.7 380.8,190.9 374.3,193.6 368.2,197 		"/>
		<polyline class="stm-4-5" points="490.5,147 476.2,138.9 461.3,132.7 445.6,127.4 429.3,124.1 413.1,122.6 396.8,122.6 380.1,124.1 
			364.3,127.4 348.5,132.7 333.3,138.9 318.9,147 		"/>
		<polyline class="stm-4-5" points="492.5,145 477.8,136.7 462.6,130.3 446.5,124.9 429.9,121.5 413.3,120 396.6,120 379.5,121.5 
			363.4,124.9 347.3,130.3 331.6,136.7 317,145 		"/>
	</g>
</g>
<g id="Layer_2">
</g>
<g id="Layer_3">
</g>
<g id="Layer_4">
</g>
<g id="Layer_5">
</g>
<g id="Layer_6">
</g>
</svg>
